<svg xmlns="http://www.w3.org/2000/svg" xmlns:xlink="http://www.w3.org/1999/xlink" width="129" height="48" viewBox="0 0 129 48">
  <defs>
    <clipPath id="clip-Agrotiko_OffWhite">
      <rect width="129" height="48"/>
    </clipPath>
  </defs>
  <g id="Agrotiko_OffWhite" data-name="Agrotiko OffWhite" clip-path="url(#clip-Agrotiko_OffWhite)">
    <g id="Group_144" data-name="Group 144" transform="translate(-46.013 -33.182)">
      <path id="Path_403" data-name="Path 403" d="M58.052,48.6,65.72,69.175H63.174l-2.225-6.146H52.726L50.56,69.175H48.013L55.769,48.6Zm-1.258,2.9-3.337,9.424h6.732Z" transform="translate(0 -2.072)" fill="#f2f2f2"/>
      <path id="Path_404" data-name="Path 404" d="M92.819,62.05h2.517L100.077,74.4l4.566-12.352h2.488l-6.059,14.985V83.5H98.877V77.182Z" transform="translate(-27.159 -10.224)" fill="#f2f2f2"/>
      <path id="Path_405" data-name="Path 405" d="M141.4,61.233c4.127,0,7.7,2.722,7.7,7.844,0,5.063-3.278,8.049-7.4,8.049a6.3,6.3,0,0,1-5.883-3.571v9.454h-2.2V70.394C133.613,64.482,137.359,61.233,141.4,61.233Zm-.029,2.019c-3.161,0-5.386,2.664-5.561,6,.644,3.336,2.692,5.854,5.854,5.854,2.956,0,5.122-2.136,5.122-5.883C146.784,65.1,144.325,63.252,141.369,63.252Z" transform="translate(-51.885 -9.729)" fill="#f2f2f2"/>
      <path id="Path_406" data-name="Path 406" d="M187.556,61.233c3.688,0,8.049,2.458,8.049,7.844a7.793,7.793,0,0,1-8.107,8.049,7.478,7.478,0,0,1-7.814-7.873A7.728,7.728,0,0,1,187.556,61.233Zm.059,2.019a5.488,5.488,0,0,0-5.62,5.854c0,4.156,2.634,6,5.62,6,3.044,0,5.678-1.9,5.678-5.824C193.293,65.243,190.483,63.252,187.615,63.252Z" transform="translate(-79.81 -9.729)" fill="#f2f2f2"/>
      <path id="Path_407" data-name="Path 407" d="M227.89,63.952H223v-1.9h13.58v1.9h-6.5v7.932c0,2.839,1.024,3.746,2.693,3.746a5.192,5.192,0,0,0,2.605-.615l.644,1.668a7.029,7.029,0,0,1-3.688.937c-2.575,0-4.449-1.522-4.449-5.385Z" transform="translate(-106.067 -10.224)" fill="#f2f2f2"/>
      <path id="Path_408" data-name="Path 408" d="M265.58,62.05h2.2V72.236c0,2.546.732,3.4,2.4,3.4a6.24,6.24,0,0,0,1.873-.293l.439,1.814a7.128,7.128,0,0,1-2.751.469c-2.575,0-4.156-1.464-4.156-5.034Z" transform="translate(-131.875 -10.224)" fill="#f2f2f2"/>
      <path id="Path_409" data-name="Path 409" d="M291.924,62.05v7.229l6.468-7.229h2.722l-7.142,7.493,7.7,7.785h-2.9l-6.848-7.083v7.083h-2.2V62.05Z" transform="translate(-146.513 -10.224)" fill="#f2f2f2"/>
      <path id="Path_410" data-name="Path 410" d="M329.255,51.5c3.688,0,8.049,2.458,8.049,7.844A7.793,7.793,0,0,1,329.2,67.4a7.478,7.478,0,0,1-7.815-7.873A7.728,7.728,0,0,1,329.255,51.5Zm.059,2.019a5.488,5.488,0,0,0-5.62,5.854c0,4.156,2.634,6,5.62,6,3.043,0,5.678-1.9,5.678-5.824C334.992,55.514,332.182,53.523,329.314,53.523Zm1.726-8.341-.937,4.624h-1.99l.761-4.624Z" transform="translate(-165.699 0)" fill="#f2f2f2"/>
    </g>
  </g>
</svg>
