<svg width="61" height="60" viewBox="0 0 61 60" fill="none" xmlns="http://www.w3.org/2000/svg">
<g opacity="0.5">
<g opacity="0.5">
<path opacity="0.5" d="M6.12697 16.0049L6.12476 16.0005L6.12697 16.0049Z" fill="#D663FF"/>
</g>
</g>
<g opacity="0.5">
<g opacity="0.5">
<path opacity="0.5" d="M6.12697 16.0049L6.12476 16.0005L6.12697 16.0049Z" fill="#9963FF"/>
</g>
</g>
<path d="M30.3753 30.0001L42.4998 37L30.3753 58C45.8391 58 58.375 45.4641 58.375 30.0001C58.375 24.8985 57.0039 20.1198 54.6199 16H30.375L30.3753 30.0001Z" fill="#FBBF12"/>
<path d="M30.3758 2C20.1173 2 11.1675 7.63443 6.375 16.0034L18.3742 37L30.3758 30.0002V16.0001H54.375C49.5817 7.63319 40.6331 2 30.3758 2Z" fill="url(#paint0_linear_11169_196885)"/>
<path d="M2.37516 29.9979C2.37516 45.4631 14.8717 58 30.2881 58L42.375 36.9983L30.2881 29.9979L18.2011 36.9983L6.11664 16C3.74141 20.119 2.375 24.8964 2.375 29.9975" fill="url(#paint1_linear_11169_196885)"/>
<path d="M44.375 30C44.375 37.7319 38.1069 44 30.375 44C22.6431 44 16.375 37.7319 16.375 30C16.375 22.2681 22.6431 16 30.375 16C38.1069 16 44.375 22.2681 44.375 30Z" fill="white"/>
<path d="M41.375 30C41.375 36.075 36.45 41 30.375 41C24.3 41 19.375 36.075 19.375 30C19.375 23.925 24.3 19 30.375 19C36.45 19 41.375 23.925 41.375 30Z" fill="#1A73E8"/>
<defs>
<linearGradient id="paint0_linear_11169_196885" x1="14.6898" y1="19.4998" x2="39.7676" y2="19.4998" gradientUnits="userSpaceOnUse">
<stop stop-color="#DB3328"/>
<stop offset="1" stop-color="#E53D30"/>
</linearGradient>
<linearGradient id="paint1_linear_11169_196885" x1="13.0123" y1="20.9862" x2="23.4131" y2="38.9437" gradientUnits="userSpaceOnUse">
<stop stop-color="#32A651"/>
<stop offset="1" stop-color="#279847"/>
</linearGradient>
</defs>
</svg>
