<svg width="48" height="48" viewBox="0 0 48 48" fill="none" xmlns="http://www.w3.org/2000/svg">
<g clip-path="url(#clip0)">
<path d="M39.8646 22.6471H38.2339C38.2089 22.6471 38.1841 22.6521 38.161 22.6617C38.1378 22.6713 38.1168 22.6854 38.0992 22.7032C38.0816 22.721 38.0676 22.7421 38.0582 22.7653C38.0488 22.7886 38.044 22.8134 38.0443 22.8384V27.0177C38.0443 27.0558 38.0291 27.0924 38.0021 27.1194C37.9751 27.1464 37.9385 27.1616 37.9003 27.1616H32.8778C32.8396 27.1616 32.803 27.1464 32.776 27.1194C32.7491 27.0924 32.7339 27.0558 32.7339 27.0177V22.8384C32.7341 22.8133 32.7293 22.7883 32.7198 22.7649C32.7102 22.7416 32.6962 22.7204 32.6783 22.7026C32.6605 22.6848 32.6393 22.6707 32.616 22.6612C32.5927 22.6517 32.5677 22.6469 32.5425 22.6471H30.9135C30.8883 22.6469 30.8634 22.6517 30.84 22.6612C30.8167 22.6707 30.7955 22.6848 30.7777 22.7026C30.7599 22.7204 30.7458 22.7416 30.7363 22.7649C30.7267 22.7883 30.7219 22.8133 30.7222 22.8384V33.5066C30.7222 33.5574 30.7423 33.606 30.7782 33.6419C30.8141 33.6778 30.8628 33.698 30.9135 33.698H32.5476C32.5981 33.6975 32.6463 33.6772 32.6818 33.6413C32.7173 33.6055 32.7373 33.5571 32.7373 33.5066V29.3206C32.7373 29.2825 32.7524 29.2458 32.7794 29.2189C32.8064 29.1919 32.843 29.1767 32.8812 29.1767H37.9037C37.9419 29.1767 37.9785 29.1919 38.0055 29.2189C38.0325 29.2458 38.0477 29.2825 38.0477 29.3206V33.5032C38.0477 33.5537 38.0676 33.6021 38.1031 33.6379C38.1386 33.6738 38.1869 33.6941 38.2373 33.6946H39.8731C39.9236 33.6941 39.9718 33.6738 40.0073 33.6379C40.0428 33.6021 40.0628 33.5537 40.0628 33.5032V22.8351C40.0623 22.8096 40.0568 22.7846 40.0466 22.7613C40.0363 22.738 40.0216 22.717 40.0031 22.6995C39.9847 22.682 39.9629 22.6684 39.9392 22.6594C39.9154 22.6504 39.89 22.6462 39.8646 22.6471Z" fill="white"/>
<path d="M28.3904 19.9087V18.3237C28.3904 18.2729 28.3702 18.2243 28.3344 18.1884C28.2985 18.1525 28.2498 18.1323 28.1991 18.1323H19.7187C19.6935 18.1321 19.6685 18.1369 19.6452 18.1464C19.6219 18.156 19.6007 18.1701 19.5829 18.1879C19.5651 18.2057 19.551 18.2269 19.5415 18.2502C19.5319 18.2735 19.5271 18.2985 19.5274 18.3237V28.9919C19.5274 29.0426 19.5475 29.0913 19.5834 29.1272C19.6193 29.163 19.668 29.1832 19.7187 29.1832H28.1991C28.2498 29.1832 28.2985 29.163 28.3344 29.1272C28.3702 29.0913 28.3904 29.0426 28.3904 28.9919V27.4103C28.3904 27.3595 28.3702 27.3108 28.3344 27.275C28.2985 27.2391 28.2498 27.2189 28.1991 27.2189H21.6864C21.6482 27.2189 21.6116 27.2037 21.5846 27.1767C21.5576 27.1498 21.5424 27.1131 21.5424 27.075V24.7839C21.5429 24.7463 21.558 24.7103 21.5846 24.6838C21.6112 24.6572 21.6471 24.6421 21.6847 24.6416H26.7191C26.7697 24.6412 26.8181 24.6209 26.8539 24.5851C26.8897 24.5493 26.91 24.5009 26.9104 24.4503V22.8602C26.9104 22.8094 26.8902 22.7608 26.8544 22.7249C26.8185 22.689 26.7698 22.6688 26.7191 22.6688H21.6779C21.6397 22.6688 21.6031 22.6537 21.5761 22.6267C21.5491 22.5997 21.534 22.5631 21.534 22.5249V20.2456C21.534 20.2078 21.5489 20.1714 21.5755 20.1445C21.6022 20.1175 21.6383 20.1022 21.6762 20.1017H28.1923C28.2181 20.1024 28.2437 20.0979 28.2677 20.0885C28.2917 20.0791 28.3136 20.065 28.3321 20.047C28.3505 20.029 28.3652 20.0075 28.3752 19.9837C28.3853 19.96 28.3904 19.9345 28.3904 19.9087Z" fill="white"/>
<path d="M12.4851 13.6177H10.2414C10.185 13.617 10.1295 13.6326 10.0818 13.6626C10.034 13.6927 9.99595 13.7359 9.97214 13.787L5.3425 24.1876C5.31965 24.2392 5.31005 24.2957 5.31456 24.3519C5.31908 24.4081 5.33757 24.4624 5.36835 24.5096C5.39914 24.5569 5.44124 24.5957 5.49084 24.6226C5.54044 24.6495 5.59597 24.6635 5.65238 24.6635H17.0792C17.1354 24.6632 17.1908 24.649 17.2401 24.622C17.2895 24.595 17.3314 24.5561 17.362 24.5089C17.3926 24.4617 17.4109 24.4076 17.4153 24.3515C17.4198 24.2954 17.4102 24.2391 17.3874 24.1876L12.7543 13.7921C12.7313 13.74 12.6935 13.6958 12.6457 13.6648C12.5979 13.6338 12.5421 13.6174 12.4851 13.6177ZM8.25169 22.5536L11.2456 15.8326C11.2556 15.8098 11.2721 15.7904 11.293 15.7768C11.3139 15.7632 11.3383 15.756 11.3632 15.756C11.3882 15.756 11.4126 15.7632 11.4335 15.7768C11.4543 15.7904 11.4708 15.8098 11.4809 15.8326L14.4782 22.5536C14.488 22.5757 14.4922 22.5999 14.4904 22.624C14.4885 22.6481 14.4807 22.6714 14.4676 22.6917C14.4544 22.7121 14.4365 22.7288 14.4153 22.7405C14.3941 22.7521 14.3703 22.7583 14.3461 22.7584H8.38038C8.35619 22.7583 8.33242 22.7521 8.31121 22.7405C8.29 22.7288 8.27203 22.7121 8.25892 22.6917C8.24581 22.6714 8.23798 22.6481 8.23612 22.624C8.23427 22.5999 8.23846 22.5757 8.2483 22.5536H8.25169Z" fill="white"/>
<path d="M34.2478 4.14689C36.8552 5.49248 39.1721 7.33847 41.0662 9.57947C42.9602 11.8205 44.3943 14.4126 45.2866 17.2078C46.1789 20.003 46.5119 22.9467 46.2665 25.8706C46.0212 28.7945 45.2024 31.6415 43.8568 34.2489C42.5112 36.8564 40.6652 39.1733 38.4242 41.0673C36.1832 42.9614 33.5911 44.3955 30.7958 45.2877C28.0006 46.18 25.057 46.513 22.1331 46.2677C19.2091 46.0223 16.3622 45.2035 13.7547 43.8579L12.9961 45.3277C15.7962 46.7732 18.8537 47.6529 21.9938 47.9168C25.134 48.1806 28.2953 47.8234 31.2974 46.8654C34.2995 45.9075 37.0835 44.3677 39.4905 42.3338C41.8975 40.2999 43.8803 37.8119 45.3258 35.0118C46.7712 32.2116 47.6509 29.1542 47.9148 26.014C48.1786 22.8739 47.8214 19.7125 46.8635 16.7104C45.9055 13.7084 44.3657 10.9243 42.3318 8.51737C40.298 6.11038 37.8099 4.12757 35.0098 2.68213L34.2478 4.14689Z" fill="white"/>
<path d="M13.7547 43.8578C8.50051 41.1344 4.54161 36.4375 2.74698 30.7981C0.952358 25.1588 1.46865 19.0377 4.18253 13.7786C6.89642 8.51952 11.5861 4.55211 17.2222 2.74725C22.8584 0.942398 28.9803 1.44758 34.2443 4.15192L35.003 2.68208C32.2028 1.23664 29.1454 0.356888 26.0052 0.0930471C22.8651 -0.170794 19.7037 0.186446 16.7016 1.14437C10.6387 3.07899 5.59252 7.34288 2.67332 12.998C-0.245876 18.6532 -0.799007 25.2364 1.13561 31.2994C3.07023 37.3623 7.33412 42.4085 12.9893 45.3277L13.7547 43.8578Z" fill="white"/>
</g>
<defs>
<clipPath id="clip0">
<rect width="48" height="48" fill="white"/>
</clipPath>
</defs>
</svg>
