<svg xmlns="http://www.w3.org/2000/svg" xmlns:xlink="http://www.w3.org/1999/xlink" width="331" height="48" viewBox="0 0 331 48">
  <defs>
    <clipPath id="clip-path">
      <rect id="Rectangle_14" data-name="Rectangle 14" width="327.215" height="48" fill="#f2f2f2"/>
    </clipPath>
    <clipPath id="clip-DEH_e_self-metering_offwhite">
      <rect width="331" height="48"/>
    </clipPath>
  </defs>
  <g id="DEH_e_self-metering_offwhite" data-name="DEH e self-metering offwhite" clip-path="url(#clip-DEH_e_self-metering_offwhite)">
    <g id="Group_192" data-name="Group 192">
      <g id="Group_191" data-name="Group 191" clip-path="url(#clip-path)">
        <path id="Path_651" data-name="Path 651" d="M43.332,30.761c5.958,0,10.758,3.814,10.758,11.786A7.039,7.039,0,0,1,53.961,44H36.605c.426,4.5,3.127,6.685,7.842,6.685a14.937,14.937,0,0,0,7.714-1.928l.813,3.214a16.81,16.81,0,0,1-9.042,2.357c-7.457,0-11.828-4.286-11.828-11.571,0-7.5,4.971-12,11.228-12M43.247,34.4c-3.6,0-6.044,2.186-6.6,6.514H49.589C49.161,36.5,46.8,34.4,43.247,34.4" transform="translate(-19.316 -18.508)" fill="#f2f2f2"/>
        <path id="Path_652" data-name="Path 652" d="M43.558,52.066A23.891,23.891,0,0,1,32.539,49.36l1.332-2.568A21.1,21.1,0,0,0,53.3,9.325l1.332-2.568A24.01,24.01,0,0,1,43.558,52.066" transform="translate(-19.578 -4.066)" fill="#f2f2f2"/>
        <path id="Path_653" data-name="Path 653" d="M12.961,45.294a23.995,23.995,0,0,1,22.09-42.6L33.72,5.259A21.1,21.1,0,0,0,14.293,42.727Z" transform="translate(0 0)" fill="#f2f2f2"/>
        <path id="Path_654" data-name="Path 654" d="M143.915,50.235a14.3,14.3,0,0,0,7.078,1.931c2.96,0,4.976-.815,4.976-3.089,0-5.147-12.612-.772-12.612-10,0-4.118,3.217-6.906,8.794-6.906a15.855,15.855,0,0,1,7.335,1.8l-.9,3.646a12.379,12.379,0,0,0-6.306-1.845c-2.574,0-4.59,1.073-4.59,3.046,0,5.705,12.526,1.33,12.526,9.909,0,4.29-4.118,6.993-9.309,6.993a19.02,19.02,0,0,1-7.936-1.8Z" transform="translate(-86.023 -19.359)" fill="#f2f2f2"/>
        <path id="Path_655" data-name="Path 655" d="M204.882,32.175c5.963,0,10.767,3.818,10.767,11.8a7.092,7.092,0,0,1-.129,1.459H198.147c.429,4.5,3.132,6.692,7.85,6.692a14.954,14.954,0,0,0,7.721-1.93l.815,3.217a16.831,16.831,0,0,1-9.051,2.359c-7.464,0-11.84-4.29-11.84-11.582,0-7.507,4.976-12.011,11.239-12.011m-.086,3.646c-3.6,0-6.048,2.188-6.606,6.521h12.955c-.429-4.419-2.788-6.521-6.349-6.521" transform="translate(-116.511 -19.359)" fill="#f2f2f2"/>
        <rect id="Rectangle_12" data-name="Rectangle 12" width="4.29" height="30.157" transform="translate(103.699 5.738)" fill="#f2f2f2"/>
        <path id="Path_656" data-name="Path 656" d="M280.523,24.7V21.263H284c.129-5.576,3.26-8.15,8.451-8.15a10.287,10.287,0,0,1,3.3.429l-.558,3.432a10.729,10.729,0,0,0-2.617-.386c-2.66,0-4.289,1.158-4.289,4.676h6.005V24.7h-6.005v19.09H284V24.7Z" transform="translate(-168.785 -7.89)" fill="#f2f2f2"/>
        <rect id="Rectangle_13" data-name="Rectangle 13" width="12.311" height="3.217" transform="translate(126.345 21.91)" fill="#f2f2f2"/>
        <path id="Path_657" data-name="Path 657" d="M366.059,32.8v4.762c2.145-3.561,4.933-5.276,8.622-5.276,3.3,0,6.263,1.458,7.25,5.877,2.188-3.99,5.019-5.877,8.837-5.877,4.118,0,7.721,2.231,7.721,9.394V55.319H394.2V42.063c0-4.161-1.759-6.005-4.5-6.005-3.26,0-5.576,2.4-7.421,7.164v12.1h-4.29V42.063c0-4.161-1.716-6.005-4.418-6.005-3.3,0-5.619,2.4-7.507,7.207V55.319h-4.29V32.8Z" transform="translate(-217.669 -19.424)" fill="#f2f2f2"/>
        <path id="Path_658" data-name="Path 658" d="M476.41,32.175c5.962,0,10.767,3.818,10.767,11.8a7.064,7.064,0,0,1-.129,1.459H469.675c.429,4.5,3.131,6.692,7.85,6.692a14.956,14.956,0,0,0,7.721-1.93l.815,3.217a16.83,16.83,0,0,1-9.051,2.359c-7.465,0-11.84-4.29-11.84-11.582,0-7.507,4.976-12.011,11.239-12.011m-.086,3.646c-3.6,0-6.049,2.188-6.606,6.521h12.955c-.429-4.419-2.788-6.521-6.349-6.521" transform="translate(-279.884 -19.359)" fill="#f2f2f2"/>
        <path id="Path_659" data-name="Path 659" d="M525.126,28.086V24.568h4.032V18.605h4.247v5.963h5.4v3.518h-5.4v19h-4.247v-19Z" transform="translate(-315.958 -11.194)" fill="#f2f2f2"/>
        <path id="Path_660" data-name="Path 660" d="M574.716,32.175c5.963,0,10.767,3.818,10.767,11.8a7.062,7.062,0,0,1-.129,1.459H567.982c.429,4.5,3.131,6.692,7.85,6.692a14.955,14.955,0,0,0,7.721-1.93l.815,3.217a16.831,16.831,0,0,1-9.051,2.359c-7.464,0-11.84-4.29-11.84-11.582,0-7.507,4.976-12.011,11.239-12.011m-.086,3.646c-3.6,0-6.048,2.188-6.606,6.521h12.955c-.429-4.419-2.788-6.521-6.348-6.521" transform="translate(-339.033 -19.359)" fill="#f2f2f2"/>
        <path id="Path_661" data-name="Path 661" d="M634.334,32.927v4.762c1.759-2.917,4.29-5.191,7.55-5.191a6.8,6.8,0,0,1,2.274.343l-.729,3.732a5.855,5.855,0,0,0-1.887-.343c-3.046,0-5.62,2.874-7.207,7.078v12.14h-4.29V32.927Z" transform="translate(-379.085 -19.553)" fill="#f2f2f2"/>
        <path id="Path_662" data-name="Path 662" d="M674.565,9.343a2.8,2.8,0,0,1,2.874,2.788,2.874,2.874,0,0,1-5.748,0,2.829,2.829,0,0,1,2.874-2.788m2.145,32.173h-4.289V19h4.289Zm-2.145-30.243a.81.81,0,0,0-.858.858.825.825,0,0,0,.858.815.883.883,0,0,0,.858-.815.86.86,0,0,0-.858-.858" transform="translate(-404.143 -5.621)" fill="#f2f2f2"/>
        <path id="Path_663" data-name="Path 663" d="M703.271,32.8v4.847c2.231-3.6,5.148-5.362,8.751-5.362,4.247,0,7.807,2.145,7.807,9.309V55.319h-4.29v-13.3c0-4.161-1.759-5.963-4.5-5.963-3.517,0-5.877,2.317-7.764,7.164v12.1h-4.289V32.8Z" transform="translate(-420.563 -19.424)" fill="#f2f2f2"/>
        <path id="Path_664" data-name="Path 664" d="M764.334,58a18.729,18.729,0,0,0,9.609,2.831c4.075,0,7.55-2.059,7.55-6.135V50.535a9.17,9.17,0,0,1-8.365,4.547c-5.963,0-10.982-3.775-10.982-11.325,0-7.636,4.933-11.582,10.982-11.582a9.514,9.514,0,0,1,8.365,4.59V32.733h4.29v22.35c0,5.834-5.191,9.652-11.882,9.652-3.646,0-7.807-1.073-10.3-2.832Zm17.159-14.242c-.944-4.547-4.075-7.807-7.979-7.807s-6.906,2.316-6.906,7.721c0,4.976,3,7.636,6.95,7.636,4.161,0,7.035-2.917,7.936-7.378Z" transform="translate(-458.568 -19.359)" fill="#f2f2f2"/>
      </g>
    </g>
  </g>
</svg>
