<svg xmlns="http://www.w3.org/2000/svg" xmlns:xlink="http://www.w3.org/1999/xlink" width="285" height="48" viewBox="0 0 285 48">
  <defs>
    <clipPath id="clip-DEH_myHomeOnline_logo_RGB-ColorPositive-NEW_C_1">
      <rect width="285" height="48"/>
    </clipPath>
  </defs>
  <g id="DEH_myHomeOnline_logo_RGB-ColorPositive-NEW_C_1" data-name="DEH_myHomeOnline logo_RGB-ColorPositive-NEW C – 1" clip-path="url(#clip-DEH_myHomeOnline_logo_RGB-ColorPositive-NEW_C_1)">
    <g id="Group_62" data-name="Group 62" transform="translate(-48.599 -48.586)">
      <g id="dei_logo" data-name="dei logo" transform="translate(48.599 48.587)">
        <g id="Group_59" data-name="Group 59">
          <path id="Path_258" data-name="Path 258" d="M137.663,107.517h-1.63a.191.191,0,0,0-.191.191v4.18a.143.143,0,0,1-.143.143h-5.022a.143.143,0,0,1-.143-.143l0-4.18a.191.191,0,0,0-.191-.191h-1.63a.191.191,0,0,0-.191.191v10.663a.191.191,0,0,0,.191.191h1.634a.191.191,0,0,0,.191-.191l0-4.181a.143.143,0,0,1,.143-.143l5.022,0a.143.143,0,0,1,.143.143v4.183a.191.191,0,0,0,.191.191h1.634a.191.191,0,0,0,.191-.191l0-10.663A.191.191,0,0,0,137.663,107.517Z" transform="translate(-97.808 -84.871)" fill="#f2f2f2"/>
          <path id="Path_259" data-name="Path 259" d="M108.256,97.545V95.959a.191.191,0,0,0-.191-.191H99.587a.191.191,0,0,0-.191.191v10.663a.191.191,0,0,0,.191.191l8.479,0a.191.191,0,0,0,.191-.191v-1.583a.191.191,0,0,0-.191-.191h-6.511a.143.143,0,0,1-.143-.143v-2.28a.143.143,0,0,1,.143-.143l5.033,0a.191.191,0,0,0,.191-.191V100.5a.191.191,0,0,0-.191-.191h-5.034a.143.143,0,0,1-.143-.143V97.882a.143.143,0,0,1,.143-.143l6.514,0A.191.191,0,0,0,108.256,97.545Z" transform="translate(-79.876 -77.637)" fill="#f2f2f2"/>
          <path id="Path_260" data-name="Path 260" d="M69.589,84.02H67.345a.294.294,0,0,0-.268.174L62.448,94.589a.338.338,0,0,0,.309.476l11.425,0a.339.339,0,0,0,.309-.476L69.858,84.194A.3.3,0,0,0,69.589,84.02Zm-4.237,8.937,3-6.722a.129.129,0,0,1,.236,0l3,6.722a.146.146,0,0,1-.133.206H65.485A.146.146,0,0,1,65.352,92.957Z" transform="translate(-57.108 -70.403)" fill="#f2f2f2"/>
          <path id="Path_261" data-name="Path 261" d="M103.656,57.024a22.34,22.34,0,0,1-20.489,39.7l-.759,1.47a23.994,23.994,0,0,0,22.007-42.645Z" transform="translate(-69.416 -52.876)" fill="#f2f2f2"/>
          <path id="Path_262" data-name="Path 262" d="M62.35,92.439a22.34,22.34,0,0,1,20.489-39.7l.759-1.47A23.994,23.994,0,0,0,61.591,93.909Z" transform="translate(-48.599 -48.587)" fill="#f2f2f2"/>
        </g>
      </g>
      <g id="keimena-outl" transform="translate(115.265 61.261)">
        <g id="Group_61" data-name="Group 61" transform="translate(0 0.942)">
          <g id="Group_60" data-name="Group 60">
            <path id="Path_263" data-name="Path 263" d="M224.22,96.968v3.484c1.484-2.6,3.369-3.8,5.825-3.8a4.524,4.524,0,0,1,4.8,4.083c1.513-2.8,3.427-4.083,5.968-4.083,2.484,0,4.94,1.285,4.94,5.94v9.281H243.61v-8.995c0-2.97-1.342-4.226-3.255-4.226-2.342,0-4.055,1.713-5.369,5.111v8.11h-2.142v-8.995c0-2.97-1.342-4.226-3.255-4.226-2.37,0-4.027,1.713-5.368,5.14v8.081h-2.142V96.968Z" transform="translate(-222.078 -91.799)" fill="#f2f2f2"/>
            <path id="Path_264" data-name="Path 264" d="M295.825,112.577l-6.054-15.106h2.456l4.712,12.336,4.369-12.336h2.427l-8.053,20.875H293.4l2.456-5.769Z" transform="translate(-263.758 -92.302)" fill="#f2f2f2"/>
            <path id="Path_265" data-name="Path 265" d="M336.508,84.021v8.967h12.336V84.021h2.227V104.1h-2.227V95.072H336.508V104.1h-2.227V84.021Z" transform="translate(-291.163 -84.021)" fill="#f2f2f2"/>
            <path id="Path_266" data-name="Path 266" d="M395.537,96.654c3.6,0,7.853,2.4,7.853,7.653a7.6,7.6,0,0,1-7.91,7.853,7.3,7.3,0,0,1-7.625-7.681A7.54,7.54,0,0,1,395.537,96.654Zm.057,1.97a5.355,5.355,0,0,0-5.483,5.711c0,4.055,2.57,5.854,5.483,5.854,2.97,0,5.54-1.856,5.54-5.683C401.135,100.566,398.393,98.624,395.595,98.624Z" transform="translate(-324.15 -91.799)" fill="#f2f2f2"/>
            <path id="Path_267" data-name="Path 267" d="M439.931,96.968v3.484c1.485-2.6,3.369-3.8,5.825-3.8a4.523,4.523,0,0,1,4.8,4.083c1.514-2.8,3.427-4.083,5.968-4.083,2.484,0,4.94,1.285,4.94,5.94v9.281h-2.142v-8.995c0-2.97-1.342-4.226-3.255-4.226-2.342,0-4.055,1.713-5.369,5.111v8.11h-2.142v-8.995c0-2.97-1.342-4.226-3.256-4.226-2.37,0-4.026,1.713-5.368,5.14v8.081h-2.142V96.968Z" transform="translate(-354.894 -91.799)" fill="#f2f2f2"/>
            <path id="Path_268" data-name="Path 268" d="M515.782,96.655c3.8,0,6.882,2.57,6.882,7.767a6.594,6.594,0,0,1-.057.8H510.814c.2,3.341,2.142,4.969,5.511,4.969a9.3,9.3,0,0,0,5.112-1.314l.485,1.742a10.778,10.778,0,0,1-5.711,1.542c-4.712,0-7.682-2.741-7.682-7.567C508.529,99.482,511.87,96.655,515.782,96.655Zm-.057,1.97c-2.6,0-4.512,1.571-4.883,4.769h9.538C520.094,100.139,518.267,98.625,515.726,98.625Z" transform="translate(-398.45 -91.8)" fill="#f2f2f2"/>
          </g>
        </g>
        <path id="Path_269" data-name="Path 269" d="M562.037,82.226c5.8,0,9.881,4.226,9.881,10.28,0,5.854-4.312,10.366-9.881,10.366-5.854,0-9.966-4.14-9.966-10.366C552.071,86.624,556.326,82.226,562.037,82.226Zm-.057,2.113c-4.026,0-7.567,3.027-7.567,8.167,0,5.4,3.427,8.253,7.625,8.253,3.827,0,7.539-2.97,7.539-8.2C569.548,87.309,566.035,84.339,561.98,84.339Zm15.848,3.341v3.513c1.542-2.627,3.484-3.827,5.94-3.827,2.513,0,4.969,1.285,4.969,5.94v9.281h-2.142V93.591c0-2.97-1.371-4.226-3.256-4.226-2.541,0-4.169,1.684-5.511,5.111v8.11h-2.142V87.68Zm17.618-5.169v20.075H593.3V82.511Zm5.8-.942a1.59,1.59,0,0,1,1.6,1.57,1.609,1.609,0,0,1-1.6,1.571,1.585,1.585,0,0,1-1.571-1.571A1.566,1.566,0,0,1,601.242,81.569Zm1.085,6.111v14.906h-2.142V87.68Zm6.882,0v3.513c1.542-2.627,3.484-3.827,5.94-3.827,2.513,0,4.969,1.285,4.969,5.94v9.281h-2.142V93.591c0-2.97-1.371-4.226-3.255-4.226-2.542,0-4.169,1.684-5.511,5.111v8.11h-2.142V87.68Zm21.673-.314c3.8,0,6.882,2.57,6.882,7.767a6.582,6.582,0,0,1-.057.8H625.913c.2,3.341,2.142,4.969,5.511,4.969a9.3,9.3,0,0,0,5.112-1.314l.485,1.742a10.778,10.778,0,0,1-5.711,1.542c-4.712,0-7.682-2.741-7.682-7.567C623.629,90.193,626.969,87.366,630.882,87.366Zm-.057,1.97c-2.6,0-4.512,1.571-4.883,4.769h9.538C635.194,90.85,633.366,89.336,630.825,89.336Z" transform="translate(-425.259 -81.569)" fill="#f2f2f2"/>
      </g>
    </g>
  </g>
</svg>
