<svg xmlns="http://www.w3.org/2000/svg" xmlns:xlink="http://www.w3.org/1999/xlink" width="320" height="48" viewBox="0 0 320 48">
  <defs>
    <clipPath id="clip-path">
      <rect id="Rectangle_74" data-name="Rectangle 74" width="319.088" height="48" fill="#f2f2f2"/>
    </clipPath>
    <clipPath id="clip-DEH_myEnergyUpgrade_offwhite">
      <rect width="320" height="48"/>
    </clipPath>
  </defs>
  <g id="DEH_myEnergyUpgrade_offwhite" data-name="DEH_myEnergyUpgrade offwhite" clip-path="url(#clip-DEH_myEnergyUpgrade_offwhite)">
    <g id="Group_258" data-name="Group 258">
      <g id="Group_257" data-name="Group 257" clip-path="url(#clip-path)">
        <path id="Path_1522" data-name="Path 1522" d="M89.064,58.929h-1.63a.191.191,0,0,0-.191.191V63.3a.143.143,0,0,1-.143.143H82.078a.143.143,0,0,1-.143-.143l0-4.18a.191.191,0,0,0-.191-.191h-1.63a.191.191,0,0,0-.191.191V69.783a.191.191,0,0,0,.191.191h1.634a.191.191,0,0,0,.191-.191l0-4.18a.143.143,0,0,1,.143-.143l5.022,0a.143.143,0,0,1,.143.143v4.183a.191.191,0,0,0,.191.191h1.634a.191.191,0,0,0,.191-.191l0-10.663a.191.191,0,0,0-.191-.191" transform="translate(-49.208 -36.283)" fill="#f2f2f2"/>
        <path id="Path_1523" data-name="Path 1523" d="M59.657,48.957V47.371a.191.191,0,0,0-.191-.191H50.987a.191.191,0,0,0-.191.191V58.034a.191.191,0,0,0,.191.191l8.479,0a.191.191,0,0,0,.191-.191V56.447a.191.191,0,0,0-.191-.191H52.955a.143.143,0,0,1-.143-.143v-2.28a.143.143,0,0,1,.143-.143l5.033,0a.191.191,0,0,0,.191-.191V51.909a.191.191,0,0,0-.191-.191H52.953a.143.143,0,0,1-.143-.143V49.294a.143.143,0,0,1,.143-.143l6.514,0a.191.191,0,0,0,.191-.191" transform="translate(-31.276 -29.049)" fill="#f2f2f2"/>
        <path id="Path_1524" data-name="Path 1524" d="M20.99,35.433H18.745a.294.294,0,0,0-.269.174L13.848,46a.338.338,0,0,0,.309.476l11.425,0A.338.338,0,0,0,25.891,46L21.258,35.607a.294.294,0,0,0-.269-.174M16.753,44.37l3-6.722a.129.129,0,0,1,.236,0l3,6.722a.146.146,0,0,1-.133.206H16.886a.146.146,0,0,1-.133-.206" transform="translate(-8.508 -21.817)" fill="#f2f2f2"/>
        <path id="Path_1525" data-name="Path 1525" d="M55.057,8.438a22.34,22.34,0,0,1-20.489,39.7l-.759,1.47A23.994,23.994,0,0,0,55.815,6.968Z" transform="translate(-20.817 -4.29)" fill="#f2f2f2"/>
        <path id="Path_1526" data-name="Path 1526" d="M13.751,43.852A22.34,22.34,0,0,1,34.24,4.148L35,2.678A23.994,23.994,0,0,0,12.992,45.322Z" transform="translate(0 0)" fill="#f2f2f2"/>
        <path id="Path_1527" data-name="Path 1527" d="M175.621,48.381v3.484c1.485-2.6,3.37-3.8,5.825-3.8a4.524,4.524,0,0,1,4.8,4.083c1.513-2.8,3.427-4.083,5.968-4.083,2.484,0,4.94,1.285,4.94,5.94v9.281h-2.142v-9c0-2.97-1.342-4.226-3.256-4.226-2.341,0-4.055,1.714-5.368,5.112v8.11h-2.142v-9c0-2.97-1.342-4.226-3.255-4.226-2.37,0-4.027,1.714-5.369,5.14v8.082h-2.142V48.381Z" transform="translate(-106.813 -29.596)" fill="#f2f2f2"/>
        <path id="Path_1528" data-name="Path 1528" d="M247.226,63.99l-6.054-15.106h2.456L248.34,61.22l4.37-12.336h2.427l-8.053,20.875H244.8l2.456-5.769Z" transform="translate(-148.493 -30.099)" fill="#f2f2f2"/>
        <path id="Path_1529" data-name="Path 1529" d="M296.648,35.434V37.49H287.91V44.4h7.482v2.056H287.91v7h8.738v2.056H285.682V35.434Z" transform="translate(-175.899 -21.817)" fill="#f2f2f2"/>
        <path id="Path_1530" data-name="Path 1530" d="M325.794,48.381v3.512c1.542-2.627,3.484-3.826,5.94-3.826,2.513,0,4.969,1.285,4.969,5.94v9.281H334.56v-9c0-2.97-1.37-4.226-3.255-4.226-2.542,0-4.169,1.685-5.511,5.112v8.11h-2.142V48.381Z" transform="translate(-199.277 -29.596)" fill="#f2f2f2"/>
        <path id="Path_1531" data-name="Path 1531" d="M374,48.067c3.8,0,6.883,2.57,6.883,7.767a6.589,6.589,0,0,1-.057.8H369.033c.2,3.341,2.142,4.969,5.511,4.969a9.305,9.305,0,0,0,5.111-1.313l.485,1.742a10.777,10.777,0,0,1-5.711,1.542c-4.712,0-7.682-2.742-7.682-7.568,0-5.112,3.341-7.939,7.253-7.939m-.057,1.97c-2.6,0-4.512,1.571-4.883,4.769H378.6c-.286-3.256-2.113-4.769-4.654-4.769" transform="translate(-225.812 -29.596)" fill="#f2f2f2"/>
        <path id="Path_1532" data-name="Path 1532" d="M414.96,48.427V51.91c1.171-2.056,2.856-3.769,5.112-3.769a4.172,4.172,0,0,1,1.513.286l-.457,1.885a3.548,3.548,0,0,0-1.171-.228c-2.17,0-3.941,2.142-5,5.026v8.224h-2.142V48.427Z" transform="translate(-254.178 -29.641)" fill="#f2f2f2"/>
        <path id="Path_1533" data-name="Path 1533" d="M439.555,65.6a11.394,11.394,0,0,0,6.2,1.971c2.856,0,5.368-1.6,5.368-4.427V60.089a6.18,6.18,0,0,1-5.74,3.2c-4.027,0-7.225-2.627-7.225-7.539,0-5,3.2-7.681,7.225-7.681a6.355,6.355,0,0,1,5.74,3.341V48.381h2.142V63.059c0,4.026-3.455,6.482-7.6,6.482a11.578,11.578,0,0,1-6.54-1.913Zm5.854-15.563c-2.856,0-5.026,1.628-5.026,5.683,0,3.655,2.17,5.6,5.026,5.6,3.141,0,5.112-2.2,5.711-5.483-.485-3.2-2.8-5.8-5.711-5.8" transform="translate(-269.778 -29.596)" fill="#f2f2f2"/>
        <path id="Path_1534" data-name="Path 1534" d="M490.575,63.99l-6.054-15.106h2.456l4.712,12.336,4.369-12.336h2.427l-8.053,20.875h-2.285L490.6,63.99Z" transform="translate(-298.326 -30.099)" fill="#f2f2f2"/>
        <path id="Path_1535" data-name="Path 1535" d="M528.362,35.434h2.227V47.713c0,4.169,2.485,5.968,5.768,5.968,3.055,0,5.083-1.628,5.226-6.254V35.434h2.228V47.456c0,5.94-3.455,8.339-7.6,8.339-4.169,0-7.853-2.313-7.853-8.025Z" transform="translate(-325.32 -21.817)" fill="#f2f2f2"/>
        <path id="Path_1536" data-name="Path 1536" d="M579.768,48.381v3.027a6.324,6.324,0,0,1,5.74-3.341c4.027,0,7.225,2.827,7.225,7.824,0,4.941-3.2,7.682-7.225,7.682a6.149,6.149,0,0,1-5.74-3.484v9.224h-2.142V48.381Zm5.711,1.656c-2.884,0-5.226,2.6-5.711,5.8.6,3.284,2.6,5.769,5.711,5.769,2.884,0,5-2.085,5-5.74,0-4.026-2.113-5.825-5-5.825" transform="translate(-355.652 -29.596)" fill="#f2f2f2"/>
        <path id="Path_1537" data-name="Path 1537" d="M625.169,65.6a11.394,11.394,0,0,0,6.2,1.971c2.856,0,5.368-1.6,5.368-4.427V60.089a6.18,6.18,0,0,1-5.74,3.2c-4.027,0-7.225-2.627-7.225-7.539,0-5,3.2-7.681,7.225-7.681a6.355,6.355,0,0,1,5.74,3.341V48.381h2.142V63.059c0,4.026-3.456,6.482-7.6,6.482a11.575,11.575,0,0,1-6.539-1.913Zm5.854-15.563c-2.856,0-5.026,1.628-5.026,5.683,0,3.655,2.17,5.6,5.026,5.6,3.141,0,5.112-2.2,5.711-5.483-.485-3.2-2.8-5.8-5.711-5.8" transform="translate(-384.063 -29.596)" fill="#f2f2f2"/>
        <path id="Path_1538" data-name="Path 1538" d="M676.069,48.427V51.91c1.171-2.056,2.856-3.769,5.112-3.769a4.173,4.173,0,0,1,1.513.286l-.457,1.885a3.552,3.552,0,0,0-1.171-.228c-2.17,0-3.941,2.142-5,5.026v8.224h-2.142V48.427Z" transform="translate(-414.946 -29.641)" fill="#f2f2f2"/>
        <path id="Path_1539" data-name="Path 1539" d="M706,48.067a6.4,6.4,0,0,1,5.711,3.284v-2.97h2.142V63.287h-2.142V60.146A6.213,6.213,0,0,1,706,63.573c-4.055,0-7.253-2.742-7.253-7.682,0-5,3.2-7.824,7.253-7.824m.029,1.97c-2.884,0-5.026,1.8-5.026,5.825,0,3.655,2.142,5.74,5.026,5.74,3.113,0,5.083-2.484,5.683-5.769-.486-3.2-2.827-5.8-5.683-5.8" transform="translate(-430.226 -29.596)" fill="#f2f2f2"/>
        <path id="Path_1540" data-name="Path 1540" d="M753.374,40.289a6.387,6.387,0,0,1,5.74,3.341v-8.2h2.142V55.509h-2.142v-3.17a6.23,6.23,0,0,1-5.74,3.456c-4.027,0-7.225-2.742-7.225-7.682,0-5,3.2-7.824,7.225-7.824m.028,1.97c-2.856,0-5,1.8-5,5.825,0,3.655,2.142,5.74,5,5.74,3.141,0,5.112-2.484,5.711-5.769-.485-3.2-2.8-5.8-5.711-5.8" transform="translate(-459.414 -21.817)" fill="#f2f2f2"/>
        <path id="Path_1541" data-name="Path 1541" d="M800.809,48.067c3.8,0,6.883,2.57,6.883,7.767a6.59,6.59,0,0,1-.057.8H795.841c.2,3.341,2.142,4.969,5.511,4.969a9.306,9.306,0,0,0,5.111-1.313l.485,1.742a10.777,10.777,0,0,1-5.711,1.542c-4.712,0-7.682-2.742-7.682-7.568,0-5.112,3.341-7.939,7.253-7.939m-.057,1.97c-2.6,0-4.512,1.571-4.883,4.769h9.538c-.286-3.256-2.113-4.769-4.654-4.769" transform="translate(-488.604 -29.596)" fill="#f2f2f2"/>
      </g>
    </g>
  </g>
</svg>
