<svg width="61" height="60" viewBox="0 0 61 60" fill="none" xmlns="http://www.w3.org/2000/svg">
<path d="M57.0263 20.1303C55.7641 17.0904 53.2069 13.8062 51.1998 12.7698C52.6301 15.5425 53.622 18.5197 54.1394 21.5959L54.1459 21.6454C50.8637 13.4463 45.2975 10.1423 40.7498 2.94342C40.5192 2.58034 40.2885 2.21404 40.0644 1.8311C39.9359 1.61005 39.8336 1.41197 39.7447 1.23043C39.5569 0.864028 39.4117 0.477765 39.3129 0.0783968C39.3129 0.0387826 39.2833 0.00904676 39.2471 0.00249479C39.2306 -0.000831596 39.2109 -0.000831596 39.191 0.00249479C39.1877 0.00249479 39.1811 0.00904676 39.1779 0.0123731C39.1745 0.0123731 39.1647 0.0223523 39.158 0.0223523L39.168 0.00259559C31.8751 4.28022 29.4001 12.1987 29.1729 16.1596C26.2597 16.3609 23.475 17.4338 21.1813 19.2458C20.9407 19.0412 20.6935 18.8531 20.4332 18.678C19.7709 16.3577 19.7444 13.9052 20.3508 11.5683C17.6716 12.8687 15.2922 14.7107 13.3611 16.9782H13.348C12.1978 15.5159 12.2768 10.7002 12.3429 9.69346C12.0034 9.83206 11.6772 10.0037 11.374 10.2083C10.359 10.9345 9.40983 11.7498 8.53659 12.6443C7.54136 13.6543 6.63511 14.7435 5.82114 15.9054V15.9088V15.9021C3.95599 18.5526 2.63117 21.5464 1.92589 24.7151L1.88634 24.9065C1.83028 25.164 1.63585 26.4447 1.59962 26.7219C1.59962 26.7451 1.5963 26.7649 1.59297 26.7846C1.34248 28.1082 1.18428 29.4484 1.125 30.795V30.9436C1.13818 47.005 14.1521 60.0165 30.1878 60C44.3124 59.9868 56.3771 49.8007 58.7762 35.8584C58.8256 35.4822 58.8651 35.1125 58.908 34.7329C59.5079 29.7883 58.8586 24.7645 57.0263 20.1303ZM23.5607 42.8922C23.6958 42.9581 23.8243 43.0276 23.9628 43.0903L23.9825 43.1035C23.8408 43.0373 23.6991 42.9681 23.5607 42.8922ZM54.1494 21.6519V21.6255L54.1559 21.6552L54.1494 21.6519Z" fill="url(#paint0_linear_11169_196870)"/>
<path d="M57.0264 20.3247C55.7642 17.2996 53.207 14.0314 51.1999 13C52.6302 15.7592 53.6221 18.7219 54.1395 21.7831V21.8094L54.146 21.839C56.3837 28.2211 56.0607 35.2206 53.2431 41.3728C49.9147 48.4906 41.8604 55.7858 29.2519 55.431C15.6285 55.0468 3.62961 44.9694 1.38535 31.7717C0.976658 29.6892 1.38535 28.6349 1.58965 26.9433C1.31279 28.2571 1.15469 29.594 1.125 30.9373V31.0852C1.13818 47.0683 14.152 60.0164 30.1878 60C44.3123 59.9868 56.377 49.8504 58.7761 35.976C58.8255 35.6017 58.865 35.2338 58.9079 34.856C59.508 29.9356 58.8587 24.9363 57.0264 20.3247Z" fill="url(#paint1_radial_11169_196870)"/>
<path d="M57.0264 20.3247C55.7642 17.2996 53.207 14.0314 51.1999 13C52.6302 15.7592 53.6221 18.7219 54.1395 21.7831V21.8094L54.146 21.839C56.3837 28.2211 56.0607 35.2206 53.2431 41.3728C49.9147 48.4906 41.8604 55.7858 29.2519 55.431C15.6285 55.0468 3.62961 44.9694 1.38535 31.7717C0.976658 29.6892 1.38535 28.6349 1.58965 26.9433C1.31279 28.2571 1.15469 29.594 1.125 30.9373V31.0852C1.13818 47.0683 14.152 60.0164 30.1878 60C44.3123 59.9868 56.377 49.8504 58.7761 35.976C58.8255 35.6017 58.865 35.2338 58.9079 34.856C59.508 29.9356 58.8587 24.9363 57.0264 20.3247Z" fill="url(#paint2_radial_11169_196870)"/>
<path d="M42.9428 23.8661C43.0057 23.9097 43.0654 23.9566 43.125 24C42.3928 22.6884 41.4782 21.4839 40.4145 20.43C31.3384 11.2656 38.0352 0.562086 39.1652 0.0166552L39.1752 0C31.8421 4.33617 29.3535 12.363 29.125 16.3782C29.4662 16.3548 29.8043 16.3246 30.1521 16.3246C35.4472 16.3345 40.3316 19.2155 42.9428 23.8661Z" fill="url(#paint3_radial_11169_196870)"/>
<path d="M30.321 25.4688C30.2711 26.2091 27.6997 28.7647 26.7994 28.7647C18.4772 28.7647 17.125 33.8896 17.125 33.8896C17.4938 38.203 20.4473 41.7559 24.0187 43.6355C24.1814 43.7199 24.3476 43.7976 24.5137 43.8754C24.7994 44.0039 25.0852 44.1256 25.3742 44.2338C26.6001 44.6766 27.8826 44.9268 29.1815 44.9808C43.7695 45.6772 46.5966 27.2301 36.0685 21.8754C38.5536 21.5474 41.0685 22.1695 43.125 23.6196C40.5104 18.9208 35.6134 16.0102 30.3012 16C29.9524 16 29.6135 16.0305 29.2713 16.0541C26.3344 16.2603 23.5271 17.359 21.2149 19.2148C21.6601 19.6001 22.165 20.114 23.2249 21.1755C25.2147 23.1666 30.3109 25.2287 30.321 25.4688Z" fill="url(#paint4_radial_11169_196870)"/>
<path d="M30.321 25.4688C30.2711 26.2091 27.6997 28.7647 26.7994 28.7647C18.4772 28.7647 17.125 33.8896 17.125 33.8896C17.4938 38.203 20.4473 41.7559 24.0187 43.6355C24.1814 43.7199 24.3476 43.7976 24.5137 43.8754C24.7994 44.0039 25.0852 44.1256 25.3742 44.2338C26.6001 44.6766 27.8826 44.9268 29.1815 44.9808C43.7695 45.6772 46.5966 27.2301 36.0685 21.8754C38.5536 21.5474 41.0685 22.1695 43.125 23.6196C40.5104 18.9208 35.6134 16.0102 30.3012 16C29.9524 16 29.6135 16.0305 29.2713 16.0541C26.3344 16.2603 23.5271 17.359 21.2149 19.2148C21.6601 19.6001 22.165 20.114 23.2249 21.1755C25.2147 23.1666 30.3109 25.2287 30.321 25.4688Z" fill="url(#paint5_radial_11169_196870)"/>
<path d="M19.5314 18.6068C19.7629 18.753 19.9555 18.883 20.125 19C19.4694 16.7153 19.4432 14.3007 20.0435 12C17.3916 13.2804 15.0364 15.0938 13.125 17.3264C13.2684 17.3232 17.4373 17.2484 19.5314 18.6068Z" fill="url(#paint6_radial_11169_196870)"/>
<path d="M1.26695 31.5875C3.53386 44.6406 15.6718 54.6044 29.4531 54.9877C42.2078 55.3385 50.3553 48.1233 53.7224 41.0833C56.5727 34.9986 56.8994 28.0789 54.6358 21.7635V21.7375C54.6358 21.7147 54.6326 21.7051 54.6358 21.7115L54.6425 21.7602C55.686 28.3907 52.2256 34.8134 46.815 39.1569L46.7983 39.1926C36.2572 47.558 26.1695 44.2411 24.1293 42.8864C23.986 42.8215 23.846 42.75 23.7026 42.6784C17.5585 39.8163 15.0184 34.3586 15.5617 29.6805C12.5814 29.7227 9.85438 28.0529 8.6043 25.4149C11.8847 23.456 15.9717 23.2968 19.4021 24.9926C22.8792 26.5324 26.8397 26.6819 30.43 25.4149C30.4199 25.1811 25.3061 23.1994 23.3126 21.2859C22.2491 20.2627 21.7424 19.772 21.2956 19.4017C21.0522 19.2003 20.8022 19.0152 20.5388 18.8429C20.3655 18.7259 20.1687 18.6025 19.9321 18.4498C17.7885 17.0918 13.5281 17.1665 13.3882 17.1699H13.3748C12.2113 15.7307 12.2913 10.9909 12.358 10C12.0147 10.1364 11.6846 10.3054 11.3779 10.5068C10.3512 11.2215 9.39106 12.0239 8.50769 12.9043C7.49757 13.8951 6.57745 14.9671 5.75068 16.1075V16.1106V16.1042C3.86391 18.7129 2.52374 21.6594 1.81028 24.7782C1.79695 24.8367 0.753539 29.2809 1.26695 31.5875Z" fill="url(#paint7_radial_11169_196870)"/>
<path d="M40.6393 19.9938C41.6667 21.0283 42.5442 22.2068 43.2494 23.49C43.4025 23.6112 43.5492 23.729 43.6706 23.8435C50.0459 29.8701 46.7051 38.3911 46.4562 39C51.635 34.6233 54.9439 28.1516 53.9484 21.4702C50.7671 13.3356 45.3777 10.0588 40.9743 2.91919C40.7509 2.55911 40.5275 2.19572 40.3105 1.81604C40.186 1.5967 40.0871 1.40027 40.001 1.22022C39.8191 0.856834 39.6786 0.473853 39.583 0.0777759C39.583 0.0383881 39.5542 0.00899721 39.5191 0.00239926C39.5032 -0.000799752 39.4841 -0.000799752 39.4649 0.00239926C39.4617 0.00239926 39.4553 0.00889724 39.4521 0.0122962C39.449 0.0122962 39.4393 0.0220931 39.433 0.0220931C38.3481 0.555628 31.8994 11.0277 40.6393 19.9938Z" fill="url(#paint8_radial_11169_196870)"/>
<path d="M43.2137 24.2581C43.0916 24.1435 42.9436 24.0223 42.7894 23.9043C42.7315 23.8617 42.6737 23.8159 42.6126 23.7733C40.6194 22.3679 38.186 21.7651 35.7846 22.0829C45.9718 27.2752 43.2393 45.1485 29.1206 44.4736C27.8637 44.4212 26.6229 44.1755 25.4367 43.7496C25.1602 43.6448 24.8837 43.5269 24.604 43.4024C24.4433 43.3271 24.2826 43.2549 24.125 43.1698L24.1442 43.1829C26.1116 44.5523 35.836 47.8969 46.0039 39.4583L46.02 39.4223C46.2741 38.8162 49.6367 30.2857 43.2137 24.2581Z" fill="url(#paint9_radial_11169_196870)"/>
<path d="M16.7778 33.6581C16.7778 33.6581 18.1456 28.7457 26.5631 28.7457C27.4737 28.7457 30.0779 26.296 30.125 25.5863C26.5059 26.85 22.5138 26.7011 19.0091 25.1651C15.5513 23.4735 11.4316 23.6324 8.125 25.5863C9.38506 28.2175 12.1338 29.883 15.138 29.8408C14.5902 34.5102 17.1475 39.9508 23.3439 42.8056C23.4816 42.8703 23.6127 42.9384 23.7539 43C20.1382 41.1983 17.1508 37.7928 16.7778 33.6581Z" fill="url(#paint10_radial_11169_196870)"/>
<path d="M57.0264 20.1303C55.7642 17.0904 53.2069 13.8062 51.1999 12.7698C52.6302 15.5425 53.6221 18.5197 54.1395 21.5959L54.146 21.6454C50.8637 13.4463 45.2976 10.1423 40.7499 2.94342C40.5192 2.58034 40.2886 2.21404 40.0644 1.8311C39.9359 1.61005 39.8337 1.41197 39.7447 1.23043C39.5569 0.864028 39.4118 0.477765 39.313 0.0783968C39.313 0.0387826 39.2834 0.00904676 39.2472 0.00249479C39.2307 -0.000831596 39.2109 -0.000831596 39.1911 0.00249479C39.1878 0.00249479 39.1811 0.00904676 39.1779 0.0123731C39.1746 0.0123731 39.1647 0.0223523 39.1581 0.0223523L39.1681 0.00259559C31.8751 4.28022 29.4002 12.1987 29.173 16.1596C29.5123 16.1366 29.8486 16.1068 30.1945 16.1068C35.4639 16.1168 40.3183 18.9588 42.9184 23.5467C40.8751 22.1307 38.3805 21.5234 35.9187 21.8436C46.3621 27.0752 43.5609 45.0842 29.0872 44.4041C27.7986 44.3514 26.5267 44.1038 25.3106 43.6747C25.0272 43.5691 24.7437 43.4502 24.457 43.3247C24.2923 43.2488 24.1275 43.1762 23.966 43.0905L23.9857 43.1037C23.844 43.0376 23.7056 42.9651 23.5639 42.8924C23.6991 42.9583 23.8276 43.0278 23.966 43.0905C20.4201 41.2552 17.4936 37.7862 17.1279 33.5745C17.1279 33.5745 18.4692 28.5705 26.7243 28.5705C27.6174 28.5705 30.1713 26.0751 30.2175 25.3523C30.2075 25.1147 25.1523 23.1011 23.1817 21.157C22.1304 20.1173 21.6294 19.6189 21.1878 19.2426C20.9472 19.038 20.7 18.8499 20.4397 18.6749C19.7774 16.3544 19.7509 13.9019 20.3574 11.5651C17.6781 12.8656 15.2988 14.7074 13.3677 16.975H13.3545C12.2044 15.5128 12.2834 10.6971 12.3494 9.69024C12.0099 9.82894 11.6838 10.0005 11.3805 10.2051C10.3655 10.9313 9.41637 11.7465 8.54312 12.6411C7.5479 13.6512 6.64174 14.7403 5.82767 15.9023V15.9055V15.8989C3.96252 18.5494 2.63771 21.5432 1.93243 24.7119L1.89288 24.9033C1.83682 25.1607 1.59297 26.4579 1.55674 26.7385C1.55674 26.7582 1.55674 26.7153 1.55674 26.7385C1.3293 28.0818 1.1876 29.4352 1.125 30.795V30.9436C1.13818 47.005 14.152 60.0165 30.1878 60C44.3123 59.9868 56.3771 49.8007 58.7761 35.8584C58.8255 35.4822 58.8651 35.1125 58.9079 34.7329C59.508 29.7883 58.8586 24.7645 57.0264 20.1303ZM54.1461 21.6222L54.1526 21.6519L54.1461 21.6222Z" fill="url(#paint11_linear_11169_196870)"/>
<defs>
<linearGradient id="paint0_linear_11169_196870" x1="53.1778" y1="9.29117" x2="4.90317" y2="55.7931" gradientUnits="userSpaceOnUse">
<stop offset="0.048" stop-color="#FFF44F"/>
<stop offset="0.111" stop-color="#FFE847"/>
<stop offset="0.225" stop-color="#FFC830"/>
<stop offset="0.368" stop-color="#FF980E"/>
<stop offset="0.401" stop-color="#FF8B16"/>
<stop offset="0.462" stop-color="#FF672A"/>
<stop offset="0.534" stop-color="#FF3647"/>
<stop offset="0.705" stop-color="#E31587"/>
</linearGradient>
<radialGradient id="paint1_radial_11169_196870" cx="0" cy="0" r="1" gradientUnits="userSpaceOnUse" gradientTransform="translate(50.9547 6.91869) scale(60.5306 60.3316)">
<stop offset="0.129" stop-color="#FFBD4F"/>
<stop offset="0.186" stop-color="#FFAC31"/>
<stop offset="0.247" stop-color="#FF9D17"/>
<stop offset="0.283" stop-color="#FF980E"/>
<stop offset="0.403" stop-color="#FF563B"/>
<stop offset="0.467" stop-color="#FF3750"/>
<stop offset="0.71" stop-color="#F5156C"/>
<stop offset="0.782" stop-color="#EB0878"/>
<stop offset="0.86" stop-color="#E50080"/>
</radialGradient>
<radialGradient id="paint2_radial_11169_196870" cx="0" cy="0" r="1" gradientUnits="userSpaceOnUse" gradientTransform="translate(28.8363 31.584) scale(60.5307 60.3318)">
<stop offset="0.3" stop-color="#960E18"/>
<stop offset="0.351" stop-color="#B11927" stop-opacity="0.74"/>
<stop offset="0.435" stop-color="#DB293D" stop-opacity="0.343"/>
<stop offset="0.497" stop-color="#F5334B" stop-opacity="0.094"/>
<stop offset="0.53" stop-color="#FF3750" stop-opacity="0"/>
</radialGradient>
<radialGradient id="paint3_radial_11169_196870" cx="0" cy="0" r="1" gradientUnits="userSpaceOnUse" gradientTransform="translate(36.1249 -7.19968) scale(44.0922 44.5213)">
<stop offset="0.132" stop-color="#FFF44F"/>
<stop offset="0.252" stop-color="#FFDC3E"/>
<stop offset="0.506" stop-color="#FF9D12"/>
<stop offset="0.526" stop-color="#FF980E"/>
</radialGradient>
<radialGradient id="paint4_radial_11169_196870" cx="0" cy="0" r="1" gradientUnits="userSpaceOnUse" gradientTransform="translate(22.1853 47.9273) scale(29.0554 29.5645)">
<stop offset="0.353" stop-color="#3A8EE6"/>
<stop offset="0.472" stop-color="#5C79F0"/>
<stop offset="0.669" stop-color="#9059FF"/>
<stop offset="1" stop-color="#C139E6"/>
</radialGradient>
<radialGradient id="paint5_radial_11169_196870" cx="0" cy="0" r="1" gradientUnits="userSpaceOnUse" gradientTransform="translate(32.269 26.6195) rotate(-13.8284) scale(15.4217 18.3326)">
<stop offset="0.206" stop-color="#9059FF" stop-opacity="0"/>
<stop offset="0.278" stop-color="#8C4FF3" stop-opacity="0.064"/>
<stop offset="0.747" stop-color="#7716A8" stop-opacity="0.45"/>
<stop offset="0.975" stop-color="#6E008B" stop-opacity="0.6"/>
</radialGradient>
<radialGradient id="paint6_radial_11169_196870" cx="0" cy="0" r="1" gradientUnits="userSpaceOnUse" gradientTransform="translate(27.6924 4.72725) scale(20.523 20.4465)">
<stop stop-color="#FFE226"/>
<stop offset="0.121" stop-color="#FFDB27"/>
<stop offset="0.295" stop-color="#FFC82A"/>
<stop offset="0.502" stop-color="#FFA930"/>
<stop offset="0.732" stop-color="#FF7E37"/>
<stop offset="0.792" stop-color="#FF7139"/>
</radialGradient>
<radialGradient id="paint7_radial_11169_196870" cx="0" cy="0" r="1" gradientUnits="userSpaceOnUse" gradientTransform="translate(44.7458 -8.39924) scale(89.488 87.206)">
<stop offset="0.113" stop-color="#FFF44F"/>
<stop offset="0.456" stop-color="#FF980E"/>
<stop offset="0.622" stop-color="#FF5634"/>
<stop offset="0.716" stop-color="#FF3647"/>
<stop offset="0.904" stop-color="#E31587"/>
</radialGradient>
<radialGradient id="paint8_radial_11169_196870" cx="0" cy="0" r="1" gradientUnits="userSpaceOnUse" gradientTransform="translate(37.2618 -4.03084) rotate(84.1238) scale(64.387 41.209)">
<stop stop-color="#FFF44F"/>
<stop offset="0.06" stop-color="#FFE847"/>
<stop offset="0.168" stop-color="#FFC830"/>
<stop offset="0.304" stop-color="#FF980E"/>
<stop offset="0.356" stop-color="#FF8B16"/>
<stop offset="0.455" stop-color="#FF672A"/>
<stop offset="0.57" stop-color="#FF3647"/>
<stop offset="0.737" stop-color="#E31587"/>
</radialGradient>
<radialGradient id="paint9_radial_11169_196870" cx="0" cy="0" r="1" gradientUnits="userSpaceOnUse" gradientTransform="translate(27.6604 12.1814) scale(53.8743 54.9004)">
<stop offset="0.137" stop-color="#FFF44F"/>
<stop offset="0.48" stop-color="#FF980E"/>
<stop offset="0.592" stop-color="#FF5634"/>
<stop offset="0.655" stop-color="#FF3647"/>
<stop offset="0.904" stop-color="#E31587"/>
</radialGradient>
<radialGradient id="paint10_radial_11169_196870" cx="0" cy="0" r="1" gradientUnits="userSpaceOnUse" gradientTransform="translate(42.3117 15.5293) scale(61.6368 59.4362)">
<stop offset="0.094" stop-color="#FFF44F"/>
<stop offset="0.231" stop-color="#FFE141"/>
<stop offset="0.509" stop-color="#FFAF1E"/>
<stop offset="0.626" stop-color="#FF980E"/>
</radialGradient>
<linearGradient id="paint11_linear_11169_196870" x1="52.6001" y1="9.04364" x2="11.5211" y2="50.0567" gradientUnits="userSpaceOnUse">
<stop offset="0.167" stop-color="#FFF44F" stop-opacity="0.8"/>
<stop offset="0.266" stop-color="#FFF44F" stop-opacity="0.634"/>
<stop offset="0.489" stop-color="#FFF44F" stop-opacity="0.217"/>
<stop offset="0.6" stop-color="#FFF44F" stop-opacity="0"/>
</linearGradient>
</defs>
</svg>
