<svg xmlns="http://www.w3.org/2000/svg" xmlns:xlink="http://www.w3.org/1999/xlink" width="180" height="48" viewBox="0 0 180 48">
  <defs>
    <clipPath id="clip-path">
      <rect id="Rectangle_75" data-name="Rectangle 75" width="176.89" height="23" fill="#f2f2f2"/>
    </clipPath>
    <clipPath id="clip-G1-G1N_Oikiako_offwhite">
      <rect width="180" height="48"/>
    </clipPath>
  </defs>
  <g id="G1-G1N_Oikiako_offwhite" data-name="G1-G1N Oikiako offwhite" clip-path="url(#clip-G1-G1N_Oikiako_offwhite)">
    <g id="Group_261" data-name="Group 261" transform="translate(0 13)">
      <path id="Path_1542" data-name="Path 1542" d="M0,3.418V22.11H2.074V5.332H10.21V3.418Z" transform="translate(0 -2.195)" fill="#f2f2f2"/>
      <path id="Path_1543" data-name="Path 1543" d="M31.613,8.47l-.851-1.648,5.185-3.4h1.7V22.111H35.575V5.944Z" transform="translate(-19.755 -2.195)" fill="#f2f2f2"/>
      <path id="Path_1544" data-name="Path 1544" d="M66,3.418,59.889,25.195H61.8L67.919,3.418Z" transform="translate(-38.459 -2.195)" fill="#f2f2f2"/>
      <path id="Path_1545" data-name="Path 1545" d="M102.274,3.418V5.333H94.138V22.11H92.064V3.418Z" transform="translate(-59.122 -2.195)" fill="#f2f2f2"/>
      <path id="Path_1546" data-name="Path 1546" d="M123.676,8.47l-.851-1.648,5.185-3.4h1.7V22.111h-2.074V5.944Z" transform="translate(-78.876 -2.195)" fill="#f2f2f2"/>
      <path id="Path_1547" data-name="Path 1547" d="M158.412,3.418l9.572,12.976,1.648,2.446V3.418h2.074V22.11h-2.074L159.821,8.763l-1.409-2.048v15.4h-2.074V3.418Z" transform="translate(-100.397 -2.195)" fill="#f2f2f2"/>
      <g id="Group_260" data-name="Group 260" transform="translate(0 0)">
        <g id="Group_259" data-name="Group 259" clip-path="url(#clip-path)">
          <path id="Path_1548" data-name="Path 1548" d="M238.064,2.675c5.4,0,9.2,3.935,9.2,9.572,0,5.451-4.015,9.652-9.2,9.652-5.451,0-9.279-3.855-9.279-9.652a9.194,9.194,0,0,1,9.279-9.572m-.053,1.968c-3.749,0-7.046,2.819-7.046,7.6,0,5.025,3.191,7.684,7.1,7.684,3.563,0,7.02-2.765,7.02-7.631-.027-4.892-3.3-7.658-7.073-7.658" transform="translate(-146.921 -1.718)" fill="#f2f2f2"/>
          <path id="Path_1549" data-name="Path 1549" d="M290.236,16.868h1.994v9.253c0,2.313.665,3.084,2.18,3.084a5.657,5.657,0,0,0,1.7-.266l.4,1.648a6.469,6.469,0,0,1-2.5.425c-2.34,0-3.776-1.33-3.776-4.573Z" transform="translate(-186.384 -10.832)" fill="#f2f2f2"/>
          <path id="Path_1550" data-name="Path 1550" d="M316.38,16.868v6.567l5.876-6.567h2.473l-6.488,6.807,6.993,7.073H322.6l-6.222-6.435v6.435h-1.994V16.868Z" transform="translate(-201.892 -10.833)" fill="#f2f2f2"/>
          <path id="Path_1551" data-name="Path 1551" d="M350.646,16.868h1.994v9.253c0,2.313.665,3.084,2.18,3.084a5.657,5.657,0,0,0,1.7-.266l.4,1.648a6.469,6.469,0,0,1-2.5.425c-2.34,0-3.776-1.33-3.776-4.573Z" transform="translate(-225.178 -10.832)" fill="#f2f2f2"/>
          <path id="Path_1552" data-name="Path 1552" d="M377.463,16.051a5.961,5.961,0,0,1,5.318,3.058V16.343h1.994v13.88h-1.994V27.3a5.785,5.785,0,0,1-5.318,3.191c-3.776,0-6.754-2.553-6.754-7.153,0-4.653,2.978-7.285,6.754-7.285m.026,1.835c-2.685,0-4.68,1.675-4.68,5.424,0,3.4,1.994,5.345,4.68,5.345,2.9,0,4.733-2.313,5.291-5.371-.452-2.978-2.632-5.4-5.291-5.4" transform="translate(-238.062 -10.308)" fill="#f2f2f2"/>
          <path id="Path_1553" data-name="Path 1553" d="M424.345,16.868v6.567l5.876-6.567h2.473l-6.488,6.807,6.993,7.073h-2.632l-6.222-6.435v6.435h-1.994V16.868Z" transform="translate(-271.226 -10.833)" fill="#f2f2f2"/>
          <path id="Path_1554" data-name="Path 1554" d="M461.084,5.743c3.35,0,7.312,2.234,7.312,7.126a7.08,7.08,0,0,1-7.365,7.312,6.793,6.793,0,0,1-7.1-7.152,7.02,7.02,0,0,1,7.152-7.286m.053,1.835a4.986,4.986,0,0,0-5.1,5.318c0,3.776,2.393,5.451,5.1,5.451a4.9,4.9,0,0,0,5.158-5.291,5.081,5.081,0,0,0-5.158-5.477M462.706,0l-.851,4.2h-1.808l.691-4.2Z" transform="translate(-291.507 0)" fill="#f2f2f2"/>
        </g>
      </g>
    </g>
  </g>
</svg>
