<svg xmlns="http://www.w3.org/2000/svg" xmlns:xlink="http://www.w3.org/1999/xlink" width="260" height="48" viewBox="0 0 260 48">
  <defs>
    <clipPath id="clip-Gamma23_Epaggelmatiko_OffWhite">
      <rect width="260" height="48"/>
    </clipPath>
  </defs>
  <g id="Gamma23_Epaggelmatiko_OffWhite" data-name="Gamma23 Epaggelmatiko OffWhite" clip-path="url(#clip-Gamma23_Epaggelmatiko_OffWhite)">
    <g id="Group_166" data-name="Group 166" transform="translate(-48.599 -32.182)">
      <g id="Group_165" data-name="Group 165" transform="translate(48.599 45.182)">
        <path id="Path_539" data-name="Path 539" d="M59.8,48.6v2.1H50.874V69.1H48.6V48.6Z" transform="translate(-48.599 -47.258)" fill="#f2f2f2"/>
        <path id="Path_540" data-name="Path 540" d="M89.594,53.952a3.823,3.823,0,0,0-4.141-3.938,6.853,6.853,0,0,0-4.725,2.129l-.846-1.779a8.025,8.025,0,0,1,5.8-2.508c4.317,0,6.3,2.975,6.3,6.038,0,3.879-3.7,7.583-9.071,12.658h9.421v2.1H80.086V66.611C86.357,60.544,89.594,57.277,89.594,53.952Z" transform="translate(-67.603 -46.806)" fill="#f2f2f2"/>
        <path id="Path_541" data-name="Path 541" d="M117.684,65.094a6.567,6.567,0,0,0,4.4,1.692c2.8,0,4.52-1.779,4.52-3.937,0-2.129-1.546-3.7-4.52-3.7h-2.246v-2.1h2.187c2.538,0,3.909-1.634,3.909-3.529s-1.342-3.5-4-3.5a5.083,5.083,0,0,0-3.7,1.4l-.991-1.663a7.4,7.4,0,0,1,5.075-1.9c3.85,0,6.009,2.334,6.009,5.28a5.247,5.247,0,0,1-3.267,4.783,4.932,4.932,0,0,1,3.909,4.783c0,3.091-2.421,6.242-6.825,6.242a8.1,8.1,0,0,1-5.484-1.954Z" transform="translate(-89.948 -46.806)" fill="#f2f2f2"/>
        <path id="Path_542" data-name="Path 542" d="M189.165,48.6v2.1H180.24v7.058h7.642v2.1H180.24V67h8.925v2.1h-11.2V48.6Z" transform="translate(-127.188 -47.258)" fill="#f2f2f2"/>
        <path id="Path_543" data-name="Path 543" d="M229.207,62.05V77.275h-2.187V64h-8.9V77.275h-2.187V62.05Z" transform="translate(-150.256 -55.429)" fill="#f2f2f2"/>
        <path id="Path_544" data-name="Path 544" d="M266.738,61.232a6.538,6.538,0,0,1,5.833,3.354V61.553h2.187V76.778h-2.187V73.57a6.346,6.346,0,0,1-5.833,3.5c-4.142,0-7.408-2.8-7.408-7.846C259.33,64.12,262.6,61.232,266.738,61.232Zm.029,2.013c-2.946,0-5.134,1.838-5.134,5.95,0,3.733,2.187,5.863,5.134,5.863,3.179,0,5.191-2.538,5.8-5.892C272.076,65.9,269.684,63.245,266.768,63.245Z" transform="translate(-176.617 -54.932)" fill="#f2f2f2"/>
        <path id="Path_545" data-name="Path 545" d="M305.77,62.05h2.508L313,74.359l4.55-12.309h2.479L314,76.984v6.446h-2.187v-6.3Z" transform="translate(-204.83 -55.429)" fill="#f2f2f2"/>
        <path id="Path_546" data-name="Path 546" d="M344.037,62.05h2.508l4.725,12.309,4.55-12.309H358.3l-6.037,14.934v6.446h-2.187v-6.3Z" transform="translate(-228.077 -55.429)" fill="#f2f2f2"/>
        <path id="Path_547" data-name="Path 547" d="M387.406,68.845c-1.546-.671-2.625-1.6-2.625-3.238,0-2.654,2.392-4.375,6.621-4.375a11.168,11.168,0,0,1,5.512,1.254l-.642,1.925a9.352,9.352,0,0,0-4.783-1.167c-2.713,0-4.433.846-4.433,2.625,0,1.575,1.575,2.246,3.7,2.246h2.858v1.867h-2.975c-2.654,0-3.879.933-3.879,2.479,0,1.925,1.867,2.6,4.55,2.6a10.007,10.007,0,0,0,5.192-1.254l.554,1.72a12.005,12.005,0,0,1-6.125,1.546c-4,0-6.475-1.546-6.475-4.317A4.1,4.1,0,0,1,387.406,68.845Z" transform="translate(-252.633 -54.932)" fill="#f2f2f2"/>
        <path id="Path_548" data-name="Path 548" d="M425.48,53.094c-.991-2.625-1.954-3.179-3.324-3.179a2.889,2.889,0,0,0-1.4.35l-.408-1.925a5.909,5.909,0,0,1,2.187-.409c2.684,0,3.763,1.575,4.988,4.842L433.53,68.7h-2.421l-4.463-12.367L421.776,68.7h-2.392l6.3-15.021Z" transform="translate(-273.85 -46.852)" fill="#f2f2f2"/>
        <path id="Path_549" data-name="Path 549" d="M465.189,62.05v9.188c0,3,1.4,4.288,3.266,4.288,2.508,0,4.2-1.692,5.483-5.163V62.05h2.188V77.275h-2.188V73.921c-1.371,2.508-3.121,3.646-5.658,3.646a4.177,4.177,0,0,1-3.091-1.108v6.97H463V62.05Z" transform="translate(-300.347 -55.429)" fill="#f2f2f2"/>
        <path id="Path_550" data-name="Path 550" d="M513.432,61.232a6.538,6.538,0,0,1,5.833,3.354V61.553h2.187V76.778h-2.187V73.57a6.346,6.346,0,0,1-5.833,3.5c-4.142,0-7.409-2.8-7.409-7.846C506.024,64.12,509.291,61.232,513.432,61.232Zm.029,2.013c-2.946,0-5.133,1.838-5.133,5.95,0,3.733,2.187,5.863,5.133,5.863,3.179,0,5.192-2.538,5.8-5.892C518.77,65.9,516.379,63.245,513.462,63.245Z" transform="translate(-326.483 -54.932)" fill="#f2f2f2"/>
        <path id="Path_551" data-name="Path 551" d="M557.484,63.946h-4.871v-1.9h13.534v1.9h-6.475v7.9c0,2.829,1.021,3.733,2.684,3.733a5.177,5.177,0,0,0,2.6-.612l.642,1.662a7,7,0,0,1-3.675.933c-2.567,0-4.433-1.517-4.433-5.367Z" transform="translate(-354.786 -55.429)" fill="#f2f2f2"/>
        <path id="Path_552" data-name="Path 552" d="M595.19,62.05h2.187V72.2c0,2.538.729,3.383,2.391,3.383a6.206,6.206,0,0,0,1.867-.292l.438,1.808a7.1,7.1,0,0,1-2.742.467c-2.567,0-4.142-1.459-4.142-5.017Z" transform="translate(-380.651 -55.429)" fill="#f2f2f2"/>
        <path id="Path_553" data-name="Path 553" d="M621.526,62.05v7.2l6.446-7.2h2.712l-7.116,7.467,7.671,7.759h-2.888l-6.825-7.058v7.058h-2.187V62.05Z" transform="translate(-395.322 -55.429)" fill="#f2f2f2"/>
        <path id="Path_554" data-name="Path 554" d="M658.764,51.482c3.675,0,8.021,2.45,8.021,7.817a7.766,7.766,0,0,1-8.079,8.021,7.453,7.453,0,0,1-7.788-7.846A7.7,7.7,0,0,1,658.764,51.482Zm.058,2.013a5.469,5.469,0,0,0-5.6,5.833c0,4.142,2.625,5.979,5.6,5.979,3.033,0,5.658-1.9,5.658-5.8C664.481,55.478,661.681,53.494,658.823,53.494Zm1.721-8.312-.933,4.608h-1.983l.758-4.608Z" transform="translate(-414.506 -45.182)" fill="#f2f2f2"/>
      </g>
    </g>
  </g>
</svg>
