<svg width="85" height="17" viewBox="0 0 85 17" fill="none" xmlns="http://www.w3.org/2000/svg">
<path d="M6.18519 2.93728C6.18519 3.09018 6.3089 3.21894 6.45579 3.21894H7.46862C7.61552 3.21894 7.73922 3.34769 7.73922 3.50059V4.55479C7.73922 4.70769 7.86293 4.83645 8.00982 4.83645H9.02265C9.16955 4.83645 9.29325 4.96521 9.29325 5.11811V7.78178C9.29325 7.93468 9.41695 8.06343 9.56385 8.06343H10.5767C10.7236 8.06343 10.8473 8.19219 10.8473 8.34509V12.6102C10.8473 12.7631 10.7236 12.8918 10.5767 12.8918H9.56385C9.41695 12.8918 9.29325 13.0206 9.29325 13.1735V14.2196C9.29325 14.3725 9.16955 14.5013 9.02265 14.5013H8.00982C7.86293 14.5013 7.73922 14.6301 7.73922 14.783V15.8372C7.73922 15.9901 7.61552 16.1188 7.46862 16.1188H6.45579C6.3089 16.1188 6.18519 15.9901 6.18519 15.8372V14.783C6.18519 14.6301 6.3089 14.5013 6.45579 14.5013H7.46862C7.61552 14.5013 7.73922 14.3725 7.73922 14.2196V13.1735C7.73922 13.0206 7.73922 12.7711 7.73922 12.6102V11.564C7.73922 11.4111 7.61552 11.2824 7.46862 11.2824H6.45579C6.3089 11.2824 6.18519 11.1536 6.18519 11.0007V9.94651C6.18519 9.79361 6.06149 9.66486 5.91459 9.66486H4.9095C4.7626 9.66486 4.63889 9.79361 4.63889 9.94651V11.0007C4.63889 11.1536 4.51519 11.2824 4.36829 11.2824H3.3632C3.2163 11.2824 3.0926 11.4111 3.0926 11.564V12.6102C3.0926 12.7631 3.0926 13.0125 3.0926 13.1735V14.2196C3.0926 14.3725 3.2163 14.5013 3.3632 14.5013H4.37602C4.52292 14.5013 4.64663 14.6301 4.64663 14.783V15.8372C4.64663 15.9901 4.52292 16.1188 4.37602 16.1188H3.3632C3.2163 16.1188 3.0926 15.9901 3.0926 15.8372V14.783C3.0926 14.6301 2.96889 14.5013 2.82199 14.5013H1.8169C1.67 14.5013 1.5463 14.3725 1.5463 14.2196V13.1735C1.5463 13.0206 1.42259 12.8918 1.2757 12.8918H0.270602C0.123704 12.8918 0 12.7631 0 12.6102V8.34509C0 8.19219 0.123704 8.06343 0.270602 8.06343H1.2757C1.42259 8.06343 1.5463 7.93468 1.5463 7.78178V3.50059C1.5463 3.34769 1.67 3.21894 1.8169 3.21894H2.82973C2.97662 3.21894 3.10033 3.34769 3.10033 3.50059V4.55479C3.10033 4.70769 3.22403 4.83645 3.37093 4.83645H4.38375C4.53065 4.83645 4.65436 4.70769 4.65436 4.55479V0.281657C4.63889 0.128757 4.7626 0 4.9095 0H5.91459C6.06149 0 6.18519 0.128757 6.18519 0.281657V2.93728ZM17.017 12.8757H21.8956V11.8618H18.084V4.82036H17.0247V12.8757H17.017ZM23.9135 6.24474C24.0991 6.24474 24.2537 6.18036 24.3851 6.04355C24.5166 5.90675 24.5784 5.7458 24.5784 5.55266C24.5784 5.35953 24.5166 5.19858 24.3851 5.06178C24.2537 4.92497 24.0991 4.86059 23.9135 4.86059C23.7279 4.86059 23.5733 4.92497 23.4419 5.06178C23.3104 5.19858 23.2486 5.35953 23.2486 5.55266C23.2486 5.7458 23.3104 5.90675 23.4419 6.04355C23.5733 6.18036 23.7279 6.24474 23.9135 6.24474ZM23.4264 12.8757H24.4006V7.1219H23.4264V12.8757ZM26.0474 12.8757H27.0216V9.01302C27.2458 8.67503 27.4932 8.40947 27.7792 8.20829C28.0653 8.0071 28.3668 7.91054 28.6838 7.91054C29.0472 7.91054 29.3255 8.01515 29.5188 8.21633C29.7121 8.41752 29.8126 8.71527 29.8126 9.09349V12.8757H30.7868V8.90841C30.7868 8.32095 30.6244 7.8542 30.3152 7.51622C29.9982 7.17823 29.5498 7.00923 28.9699 7.00923C28.5833 7.00923 28.2199 7.09775 27.872 7.2587C27.5241 7.42769 27.2458 7.62888 27.0293 7.8703V7.1219H26.0551V12.8757H26.0474ZM33.8717 12.9884C34.2273 12.9884 34.5752 12.8918 34.9077 12.7067C35.2479 12.5217 35.5262 12.2963 35.7349 12.0469C35.8664 12.6424 36.2298 12.9482 36.8328 12.9482C37.0261 12.9482 37.2271 12.9079 37.4513 12.8355V12.071C37.3586 12.1032 37.258 12.1193 37.1653 12.1193C37.0029 12.1193 36.8792 12.071 36.8019 11.9664C36.7168 11.8618 36.6782 11.7169 36.6782 11.5238V8.82793C36.6782 8.28071 36.4849 7.84616 36.0983 7.50817C35.7118 7.17018 35.1937 7.00923 34.5443 7.00923C33.9954 7.00923 33.516 7.17018 33.0985 7.48403C32.681 7.79787 32.4336 8.25657 32.3486 8.86817H33.2686C33.3459 8.55432 33.4851 8.32095 33.6938 8.16805C33.9026 8.01515 34.1655 7.93468 34.4747 7.93468C34.8458 7.93468 35.1396 8.0232 35.3638 8.19219C35.588 8.36119 35.704 8.6187 35.704 8.94864V9.34296L33.9799 9.52805C33.4387 9.58438 32.998 9.76142 32.6423 10.0672C32.2867 10.373 32.1089 10.7995 32.1089 11.3307C32.1089 11.8376 32.2712 12.24 32.596 12.5458C32.9284 12.8355 33.3536 12.9884 33.8717 12.9884ZM33.9876 12.071C33.7248 12.071 33.5083 12.0066 33.3382 11.8698C33.1758 11.733 33.0908 11.5399 33.0908 11.2743C33.0908 11.0249 33.1758 10.8237 33.3382 10.6466C33.5005 10.4696 33.7402 10.365 34.0495 10.3328L35.7118 10.1396V11.1778C35.1319 11.7733 34.5598 12.071 33.9876 12.071ZM38.7038 12.8757H39.678V10.3006L41.8892 12.8757H43.1263L40.428 9.71314L42.8943 7.1219H41.6341L39.678 9.19006V4.47432H38.7038V12.8757ZM44.7576 6.24474C44.9432 6.24474 45.0978 6.18036 45.2292 6.04355C45.3606 5.90675 45.4225 5.7458 45.4225 5.55266C45.4225 5.35953 45.3606 5.19858 45.2292 5.06178C45.0978 4.92497 44.9432 4.86059 44.7576 4.86059C44.572 4.86059 44.4174 4.92497 44.286 5.06178C44.1545 5.19858 44.0927 5.35953 44.0927 5.55266C44.0927 5.7458 44.1545 5.90675 44.286 6.04355C44.4097 6.18036 44.572 6.24474 44.7576 6.24474ZM44.2705 12.8757H45.2447V7.1219H44.2705V12.8757ZM48.7857 12.9884C49.1955 12.9884 49.5666 12.9079 49.8836 12.747C50.2006 12.586 50.448 12.3607 50.6181 12.0791C50.7882 11.7974 50.8809 11.4755 50.8809 11.1214C50.8809 10.6949 50.734 10.3489 50.448 10.0994C50.1542 9.84994 49.7057 9.63267 49.095 9.46367C48.5692 9.31882 48.1981 9.17397 47.9816 9.04521C47.7574 8.90841 47.6492 8.73941 47.6492 8.53018C47.6492 8.3129 47.742 8.15196 47.9352 8.03929C48.1285 7.92663 48.345 7.8703 48.5847 7.8703C48.8939 7.8703 49.1491 7.95077 49.3501 8.11172C49.5511 8.27267 49.6671 8.50604 49.7057 8.81184H50.6645C50.6103 8.23243 50.4016 7.78178 50.0305 7.46793C49.6594 7.15409 49.18 6.99314 48.5847 6.99314C48.2213 6.99314 47.9043 7.06556 47.6182 7.20237C47.3322 7.34722 47.1157 7.53231 46.9533 7.77373C46.791 8.01515 46.7137 8.26462 46.7137 8.54628C46.7137 8.98083 46.8451 9.33491 47.108 9.59243C47.3708 9.84994 47.7806 10.0592 48.3373 10.204C48.9171 10.3569 49.3269 10.5098 49.5666 10.6547C49.8063 10.7995 49.9222 10.9927 49.9222 11.2421C49.9222 11.4916 49.814 11.6928 49.5975 11.8376C49.381 11.9825 49.1182 12.0549 48.8089 12.0549C48.3914 12.0549 48.0744 11.9664 47.8657 11.7974C47.6569 11.6284 47.51 11.3789 47.4327 11.0651H46.5126C46.5668 11.6606 46.791 12.1354 47.2007 12.4653C47.6028 12.8194 48.1363 12.9884 48.7857 12.9884ZM52.837 12.8757C53.0535 12.8757 53.239 12.7953 53.3937 12.6263C53.5483 12.4653 53.6333 12.2641 53.6333 12.0469C53.6333 11.8215 53.556 11.6284 53.3937 11.4675C53.2313 11.3065 53.0458 11.218 52.837 11.218C52.6205 11.218 52.435 11.2985 52.2803 11.4675C52.118 11.6365 52.0407 11.8296 52.0407 12.0469C52.0407 12.2722 52.118 12.4653 52.2803 12.6263C52.435 12.7953 52.6205 12.8757 52.837 12.8757ZM57.213 12.9884C57.6073 12.9884 57.9475 12.916 58.2413 12.7711C58.5351 12.6263 58.7825 12.4492 58.9681 12.24V12.8757H59.9422V4.47432H58.9681V7.73349C58.7593 7.50012 58.5042 7.32308 58.1872 7.20237C57.8702 7.07361 57.5377 7.00923 57.1898 7.00923C56.7105 7.00923 56.2775 7.12994 55.8987 7.37941C55.5121 7.62888 55.2183 7.97491 55.0018 8.42556C54.7853 8.87622 54.6848 9.40734 54.6848 10.0028C54.6848 10.5983 54.8008 11.1295 55.025 11.5801C55.257 12.0308 55.5585 12.3849 55.9451 12.6263C56.3316 12.8677 56.7569 12.9884 57.213 12.9884ZM57.3677 12.071C56.8651 12.071 56.4553 11.902 56.1383 11.556C55.8214 11.2099 55.659 10.6949 55.659 10.0028C55.659 9.31077 55.8214 8.79574 56.1383 8.44971C56.4553 8.10367 56.8728 7.93468 57.3677 7.93468C57.6537 7.93468 57.9166 8.0071 58.164 8.14391C58.4037 8.28876 58.6047 8.47385 58.7516 8.70722C58.8985 8.94059 58.9758 9.19006 58.9758 9.46367V10.5662C58.9758 10.8317 58.9062 11.0812 58.7593 11.3146C58.6124 11.5479 58.4191 11.725 58.1717 11.8698C57.9243 11.9986 57.6537 12.071 57.3677 12.071ZM62.0761 6.24474C62.2617 6.24474 62.4163 6.18036 62.5478 6.04355C62.6792 5.90675 62.741 5.7458 62.741 5.55266C62.741 5.35953 62.6792 5.19858 62.5478 5.06178C62.4163 4.92497 62.2617 4.86059 62.0761 4.86059C61.8906 4.86059 61.7359 4.92497 61.6045 5.06178C61.4731 5.19858 61.4112 5.35953 61.4112 5.55266C61.4112 5.7458 61.4731 5.90675 61.6045 6.04355C61.7359 6.18036 61.8906 6.24474 62.0761 6.24474ZM61.589 12.8757H62.5632V7.1219H61.589V12.8757ZM66.6454 15.2899C67.4495 15.2899 68.0758 15.0646 68.5165 14.622C68.9649 14.1794 69.1891 13.5839 69.1891 12.8355V7.1219H68.2149V7.75764C68.0216 7.54841 67.782 7.37136 67.4882 7.22651C67.1944 7.08166 66.8542 7.00923 66.4599 7.00923C66.0037 7.00923 65.5785 7.12994 65.1919 7.36332C64.8054 7.60474 64.4961 7.94272 64.2719 8.38533C64.0399 8.82793 63.9317 9.35101 63.9317 9.93847C63.9317 10.534 64.0399 11.057 64.2487 11.4996C64.4652 11.9423 64.759 12.2802 65.1378 12.5217C65.5166 12.755 65.9496 12.8757 66.4367 12.8757C66.8233 12.8757 67.148 12.8114 67.4263 12.6907C67.7047 12.5699 67.9675 12.3768 68.2149 12.1193V12.7872C68.2149 13.254 68.0912 13.6402 67.8438 13.9299C67.5964 14.2277 67.1866 14.3726 66.6145 14.3726C65.9109 14.3726 65.5012 14.0828 65.3775 13.5115H64.3183C64.3878 14.0587 64.6198 14.4933 65.0141 14.8152C65.4084 15.129 65.9496 15.2899 66.6454 15.2899ZM66.6145 11.9503C66.112 11.9503 65.7022 11.7894 65.3852 11.4594C65.0682 11.1295 64.9059 10.6225 64.9059 9.93847C64.9059 9.25444 65.0682 8.74746 65.3852 8.41752C65.7022 8.08758 66.1197 7.92663 66.6145 7.92663C66.9006 7.92663 67.1712 7.99906 67.4186 8.13586C67.666 8.28071 67.8593 8.47385 68.0062 8.73136C68.1531 8.98888 68.2227 9.27054 68.2227 9.58438V10.3247C68.2227 10.7915 68.0758 11.1858 67.782 11.4916C67.4804 11.7974 67.0939 11.9503 66.6145 11.9503ZM71.323 6.24474C71.5086 6.24474 71.6632 6.18036 71.7946 6.04355C71.926 5.90675 71.9879 5.7458 71.9879 5.55266C71.9879 5.35953 71.926 5.19858 71.7946 5.06178C71.6632 4.92497 71.5086 4.86059 71.323 4.86059C71.1374 4.86059 70.9828 4.92497 70.8514 5.06178C70.7199 5.19858 70.6581 5.35953 70.6581 5.55266C70.6581 5.7458 70.7199 5.90675 70.8514 6.04355C70.9828 6.18036 71.1374 6.24474 71.323 6.24474ZM70.8359 12.8757H71.8101V7.1219H70.8359V12.8757ZM75.4439 12.9884C75.7454 12.9884 76.0392 12.9482 76.3253 12.8757V12.0227C76.2866 12.0308 76.217 12.0469 76.1088 12.063C76.0005 12.0791 75.8768 12.0952 75.7377 12.0952C75.5057 12.0952 75.3356 12.0388 75.2274 11.9342C75.1114 11.8296 75.0573 11.6767 75.0573 11.4755V8.03929H76.3871V7.1219H75.0573V5.7619L74.0831 5.39172V7.11385H72.9853V8.03125H74.0831V11.5318C74.0831 11.9986 74.1991 12.3607 74.4388 12.6102C74.6862 12.8677 75.0186 12.9884 75.4439 12.9884ZM79.1937 12.9884C79.5493 12.9884 79.8972 12.8918 80.2297 12.7067C80.5699 12.5217 80.8482 12.2963 81.0569 12.0469C81.1884 12.6424 81.5518 12.9482 82.1548 12.9482C82.3481 12.9482 82.5491 12.9079 82.7733 12.8355V12.071C82.6805 12.1032 82.58 12.1193 82.4873 12.1193C82.3249 12.1193 82.2012 12.071 82.1239 11.9664C82.0388 11.8618 82.0002 11.7169 82.0002 11.5238V8.82793C82.0002 8.28071 81.8069 7.84616 81.4203 7.50817C81.0337 7.17018 80.5157 7.00923 79.8663 7.00923C79.3174 7.00923 78.838 7.17018 78.4205 7.48403C78.003 7.79787 77.7556 8.25657 77.6705 8.86817H78.5906C78.6679 8.55432 78.8071 8.32095 79.0158 8.16805C79.2246 8.01515 79.4874 7.93468 79.7967 7.93468C80.1678 7.93468 80.4616 8.0232 80.6858 8.19219C80.91 8.36119 81.026 8.6187 81.026 8.94864V9.34296L79.3019 9.52805C78.7607 9.58438 78.32 9.76142 77.9643 10.0672C77.6087 10.373 77.4309 10.7995 77.4309 11.3307C77.4309 11.8376 77.5932 12.24 77.918 12.5458C78.2427 12.8355 78.6679 12.9884 79.1937 12.9884ZM79.3019 12.071C79.039 12.071 78.8225 12.0066 78.6524 11.8698C78.4901 11.733 78.405 11.5399 78.405 11.2743C78.405 11.0249 78.4901 10.8237 78.6524 10.6466C78.8148 10.4696 79.0545 10.365 79.3637 10.3328L81.026 10.1396V11.1778C80.4539 11.7733 79.8818 12.071 79.3019 12.071ZM84.0258 12.8757H85V4.47432H84.0258V12.8757Z" fill="#F2F2F2"/>
</svg>
