<svg xmlns="http://www.w3.org/2000/svg" width="370.26" height="48" viewBox="0 0 370.26 48">
  <g id="Group_16" data-name="Group 16" transform="translate(-24.3 -24.289)">
    <g id="dei_logo" data-name="dei logo" transform="translate(24.3 24.289)">
      <g id="Group_13" data-name="Group 13">
        <path id="Path_68" data-name="Path 68" d="M113.363,83.219h-1.63a.191.191,0,0,0-.191.191v4.18a.143.143,0,0,1-.143.143h-5.022a.143.143,0,0,1-.143-.143l0-4.18a.191.191,0,0,0-.191-.191h-1.63a.191.191,0,0,0-.191.191V94.073a.191.191,0,0,0,.191.191h1.634a.191.191,0,0,0,.191-.191l0-4.181a.144.144,0,0,1,.143-.143l5.022,0a.143.143,0,0,1,.143.143v4.183a.191.191,0,0,0,.191.191h1.634a.191.191,0,0,0,.191-.191l0-10.663A.191.191,0,0,0,113.363,83.219Z" transform="translate(-73.507 -60.573)" fill="#f2f2f2"/>
        <path id="Path_69" data-name="Path 69" d="M83.957,73.247V71.661a.191.191,0,0,0-.191-.191H75.287a.191.191,0,0,0-.191.191V82.324a.191.191,0,0,0,.191.191l8.479,0a.191.191,0,0,0,.191-.191V80.737a.191.191,0,0,0-.191-.191H77.255a.143.143,0,0,1-.143-.143v-2.28a.143.143,0,0,1,.143-.143l5.033,0a.191.191,0,0,0,.191-.191V76.2a.191.191,0,0,0-.191-.191H77.253a.144.144,0,0,1-.143-.143V73.584a.143.143,0,0,1,.143-.143l6.514,0A.191.191,0,0,0,83.957,73.247Z" transform="translate(-55.575 -53.339)" fill="#f2f2f2"/>
        <path id="Path_70" data-name="Path 70" d="M45.289,59.723H43.045a.294.294,0,0,0-.269.174l-4.629,10.4a.338.338,0,0,0,.309.476l11.425,0a.338.338,0,0,0,.309-.476L45.558,59.9A.294.294,0,0,0,45.289,59.723Zm-4.237,8.936,3-6.722a.129.129,0,0,1,.236,0l3,6.722a.146.146,0,0,1-.133.206H41.185A.146.146,0,0,1,41.052,68.659Z" transform="translate(-32.808 -46.106)" fill="#f2f2f2"/>
        <path id="Path_71" data-name="Path 71" d="M79.357,32.727a22.34,22.34,0,0,1-20.49,39.7l-.758,1.47A23.994,23.994,0,0,0,80.115,31.257Z" transform="translate(-45.116 -28.579)" fill="#f2f2f2"/>
        <path id="Path_72" data-name="Path 72" d="M38.05,68.141a22.34,22.34,0,0,1,20.49-39.7l.759-1.47A23.994,23.994,0,0,0,37.292,69.611Z" transform="translate(-24.3 -24.289)" fill="#f2f2f2"/>
      </g>
    </g>
    <g id="keimena" transform="translate(90.966 36.963)">
      <g id="Group_15" data-name="Group 15">
        <g id="Group_14" data-name="Group 14">
          <path id="Path_73" data-name="Path 73" d="M199.921,72.669v3.484c1.485-2.6,3.37-3.8,5.825-3.8a4.524,4.524,0,0,1,4.8,4.084c1.514-2.8,3.427-4.084,5.968-4.084,2.484,0,4.94,1.285,4.94,5.94v9.281h-2.142v-9c0-2.97-1.342-4.226-3.256-4.226-2.341,0-4.055,1.714-5.369,5.112v8.11h-2.142v-9c0-2.97-1.342-4.226-3.255-4.226-2.37,0-4.027,1.714-5.369,5.14v8.082h-2.142V72.669Z" transform="translate(-197.779 -66.558)" fill="#f2f2f2"/>
          <path id="Path_74" data-name="Path 74" d="M271.526,88.279l-6.054-15.106h2.456l4.712,12.336,4.369-12.336h2.427l-8.053,20.875H269.1l2.456-5.769Z" transform="translate(-239.458 -67.062)" fill="#f2f2f2"/>
          <path id="Path_75" data-name="Path 75" d="M314.55,59.723c3.6,0,6.539,1.371,6.539,5.283a4.6,4.6,0,0,1-2.6,4.4c2.484.742,4,2.428,4,4.826,0,3.427-2.97,5.569-6.854,5.569h-5.654V59.723Zm4.2,5.283c0-2.285-1.514-3.227-4.226-3.227h-2.313v6.882h2.342C317.263,68.661,318.748,67.29,318.748,65.006Zm1.4,9.11c0-2.056-1.8-3.627-4.855-3.627h-3.084v7.253h3.513C318.719,77.742,320.147,75.943,320.147,74.115Z" transform="translate(-266.863 -58.78)" fill="#f2f2f2"/>
          <path id="Path_76" data-name="Path 76" d="M351.444,73.173h2.142v9c0,2.941,1.371,4.2,3.2,4.2,2.456,0,4.112-1.656,5.369-5.054V73.173h2.142V88.08h-2.142V84.71c-1.428,2.513-3.313,3.655-5.826,3.655-2.456,0-4.883-1.257-4.883-5.94Z" transform="translate(-292.392 -67.062)" fill="#f2f2f2"/>
          <path id="Path_77" data-name="Path 77" d="M397.449,57.27a1.591,1.591,0,0,1,1.6,1.571,1.61,1.61,0,0,1-1.6,1.571,1.585,1.585,0,0,1-1.571-1.571A1.566,1.566,0,0,1,397.449,57.27Zm1.086,6.111V78.288h-2.142V63.381Z" transform="translate(-319.751 -57.27)" fill="#f2f2f2"/>
          <path id="Path_78" data-name="Path 78" d="M417.266,59.723V79.8h-2.142V59.723Z" transform="translate(-331.6 -58.78)" fill="#f2f2f2"/>
          <path id="Path_79" data-name="Path 79" d="M437.506,64.577a6.387,6.387,0,0,1,5.74,3.341v-8.2h2.142V79.8h-2.142v-3.17a6.231,6.231,0,0,1-5.74,3.456c-4.027,0-7.225-2.742-7.225-7.682C430.281,67.4,433.479,64.577,437.506,64.577Zm.028,1.971c-2.856,0-5,1.8-5,5.825,0,3.655,2.142,5.74,5,5.74,3.141,0,5.112-2.484,5.711-5.769C442.76,69.147,440.447,66.548,437.534,66.548Z" transform="translate(-340.933 -58.78)" fill="#f2f2f2"/>
          <path id="Path_80" data-name="Path 80" d="M482.156,57.27a1.591,1.591,0,0,1,1.6,1.571,1.61,1.61,0,0,1-1.6,1.571,1.585,1.585,0,0,1-1.571-1.571A1.566,1.566,0,0,1,482.156,57.27Zm1.086,6.111V78.288H481.1V63.381Z" transform="translate(-371.905 -57.27)" fill="#f2f2f2"/>
          <path id="Path_81" data-name="Path 81" d="M501.973,72.669v3.512c1.542-2.627,3.484-3.827,5.94-3.827,2.513,0,4.969,1.285,4.969,5.94v9.281h-2.142v-9c0-2.97-1.371-4.226-3.255-4.226-2.542,0-4.17,1.685-5.511,5.112v8.11h-2.142V72.669Z" transform="translate(-383.755 -66.558)" fill="#f2f2f2"/>
          <path id="Path_82" data-name="Path 82" d="M544.326,89.889a11.4,11.4,0,0,0,6.2,1.971c2.856,0,5.369-1.6,5.369-4.427V84.378a6.181,6.181,0,0,1-5.74,3.2c-4.026,0-7.225-2.627-7.225-7.539,0-5,3.2-7.682,7.225-7.682a6.357,6.357,0,0,1,5.74,3.341V72.669h2.142V87.348c0,4.026-3.455,6.482-7.6,6.482a11.575,11.575,0,0,1-6.539-1.913Zm5.854-15.563c-2.855,0-5.026,1.628-5.026,5.683,0,3.655,2.17,5.6,5.026,5.6,3.141,0,5.112-2.2,5.712-5.483C555.405,76.924,553.092,74.326,550.18,74.326Z" transform="translate(-410.289 -66.558)" fill="#f2f2f2"/>
          <path id="Path_83" data-name="Path 83" d="M602.009,58.979a10.693,10.693,0,0,1,7.4,2.827l-1.485,1.742a8.409,8.409,0,0,0-5.968-2.456c-4.027,0-7.568,3.027-7.568,8.167,0,5.4,3.456,8.253,7.625,8.253,3.57,0,6.625-2.456,6.968-6.939h-6.168V68.517h8.539v1.028c0,5.711-3.769,10.081-9.338,10.081-5.854,0-9.966-4.141-9.966-10.367C592.043,63.377,596.24,58.979,602.009,58.979Z" transform="translate(-440.531 -58.322)" fill="#f2f2f2"/>
          <path id="Path_84" data-name="Path 84" d="M655.917,72.355a6.4,6.4,0,0,1,5.711,3.284v-2.97h2.142V87.576h-2.142V84.435a6.213,6.213,0,0,1-5.711,3.427c-4.055,0-7.253-2.742-7.253-7.682C648.663,75.182,651.861,72.355,655.917,72.355Zm.028,1.971c-2.884,0-5.026,1.8-5.026,5.825,0,3.655,2.142,5.74,5.026,5.74,3.112,0,5.083-2.484,5.683-5.769C661.142,76.924,658.8,74.326,655.945,74.326Z" transform="translate(-475.393 -66.558)" fill="#f2f2f2"/>
          <path id="Path_85" data-name="Path 85" d="M697.709,84.806a9.28,9.28,0,0,0,4.4,1.085c2.085,0,3.57-.543,3.57-2.313,0-3.827-8.281-.657-8.281-6.854,0-2.6,1.942-4.369,5.454-4.369a9.83,9.83,0,0,1,4.483,1.114l-.571,1.971a7.438,7.438,0,0,0-3.883-1.114c-1.8,0-3.284.742-3.284,2.285,0,4.284,8.224,1.085,8.224,6.853,0,2.742-2.656,4.4-5.74,4.4a12.277,12.277,0,0,1-4.969-1.114Z" transform="translate(-505.222 -66.558)" fill="#f2f2f2"/>
          <path id="Path_86" data-name="Path 86" d="M741.467,58.979a9.6,9.6,0,0,1,7.2,2.913l-1.4,1.828a7.389,7.389,0,0,0-5.854-2.627c-3.941,0-7.482,3.027-7.482,8.167,0,5.4,3.427,8.253,7.539,8.253a7.5,7.5,0,0,0,5.74-2.57l1.485,1.542a9.665,9.665,0,0,1-7.225,3.142c-5.854,0-9.88-4.141-9.88-10.367C731.587,63.377,735.785,58.979,741.467,58.979Z" transform="translate(-526.45 -58.322)" fill="#f2f2f2"/>
          <path id="Path_87" data-name="Path 87" d="M789.2,72.355c3.6,0,7.853,2.4,7.853,7.654a7.6,7.6,0,0,1-7.91,7.853,7.3,7.3,0,0,1-7.625-7.682A7.54,7.54,0,0,1,789.2,72.355Zm.058,1.971a5.355,5.355,0,0,0-5.483,5.711c0,4.055,2.57,5.854,5.483,5.854a5.265,5.265,0,0,0,5.54-5.683C794.8,76.267,792.058,74.326,789.259,74.326Z" transform="translate(-557.194 -66.558)" fill="#f2f2f2"/>
          <path id="Path_88" data-name="Path 88" d="M833.6,72.669v3.512c1.542-2.627,3.484-3.827,5.94-3.827,2.513,0,4.969,1.285,4.969,5.94v9.281h-2.142v-9c0-2.97-1.371-4.226-3.255-4.226-2.542,0-4.17,1.685-5.512,5.112v8.11h-2.142V72.669Z" transform="translate(-587.939 -66.558)" fill="#f2f2f2"/>
          <path id="Path_89" data-name="Path 89" d="M874.663,67.772H871.95V65.944h2.713V61.432H876.8v4.512h5.54v1.828H876.8v7.767c0,2.77,1.2,3.655,2.827,3.655a6.324,6.324,0,0,0,3.027-.8l.542,1.742a7.971,7.971,0,0,1-4,1c-2.513,0-4.541-1.485-4.541-5.255Z" transform="translate(-612.873 -59.833)" fill="#f2f2f2"/>
          <path id="Path_90" data-name="Path 90" d="M909.685,72.716V76.2c1.171-2.056,2.855-3.77,5.112-3.77a4.172,4.172,0,0,1,1.513.286l-.457,1.885a3.552,3.552,0,0,0-1.171-.228c-2.171,0-3.941,2.142-5,5.026v8.224h-2.142V72.716Z" transform="translate(-634.788 -66.604)" fill="#f2f2f2"/>
          <path id="Path_91" data-name="Path 91" d="M939.967,72.355c3.6,0,7.853,2.4,7.853,7.654a7.6,7.6,0,0,1-7.91,7.853,7.3,7.3,0,0,1-7.625-7.682A7.54,7.54,0,0,1,939.967,72.355Zm.057,1.971a5.355,5.355,0,0,0-5.483,5.711c0,4.055,2.57,5.854,5.483,5.854,2.97,0,5.54-1.857,5.54-5.683C945.564,76.267,942.823,74.326,940.024,74.326Z" transform="translate(-650.022 -66.558)" fill="#f2f2f2"/>
          <path id="Path_92" data-name="Path 92" d="M984.36,59.723V79.8h-2.142V59.723Z" transform="translate(-680.766 -58.78)" fill="#f2f2f2"/>
        </g>
      </g>
    </g>
  </g>
</svg>
