<svg xmlns="http://www.w3.org/2000/svg" xmlns:xlink="http://www.w3.org/1999/xlink" width="224" height="48" viewBox="0 0 224 48">
  <defs>
    <clipPath id="clip-path">
      <rect id="Rectangle_95" data-name="Rectangle 95" width="223.516" height="48" fill="#f2f2f2"/>
    </clipPath>
    <clipPath id="clip-myRewards_offwhite">
      <rect width="224" height="48"/>
    </clipPath>
  </defs>
  <g id="myRewards_offwhite" data-name="myRewards offwhite" clip-path="url(#clip-myRewards_offwhite)">
    <g id="Group_305" data-name="Group 305">
      <g id="Group_304" data-name="Group 304" clip-path="url(#clip-path)">
        <path id="Path_1829" data-name="Path 1829" d="M89.064,58.929h-1.63a.191.191,0,0,0-.191.191V63.3a.143.143,0,0,1-.143.143H82.078a.143.143,0,0,1-.143-.143l0-4.18a.191.191,0,0,0-.191-.191h-1.63a.191.191,0,0,0-.191.191V69.783a.191.191,0,0,0,.191.191h1.634a.19.19,0,0,0,.191-.191l0-4.18a.143.143,0,0,1,.143-.143l5.022,0a.143.143,0,0,1,.143.143v4.183a.191.191,0,0,0,.191.191h1.634a.191.191,0,0,0,.191-.191l0-10.663a.191.191,0,0,0-.191-.191" transform="translate(-49.208 -36.283)" fill="#f2f2f2"/>
        <path id="Path_1830" data-name="Path 1830" d="M59.657,48.957V47.371a.191.191,0,0,0-.191-.191H50.987a.191.191,0,0,0-.191.191V58.034a.191.191,0,0,0,.191.191l8.479,0a.191.191,0,0,0,.191-.191V56.447a.191.191,0,0,0-.191-.191H52.955a.143.143,0,0,1-.143-.143v-2.28a.143.143,0,0,1,.143-.143l5.033,0a.191.191,0,0,0,.191-.191V51.909a.191.191,0,0,0-.191-.191H52.953a.143.143,0,0,1-.143-.143V49.294a.143.143,0,0,1,.143-.143l6.514,0a.191.191,0,0,0,.191-.191" transform="translate(-31.276 -29.049)" fill="#f2f2f2"/>
        <path id="Path_1831" data-name="Path 1831" d="M20.99,35.433H18.745a.294.294,0,0,0-.269.174L13.848,46a.338.338,0,0,0,.309.476l11.425,0A.338.338,0,0,0,25.891,46L21.258,35.607a.294.294,0,0,0-.269-.174M16.753,44.37l3-6.722a.129.129,0,0,1,.236,0l3,6.722a.146.146,0,0,1-.133.205H16.886a.146.146,0,0,1-.133-.205" transform="translate(-8.508 -21.817)" fill="#f2f2f2"/>
        <path id="Path_1832" data-name="Path 1832" d="M55.057,8.438a22.34,22.34,0,0,1-20.489,39.7l-.759,1.47A23.994,23.994,0,0,0,55.815,6.968Z" transform="translate(-20.817 -4.29)" fill="#f2f2f2"/>
        <path id="Path_1833" data-name="Path 1833" d="M13.751,43.852A22.34,22.34,0,0,1,34.24,4.148L35,2.678A23.994,23.994,0,0,0,12.992,45.322Z" transform="translate(0 0)" fill="#f2f2f2"/>
        <path id="Path_1834" data-name="Path 1834" d="M175.621,48.381v3.484c1.485-2.6,3.37-3.8,5.825-3.8a4.523,4.523,0,0,1,4.8,4.083c1.513-2.8,3.427-4.083,5.968-4.083,2.484,0,4.94,1.285,4.94,5.94v9.281H195.01v-9c0-2.97-1.342-4.226-3.255-4.226-2.341,0-4.055,1.714-5.368,5.112v8.11h-2.142v-9c0-2.97-1.342-4.226-3.255-4.226-2.37,0-4.027,1.714-5.368,5.14v8.082h-2.142V48.381Z" transform="translate(-106.813 -29.596)" fill="#f2f2f2"/>
        <path id="Path_1835" data-name="Path 1835" d="M247.226,63.99l-6.054-15.106h2.456L248.34,61.22l4.369-12.336h2.427l-8.053,20.875H244.8l2.456-5.769Z" transform="translate(-148.493 -30.099)" fill="#f2f2f2"/>
        <path id="Path_1836" data-name="Path 1836" d="M290.279,35.434c3.884,0,7.253,1.342,7.253,5.768a5.628,5.628,0,0,1-4.4,5.712l5.254,8.6h-2.656l-4.8-8.253a5.074,5.074,0,0,1-.657.028h-2.37v8.224h-2.227V35.434Zm4.912,5.911c0-2.513-1.6-3.855-4.912-3.855h-2.37v7.739h2.4c3.284,0,4.883-1.627,4.883-3.884" transform="translate(-175.898 -21.817)" fill="#f2f2f2"/>
        <path id="Path_1837" data-name="Path 1837" d="M330.9,48.066c3.8,0,6.882,2.57,6.882,7.768a6.594,6.594,0,0,1-.057.8H325.936c.2,3.341,2.142,4.969,5.511,4.969a9.306,9.306,0,0,0,5.111-1.313l.486,1.742a10.78,10.78,0,0,1-5.712,1.542c-4.712,0-7.681-2.742-7.681-7.568,0-5.111,3.341-7.939,7.253-7.939m-.057,1.971c-2.6,0-4.512,1.571-4.883,4.769H335.5c-.285-3.256-2.113-4.769-4.654-4.769" transform="translate(-199.276 -29.595)" fill="#f2f2f2"/>
        <path id="Path_1838" data-name="Path 1838" d="M364.742,48.884H367.2l4,11.994,4.141-11.994h2.142l3.8,12.022,4.312-12.022h2.428L382.132,63.79l-1.97-.028-3.827-11.794L372.081,63.79l-2-.028Z" transform="translate(-224.577 -30.099)" fill="#f2f2f2"/>
        <path id="Path_1839" data-name="Path 1839" d="M436.122,48.066a6.4,6.4,0,0,1,5.711,3.284V48.38h2.142V63.287h-2.142V60.146a6.213,6.213,0,0,1-5.711,3.427c-4.055,0-7.253-2.742-7.253-7.682,0-5,3.2-7.824,7.253-7.824m.028,1.971c-2.884,0-5.026,1.8-5.026,5.825,0,3.655,2.142,5.74,5.026,5.74,3.113,0,5.083-2.484,5.683-5.769-.486-3.2-2.827-5.8-5.683-5.8" transform="translate(-264.061 -29.595)" fill="#f2f2f2"/>
        <path id="Path_1840" data-name="Path 1840" d="M482.653,48.427V51.91c1.171-2.056,2.856-3.769,5.112-3.769a4.17,4.17,0,0,1,1.513.286l-.457,1.885a3.548,3.548,0,0,0-1.171-.228c-2.17,0-3.941,2.142-5,5.026v8.224h-2.142V48.427Z" transform="translate(-295.857 -29.641)" fill="#f2f2f2"/>
        <path id="Path_1841" data-name="Path 1841" d="M512.553,40.288a6.387,6.387,0,0,1,5.74,3.341v-8.2h2.142V55.509h-2.142v-3.17a6.231,6.231,0,0,1-5.74,3.456c-4.027,0-7.225-2.742-7.225-7.682,0-5,3.2-7.824,7.225-7.824m.028,1.971c-2.856,0-5,1.8-5,5.825,0,3.655,2.141,5.74,5,5.74,3.141,0,5.112-2.484,5.711-5.769-.485-3.2-2.8-5.8-5.711-5.8" transform="translate(-311.138 -21.817)" fill="#f2f2f2"/>
        <path id="Path_1842" data-name="Path 1842" d="M554.375,60.517a9.284,9.284,0,0,0,4.4,1.085c2.085,0,3.57-.543,3.57-2.313,0-3.827-8.281-.657-8.281-6.854,0-2.6,1.941-4.369,5.454-4.369A9.83,9.83,0,0,1,564,49.18l-.571,1.971a7.436,7.436,0,0,0-3.884-1.114c-1.8,0-3.284.742-3.284,2.284,0,4.284,8.224,1.085,8.224,6.854,0,2.741-2.656,4.4-5.74,4.4a12.276,12.276,0,0,1-4.968-1.114Z" transform="translate(-340.967 -29.595)" fill="#f2f2f2"/>
      </g>
    </g>
  </g>
</svg>
