<svg xmlns="http://www.w3.org/2000/svg" xmlns:xlink="http://www.w3.org/1999/xlink" width="346" height="48" viewBox="0 0 346 48">
  <defs>
    <clipPath id="clip-path">
      <rect id="Rectangle_96" data-name="Rectangle 96" width="345.815" height="48" fill="#f2f2f2"/>
    </clipPath>
    <clipPath id="clip-myRewardsCoupons_offwhite">
      <rect width="346" height="48"/>
    </clipPath>
  </defs>
  <g id="myRewardsCoupons_offwhite" data-name="myRewardsCoupons offwhite" clip-path="url(#clip-myRewardsCoupons_offwhite)">
    <g id="Group_307" data-name="Group 307">
      <g id="Group_306" data-name="Group 306" clip-path="url(#clip-path)">
        <path id="Path_1843" data-name="Path 1843" d="M89.064,58.929h-1.63a.191.191,0,0,0-.191.191V63.3a.143.143,0,0,1-.143.143H82.078a.143.143,0,0,1-.143-.143l0-4.18a.191.191,0,0,0-.191-.191h-1.63a.191.191,0,0,0-.191.191V69.783a.191.191,0,0,0,.191.191h1.634a.19.19,0,0,0,.191-.191l0-4.18a.143.143,0,0,1,.143-.143l5.022,0a.143.143,0,0,1,.143.143v4.183a.191.191,0,0,0,.191.191h1.634a.191.191,0,0,0,.191-.191l0-10.663a.191.191,0,0,0-.191-.191" transform="translate(-49.208 -36.283)" fill="#f2f2f2"/>
        <path id="Path_1844" data-name="Path 1844" d="M59.657,48.957V47.371a.191.191,0,0,0-.191-.191H50.987a.191.191,0,0,0-.191.191V58.034a.191.191,0,0,0,.191.191l8.479,0a.191.191,0,0,0,.191-.191V56.447a.191.191,0,0,0-.191-.191H52.955a.143.143,0,0,1-.143-.143v-2.28a.143.143,0,0,1,.143-.143l5.033,0a.191.191,0,0,0,.191-.191V51.909a.191.191,0,0,0-.191-.191H52.953a.143.143,0,0,1-.143-.143V49.294a.143.143,0,0,1,.143-.143l6.514,0a.191.191,0,0,0,.191-.191" transform="translate(-31.276 -29.049)" fill="#f2f2f2"/>
        <path id="Path_1845" data-name="Path 1845" d="M20.99,35.433H18.745a.294.294,0,0,0-.269.174L13.848,46a.338.338,0,0,0,.309.476l11.425,0A.338.338,0,0,0,25.891,46L21.258,35.607a.294.294,0,0,0-.269-.174M16.753,44.37l3-6.722a.129.129,0,0,1,.236,0l3,6.722a.146.146,0,0,1-.133.206H16.886a.146.146,0,0,1-.133-.206" transform="translate(-8.508 -21.817)" fill="#f2f2f2"/>
        <path id="Path_1846" data-name="Path 1846" d="M55.057,8.438a22.34,22.34,0,0,1-20.489,39.7l-.759,1.47A23.994,23.994,0,0,0,55.815,6.968Z" transform="translate(-20.817 -4.29)" fill="#f2f2f2"/>
        <path id="Path_1847" data-name="Path 1847" d="M13.751,43.852A22.34,22.34,0,0,1,34.24,4.148L35,2.678A23.994,23.994,0,0,0,12.992,45.322Z" transform="translate(0 0)" fill="#f2f2f2"/>
        <path id="Path_1848" data-name="Path 1848" d="M175.622,48.382v3.484c1.485-2.6,3.37-3.8,5.825-3.8a4.523,4.523,0,0,1,4.8,4.083c1.514-2.8,3.427-4.083,5.968-4.083,2.484,0,4.94,1.285,4.94,5.94v9.281h-2.142v-9c0-2.97-1.342-4.226-3.256-4.226-2.341,0-4.055,1.714-5.368,5.112v8.11h-2.142v-9c0-2.97-1.342-4.226-3.255-4.226-2.37,0-4.027,1.714-5.368,5.14v8.082H173.48V48.382Z" transform="translate(-106.814 -29.596)" fill="#f2f2f2"/>
        <path id="Path_1849" data-name="Path 1849" d="M247.227,63.99l-6.054-15.107h2.456L248.34,61.22l4.369-12.337h2.427l-8.053,20.875H244.8l2.456-5.769Z" transform="translate(-148.493 -30.098)" fill="#f2f2f2"/>
        <path id="Path_1850" data-name="Path 1850" d="M290.28,35.434c3.884,0,7.253,1.342,7.253,5.768a5.628,5.628,0,0,1-4.4,5.712l5.254,8.6h-2.656l-4.8-8.253a5.076,5.076,0,0,1-.657.028h-2.37v8.224h-2.227V35.434Zm4.912,5.911c0-2.513-1.6-3.855-4.912-3.855h-2.37v7.739h2.4c3.284,0,4.883-1.628,4.883-3.884" transform="translate(-175.898 -21.817)" fill="#f2f2f2"/>
        <path id="Path_1851" data-name="Path 1851" d="M330.905,48.067c3.8,0,6.882,2.57,6.882,7.767a6.6,6.6,0,0,1-.057.8H325.937c.2,3.341,2.142,4.969,5.511,4.969a9.3,9.3,0,0,0,5.111-1.313l.486,1.742a10.781,10.781,0,0,1-5.711,1.542c-4.712,0-7.681-2.741-7.681-7.567,0-5.111,3.341-7.939,7.253-7.939m-.057,1.97c-2.6,0-4.512,1.571-4.883,4.769H335.5c-.285-3.255-2.113-4.769-4.654-4.769" transform="translate(-199.277 -29.596)" fill="#f2f2f2"/>
        <path id="Path_1852" data-name="Path 1852" d="M364.742,48.884H367.2l4,11.994,4.141-11.994h2.142l3.8,12.022,4.312-12.022h2.428l-5.883,14.907-1.97-.028-3.827-11.794-4.255,11.823-2-.028Z" transform="translate(-224.577 -30.098)" fill="#f2f2f2"/>
        <path id="Path_1853" data-name="Path 1853" d="M436.122,48.067a6.4,6.4,0,0,1,5.711,3.284v-2.97h2.142V63.287h-2.142V60.146a6.213,6.213,0,0,1-5.711,3.427c-4.055,0-7.253-2.741-7.253-7.682,0-5,3.2-7.824,7.253-7.824m.028,1.97c-2.884,0-5.026,1.8-5.026,5.825,0,3.655,2.142,5.74,5.026,5.74,3.113,0,5.083-2.484,5.683-5.769-.485-3.2-2.827-5.8-5.683-5.8" transform="translate(-264.061 -29.596)" fill="#f2f2f2"/>
        <path id="Path_1854" data-name="Path 1854" d="M482.654,48.427v3.484c1.171-2.056,2.856-3.769,5.112-3.769a4.171,4.171,0,0,1,1.513.285l-.457,1.885a3.547,3.547,0,0,0-1.171-.228c-2.17,0-3.941,2.142-5,5.026v8.224h-2.142V48.427Z" transform="translate(-295.858 -29.642)" fill="#f2f2f2"/>
        <path id="Path_1855" data-name="Path 1855" d="M512.553,40.289a6.387,6.387,0,0,1,5.74,3.341v-8.2h2.142V55.509h-2.142V52.34a6.231,6.231,0,0,1-5.74,3.455c-4.027,0-7.225-2.741-7.225-7.682,0-5,3.2-7.824,7.225-7.824m.028,1.97c-2.856,0-5,1.8-5,5.825,0,3.655,2.142,5.74,5,5.74,3.141,0,5.112-2.484,5.711-5.769-.485-3.2-2.8-5.8-5.711-5.8" transform="translate(-311.138 -21.817)" fill="#f2f2f2"/>
        <path id="Path_1856" data-name="Path 1856" d="M554.375,60.518a9.284,9.284,0,0,0,4.4,1.085c2.085,0,3.57-.543,3.57-2.313,0-3.826-8.281-.657-8.281-6.853,0-2.6,1.941-4.369,5.454-4.369A9.829,9.829,0,0,1,564,49.181l-.571,1.971a7.436,7.436,0,0,0-3.884-1.114c-1.8,0-3.284.742-3.284,2.285,0,4.283,8.224,1.085,8.224,6.853,0,2.741-2.656,4.4-5.74,4.4a12.283,12.283,0,0,1-4.968-1.113Z" transform="translate(-340.968 -29.596)" fill="#f2f2f2"/>
        <path id="Path_1857" data-name="Path 1857" d="M598.133,34.69a9.605,9.605,0,0,1,7.2,2.913l-1.4,1.828a7.389,7.389,0,0,0-5.854-2.627c-3.941,0-7.482,3.027-7.482,8.167,0,5.4,3.427,8.253,7.539,8.253a7.5,7.5,0,0,0,5.74-2.57l1.485,1.542a9.666,9.666,0,0,1-7.225,3.141c-5.854,0-9.88-4.141-9.88-10.366,0-5.883,4.2-10.28,9.88-10.28" transform="translate(-362.196 -21.359)" fill="#f2f2f2"/>
        <path id="Path_1858" data-name="Path 1858" d="M645.867,48.067c3.6,0,7.853,2.4,7.853,7.653a7.6,7.6,0,0,1-7.91,7.853,7.3,7.3,0,0,1-7.625-7.682,7.54,7.54,0,0,1,7.682-7.824m.057,1.97a5.355,5.355,0,0,0-5.483,5.711c0,4.055,2.57,5.855,5.483,5.855,2.97,0,5.54-1.856,5.54-5.682,0-3.941-2.741-5.883-5.54-5.883" transform="translate(-392.939 -29.596)" fill="#f2f2f2"/>
        <path id="Path_1859" data-name="Path 1859" d="M687.6,48.884h2.142v9c0,2.941,1.371,4.2,3.2,4.2,2.456,0,4.112-1.657,5.368-5.054V48.884h2.142V63.791h-2.142v-3.37c-1.428,2.513-3.312,3.655-5.825,3.655-2.456,0-4.883-1.256-4.883-5.94Z" transform="translate(-423.364 -30.099)" fill="#f2f2f2"/>
        <path id="Path_1860" data-name="Path 1860" d="M735.513,48.381v3.027a6.324,6.324,0,0,1,5.74-3.341c4.027,0,7.225,2.827,7.225,7.824,0,4.941-3.2,7.682-7.225,7.682a6.15,6.15,0,0,1-5.74-3.484v9.224h-2.142V48.381Zm5.711,1.657c-2.884,0-5.226,2.6-5.711,5.8.6,3.284,2.6,5.769,5.711,5.769,2.884,0,5-2.085,5-5.74,0-4.026-2.113-5.825-5-5.825" transform="translate(-451.547 -29.596)" fill="#f2f2f2"/>
        <path id="Path_1861" data-name="Path 1861" d="M787.121,48.067c3.6,0,7.853,2.4,7.853,7.653a7.6,7.6,0,0,1-7.91,7.853,7.3,7.3,0,0,1-7.625-7.682,7.54,7.54,0,0,1,7.682-7.824m.057,1.97a5.355,5.355,0,0,0-5.483,5.711c0,4.055,2.57,5.855,5.483,5.855,2.97,0,5.54-1.856,5.54-5.682,0-3.941-2.741-5.883-5.54-5.883" transform="translate(-479.912 -29.596)" fill="#f2f2f2"/>
        <path id="Path_1862" data-name="Path 1862" d="M831.515,48.382v3.513c1.542-2.627,3.484-3.826,5.939-3.826,2.513,0,4.969,1.285,4.969,5.94v9.281h-2.142v-9c0-2.97-1.371-4.226-3.255-4.226-2.541,0-4.169,1.685-5.511,5.112v8.11h-2.142V48.382Z" transform="translate(-510.657 -29.596)" fill="#f2f2f2"/>
        <path id="Path_1863" data-name="Path 1863" d="M872.623,60.518a9.284,9.284,0,0,0,4.4,1.085c2.085,0,3.57-.543,3.57-2.313,0-3.826-8.281-.657-8.281-6.853,0-2.6,1.941-4.369,5.454-4.369a9.83,9.83,0,0,1,4.483,1.113l-.571,1.971a7.436,7.436,0,0,0-3.884-1.114c-1.8,0-3.284.742-3.284,2.285,0,4.283,8.224,1.085,8.224,6.853,0,2.741-2.656,4.4-5.74,4.4a12.286,12.286,0,0,1-4.969-1.113Z" transform="translate(-536.917 -29.596)" fill="#f2f2f2"/>
      </g>
    </g>
  </g>
</svg>
