<svg xmlns="http://www.w3.org/2000/svg" xmlns:xlink="http://www.w3.org/1999/xlink" width="80" height="80" viewBox="0 0 80 80">
  <defs>
    <clipPath id="clip-picto-salaries">
      <rect width="80" height="80"/>
    </clipPath>
  </defs>
  <g id="picto-salaries" clip-path="url(#clip-picto-salaries)">
    <g id="Group_334" data-name="Group 334" transform="translate(-89.913 -89.538)">
      <g id="Group_333" data-name="Group 333" transform="translate(110.779 100.896)">
        <g id="Group_332" data-name="Group 332" transform="translate(0 0)">
          <path id="Path_476" data-name="Path 476" d="M224.04,171.717a12.015,12.015,0,0,0-5.3-8.278l-3.634-2.516a11.391,11.391,0,0,0,1.683-5.928c0-5.717-4.1-10.367-9.136-10.367s-9.14,4.651-9.14,10.361a10.725,10.725,0,0,0,1.676,5.94l-3.618,2.5a12.031,12.031,0,0,0-5.447,10.133v6.156a4.818,4.818,0,0,0,4.775,4.772H211.1a12.075,12.075,0,1,0,12.935-12.777Zm-.883,22.055a10.015,10.015,0,1,1,10.015-10.015A10.026,10.026,0,0,1,223.157,193.772Zm-15.509-31.7c-3.2,0-5.8-3.153-5.8-7.028s2.6-7.028,5.8-7.028,5.8,3.153,5.8,7.028S210.846,162.073,207.647,162.073ZM195.876,181.1a1.357,1.357,0,0,1-1.414-1.3c0-.024,0-.049,0-.079v-6.16a8.865,8.865,0,0,1,3.951-7.413l4.017-2.677a8.142,8.142,0,0,0,10.44,0l4.016,2.677a8.861,8.861,0,0,1,3.805,5.785,12.111,12.111,0,0,0-9.312,9.166Z" transform="translate(-191.121 -144.627)" fill="#000f1e"/>
        </g>
        <path id="Path_13192" data-name="Path 13192" d="M325.9,315.289c.367,2.457,1.709,3.753,3.958,3.753a3.393,3.393,0,0,0,3.031-1.531l-1.192-1.139a1.92,1.92,0,0,1-1.721.941h-.058c-1.074-.014-1.751-.569-2.046-2.03H330.8v-1.118h-3.065c0-.162-.014-.339-.014-.515s0-.339.014-.5h3.061v-1.118h-2.939c.295-1.424,1-2.016,2.046-2.03h.058a1.882,1.882,0,0,1,1.633.824l1.3-1.192a3.375,3.375,0,0,0-2.973-1.368c-2.1,0-3.532,1.281-3.974,3.767h-1.148v1.118h1.015c-.014.221-.014.456-.014.712v.309h-1v1.118Z" transform="translate(-297.235 -274.522)" fill="#000f1e"/>
      </g>
      <path id="Path_477" data-name="Path 477" d="M129.913,92.3a37.237,37.237,0,1,1-26.331,10.907A36.993,36.993,0,0,1,129.913,92.3m0-2.763a40,40,0,1,0,40,40,40,40,0,0,0-40-40Z" fill="#000f1e"/>
      <path id="Path_478" data-name="Path 478" d="M179.051,396.115A83.92,83.92,0,0,1,205.3,400.2l1.135-1.075a84.957,84.957,0,0,0-27.38-4.392h0a85.011,85.011,0,0,0-27.238,4.344l.86,1.167a83.863,83.863,0,0,1,26.378-4.13" transform="translate(-49.138 -242.274)" fill="#000f1e"/>
    </g>
  </g>
</svg>
