<svg xmlns="http://www.w3.org/2000/svg" xmlns:xlink="http://www.w3.org/1999/xlink" width="80" height="80" viewBox="0 0 80 80">
  <defs>
    <clipPath id="clip-picto_logariasmos">
      <rect width="80" height="80"/>
    </clipPath>
  </defs>
  <g id="picto_logariasmos" data-name="picto logariasmos" clip-path="url(#clip-picto_logariasmos)">
    <g id="Group_434" data-name="Group 434" transform="translate(-89.913 -89.539)">
      <path id="Path_599" data-name="Path 599" d="M129.913,89.539a40,40,0,1,0,40,40A40,40,0,0,0,129.913,89.539Zm-24.672,67.89a86.662,86.662,0,0,1,49.344,0,37.233,37.233,0,0,1-49.344,0Zm51-1.559c-.161.161-.325.319-.488.476a87.873,87.873,0,0,0-51.684,0c-.164-.158-.328-.316-.489-.477a37.237,37.237,0,1,1,52.662,0Z" fill="#000f1e"/>
      <g id="Group_433" data-name="Group 433" transform="translate(115.531 105.707)">
        <path id="Path_600" data-name="Path 600" d="M239.906,167.962H217.2a3.032,3.032,0,0,0-3.028,3.028v32.2a3.032,3.032,0,0,0,3.028,3.028h22.707a3.032,3.032,0,0,0,3.028-3.028v-32.2A3.032,3.032,0,0,0,239.906,167.962ZM217.2,169.343h22.707a1.649,1.649,0,0,1,1.647,1.647v9.492h-26V170.99A1.649,1.649,0,0,1,217.2,169.343Zm24.354,12.52v10.447h-26V181.864Zm-1.647,22.973H217.2a1.649,1.649,0,0,1-1.647-1.647v-9.5h26v9.5A1.649,1.649,0,0,1,239.906,204.837Z" transform="translate(-214.171 -167.962)" fill="#000f1e"/>
        <g id="Group_431" data-name="Group 431" transform="translate(3.042 3.913)">
          <path id="Path_601" data-name="Path 601" d="M231.89,192.865a2.962,2.962,0,1,1,2.962-2.962A2.966,2.966,0,0,1,231.89,192.865Zm0-4.543a1.581,1.581,0,1,0,1.581,1.581A1.583,1.583,0,0,0,231.89,188.322Z" transform="translate(-228.928 -186.941)" fill="#000f1e"/>
        </g>
        <g id="Group_432" data-name="Group 432" transform="translate(13.329 5.987)">
          <path id="Path_602" data-name="Path 602" d="M289.927,197l-10.485,0a.2.2,0,0,0-.184.119l-.417.936a.23.23,0,0,0,.21.323l10.485,0a.2.2,0,0,0,.184-.119l.417-.936A.23.23,0,0,0,289.927,197Z" transform="translate(-278.82 -197.001)" fill="#000f1e"/>
          <path id="Path_603" data-name="Path 603" d="M300.083,208.979l-7.848,0a.2.2,0,0,0-.184.119l-.417.936a.23.23,0,0,0,.21.323l7.847,0a.2.2,0,0,0,.184-.119l.417-.935A.23.23,0,0,0,300.083,208.979Z" transform="translate(-288.977 -206.507)" fill="#000f1e"/>
        </g>
      </g>
    </g>
  </g>
</svg>
