<svg xmlns="http://www.w3.org/2000/svg" xmlns:xlink="http://www.w3.org/1999/xlink" width="80" height="80" viewBox="0 0 80 80">
  <defs>
    <clipPath id="clip-path">
      <rect id="Rectangle_48" data-name="Rectangle 48" width="80" height="80" fill="#000f1e"/>
    </clipPath>
    <clipPath id="clip-picto_Phone">
      <rect width="80" height="80"/>
    </clipPath>
  </defs>
  <g id="picto_Phone" data-name="picto Phone" clip-path="url(#clip-picto_Phone)">
    <g id="Group_448" data-name="Group 448">
      <g id="Group_445" data-name="Group 445" clip-path="url(#clip-path)">
        <path id="Path_657" data-name="Path 657" d="M40,2.8A37.2,37.2,0,1,1,2.8,40,37.33,37.33,0,0,1,40,2.8M40,0A40,40,0,1,0,80,40,39.946,39.946,0,0,0,40,0" fill="#000f1e"/>
        <path id="Path_658" data-name="Path 658" d="M36.8,48.533a83.862,83.862,0,0,1,26.267,4.133l1.2-1.067A87.7,87.7,0,0,0,36.8,47.2,86.063,86.063,0,0,0,9.6,51.6l.8,1.2a81.1,81.1,0,0,1,26.4-4.267" transform="translate(3.2 15.733)" fill="#000f1e"/>
        <path id="Path_659" data-name="Path 659" d="M54.076,40.429h-12.4c-.267,0-.4.133-.667.267l-2.133,2.4a.464.464,0,0,1-.667.133A43.61,43.61,0,0,1,25.143,30.162c-.133-.267-.133-.533.133-.667l2.4-2.133a1.018,1.018,0,0,0,.267-.667V14.3a.574.574,0,0,0-.533-.533H17.543a.693.693,0,0,0-.533.267l-.267.667a31.253,31.253,0,0,0-2.4,8.533,24.75,24.75,0,0,0,1.467,12.4A29.065,29.065,0,0,0,32.743,52.562a25.966,25.966,0,0,0,9.067,1.6,30.335,30.335,0,0,0,3.467-.267,24.038,24.038,0,0,0,8.533-2.4l.667-.267a.693.693,0,0,0,.267-.533V40.829a.831.831,0,0,0-.667-.4m-2.8,8.267c0,.267-.133.4-.4.533A20.447,20.447,0,0,1,44.609,50.7a24.314,24.314,0,0,1-20-7.067,23.756,23.756,0,0,1-7.067-20,32.964,32.964,0,0,1,1.467-6.267c.133-.267.267-.4.533-.4h4.4a.574.574,0,0,1,.533.533v7.6c0,.267-.133.4-.267.667L20.476,29.1l.667,1.2A47.507,47.507,0,0,0,37.809,46.962l1.2.667L42.343,43.9a1.018,1.018,0,0,1,.667-.267h7.6a.574.574,0,0,1,.533.533Z" transform="translate(4.707 4.587)" fill="#000f1e"/>
      </g>
    </g>
  </g>
</svg>
