<svg xmlns="http://www.w3.org/2000/svg" xmlns:xlink="http://www.w3.org/1999/xlink" width="80" height="80" viewBox="0 0 80 80">
  <defs>
    <clipPath id="clip-picto-epikairopoiisi-address">
      <rect width="80" height="80"/>
    </clipPath>
  </defs>
  <g id="picto-epikairopoiisi-address" clip-path="url(#clip-picto-epikairopoiisi-address)">
    <g id="Group_396" data-name="Group 396" transform="translate(-89.913 -89.539)">
      <path id="Path_571" data-name="Path 571" d="M129.913,89.539a40,40,0,1,0,40,40A40,40,0,0,0,129.913,89.539Zm-24.672,67.89a86.662,86.662,0,0,1,49.344,0,37.233,37.233,0,0,1-49.344,0Zm51-1.559c-.161.161-.325.319-.488.476a87.873,87.873,0,0,0-51.684,0c-.164-.158-.328-.316-.489-.477a37.237,37.237,0,1,1,52.662,0Z" fill="#000f1e"/>
      <g id="Group_393" data-name="Group 393" transform="translate(114.222 121.533)">
        <rect id="Rectangle_16" data-name="Rectangle 16" width="14.959" height="2.062" transform="translate(0 0)" fill="#000f1e"/>
      </g>
      <g id="Group_394" data-name="Group 394" transform="translate(114.222 125.556)">
        <rect id="Rectangle_17" data-name="Rectangle 17" width="12.837" height="2.062" transform="translate(0)" fill="#000f1e"/>
      </g>
      <path id="Path_572" data-name="Path 572" d="M218.864,219.776v21.3H182.29V218.388h22.276l3.36-3.36H181.889a2.964,2.964,0,0,0-2.96,2.96v23.492a2.964,2.964,0,0,0,2.96,2.961h37.374a2.964,2.964,0,0,0,2.96-2.961V217.988a2.936,2.936,0,0,0-.294-1.278Z" transform="translate(-70.664 -99.617)" fill="#000f1e"/>
      <path id="Path_573" data-name="Path 573" d="M312.616,171.536l-2.952-2.952a2.079,2.079,0,0,0-2.937,0l-2.454,2.453h0l-12.25,12.25a2.647,2.647,0,0,0-.523.651l-1.982,6.936c-.177.621.186.984.807.807l6.936-1.982a2.648,2.648,0,0,0,.651-.523l12.25-12.25h0l2.453-2.454A2.079,2.079,0,0,0,312.616,171.536ZM291.2,190l1.3-4.547,3.248,3.248Zm5.875-1.939-3.936-3.936,12.1-12.1,3.936,3.936ZM311.633,173.5l-1.477,1.477-3.936-3.936,1.477-1.476a.689.689,0,0,1,.491-.2h0a.691.691,0,0,1,.492.2l2.952,2.952A.7.7,0,0,1,311.633,173.5Z" transform="translate(-158.418 -62.266)" fill="#000f1e"/>
      <g id="Group_395" data-name="Group 395" transform="translate(137.671 112.706)">
        <rect id="Rectangle_18" data-name="Rectangle 18" width="12.957" height="1.381" transform="translate(0 9.163) rotate(-45.005)" fill="#000f1e"/>
      </g>
    </g>
  </g>
</svg>
