<svg xmlns="http://www.w3.org/2000/svg" xmlns:xlink="http://www.w3.org/1999/xlink" width="80" height="80" viewBox="0 0 80 80">
  <defs>
    <clipPath id="clip-picto_calendar-check">
      <rect width="80" height="80"/>
    </clipPath>
  </defs>
  <g id="picto_calendar-check" data-name="picto calendar-check" clip-path="url(#clip-picto_calendar-check)">
    <g id="Group_5" data-name="Group 5" transform="translate(-89.913 -89.539)">
      <g id="Group_3" data-name="Group 3" transform="translate(89.913 89.539)">
        <g id="Group_1" data-name="Group 1">
          <path id="Path_1" data-name="Path 1" d="M129.913,92.3a37.237,37.237,0,1,1-26.331,10.906A36.993,36.993,0,0,1,129.913,92.3m0-2.763a40,40,0,1,0,40,40,40,40,0,0,0-40-40Z" transform="translate(-89.913 -89.539)" fill="#000f1e"/>
        </g>
        <g id="Group_2" data-name="Group 2" transform="translate(12.762 62.922)">
          <path id="Path_2" data-name="Path 2" d="M179.051,396.116A83.914,83.914,0,0,1,205.3,400.2l1.135-1.075a84.957,84.957,0,0,0-27.38-4.392h0a85.01,85.01,0,0,0-27.238,4.344l.86,1.167a83.861,83.861,0,0,1,26.378-4.13" transform="translate(-151.813 -394.735)" fill="#000f1e"/>
        </g>
      </g>
      <g id="Group_4" data-name="Group 4" transform="translate(110.987 103.683)">
        <path id="Path_3" data-name="Path 3" d="M228.984,161.773h-1.473v-.541a1,1,0,0,0-1-1h-4.327V160a1.854,1.854,0,0,0-3.709,0v.237h-1.236V160a1.854,1.854,0,0,0-3.709,0v.237h-7.418V160a1.854,1.854,0,0,0-3.709,0v.237h-1.236V160a1.854,1.854,0,0,0-3.709,0v.237h-4.327a1,1,0,0,0-1,1v30.906a1,1,0,0,0,1,1h.541v1.473a.7.7,0,0,0,.7.7h34.615a.7.7,0,0,0,.7-.7V162.469A.7.7,0,0,0,228.984,161.773Zm-1.473,30.365V163.164h.778v30.752H195.064v-.778h31.447A1,1,0,0,0,227.511,192.139Zm-2-22.489v21.49h-31.38V169.65Zm-26.2-5.327a.618.618,0,0,0,0-1.236.619.619,0,0,1-.618-.618v-.237H202.4v.237a1.856,1.856,0,0,0,1.854,1.854.618.618,0,1,0,0-1.236.619.619,0,0,1-.618-.618v-.237h9.89v.237a1.856,1.856,0,0,0,1.854,1.854.618.618,0,0,0,0-1.236.619.619,0,0,1-.618-.618v-.237h3.709v.237a1.856,1.856,0,0,0,1.854,1.854.618.618,0,1,0,0-1.236.619.619,0,0,1-.618-.618v-.237h5.8v5.418h-31.38v-5.418h3.327v.237A1.856,1.856,0,0,0,199.314,164.323Zm20.4-4.327a.618.618,0,1,1,1.236,0v.237h-1.236Zm-4.945,0A.618.618,0,0,1,216,160v.237h-1.236Zm-11.126,0a.618.618,0,0,1,1.236,0v.237h-1.236Zm-4.945,0a.618.618,0,1,1,1.236,0v.237H198.7Z" transform="translate(-192.133 -158.142)" fill="#000f1e"/>
      </g>
      <path id="Path_4" data-name="Path 4" d="M249.958,239.784l-6.387-4.473,1.819-2.6,3.79,2.653,8.13-11.611,2.6,1.819Z" transform="translate(-121.979 -106.546)" fill="#000f1e"/>
    </g>
  </g>
</svg>
