<svg width="48" height="48" viewBox="0 0 48 48" fill="none" xmlns="http://www.w3.org/2000/svg">
<path fill-rule="evenodd" clip-rule="evenodd" d="M0 24C0 20.2435 0.863017 16.6887 2.40159 13.5228C4.59543 9.00866 8.16277 5.28547 12.5602 2.89666C15.9608 1.04933 19.8579 0 24 0C28.9069 0 33.47 1.47261 37.2712 4C38.9763 5.13379 40.528 6.47949 41.8889 8C43.238 9.50738 44.3994 11.1863 45.3364 13C45.9931 14.2712 46.5396 15.6089 46.9631 17C47.4509 18.6021 47.7756 20.2752 47.9178 22C47.9722 22.6594 48 23.3264 48 24C48 24.6736 47.9722 25.3406 47.9178 26C47.7756 27.7248 47.4509 29.3979 46.9631 31C46.5396 32.3911 45.9931 33.7288 45.3364 35C44.3994 36.8137 43.238 38.4926 41.8889 40C40.528 41.5205 38.9763 42.8662 37.2712 44C33.47 46.5274 28.9069 48 24 48C19.0931 48 14.53 46.5274 10.7288 44C9.02374 42.8662 7.47198 41.5205 6.11115 40C4.762 38.4926 3.60059 36.8137 2.66364 35C2.0069 33.7288 1.46039 32.3911 1.03687 31C0.362637 28.7854 0 26.4351 0 24ZM4.94321 35C6.01619 36.8549 7.3522 38.5385 8.90025 40H39.0998C40.6478 38.5385 41.9838 36.8549 43.0568 35H4.94321ZM44.863 31H3.13704C2.60274 29.4069 2.2458 27.7324 2.08969 26H45.9103C45.7542 27.7324 45.3973 29.4069 44.863 31ZM45.9103 22C45.7542 20.2676 45.3973 18.5931 44.863 17H24V22H45.9103ZM43.0568 13C41.9838 11.1451 40.6478 9.46147 39.0998 8H24V13H43.0568ZM33.1779 4C30.3845 2.71598 27.2759 2 24 2V4H33.1779ZM13.0482 4.91539C13.2824 4.78074 13.5192 4.65028 13.7587 4.5241L14.2347 5.48877L15.8777 5.72754L14.6888 6.88623L14.9695 8.52246L13.5 7.75L12.0306 8.52246L12.3112 6.88623L11.3792 5.97785C11.5567 5.85332 11.7361 5.73136 11.9174 5.612L12.7653 5.48877L13.0482 4.91539ZM33.1779 44H14.8221C17.6155 45.284 20.7241 46 24 46C27.2759 46 30.3845 45.284 33.1779 44ZM14.2347 19.4888L13.5 18L12.7653 19.4888L11.1224 19.7275L12.3112 20.8862L12.0306 22.5225L13.5 21.75L14.9695 22.5225L14.6888 20.8862L15.8777 19.7275L14.2347 19.4888ZM6.5 18L7.23474 19.4888L8.87769 19.7275L7.68884 20.8862L7.96948 22.5225L6.5 21.75L5.03058 22.5225L5.31122 20.8862L4.12238 19.7275L5.76526 19.4888L6.5 18ZM10.2347 12.4888L9.5 11L8.76526 12.4888L7.12238 12.7275L8.31122 13.8862L8.03058 15.5225L9.5 14.75L10.9695 15.5225L10.6888 13.8862L11.8777 12.7275L10.2347 12.4888ZM20.5 4L21.2347 5.48877L22.8777 5.72754L21.6888 6.88623L21.9695 8.52246L20.5 7.75L19.0306 8.52246L19.3112 6.88623L18.1224 5.72754L19.7653 5.48877L20.5 4ZM21.2347 19.4888L20.5 18L19.7653 19.4888L18.1224 19.7275L19.3112 20.8862L19.0306 22.5225L20.5 21.75L21.9695 22.5225L21.6888 20.8862L22.8777 19.7275L21.2347 19.4888ZM16.5 11L17.2347 12.4888L18.8777 12.7275L17.6888 13.8862L17.9695 15.5225L16.5 14.75L15.0306 15.5225L15.3112 13.8862L14.1224 12.7275L15.7653 12.4888L16.5 11Z" fill="#D67A3B"/>
</svg>
