<svg width="105" height="96" viewBox="0 0 105 96" fill="none" xmlns="http://www.w3.org/2000/svg">
<g clip-path="url(#clip0)">
<path d="M105 43.3916C105 61.2745 81.4448 75.8281 52.5 75.8281C23.5429 75.8281 0 61.2868 0 43.3916C0 28.3116 16.5486 15.337 40.2508 11.8363L40.3733 12.6564C17.0876 16.0836 0.832945 28.7278 0.832945 43.3916C0.832945 60.8216 24.0084 75.008 52.5 75.008C80.9916 75.008 104.167 60.8216 104.167 43.3916C104.167 35.5333 99.4021 27.9934 90.7664 22.167L91.2319 21.4816C100.113 27.467 105 35.2518 105 43.3916ZM83.9437 3.6843H68.0075V5.64274H83.9559V3.6843H83.9437ZM62.1279 5.64274H58.2694V9.46169H62.1279V5.64274ZM83.9437 7.38085H68.0075V5.64274H63.904V9.46169H83.9559V7.38085H83.9437ZM83.9437 1.90947V0H63.904V3.6843H68.0075V1.90947H83.9437ZM83.9437 14.8596H58.2694V16.8181H83.9559V14.8596H83.9437ZM62.1279 0H58.2694V3.6843H62.1279V0ZM83.9437 11.1876H58.2694V13.1215H83.9559V11.1876H83.9437ZM24.2289 24.7864L22.5385 21.0287C21.8035 21.3469 4.72818 29.1684 3.99323 41.935C3.52776 50.0135 9.70135 57.9207 22.3303 65.4362L24.4371 61.8988C14.1846 55.8031 8.73367 49.7198 8.15796 43.8077H18.1778V39.6828H8.54993C11.1468 30.7841 24.0819 24.8476 24.2289 24.7864ZM56.775 70.5159H60.9029V41.5555L72.0497 26.5368L68.7302 24.0765L59.6045 36.3779L50.7239 7.8215L46.7796 9.04552L56.775 41.1883V70.5159ZM84.8991 54.9218L86.7242 58.6184C87.055 58.4593 94.8577 54.5424 97.234 46.9779C98.5202 42.5715 97.8955 37.8223 95.4946 33.9054C95.2741 33.4525 89.9335 22.8525 79.485 23.0361L77.9171 23.0728L68.4362 61.0052H68.4239L68.3259 61.4336L68.1422 62.1803H68.1545L67.64 64.457H84.0906V61.0052H72.6744L81.1141 27.2345C87.9369 28.1158 91.7341 35.6435 91.8199 35.8026C93.6818 38.7525 94.2085 42.3511 93.2898 45.7172C91.4769 51.5925 84.9726 54.8974 84.8991 54.9218ZM33.036 68.79C38.193 70.1976 43.5091 70.9688 48.862 71.0789C48.862 71.0789 48.4945 67.2845 48.4823 67.2845C44.2563 67.211 40.0548 66.6847 35.9514 65.7055L33.036 68.79ZM26.985 27.8832C26.1643 31.4696 28.8836 35.1539 35.3879 39.1687C35.4369 39.1932 40.1773 41.9227 40.998 46.268C41.4635 48.7038 40.5693 51.3232 38.4257 53.9793L28.6631 64.9343L26.838 66.9785L31.1742 68.3494L34.5182 64.5426L41.5492 56.6477C44.5625 52.9267 45.7384 49.1689 45.028 45.4602C43.8276 39.2299 37.6417 35.7169 37.458 35.619C30.9292 31.5798 30.8434 29.3765 30.9782 28.8012C31.6029 26.0961 39.9201 23.8195 45.7017 23.2074L45.273 19.107C42.5047 19.4007 28.5161 21.1878 26.985 27.8832ZM10.2281 86.5506V81.2995H12.2124C12.5677 81.2995 12.8249 81.3117 13.0086 81.3485C13.2659 81.3974 13.4864 81.4709 13.6578 81.5933C13.8293 81.7157 13.9763 81.887 14.0743 82.0951C14.1723 82.3032 14.2336 82.548 14.2336 82.8173C14.2336 83.2702 14.0866 83.6374 13.8048 83.9556C13.5231 84.2739 13.0086 84.4208 12.2614 84.4208H10.914V86.5628H10.2281V86.5506ZM10.9263 83.7965H12.2859C12.7392 83.7965 13.0576 83.7108 13.2414 83.5395C13.4251 83.3681 13.5231 83.1355 13.5231 82.8295C13.5231 82.6092 13.4619 82.4256 13.3516 82.2665C13.2414 82.1074 13.1066 82.0094 12.9229 81.9605C12.8004 81.9238 12.5922 81.9115 12.2737 81.9115H10.9263V83.7965ZM15.1522 86.5506V81.2995H18.9617V81.9238H15.8504V83.5395H18.7657V84.1515H15.8504V85.9385H19.0842V86.5628H15.1522V86.5506ZM20.0519 86.5506V81.2995H22.3793C22.8447 81.2995 23.2 81.3485 23.4449 81.4464C23.6899 81.5443 23.8859 81.7034 24.0329 81.9482C24.1799 82.193 24.2534 82.4501 24.2534 82.7439C24.2534 83.1111 24.1309 83.4293 23.8859 83.6863C23.6409 83.9434 23.2734 84.1025 22.7712 84.1759C22.955 84.2616 23.0897 84.3473 23.1877 84.433C23.3959 84.6166 23.5797 84.8492 23.7634 85.1307L24.6821 86.5628H23.8124L23.1142 85.4734C22.906 85.1552 22.7467 84.9104 22.612 84.7512C22.4773 84.5921 22.367 84.4697 22.2568 84.3963C22.1465 84.3228 22.0485 84.2861 21.9383 84.2616C21.8648 84.2494 21.7301 84.2372 21.5463 84.2372H20.7379V86.575H20.0519V86.5506ZM20.7501 83.6129H22.2445C22.563 83.6129 22.808 83.5762 22.9917 83.515C23.1755 83.4538 23.3102 83.3436 23.3959 83.1967C23.4939 83.0499 23.5307 82.8907 23.5307 82.7316C23.5307 82.4868 23.4449 82.2787 23.2612 82.1196C23.0775 81.9605 22.7957 81.8748 22.4038 81.8748H20.7379V83.6129H20.7501ZM25.1108 84.8614L25.7723 84.8002C25.809 85.0573 25.8703 85.2776 25.9928 85.4489C26.103 85.6203 26.2867 85.7549 26.5195 85.8529C26.7645 85.963 27.0339 86.012 27.3279 86.012C27.5974 86.012 27.8301 85.9753 28.0261 85.8896C28.2221 85.8039 28.3814 85.706 28.4794 85.5591C28.5773 85.4245 28.6263 85.2776 28.6263 85.1062C28.6263 84.9471 28.5773 84.8002 28.4794 84.6778C28.3814 84.5554 28.2221 84.4575 28.0016 84.3718C27.8546 84.3228 27.5484 84.2372 27.0707 84.1148C26.593 84.0046 26.25 83.8944 26.054 83.7843C25.7968 83.6496 25.613 83.4905 25.4906 83.2947C25.3681 83.0988 25.3068 82.8785 25.3068 82.6459C25.3068 82.3766 25.3803 82.1318 25.5273 81.8993C25.6743 81.6667 25.8948 81.4954 26.1888 81.3729C26.4827 81.2505 26.8012 81.1893 27.1564 81.1893C27.5484 81.1893 27.8914 81.2505 28.1854 81.3729C28.4794 81.4954 28.7121 81.6789 28.8713 81.9238C29.0306 82.1686 29.1163 82.4378 29.1286 82.7561L28.4671 82.8051C28.4304 82.4746 28.3079 82.2175 28.0996 82.0462C27.8914 81.8748 27.5852 81.7891 27.1809 81.7891C26.7645 81.7891 26.4582 81.8626 26.2623 82.0217C26.0663 82.1686 25.9683 82.3644 25.9683 82.5847C25.9683 82.7683 26.0418 82.9275 26.1765 83.0499C26.3112 83.1723 26.6665 83.2947 27.2299 83.4293C27.7934 83.5639 28.1854 83.6741 28.3936 83.7598C28.6998 83.9067 28.9203 84.078 29.0673 84.2984C29.2143 84.5187 29.2878 84.7635 29.2878 85.045C29.2878 85.3265 29.2021 85.5836 29.0428 85.8406C28.8836 86.0854 28.6508 86.2813 28.3569 86.4159C28.0506 86.5506 27.7199 86.624 27.3402 86.624C26.8625 86.624 26.4705 86.5506 26.1398 86.4159C25.809 86.2813 25.564 86.0732 25.3803 85.7917C25.1966 85.5101 25.1231 85.2164 25.1108 84.8614ZM30.035 83.9924C30.035 83.1233 30.2677 82.4378 30.7332 81.9482C31.1987 81.4586 31.8111 81.2016 32.5461 81.2016C33.036 81.2016 33.4648 81.3117 33.8567 81.5443C34.2487 81.7769 34.5427 82.0951 34.7509 82.5113C34.9592 82.9275 35.0572 83.3926 35.0572 83.9189C35.0572 84.4575 34.9469 84.9349 34.7387 85.351C34.5304 85.7672 34.2242 86.0854 33.82 86.3058C33.4158 86.5261 32.9993 86.624 32.5461 86.624C32.0561 86.624 31.6029 86.5016 31.2232 86.269C30.8434 86.0365 30.5372 85.706 30.3412 85.2898C30.1452 84.8736 30.035 84.4575 30.035 83.9924ZM30.7577 84.0046C30.7577 84.6411 30.9292 85.1429 31.2722 85.4979C31.6151 85.8529 32.0439 86.0487 32.5583 86.0487C33.085 86.0487 33.5138 85.8651 33.8567 85.4979C34.1997 85.1307 34.359 84.6044 34.359 83.9312C34.359 83.5027 34.2855 83.1355 34.1385 82.8051C33.9915 82.4868 33.7832 82.242 33.5015 82.0584C33.2198 81.887 32.9136 81.7891 32.5583 81.7891C32.0684 81.7891 31.6396 81.9605 31.2844 82.3032C30.9292 82.6459 30.7577 83.209 30.7577 84.0046ZM35.9514 86.5506V81.2995H36.6618L39.4301 85.4245V81.2995H40.0916V86.5506H39.3811L36.6128 82.4134V86.5506H35.9514ZM41.0348 84.8614L41.6962 84.8002C41.733 85.0573 41.7942 85.2776 41.9167 85.4489C42.027 85.6203 42.2107 85.7549 42.4434 85.8529C42.6884 85.963 42.9579 86.012 43.2519 86.012C43.5214 86.012 43.7541 85.9753 43.9501 85.8896C44.1461 85.8039 44.3053 85.706 44.4033 85.5591C44.5013 85.4245 44.5503 85.2776 44.5503 85.1062C44.5503 84.9471 44.5013 84.8002 44.4033 84.6778C44.3053 84.5554 44.1461 84.4575 43.9256 84.3718C43.7786 84.3228 43.4724 84.2372 42.9946 84.1148C42.5169 84.0046 42.1739 83.8944 41.978 83.7843C41.7207 83.6496 41.537 83.4905 41.4145 83.2947C41.292 83.0988 41.2308 82.8785 41.2308 82.6459C41.2308 82.3766 41.3042 82.1318 41.4512 81.8993C41.5982 81.6667 41.8187 81.4954 42.1127 81.3729C42.4067 81.2505 42.7252 81.1893 43.0804 81.1893C43.4724 81.1893 43.8153 81.2505 44.1093 81.3729C44.4033 81.4954 44.636 81.6789 44.7953 81.9238C44.9545 82.1686 45.0402 82.4378 45.0525 82.7561L44.391 82.8051C44.3543 82.4746 44.2318 82.2175 44.0236 82.0462C43.8153 81.8748 43.5091 81.7891 43.1049 81.7891C42.6884 81.7891 42.3822 81.8626 42.1862 82.0217C41.9902 82.1686 41.8922 82.3644 41.8922 82.5847C41.8922 82.7683 41.9657 82.9275 42.1004 83.0499C42.2352 83.1723 42.5904 83.2947 43.1539 83.4293C43.7173 83.5639 44.1093 83.6741 44.3175 83.7598C44.6238 83.9067 44.8443 84.078 44.9913 84.2984C45.1382 84.5187 45.2117 84.7635 45.2117 85.045C45.2117 85.3265 45.126 85.5836 44.9668 85.8406C44.8075 86.0854 44.5748 86.2813 44.2808 86.4159C43.9746 86.5506 43.6438 86.624 43.2641 86.624C42.7864 86.624 42.3944 86.5506 42.0637 86.4159C41.733 86.2813 41.488 86.0732 41.3042 85.7917C41.1205 85.5101 41.047 85.2164 41.0348 84.8614ZM51.9733 84.7145L52.6715 84.8859C52.5245 85.4612 52.2673 85.8896 51.8875 86.1956C51.5078 86.5016 51.0424 86.6485 50.4911 86.6485C49.9277 86.6485 49.4622 86.5383 49.107 86.3058C48.7518 86.0732 48.4823 85.7427 48.2985 85.3021C48.1148 84.8614 48.0168 84.3963 48.0168 83.8944C48.0168 83.3436 48.127 82.8663 48.3353 82.4623C48.5435 82.0584 48.8375 81.7402 49.2295 81.5321C49.6214 81.324 50.0379 81.2138 50.5034 81.2138C51.0301 81.2138 51.4711 81.3485 51.8263 81.6178C52.1815 81.887 52.4388 82.2665 52.5735 82.7439L51.8875 82.903C51.765 82.5235 51.5936 82.242 51.3608 82.0706C51.1281 81.8993 50.8341 81.8136 50.4911 81.8136C50.0869 81.8136 49.7439 81.9115 49.4745 82.1074C49.205 82.3032 49.009 82.5602 48.8987 82.8907C48.7885 83.2212 48.7395 83.5517 48.7395 83.9067C48.7395 84.3596 48.8007 84.739 48.9355 85.0817C49.0702 85.4122 49.2662 85.6693 49.5479 85.8284C49.8297 85.9875 50.1237 86.0732 50.4421 86.0732C50.8341 86.0732 51.1648 85.963 51.4343 85.7305C51.6916 85.4857 51.8753 85.1552 51.9733 84.7145ZM53.5412 86.5506V81.2995H57.3507V81.9238H54.2394V83.5395H57.1547V84.1515H54.2394V85.9385H57.4732V86.5628H53.5412V86.5506ZM58.4409 86.5506V81.2995H60.7682C61.2337 81.2995 61.5889 81.3485 61.8339 81.4464C62.0789 81.5443 62.2748 81.7034 62.4218 81.9482C62.5688 82.193 62.6423 82.4501 62.6423 82.7439C62.6423 83.1111 62.5198 83.4293 62.2748 83.6863C62.0299 83.9434 61.6624 84.1025 61.1602 84.1759C61.3439 84.2616 61.4787 84.3473 61.5766 84.433C61.7849 84.6166 61.9686 84.8492 62.1524 85.1307L63.071 86.5628H62.1891L61.4909 85.4734C61.2827 85.1552 61.1234 84.9104 60.9887 84.7512C60.8539 84.5921 60.7437 84.4697 60.6335 84.3963C60.5232 84.3228 60.4252 84.2861 60.315 84.2616C60.2415 84.2494 60.1067 84.2372 59.923 84.2372H59.1146V86.575H58.4409V86.5506ZM59.1268 83.6129H60.6212C60.9397 83.6129 61.1847 83.5762 61.3684 83.515C61.5521 83.4538 61.6869 83.3436 61.7726 83.1967C61.8706 83.0499 61.9074 82.8907 61.9074 82.7316C61.9074 82.4868 61.8216 82.2787 61.6379 82.1196C61.4542 81.9605 61.1724 81.8748 60.7804 81.8748H59.1146V83.6129H59.1268ZM64.9329 86.5506V81.9115H63.2058V81.2873H67.3705V81.9115H65.6311V86.5506H64.9329ZM68.2035 86.5506V81.2995H68.9017V86.5506H68.2035ZM70.1633 86.5506V81.2995H73.7156V81.9238H70.8615V83.5517H73.3359V84.1759H70.8615V86.5628H70.1633V86.5506ZM74.7445 86.5506V81.2995H75.4427V86.5506H74.7445ZM80.4159 84.7145L81.1141 84.8859C80.9671 85.4612 80.7099 85.8896 80.3301 86.1956C79.9504 86.5016 79.485 86.6485 78.9337 86.6485C78.3703 86.6485 77.9048 86.5383 77.5496 86.3058C77.1944 86.0732 76.9249 85.7427 76.7411 85.3021C76.5574 84.8614 76.4594 84.3963 76.4594 83.8944C76.4594 83.3436 76.5574 82.8663 76.7779 82.4623C76.9984 82.0584 77.2801 81.7402 77.6721 81.5321C78.0518 81.324 78.4805 81.2138 78.946 81.2138C79.4727 81.2138 79.9137 81.3485 80.2689 81.6178C80.6241 81.887 80.8814 82.2665 81.0161 82.7439L80.3301 82.903C80.2077 82.5235 80.0362 82.242 79.8034 82.0706C79.5707 81.8993 79.2767 81.8136 78.9337 81.8136C78.5295 81.8136 78.1865 81.9115 77.9171 82.1074C77.6476 82.3032 77.4516 82.5602 77.3413 82.8907C77.2311 83.2212 77.1821 83.5517 77.1821 83.9067C77.1821 84.3596 77.2433 84.739 77.3781 85.0817C77.5128 85.4122 77.7088 85.6693 77.9905 85.8284C78.2723 85.9875 78.5663 86.0732 78.8847 86.0732C79.2767 86.0732 79.6074 85.963 79.8769 85.7305C80.1464 85.4979 80.3179 85.1552 80.4159 84.7145ZM81.3958 86.5506L83.4169 81.2995H84.1641L86.32 86.5506H85.5238L84.9113 84.9593H82.7065L82.1308 86.5506H81.3958ZM82.9147 84.3963H84.7031L84.1519 82.9397C83.9804 82.499 83.8579 82.1318 83.7844 81.8503C83.7232 82.193 83.6252 82.5235 83.5027 82.854L82.9147 84.3963ZM87.6674 86.5506V81.9115H85.928V81.2873H90.0928V81.9115H88.3534V86.5506H87.6674ZM90.8277 86.5506V81.2995H94.6372V81.9238H91.5259V83.5395H94.4412V84.1515H91.5259V85.9385H94.7597V86.5628H90.8277V86.5506ZM8.13346 95.9143V90.6633H8.84391L11.6122 94.7882V90.6633H12.2737V95.9143H11.5632L8.79491 91.7771V95.9143H8.13346ZM13.1311 94.0171C13.1311 93.3072 13.3271 92.7931 13.7191 92.4503C14.0498 92.1688 14.4418 92.0219 14.9195 92.0219C15.4462 92.0219 15.8749 92.1933 16.2057 92.536C16.5364 92.8787 16.7079 93.3561 16.7079 93.9559C16.7079 94.4455 16.6344 94.8372 16.4874 95.1187C16.3404 95.4002 16.1322 95.6206 15.8504 95.7674C15.5687 95.9143 15.2625 96 14.9318 96C14.3928 96 13.9641 95.8286 13.6333 95.4859C13.3026 95.1432 13.1311 94.6536 13.1311 94.0171ZM13.7926 94.0171C13.7926 94.5067 13.9028 94.8739 14.1111 95.1187C14.3193 95.3635 14.5888 95.4859 14.9195 95.4859C15.238 95.4859 15.5075 95.3635 15.7157 95.1187C15.9239 94.8739 16.0342 94.5067 16.0342 94.0049C16.0342 93.5397 15.9239 93.1725 15.7157 92.9399C15.5075 92.7074 15.238 92.5727 14.9195 92.5727C14.601 92.5727 14.3315 92.6951 14.1111 92.9399C13.8906 93.1848 13.7926 93.5275 13.7926 94.0171ZM17.6388 95.9143V95.1799H18.3738V95.9143H17.6388ZM21.4116 93.3561C21.4116 92.4871 21.6443 91.8016 22.1098 91.312C22.5752 90.8224 23.1877 90.5653 23.9227 90.5653C24.4126 90.5653 24.8413 90.6755 25.2333 90.9081C25.6253 91.1406 25.9193 91.4589 26.1275 91.875C26.3357 92.2912 26.4337 92.7563 26.4337 93.2827C26.4337 93.8212 26.3235 94.2986 26.1153 94.7148C25.907 95.1309 25.6008 95.4492 25.1966 95.6695C24.7923 95.8898 24.3759 95.9878 23.9227 95.9878C23.4327 95.9878 22.9795 95.8654 22.5997 95.6328C22.22 95.4002 21.9138 95.0697 21.7178 94.6536C21.5218 94.2374 21.4116 93.8212 21.4116 93.3561ZM22.122 93.3684C22.122 94.0048 22.2935 94.5067 22.6365 94.8617C22.9795 95.2166 23.4082 95.4125 23.9227 95.4125C24.4494 95.4125 24.8781 95.2289 25.2211 94.8617C25.564 94.4945 25.7233 93.9681 25.7233 93.2949C25.7233 92.8665 25.6498 92.4993 25.5028 92.1688C25.3558 91.8506 25.1476 91.6058 24.8658 91.4222C24.5841 91.2508 24.2779 91.1529 23.9227 91.1529C23.4327 91.1529 23.004 91.3242 22.6487 91.667C22.2935 92.0097 22.122 92.5727 22.122 93.3684ZM27.3769 95.9143V90.6633H30.9292V91.2875H28.0751V92.9155H30.5495V93.5397H28.0751V95.9266H27.3769V95.9143ZM37.6172 94.0783L38.3154 94.2496C38.1685 94.8249 37.9112 95.2533 37.5315 95.5594C37.1518 95.8654 36.6863 96.0122 36.1351 96.0122C35.5716 96.0122 35.1062 95.9021 34.7509 95.6695C34.3957 95.437 34.1262 95.1065 33.9425 94.6658C33.7588 94.2252 33.6608 93.76 33.6608 93.2582C33.6608 92.7074 33.771 92.23 33.9792 91.8261C34.1875 91.4222 34.4815 91.1039 34.8734 90.8958C35.2654 90.6878 35.6819 90.5776 36.1473 90.5776C36.6741 90.5776 37.115 90.7122 37.4703 90.9815C37.8255 91.2508 38.0827 91.6302 38.2175 92.1076L37.5315 92.2667C37.409 91.8873 37.2375 91.6058 37.0048 91.4344C36.772 91.263 36.4781 91.1774 36.1351 91.1774C35.7309 91.1774 35.3879 91.2753 35.1184 91.4711C34.8489 91.667 34.6529 91.924 34.5427 92.2545C34.4325 92.585 34.3835 92.9155 34.3835 93.2704C34.3835 93.7233 34.4447 94.1028 34.5794 94.4455C34.7142 94.776 34.9102 95.033 35.1919 95.1921C35.4736 95.3513 35.7676 95.437 36.0861 95.437C36.4781 95.437 36.8088 95.3268 37.0783 95.0942C37.3478 94.8617 37.5315 94.5189 37.6172 94.0783ZM39.1851 95.9143V90.6633H42.9946V91.2875H39.8833V92.9032H42.7986V93.5152H39.8833V95.3023H43.1171V95.9266H39.1851V95.9143ZM44.0848 95.9143V90.6633H46.4122C46.8776 90.6633 47.2328 90.7122 47.4778 90.8102C47.7228 90.9081 47.9188 91.0672 48.0658 91.312C48.2128 91.5568 48.2863 91.8139 48.2863 92.1076C48.2863 92.4748 48.1638 92.7931 47.9188 93.0501C47.6738 93.3072 47.3063 93.4663 46.8041 93.5397C46.9879 93.6254 47.1226 93.7111 47.2206 93.7968C47.4288 93.9804 47.6126 94.2129 47.7963 94.4945L48.715 95.9266H47.8453L47.1471 94.8372C46.9389 94.5189 46.7796 94.2741 46.6449 94.115C46.5102 93.9559 46.3999 93.8335 46.2897 93.76C46.1794 93.6866 46.0814 93.6499 45.9712 93.6254C45.8977 93.6132 45.763 93.6009 45.5792 93.6009H44.7708V95.9388H44.0848V95.9143ZM44.783 92.9767H46.2774C46.5959 92.9767 46.8409 92.9399 47.0246 92.8787C47.2084 92.8175 47.3431 92.7074 47.4288 92.5605C47.5268 92.4136 47.5636 92.2545 47.5636 92.0954C47.5636 91.8506 47.4778 91.6425 47.2941 91.4834C47.1104 91.3242 46.8286 91.2386 46.4367 91.2386H44.7708V92.9767H44.783ZM50.5891 95.9143V91.2753H48.8497V90.651H53.0145V91.2753H51.2751V95.9143H50.5891ZM53.8597 95.9143V90.6633H54.5579V95.9143H53.8597ZM55.8195 95.9143V90.6633H59.3718V91.2875H56.5177V92.9155H58.9921V93.5397H56.5177V95.9266H55.8195V95.9143ZM60.3885 95.9143V90.6633H61.0867V95.9143H60.3885ZM66.0721 94.0783L66.7703 94.2496C66.6233 94.8249 66.3661 95.2533 65.9864 95.5594C65.6066 95.8654 65.1412 96.0122 64.6022 96.0122C64.0387 96.0122 63.5733 95.9021 63.218 95.6695C62.8628 95.437 62.5933 95.1065 62.4096 94.6658C62.2259 94.2252 62.1279 93.76 62.1279 93.2582C62.1279 92.7074 62.2259 92.23 62.4463 91.8261C62.6668 91.4222 62.9486 91.1039 63.3405 90.8958C63.7325 90.6878 64.149 90.5776 64.6144 90.5776C65.1412 90.5776 65.5821 90.7122 65.9374 90.9815C66.2926 91.2508 66.5498 91.6302 66.6846 92.1076L65.9986 92.2667C65.8761 91.8873 65.7046 91.6058 65.4719 91.4344C65.2392 91.263 64.9452 91.1774 64.6022 91.1774C64.198 91.1774 63.855 91.2753 63.5855 91.4711C63.316 91.667 63.12 91.924 63.0098 92.2545C62.8996 92.585 62.8506 92.9155 62.8506 93.2704C62.8506 93.7233 62.9118 94.1028 63.0466 94.4455C63.1813 94.776 63.3773 95.033 63.659 95.1921C63.9407 95.3513 64.2347 95.437 64.5532 95.437C64.9452 95.437 65.2759 95.3268 65.5454 95.0942C65.8149 94.8617 65.9741 94.5189 66.0721 94.0783ZM67.0398 95.9143L69.0609 90.6633H69.8203L71.9762 95.9143H71.18L70.5676 94.3231H68.3627L67.787 95.9143H67.0398ZM68.5587 93.76H70.3471L69.7958 92.3035C69.6244 91.8628 69.5019 91.4956 69.4284 91.2141C69.3671 91.5568 69.2691 91.8873 69.1466 92.2178L68.5587 93.76ZM73.3236 95.9143V91.2753H71.5842V90.651H75.749V91.2753H74.0096V95.9143H73.3236ZM76.4839 95.9143V90.6633H80.2934V91.2875H77.1821V92.9032H80.0974V93.5152H77.1821V95.3023H80.4159V95.9266H76.4839V95.9143ZM81.4693 92.842V92.1076H82.2043V92.842H81.4693ZM81.4693 95.9143V95.1799H82.2043V95.9143H81.4693ZM85.2911 94.7025L85.9158 94.6413C85.9648 94.9351 86.0628 95.1432 86.222 95.2778C86.3812 95.4125 86.5527 95.4737 86.7855 95.4737C86.9815 95.4737 87.1529 95.4247 87.3122 95.339C87.4714 95.2533 87.5817 95.1309 87.6797 94.9718C87.7776 94.8249 87.8511 94.6169 87.9246 94.3598C87.9981 94.1028 88.0226 93.8335 88.0226 93.5764C88.0226 93.552 88.0226 93.503 88.0226 93.4418C87.8879 93.6499 87.7164 93.809 87.4959 93.9436C87.2754 94.0783 87.0304 94.1395 86.7732 94.1395C86.3322 94.1395 85.9648 93.9804 85.6708 93.6621C85.3768 93.3439 85.2176 92.9277 85.2176 92.4136C85.2176 91.875 85.3768 91.4466 85.683 91.1284C85.9893 90.8102 86.3935 90.6388 86.8712 90.6388C87.2142 90.6388 87.5204 90.7367 87.8144 90.9203C88.1084 91.1039 88.3166 91.361 88.4636 91.7037C88.6106 92.0464 88.6841 92.536 88.6841 93.1847C88.6841 93.858 88.6106 94.3965 88.4636 94.7882C88.3166 95.1799 88.0961 95.4859 87.8144 95.694C87.5327 95.9021 87.1897 96 86.7977 96C86.3812 96 86.0505 95.8898 85.7933 95.6573C85.4993 95.437 85.3401 95.1187 85.2911 94.7025ZM87.9369 92.3769C87.9369 92.0097 87.8389 91.7159 87.6429 91.4956C87.4469 91.2753 87.2142 91.1651 86.9325 91.1651C86.6507 91.1651 86.3935 91.2875 86.1853 91.5201C85.977 91.7526 85.8668 92.0587 85.8668 92.4259C85.8668 92.7563 85.9648 93.0379 86.173 93.246C86.3812 93.454 86.6262 93.5642 86.9202 93.5642C87.2142 93.5642 87.4592 93.4663 87.6552 93.246C87.8511 93.0256 87.9369 92.7563 87.9369 92.3769ZM89.2843 94.5434L89.958 94.4822C90.007 94.8127 90.1295 95.0575 90.3132 95.2289C90.497 95.4002 90.7175 95.4737 90.9747 95.4737C91.2809 95.4737 91.5504 95.3513 91.7586 95.1187C91.9669 94.8861 92.0771 94.5679 92.0771 94.1884C92.0771 93.8212 91.9791 93.5275 91.7709 93.3194C91.5626 93.1113 91.2932 93.0012 90.9624 93.0012C90.7542 93.0012 90.5705 93.0501 90.399 93.148C90.2275 93.2459 90.105 93.3684 90.007 93.5152L89.3945 93.4418L89.909 90.7367H92.5303V91.3487H90.4357L90.154 92.7563C90.4725 92.536 90.8032 92.4259 91.1462 92.4259C91.6116 92.4259 91.9914 92.585 92.3098 92.9032C92.6283 93.2215 92.7876 93.6254 92.7876 94.1273C92.7876 94.6046 92.6528 95.0085 92.3711 95.3635C92.0281 95.7919 91.5749 96 90.9869 96C90.5092 96 90.1172 95.8654 89.811 95.5961C89.5048 95.3268 89.321 94.9841 89.2843 94.5434ZM93.3633 94.5434L94.037 94.4822C94.086 94.8127 94.2085 95.0575 94.3922 95.2289C94.5759 95.4002 94.7964 95.4737 95.0537 95.4737C95.3599 95.4737 95.6294 95.3513 95.8376 95.1187C96.0458 94.8861 96.1561 94.5679 96.1561 94.1884C96.1561 93.8212 96.0581 93.5275 95.8499 93.3194C95.6416 93.1113 95.3721 93.0012 95.0414 93.0012C94.8332 93.0012 94.6494 93.0501 94.478 93.148C94.3065 93.2459 94.184 93.3684 94.086 93.5152L93.4735 93.4418L93.988 90.7367H96.6093V91.3487H94.5147L94.233 92.7563C94.5515 92.536 94.8822 92.4259 95.2252 92.4259C95.6906 92.4259 96.0704 92.585 96.3888 92.9032C96.7073 93.2215 96.8665 93.6254 96.8665 94.1273C96.8665 94.6046 96.7318 95.0085 96.4501 95.3635C96.1071 95.7919 95.6539 96 95.0659 96C94.5882 96 94.1962 95.8654 93.89 95.5961C93.5838 95.3268 93.4123 94.9841 93.3633 94.5434Z" fill="#B49026"/>
</g>
<defs>
<clipPath id="clip0">
<rect width="105" height="96" fill="white"/>
</clipPath>
</defs>
</svg>
