<svg width="96" height="96" viewBox="0 0 96 96" fill="none" xmlns="http://www.w3.org/2000/svg">
<path d="M30.1772 65.6154C29.7931 65.6154 29.5513 65.78 29.5513 66.2352V67.3834C29.5513 67.8386 29.7931 68.0113 30.1772 68.0113C30.5613 68.0113 30.8031 67.8386 30.8031 67.3834V66.2352C30.8031 65.78 30.5613 65.6154 30.1772 65.6154Z" fill="#B49026"/>
<path d="M43.7275 27.8544C43.6157 27.7447 43.4552 27.6552 43.319 27.5414C43.1605 27.4093 43.0243 27.6105 42.8435 27.5679V27.5231C42.752 27.5231 42.7094 27.5882 42.6403 27.6573C40.9638 28.1917 39.3787 28.97 37.9521 30.0145V30.0572C38.4967 30.4352 39.0617 30.7705 39.6733 30.99C40.9414 29.7443 42.3233 28.718 43.7275 27.8544Z" fill="#B49026"/>
<path d="M34.5463 65.6073C34.1622 65.6073 33.9204 65.78 33.9204 66.2352V69.6777C33.9204 70.1329 34.1622 70.3056 34.5463 70.3056C34.9303 70.3056 35.1722 70.1329 35.1722 69.6777V66.2352C35.1701 65.78 34.9303 65.6073 34.5463 65.6073Z" fill="#B49026"/>
<path d="M38.893 65.6073C38.5089 65.6073 38.2671 65.78 38.2671 66.2352V69.6777C38.2671 70.1329 38.5089 70.3056 38.893 70.3056C39.2771 70.3056 39.5189 70.1329 39.5189 69.6777V66.2352C39.5189 65.78 39.2771 65.6073 38.893 65.6073Z" fill="#B49026"/>
<path d="M44.522 27.5394C46.6029 28.8521 49.7954 28.718 51.7666 27.2975V27.2528C49.3869 26.6534 46.5582 26.6981 44.1583 27.2528C44.1806 27.4073 44.4062 27.452 44.522 27.5394Z" fill="#B49026"/>
<path d="M50.4742 28.7181C51.3378 29.8581 52.106 31.0367 52.8091 32.2154C53.7804 32.0121 54.6868 31.6545 55.5728 31.2785L55.6154 31.2095C54.4165 30.0105 52.992 28.966 51.5166 28.2324C51.1773 28.4112 50.7912 28.5453 50.4742 28.7181Z" fill="#B49026"/>
<path d="M56.3856 30.9229L57.9463 30.0552L57.991 29.9658C56.3612 28.8095 54.573 27.9641 52.6709 27.4744C52.5124 27.5841 52.2868 27.6979 52.2421 27.8524C53.6687 28.6774 55.0729 29.724 56.2718 30.9209H56.3856V30.9229Z" fill="#B49026"/>
<path d="M45.4243 28.6794C45.0849 28.5209 44.7456 28.4112 44.4062 28.277C42.9573 29.033 41.6445 30.0125 40.3988 31.1911L40.3562 31.3252C41.2158 31.7012 42.1221 31.9938 43.0508 32.2356L43.1422 32.2153C43.821 31.0773 44.4977 29.9231 45.3593 28.8521L45.4243 28.6794Z" fill="#B49026"/>
<path d="M46.1742 28.903C45.2455 29.9902 44.4753 31.1708 43.8189 32.3901C44.4306 32.5933 45.2008 32.6583 45.8104 32.7478C46.4465 32.7965 47.0134 32.9063 47.6454 32.8169C47.6454 31.5935 47.6901 30.2564 47.6231 29.1001L46.1742 28.903Z" fill="#B49026"/>
<path d="M48.3465 29.1204C48.3242 30.3438 48.3018 31.6565 48.3465 32.8392C49.6146 32.8392 50.8603 32.6807 52.0836 32.3901C51.4943 31.1708 50.6327 30.0328 49.7487 28.9233C49.2955 28.9863 48.7997 29.0554 48.3465 29.1204Z" fill="#B49026"/>
<path d="M50.657 58.5131L51.6284 58.9358C52.173 58.6716 52.6953 58.3343 53.2155 58.0234C54.0751 57.4239 55.0038 56.7106 55.7292 55.8876C54.8676 55.4649 53.941 55.154 52.9655 54.9325L52.8985 54.9772C52.2665 56.1559 51.541 57.2695 50.7241 58.3607L50.657 58.5131Z" fill="#B49026"/>
<path d="M53.9755 65.6073C53.5914 65.6073 53.3496 65.78 53.3496 66.2352V69.6777C53.3496 70.1329 53.5914 70.3056 53.9755 70.3056C54.3596 70.3056 54.6014 70.1329 54.6014 69.6777V66.2352C54.6014 65.78 54.3596 65.6073 53.9755 65.6073Z" fill="#B49026"/>
<path d="M44.453 59.7609C44.3839 59.826 44.2274 59.8503 44.2721 59.9601C46.672 60.5372 49.3443 60.5169 51.7442 60.0027C51.789 59.9601 51.9698 60.0028 51.9048 59.8686C49.8401 58.4035 46.5582 58.4035 44.453 59.7609Z" fill="#B49026"/>
<path d="M38.0436 57.1557V57.2248C39.6734 58.3811 41.4393 59.2265 43.3434 59.7162C43.5019 59.6268 43.6828 59.4927 43.7966 59.3586C42.3456 58.4482 41.0105 57.4931 39.7201 56.221C39.1328 56.4669 38.5882 56.8245 38.0436 57.1557Z" fill="#B49026"/>
<path d="M45.5604 58.4908C44.7455 57.3345 43.9307 56.1782 43.2763 54.9549L43.1828 54.9305C42.2318 55.1723 41.3072 55.4853 40.4212 55.91V55.975C41.6222 57.1984 43.0487 58.2246 44.5423 58.9582C44.8593 58.7794 45.2454 58.6716 45.5604 58.4908Z" fill="#B49026"/>
<path d="M48.001 15.3527C29.9699 15.3527 15.3528 29.9698 15.3528 48.0009C15.3528 66.032 29.9699 80.6492 48.001 80.6492C66.0321 80.6492 80.6493 66.032 80.6493 48.0009C80.6493 29.9698 66.0321 15.3527 48.001 15.3527ZM46.5806 26.253C46.8752 26.2266 47.1699 26.2083 47.4178 26.2266C48.0742 26.1616 48.824 26.188 49.4337 26.253L49.4784 26.2957L49.5028 26.253C54.9123 26.6737 59.9154 29.5898 62.9514 34.1276C62.7259 34.2393 62.4983 34.1479 62.2259 34.1479C61.2526 32.7457 60.0292 31.4797 58.6494 30.4331L58.4198 30.5225L56.8347 31.4329V31.5467C57.2208 31.9471 57.5358 32.323 57.8325 32.7457C58.1942 33.1724 58.5336 33.6602 58.8059 34.1479C58.625 34.217 58.3751 34.1926 58.1271 34.1926C57.5358 33.3492 56.8814 32.4815 56.1783 31.7479C55.1826 32.1462 54.2072 32.5465 53.1687 32.8148L53.122 32.8595L53.689 34.1458C53.5284 34.2393 53.2602 34.1905 53.0549 34.1905L52.4433 33.0363L52.3335 33.0119C51.0614 33.3228 49.6816 33.4569 48.3668 33.526C48.2774 33.7232 48.3668 33.9711 48.2997 34.1905H47.6881C47.621 33.9914 47.7572 33.6581 47.5763 33.4996C46.1721 33.4569 44.7902 33.3025 43.4755 33.0099C43.2479 33.3899 43.0914 33.8126 42.8882 34.1885C42.6403 34.2129 42.4817 34.2353 42.2318 34.1885L42.7967 32.8981L42.7073 32.8087C41.7095 32.5405 40.7585 32.1645 39.7851 31.8069C39.0596 32.5405 38.448 33.3635 37.883 34.1865C37.6554 34.2332 37.3608 34.2556 37.2023 34.1865C37.7245 33.2537 38.448 32.3819 39.149 31.5183C38.5841 31.1627 37.9277 30.8477 37.3384 30.4697C36.7044 30.8721 36.1598 31.4065 35.5725 31.9613C34.8938 32.6725 34.2821 33.4061 33.7395 34.1641C33.5119 34.2556 33.2416 34.1641 33.014 34.1865C36.1435 29.4557 41.1466 26.6717 46.5806 26.253ZM47.6007 46.8772C45.5604 46.1903 43.4551 45.6741 41.4393 44.9629C39.966 44.4081 38.4276 43.2274 38.133 41.6282C37.7489 39.9395 38.2 38.0231 39.6733 36.9563C41.9371 35.3326 45.4243 35.4423 47.9157 36.4869L48.9561 37.0437C49.0679 36.7754 48.9805 36.3995 49.0252 36.1353C50.0433 36.0886 51.289 36.0886 52.3071 36.1109C52.3335 37.9581 52.3986 39.5594 52.3518 41.3823C51.2646 41.4249 50.1104 41.4067 49.1146 41.4067C48.1859 39.9598 46.5562 39.4253 44.9711 39.2018C44.2233 39.1815 43.2275 38.96 42.7967 39.6936C42.752 39.9394 42.8658 40.1386 43.0467 40.293L43.4531 40.4942L48.9338 42.0752C50.7668 42.5406 52.5794 44.2557 52.8273 46.1436C53.0773 48.0842 52.171 49.8847 50.4721 50.8175C48.1392 52.0205 45.1073 51.7969 42.752 50.8175C42.3679 50.6183 41.9839 50.3948 41.5957 50.218L41.551 51.2869L38.1574 51.3092C38.0883 49.5291 38.1106 47.4583 38.1574 45.6579L41.2137 45.6355C41.3946 45.8591 41.5104 46.1232 41.6892 46.3447C43.2296 47.9501 45.5401 48.3911 47.6678 47.8119C47.8263 47.7266 48.0295 47.6128 48.0295 47.4157C48.0742 47.1677 47.8039 46.9666 47.6007 46.8772ZM27.2225 47.6351L29.4639 47.5904L29.4863 47.2795V39.7159C28.7384 39.6468 28.015 39.6712 27.2448 39.6468C27.2225 38.4438 27.2225 37.066 27.2448 35.8874L28.651 35.863L37.184 35.8874C37.2531 37.0416 37.2307 38.4032 37.2084 39.6712L34.9669 39.6936L34.9222 39.7586L34.8999 47.5701C35.6233 47.6595 36.4605 47.5945 37.2084 47.6392V51.3092H27.2245C27.1737 50.0818 27.1737 48.8788 27.2225 47.6351ZM32.0102 69.5598C32.0102 70.6348 31.4168 71.218 30.167 71.218C28.9823 71.218 28.3665 70.6348 28.3665 69.6147V69.4501H29.5086V69.6777C29.5086 70.1329 29.7504 70.3056 30.1345 70.3056C30.5633 70.3056 30.8031 70.1329 30.8031 69.5232V68.367H30.7807C30.5714 68.7307 30.2219 68.9217 29.6834 68.9217C28.7933 68.9217 28.3442 68.4035 28.3442 67.4647V66.2982C28.3442 65.2781 28.9924 64.6949 30.1772 64.6949C31.3619 64.6949 32.0102 65.2781 32.0102 66.2982V69.5598ZM36.3792 69.6127C36.3792 70.6328 35.731 71.216 34.5463 71.216C33.3615 71.216 32.7133 70.6328 32.7133 69.6127V66.2982C32.7133 65.2781 33.3615 64.6949 34.5463 64.6949C35.731 64.6949 36.3792 65.2781 36.3792 66.2982V69.6127ZM40.726 69.6127C40.726 70.6328 40.0777 71.216 38.893 71.216C37.7083 71.216 37.06 70.6328 37.06 69.6127V66.2982C37.06 65.2781 37.7083 64.6949 38.893 64.6949C40.0777 64.6949 40.726 65.2781 40.726 66.2982V69.6127ZM43.1849 71.1429V66.28H42.2521V65.5687C43.1849 65.5687 43.3942 65.1948 43.5811 64.7681H44.394V71.1429H43.1849ZM47.0154 71.1429H45.851V70.1776H47.0154V71.1429ZM47.0154 67.674H45.851V66.7087H47.0154V67.674ZM49.1004 70.2325H51.3845V71.1429H47.8933V70.3605C47.8933 69.6492 48.2002 69.1128 49.1004 68.3304C50.023 67.5196 50.2851 67.0197 50.2851 66.3369C50.2851 65.7638 50.0433 65.6073 49.6592 65.6073C49.2752 65.6073 49.0333 65.7801 49.0333 66.2353V66.918H47.8913V66.2982C47.8913 65.2781 48.505 64.6949 49.6918 64.6949C50.8765 64.6949 51.4922 65.2781 51.4922 66.2982C51.4922 67.1456 51.1183 67.8284 49.9986 68.8201C49.2853 69.4582 49.0882 69.759 49.0882 70.0943C49.0902 70.141 49.0902 70.1878 49.1004 70.2325ZM55.8085 69.6127C55.8085 70.6328 55.1602 71.216 53.9755 71.216C52.7908 71.216 52.1425 70.6328 52.1425 69.6127V66.2982C52.1425 65.2781 52.7908 64.6949 53.9755 64.6949C55.1602 64.6949 55.8085 65.2781 55.8085 66.2982V69.6127ZM58.2674 71.1429V66.28H57.3346V65.5687C58.2674 65.5687 58.4767 65.1948 58.6636 64.7681H59.4765V71.1429H58.2674ZM45.6295 60.8501C43.6157 60.5819 41.7136 59.96 39.9233 59.0923C39.968 59.0679 39.9233 59.0273 39.903 59.0273C39.8786 59.0273 39.8786 59.0476 39.8786 59.0476C37.2287 57.7348 34.6926 55.5117 33.0608 52.9735C33.3351 52.9492 33.5139 52.9309 33.7862 52.9735C34.7393 54.3757 36.0033 55.7088 37.3628 56.735C37.9989 56.4424 38.6085 56.0461 39.2202 55.6885C38.4967 54.7964 37.7713 53.9307 37.2287 52.9492C37.4766 52.9939 37.9298 52.7724 38.0436 53.1524C38.5414 53.9104 39.1531 54.6623 39.7871 55.3532L39.8786 55.3979C40.852 54.9996 41.8457 54.6419 42.8678 54.3513L42.9349 54.2863L42.37 52.9735C42.5285 52.9065 42.7784 52.9492 43.002 52.9492L43.6157 54.1319C44.9284 53.8616 46.2859 53.7051 47.6901 53.6421C47.8263 53.4186 47.7125 53.2174 47.7592 52.9492H48.3465C48.4379 53.128 48.3465 53.4186 48.4156 53.6177C49.773 53.7072 51.2463 53.8616 52.5814 54.1522L53.1931 52.9492H53.8048C53.7133 53.3942 53.4207 53.8169 53.2622 54.266L53.374 54.3513C54.3941 54.6196 55.2984 54.9772 56.2962 55.3755C57.044 54.6419 57.6333 53.7762 58.1962 52.9492H58.8993C58.3547 53.9083 57.6537 54.7761 56.9282 55.6438C57.4728 55.9994 58.0824 56.288 58.6514 56.6436C58.6941 56.7086 58.8303 56.733 58.877 56.6659C60.1877 55.6438 61.3887 54.331 62.3377 52.9735C62.5653 52.9492 62.862 52.9492 63.0632 52.9735C59.2164 58.8037 52.5814 61.7625 45.6295 60.8501ZM64.4796 69.6127C64.4796 70.6328 63.8659 71.216 62.6791 71.216C61.4944 71.216 60.8786 70.6328 60.8786 69.6127V69.0843H62.0207V69.6757C62.0207 70.1309 62.2625 70.2955 62.6466 70.2955C63.0307 70.2955 63.2725 70.1309 63.2725 69.6757V68.2735C63.2725 67.8183 63.0307 67.6456 62.6466 67.6456C62.2625 67.6456 62.0207 67.8183 62.0207 68.2735V68.4645H60.8786L61.0981 64.7681H64.2825V65.6785H62.1751L62.0756 67.1985H62.0979C62.3174 66.8977 62.6568 66.7331 63.1404 66.7331C64.0305 66.7331 64.4796 67.2513 64.4796 68.1902V69.6127ZM68.6109 48.7914C67.8854 49.7262 66.9141 50.4151 65.894 50.8398L65.7964 50.8805C65.455 51.0613 64.9612 51.1853 64.8047 51.2158C61.5228 52.1282 57.8325 51.6384 55.2943 49.4133C53.12 47.2978 52.9615 43.9387 53.5752 41.1161C53.9145 39.3989 54.9997 37.7305 56.6538 36.8852C59.6858 35.1964 64.1707 35.3306 67.1132 37.1981C68.1334 37.887 68.9706 38.8421 69.3791 39.913C70.4012 42.6727 70.2874 46.3427 68.6109 48.7914Z" fill="#B49026"/>
<path d="M52.3986 59.2914L52.3539 59.3585C52.5144 59.4926 52.6709 59.6267 52.8538 59.7162L53.9186 59.3829C55.4122 58.8261 56.8855 58.1616 58.1536 57.1557C57.609 56.7797 57.0196 56.4444 56.408 56.2006C55.1602 57.4239 53.8475 58.4481 52.3986 59.2914Z" fill="#B49026"/>
<path d="M47.7592 58.0722L47.7348 54.3087C46.4668 54.3087 45.2454 54.4875 44.0688 54.709L43.955 54.7984C44.6114 56.0218 45.3796 57.2024 46.3083 58.2957C46.7614 58.1799 47.2816 58.1799 47.7592 58.0722Z" fill="#B49026"/>
<path d="M64.1748 42.1829C64.1078 41.5814 64.1301 40.9129 63.7907 40.4028C63.2441 39.6915 62.3865 39.5574 61.5046 39.5574C60.6653 39.6224 59.7366 39.846 59.3993 40.7137C58.9705 42.1179 59.0803 43.7416 59.1493 45.2758C59.2408 46.0541 59.3302 46.8772 60.0333 47.3669C60.8706 47.8323 62.0939 47.942 62.9982 47.5437C63.5652 47.3425 63.9269 46.7877 64.0407 46.2533C64.2642 44.9629 64.1504 43.451 64.1748 42.1829Z" fill="#B49026"/>
<path d="M48.824 58.1372C49.2081 58.1616 49.5698 58.314 49.9559 58.2693C50.8155 57.1801 51.6101 56.0218 52.2421 54.8208L52.2197 54.7537C51.0208 54.4652 49.7304 54.331 48.4379 54.3087C48.3688 55.6214 48.3932 56.7798 48.4379 58.0925L48.824 58.1372Z" fill="#B49026"/>
<path d="M23.6764 19.6181L24.5482 20.5001C25.5988 21.5609 25.5582 22.8005 24.3247 24.0218C23.0912 25.2431 21.8516 25.2675 20.803 24.2067L17.391 20.7582C16.3404 19.6974 16.3811 18.4578 17.6146 17.2365C18.8481 16.0172 20.0877 15.9908 21.1362 17.0516L21.7743 17.6958L20.5876 18.8703L19.8844 18.1591C19.415 17.6856 18.9862 17.7547 18.5859 18.1489C18.1856 18.5452 18.1124 18.974 18.5819 19.4474L22.1259 23.0301C22.5953 23.5036 23.0139 23.4264 23.4143 23.0301C23.8146 22.6338 23.8959 22.2152 23.4285 21.7417L22.4917 20.7948L23.6764 19.6181Z" fill="#B49026"/>
<path d="M26.8933 14.9544L28.9539 13.6762L29.657 14.8081L27.5964 16.0863L29.0372 18.407L31.6302 16.7976L32.3333 17.9294L28.2385 20.4716L23.3208 12.5443L27.4155 10.0021L28.1186 11.134L25.5256 12.7434L26.8933 14.9544Z" fill="#B49026"/>
<path d="M38.2265 15.6087C38.0578 15.4116 37.9501 15.2937 37.7083 14.5744L37.2389 13.1864C36.9625 12.3654 36.5236 12.1765 35.7636 12.4325L35.1844 12.6276L36.3996 16.2265L34.7251 16.7914L31.7399 7.95368L34.2659 7.10019C36.0013 6.51493 36.9727 6.93152 37.434 8.29508L37.6677 8.99007C37.9745 9.89844 37.8201 10.5975 37.1718 11.1401L37.18 11.1645C38.1147 11.1726 38.6106 11.7355 38.9215 12.6581L39.3828 14.0216C39.5271 14.4504 39.649 14.7613 39.9274 15.0336L38.2265 15.6087ZM33.8412 8.65071L34.7576 11.3656L35.412 11.1441C36.0359 10.9328 36.3407 10.5772 36.1009 9.86999L35.8062 8.9982C35.5929 8.36621 35.2413 8.17722 34.6459 8.37637L33.8412 8.65071Z" fill="#B49026"/>
<path d="M41.0044 5.34239L46.4404 4.80591L46.5704 6.13289L44.7313 6.31375L45.5157 14.2736L43.7579 14.4463L42.9735 6.48648L41.1344 6.66734L41.0044 5.34239Z" fill="#B49026"/>
<path d="M50.8013 4.94615L52.5632 5.0945L51.7767 14.3915L50.0149 14.2432L50.8013 4.94615Z" fill="#B49026"/>
<path d="M57.993 10.3008L60.1938 10.9044L59.8423 12.1887L57.6415 11.5851L56.6234 15.2999L54.9184 14.8325L57.3854 5.83622L61.8947 7.07176L61.5411 8.35607L58.7368 7.58792L57.993 10.3008Z" fill="#B49026"/>
<path d="M66.0037 8.78079L67.5949 9.55097L63.5245 17.9477L61.9354 17.1776L66.0037 8.78079Z" fill="#B49026"/>
<path d="M70.9154 16.1818L72.8621 17.6287L72.0676 18.6996L70.1208 17.2527L68.491 19.4454L70.9418 21.2662L70.1472 22.3371L66.278 19.4637L71.842 11.9732L75.7112 14.8467L74.9166 15.9176L72.4659 14.0968L70.9154 16.1818Z" fill="#B49026"/>
<path d="M79.2125 18.1103L81.0212 20.242C82.1632 21.5893 82.1043 22.7781 80.9663 23.7434L77.3674 26.7956C76.2294 27.7609 75.0467 27.6247 73.9046 26.2774L72.096 24.1457L79.2125 18.1103ZM79.3385 20.3192L74.2541 24.6294L74.8983 25.3894C75.2621 25.8182 75.6624 25.9198 76.1725 25.489L79.873 22.3514C80.381 21.9205 80.3465 21.508 79.9827 21.0792L79.3385 20.3192Z" fill="#B49026"/>
<path d="M20.681 78.8894L19.6934 79.7408C18.5046 80.7671 17.2061 80.635 16.0132 79.2531C14.8204 77.8713 14.8834 76.5687 16.0722 75.5425L19.9373 72.2098C21.1261 71.1835 22.4246 71.3156 23.6175 72.6975C24.8103 74.0793 24.7473 75.3819 23.5585 76.4081L22.8371 77.03L21.689 75.6989L22.4856 75.0121C23.016 74.5548 22.9753 74.0976 22.5892 73.6506C22.2031 73.2014 21.7581 73.0958 21.2277 73.553L17.2142 77.0137C16.6838 77.471 16.7346 77.918 17.1207 78.3651C17.5068 78.8122 17.9417 78.93 18.4721 78.4728L19.5349 77.5563L20.681 78.8894Z" fill="#B49026"/>
<path d="M26.4808 78.9909C27.3505 77.6823 28.6775 77.4872 30.1975 78.4971C31.7176 79.5071 32.0508 80.8077 31.1811 82.1143L28.3564 86.3656C27.4867 87.6743 26.1597 87.8693 24.6396 86.8594C23.1196 85.8494 22.7863 84.5488 23.6561 83.2422L26.4808 78.9909ZM25.1497 84.3517C24.7616 84.9349 24.9241 85.3637 25.4159 85.6909C25.9077 86.0181 26.3649 86.0018 26.7531 85.4186L29.6875 81.0048C30.0756 80.4216 29.913 79.9928 29.4213 79.6656C28.9295 79.3384 28.4722 79.3547 28.0841 79.9379L25.1497 84.3517Z" fill="#B49026"/>
<path d="M37.4949 89.5215L37.5274 89.5296L40.596 83.1487L43.0873 83.8396L40.4639 93.2972L38.7711 92.8277L40.6529 86.0465L40.6203 86.0384L37.5335 92.4863L35.8408 92.0169L36.3935 84.9675L36.361 84.9593L34.5056 91.6471L32.9429 91.2122L35.5624 81.7526L38.0538 82.4435L37.4949 89.5215Z" fill="#B49026"/>
<path d="M52.3173 86.2619L52.364 87.5361C52.423 89.1049 51.543 89.995 49.6836 90.0641L48.8058 90.0966L48.9419 93.7808L47.0845 93.8499L46.7208 84.0408L49.456 83.9392C51.3154 83.8721 52.2584 84.6911 52.3173 86.2619ZM48.631 85.3739L48.7549 88.6944L49.6328 88.6619C50.2242 88.6395 50.5371 88.4038 50.5107 87.7027L50.4558 86.2315C50.4294 85.5304 50.1002 85.319 49.5089 85.3414L48.631 85.3739Z" fill="#B49026"/>
<path d="M63.7907 90.8626L62.0024 91.4276L61.1611 89.8263L58.9847 90.5131L59.2144 92.3075L57.5866 92.8216L56.4405 82.8906L59.0355 82.0716L63.7907 90.8626ZM58.8079 89.1719L60.5169 88.6334L58.1861 84.1627L58.1536 84.1729L58.8079 89.1719Z" fill="#B49026"/>
<path d="M66.5646 81.3869L66.5361 81.4052L70.5191 87.2943L69.1332 88.2311L63.6342 80.1006L65.5668 78.7939L70.4114 82.6102L70.4399 82.5919L67.1498 77.725L68.5215 76.7963L74.0205 84.9269L72.4395 85.9958L66.5646 81.3869Z" fill="#B49026"/>
<path d="M77.3288 77.2006L70.7792 74.8129L72.0208 73.3172L76.3574 75.0974L76.3797 75.071L73.8355 71.1327L74.9695 69.7671L78.5155 75.768L81.0171 77.8469L79.8283 79.2775L77.3288 77.2006Z" fill="#B49026"/>
<circle cx="48" cy="48" r="47.5" stroke="#B49026"/>
</svg>
