<svg width="185" height="64" viewBox="0 0 185 64" fill="none" xmlns="http://www.w3.org/2000/svg">
<path d="M81.5737 18.487V7.63188C81.5737 6.63768 81.5536 6.02899 81.0308 5.54203C80.307 4.89275 79.2815 5.33913 79.2815 4.66957C79.2815 4.4058 79.4625 4.24348 79.8043 4.24348H83.4437C83.6649 4.24348 84.0067 4.36522 84.0067 4.81159V10.3304H90.8432V4.24348H93.256V18.487H90.8432V11.4667H84.0067V18.487H81.5737Z" fill="black"/>
<path d="M106.105 17.8783C106.064 18.4464 105.903 18.487 105.34 18.487H96.9357V7.63188C96.9357 6.63768 96.9156 6.02899 96.3928 5.54203C95.6689 4.89275 94.6434 5.33913 94.6434 4.66957C94.6434 4.4058 94.8244 4.26377 95.1662 4.26377C102.767 4.24348 100.917 4.24348 105.039 4.24348C105.461 4.24348 105.481 4.46667 105.481 4.97391C105.481 5.01449 105.481 5.07536 105.481 5.11594C105.481 6.13043 105.702 6.90145 105.702 7.30725C105.702 7.55072 105.622 7.65217 105.381 7.65217C104.858 7.65217 105.079 7.12464 104.496 6.25217C104.154 5.76522 103.37 5.4 102.184 5.4H100.957C99.5697 5.4 99.3284 5.88696 99.3284 6.51594V10.371H101.239C102.083 10.371 102.626 10.2899 103.008 9.76232C103.41 9.21449 103.39 8.6058 103.913 8.6058C104.114 8.6058 104.194 8.74783 104.194 9.03188C104.194 9.1942 104.114 9.62029 104.114 10.3913C104.114 12.0551 104.275 13.0087 104.275 13.2116C104.275 13.4754 104.154 13.5971 103.933 13.5971C103.43 13.5971 103.631 13.0899 103.39 12.4406C103.068 11.5884 102.525 11.4464 101.359 11.4464H99.3284V15.4841C99.3284 16.9246 99.429 17.3507 100.937 17.3507H102.706C104.375 17.3507 104.958 16.8841 105.32 16.0319C105.622 15.3014 105.501 15.0174 105.984 15.0174C106.265 15.0174 106.265 15.0783 106.265 15.4638C106.265 15.5043 106.265 15.5855 106.265 15.6464L106.105 17.8783Z" fill="black"/>
<path d="M117.887 17.8783C117.847 18.4464 117.686 18.487 117.123 18.487H108.819C108.819 18.487 108.819 18.0609 108.819 15.5855V7.63188C108.819 6.63768 108.779 6.02899 108.256 5.54203C107.532 4.87246 106.527 5.33913 106.527 4.66957C106.527 4.4058 106.688 4.24348 107.029 4.24348H110.649C110.87 4.24348 111.212 4.36522 111.212 4.81159V15.7478C111.212 17.0261 111.252 17.513 112.82 17.513H114.489C116.158 17.513 116.741 17.0464 117.103 16.1942C117.405 15.4638 117.284 15.1797 117.767 15.1797C118.048 15.1797 118.048 15.2406 118.048 15.6261C118.048 15.6667 118.048 15.7478 118.048 15.8087L117.887 17.8783Z" fill="black"/>
<path d="M129.67 17.8783C129.63 18.4464 129.469 18.487 128.906 18.487H120.602C120.602 18.487 120.602 18.0609 120.602 15.5855V7.63188C120.602 6.63768 120.562 6.02899 120.039 5.54203C119.315 4.87246 118.31 5.33913 118.31 4.66957C118.31 4.4058 118.471 4.24348 118.812 4.24348H122.432C122.653 4.24348 122.995 4.36522 122.995 4.81159V15.7478C122.995 17.0261 123.035 17.513 124.603 17.513H126.272C127.941 17.513 128.524 17.0464 128.886 16.1942C129.188 15.4638 129.067 15.1797 129.55 15.1797C129.831 15.1797 129.831 15.2406 129.831 15.6261C129.831 15.6667 129.831 15.7478 129.831 15.8087L129.67 17.8783Z" fill="black"/>
<path d="M141.453 17.8783C141.413 18.4464 141.252 18.487 140.689 18.487H132.284V7.63188C132.284 6.63768 132.264 6.02899 131.741 5.54203C131.017 4.89275 129.992 5.33913 129.992 4.66957C129.992 4.4058 130.173 4.26377 130.515 4.26377C138.115 4.24348 136.265 4.24348 140.387 4.24348C140.81 4.24348 140.83 4.46667 140.83 4.97391C140.83 5.01449 140.83 5.07536 140.83 5.11594C140.83 6.13043 141.051 6.90145 141.051 7.30725C141.051 7.55072 140.971 7.65217 140.729 7.65217C140.206 7.65217 140.428 7.12464 139.845 6.25217C139.503 5.76522 138.719 5.4 137.532 5.4H136.306C134.918 5.4 134.677 5.88696 134.677 6.51594V10.371H136.587C137.432 10.371 137.975 10.2899 138.357 9.76232C138.759 9.21449 138.739 8.6058 139.261 8.6058C139.462 8.6058 139.543 8.74783 139.543 9.03188C139.543 9.1942 139.462 9.62029 139.462 10.3913C139.462 12.0551 139.623 13.0087 139.623 13.2116C139.623 13.4754 139.503 13.5971 139.282 13.5971C138.779 13.5971 138.98 13.0899 138.739 12.4406C138.417 11.5884 137.874 11.4464 136.708 11.4464H134.677V15.4841C134.677 16.9246 134.777 17.3507 136.286 17.3507H138.055C139.724 17.3507 140.307 16.8841 140.669 16.0319C140.971 15.3014 140.85 15.0174 141.332 15.0174C141.614 15.0174 141.614 15.0783 141.614 15.4638C141.614 15.5043 141.614 15.5855 141.614 15.6464L141.453 17.8783Z" fill="black"/>
<path d="M144.147 8.07826C144.147 6.84058 143.966 6.0087 143.544 5.58261C142.74 4.77101 141.956 5.35942 141.956 4.68986C141.956 4.34493 142.076 4.24348 142.358 4.24348H145.294C145.857 4.24348 146.017 4.48696 146.54 5.11594L153.457 13.4957C153.839 13.9623 154.121 14.1652 154.261 14.1652C154.442 14.1652 154.543 13.8406 154.543 13.1913V4.24348H155.488V17.9797C155.488 18.5478 155.347 18.8319 155.166 18.8319C154.784 18.8319 154.523 18.4261 154.06 17.8783L145.796 8.01739C145.595 7.77391 145.374 7.63188 145.314 7.63188C145.153 7.63188 145.072 7.91594 145.072 8.48406V18.487H144.147V8.07826Z" fill="black"/>
<path d="M159.288 18.487V7.63188C159.288 6.49565 159.288 5.90725 158.745 5.48116C158.021 4.91304 156.996 5.33913 156.996 4.66957C156.996 4.42609 157.157 4.24348 157.499 4.24348H161.138C161.359 4.24348 161.701 4.36522 161.701 4.81159V18.487H159.288Z" fill="black"/>
<path d="M175.314 5.25797C175.756 5.25797 175.635 4.62899 175.997 4.62899C176.399 4.62899 176.359 4.93333 176.379 5.54203C176.44 7.24638 176.681 8.4029 176.681 8.86957C176.681 9.11304 176.58 9.23478 176.399 9.23478C175.957 9.23478 176.017 8.68696 175.153 7.42899C174.027 5.8058 172.298 4.83188 170.528 4.83188C168.196 4.83188 166.265 7.06377 166.265 10.4928C166.265 14.4493 168.578 17.3913 171.513 17.3913C172.82 17.3913 174.248 16.8232 175.374 15.7884C175.997 15.2203 176.218 14.6725 176.58 14.6725C176.741 14.6725 176.842 14.7739 176.842 14.9768C176.842 15.2812 176.42 15.9913 175.515 16.8638C174.107 18.2029 172.418 18.8725 170.428 18.8725C166.466 18.8725 163.812 15.9913 163.812 11.8725C163.812 7.46957 166.808 4 170.85 4C173.424 4 174.952 5.25797 175.314 5.25797Z" fill="black"/>
<path d="M82.5188 33.8058C81.8753 35.3681 81.7145 35.8145 80.5282 38.7768H79.2815L85.555 24.4928C85.6354 24.3101 85.6756 24.2087 85.8767 24.2087C86.0174 24.2087 86.1582 24.3507 86.2587 24.5739L92.2909 38.7768H89.6166C88.4102 35.8145 88.2292 35.3681 87.5858 33.8058H82.5188ZM87.1836 32.7913L85.4142 28.4899C85.3137 28.2261 85.193 28.1043 85.1126 28.1043C85.0121 28.1043 84.8914 28.2058 84.811 28.4087L82.9611 32.7913H87.1836Z" fill="black"/>
<path d="M108.578 25.6087C108.095 25.8928 107.975 26.4203 107.975 27.313C107.975 27.3739 107.975 27.4348 107.975 27.4957V38.7768H105.562V29.6464C105.562 29.3217 105.461 29.1594 105.401 29.1594C105.32 29.1594 105.18 29.342 104.999 29.687L100.756 38.3507C100.635 38.6145 100.555 38.8174 100.294 38.8174C100.012 38.8174 99.9719 38.6145 99.8512 38.3304L95.9303 29.6058C95.8298 29.3826 95.7493 29.2203 95.6287 29.2203C95.5282 29.2203 95.4678 29.4029 95.4678 29.7478V38.7768H94.5228V29.6667C94.5228 29.342 94.5228 29.0174 94.5228 28.713C94.5228 27.3333 94.4223 26.2985 93.6984 25.6899C93.055 25.1623 92.5322 25.4667 92.5322 24.9188C92.5322 24.6551 92.6327 24.5333 92.8941 24.5333H95.8499C96.1515 24.5333 96.252 24.6957 96.4732 25.1623L100.917 34.8C100.997 34.9826 101.078 35.0841 101.178 35.0841C101.279 35.0841 101.399 35.0029 101.48 34.8406L106.326 24.9391C106.426 24.7159 106.547 24.5333 106.828 24.5333H109.282C109.603 24.5333 109.744 24.5942 109.744 24.9797C109.744 25.4464 109.402 25.142 108.578 25.6087Z" fill="black"/>
<path d="M121.487 38.1681C121.446 38.7362 121.286 38.7768 120.723 38.7768H112.318V27.9217C112.318 26.9275 112.298 26.3188 111.775 25.8319C111.051 25.1826 110.025 25.629 110.025 24.9594C110.025 24.6957 110.206 24.5536 110.548 24.5536C118.149 24.5333 116.299 24.5333 120.421 24.5333C120.843 24.5333 120.863 24.7565 120.863 25.2638C120.863 25.3043 120.863 25.3652 120.863 25.4058C120.863 26.4203 121.084 27.1913 121.084 27.5971C121.084 27.8406 121.004 27.942 120.763 27.942C120.24 27.942 120.461 27.4145 119.878 26.542C119.536 26.0551 118.752 25.6899 117.566 25.6899H116.339C114.952 25.6899 114.71 26.1768 114.71 26.8058V30.6609H116.621C117.465 30.6609 118.008 30.5797 118.39 30.0522C118.792 29.5043 118.772 28.8957 119.295 28.8957C119.496 28.8957 119.576 29.0377 119.576 29.3217C119.576 29.4841 119.496 29.9101 119.496 30.6812C119.496 32.3449 119.657 33.2985 119.657 33.5014C119.657 33.7652 119.536 33.887 119.315 33.887C118.812 33.887 119.013 33.3797 118.772 32.7304C118.45 31.8783 117.908 31.7362 116.741 31.7362H114.71V35.7739C114.71 37.2145 114.811 37.6406 116.319 37.6406H118.088C119.757 37.6406 120.34 37.1739 120.702 36.3217C121.004 35.5913 120.883 35.3072 121.366 35.3072C121.647 35.3072 121.647 35.3681 121.647 35.7536C121.647 35.7942 121.647 35.8754 121.647 35.9362L121.487 38.1681Z" fill="black"/>
<path d="M135.662 38.7768H132.948C132.686 38.7768 132.445 38.6551 132.164 38.2493L128.062 32.4464C127.78 32.0609 127.76 32.142 127.358 32.142H126.554V38.7768H124.08V27.9217C124.08 26.9275 124.06 26.2985 123.578 25.8319C122.934 25.1826 121.989 25.6087 121.989 24.9594C121.989 24.6754 122.15 24.5333 122.472 24.5333H128.806C131.862 24.5333 133.511 25.9333 133.511 28.3275C133.511 30.3565 132.083 31.4522 130.394 31.7565L133.672 36.2406C134.235 37.0116 134.697 37.5188 135.079 37.7826C135.763 38.2696 136.145 37.9855 136.145 38.4116C136.145 38.6551 136.084 38.7768 135.662 38.7768ZM128.202 31.2696C130.133 31.2696 131.058 30.5797 131.058 28.8145C131.058 26.6841 129.831 25.3652 127.78 25.3652C126.714 25.3652 126.554 25.8522 126.554 26.9884V31.2696H128.202Z" fill="black"/>
<path d="M138.578 38.7768V27.9217C138.578 26.7855 138.578 26.1971 138.035 25.771C137.311 25.2029 136.286 25.629 136.286 24.9594C136.286 24.7159 136.446 24.5333 136.788 24.5333H140.428C140.649 24.5333 140.991 24.6551 140.991 25.1014V38.7768H138.578Z" fill="black"/>
<path d="M154.603 25.5478C155.046 25.5478 154.925 24.9188 155.287 24.9188C155.689 24.9188 155.649 25.2232 155.669 25.8319C155.729 27.5362 155.971 28.6928 155.971 29.1594C155.971 29.4029 155.87 29.5246 155.689 29.5246C155.247 29.5246 155.307 28.9768 154.442 27.7188C153.316 26.0957 151.587 25.1217 149.818 25.1217C147.485 25.1217 145.555 27.3536 145.555 30.7826C145.555 34.7391 147.867 37.6812 150.803 37.6812C152.11 37.6812 153.538 37.113 154.664 36.0783C155.287 35.5101 155.508 34.9623 155.87 34.9623C156.031 34.9623 156.131 35.0638 156.131 35.2667C156.131 35.571 155.709 36.2812 154.804 37.1536C153.397 38.4928 151.708 39.1623 149.717 39.1623C145.756 39.1623 143.102 36.2812 143.102 32.1623C143.102 27.7594 146.098 24.2899 150.139 24.2899C152.713 24.2899 154.241 25.5478 154.603 25.5478Z" fill="black"/>
<path d="M160.354 33.8058C159.71 35.3681 159.55 35.8145 158.363 38.7768H157.117L163.39 24.4928C163.471 24.3101 163.511 24.2087 163.712 24.2087C163.853 24.2087 163.993 24.3507 164.094 24.5739L170.126 38.7768H167.452C166.245 35.8145 166.064 35.3681 165.421 33.8058H160.354ZM165.019 32.7913L163.249 28.4899C163.149 28.2261 163.028 28.1043 162.948 28.1043C162.847 28.1043 162.727 28.2058 162.646 28.4087L160.796 32.7913H165.019Z" fill="black"/>
<path d="M172.66 28.3681C172.66 27.1304 172.479 26.2985 172.056 25.8725C171.252 25.0609 170.468 25.6493 170.468 24.9797C170.468 24.6348 170.588 24.5333 170.87 24.5333H173.806C174.369 24.5333 174.529 24.7768 175.052 25.4058L181.969 33.7855C182.351 34.2522 182.633 34.4551 182.773 34.4551C182.954 34.4551 183.055 34.1304 183.055 33.4812V24.5333H184V38.2696C184 38.8377 183.859 39.1217 183.678 39.1217C183.296 39.1217 183.035 38.7159 182.572 38.1681L174.308 28.3072C174.107 28.0638 173.886 27.9217 173.826 27.9217C173.665 27.9217 173.584 28.2058 173.584 28.7739V38.7768H172.66V28.3681Z" fill="black"/>
<path d="M84.248 56.8145C84.9115 58.0116 86.0576 58.6812 87.5054 58.6812C88.8324 58.6812 89.9786 58.1942 90.7225 57.3014C91.6475 56.2058 91.8083 54.6841 91.8083 52.513V45.3507H92.8338V52.6145C92.8338 57.4841 90.8029 59.9188 86.7212 59.9188C82.6595 59.9188 81.2922 57.6667 81.2922 53.1014V48.7391C81.2922 47.6029 81.2922 47.0145 80.7493 46.5884C80.0255 46.0203 79 46.4464 79 45.7768C79 45.5333 79.1609 45.3507 79.5027 45.3507H83.122C83.3432 45.3507 83.685 45.4725 83.685 45.9188V53.1826C83.685 54.6638 83.7051 55.8406 84.248 56.8145Z" fill="black"/>
<path d="M96.6743 49.1855C96.6743 47.9478 96.4933 47.1159 96.071 46.6899C95.2668 45.8783 94.4826 46.4667 94.4826 45.7971C94.4826 45.4522 94.6032 45.3507 94.8847 45.3507H97.8204C98.3834 45.3507 98.5442 45.5942 99.067 46.2232L105.984 54.6029C106.366 55.0696 106.647 55.2725 106.788 55.2725C106.969 55.2725 107.07 54.9478 107.07 54.2985V45.3507H108.015V59.087C108.015 59.6551 107.874 59.9391 107.693 59.9391C107.311 59.9391 107.05 59.5333 106.587 58.9855L98.3231 49.1246C98.122 48.8812 97.9008 48.7391 97.8405 48.7391C97.6796 48.7391 97.5992 49.0232 97.5992 49.5913V59.5942H96.6743V49.1855Z" fill="black"/>
<path d="M111.815 59.5942V48.7391C111.815 47.6029 111.815 47.0145 111.272 46.5884C110.548 46.0203 109.523 46.4464 109.523 45.7768C109.523 45.5333 109.684 45.3507 110.025 45.3507H113.665C113.886 45.3507 114.228 45.4725 114.228 45.9188V59.5942H111.815Z" fill="black"/>
<path d="M131.319 52.371C131.319 56.6725 128.162 60 123.538 60C119.315 60 116.299 56.8956 116.299 52.6957C116.299 48.4551 119.476 45.1072 124.02 45.1072C128.303 45.1072 131.319 48.2725 131.319 52.371ZM123.517 46.0609C120.743 46.0609 118.873 48.0696 118.873 51.7014C118.873 56.0841 120.924 59.0464 124.06 59.0464C126.875 59.0464 128.765 57.0377 128.765 53.5072C128.765 49.0435 126.534 46.0609 123.517 46.0609Z" fill="black"/>
<path d="M134.235 49.1855C134.235 47.9478 134.054 47.1159 133.631 46.6899C132.827 45.8783 132.043 46.4667 132.043 45.7971C132.043 45.4522 132.164 45.3507 132.445 45.3507H135.381C135.944 45.3507 136.105 45.5942 136.627 46.2232L143.544 54.6029C143.926 55.0696 144.208 55.2725 144.349 55.2725C144.529 55.2725 144.63 54.9478 144.63 54.2985V45.3507H145.575V59.087C145.575 59.6551 145.434 59.9391 145.253 59.9391C144.871 59.9391 144.61 59.5333 144.147 58.9855L135.883 49.1246C135.682 48.8812 135.461 48.7391 135.401 48.7391C135.24 48.7391 135.16 49.0232 135.16 49.5913V59.5942H134.235V49.1855Z" fill="black"/>
<g clip-path="url(#clip0)">
<path d="M32.5752 0.414544C45.1245 0.414544 53.5827 2.68747 55.0312 3.10555C55.6589 5.55042 56.8095 7.3299 58.4536 8.3957C59.8809 9.32136 61.333 9.45915 62.0726 9.45915C62.1315 9.45915 62.1868 9.45797 62.2386 9.45679C61.9148 20.0088 60.1023 29.4056 56.8484 37.3926C54.2115 43.8652 50.6279 49.4321 46.1974 53.9379C42.2557 57.9467 38.3576 60.3598 35.7808 61.6764C33.4054 62.8918 31.686 63.4253 31.2138 63.5595C23.9298 60.4622 17.7823 55.6926 12.9408 49.3826C9.03681 44.2962 5.96659 38.1993 3.8126 31.2639C1.89298 25.0858 1.07331 19.3682 0.723542 15.6608C0.426766 12.5164 0.4091 10.247 0.416167 9.39438C2.48889 9.20595 5.12336 8.45341 6.66377 6.05564C7.38687 4.93096 7.61063 3.84042 7.68011 3.31518C15.9109 1.38967 24.2854 0.414544 32.5752 0.414544ZM32.5752 0C25.3583 0 16.7648 0.739585 7.29619 2.98072C7.29619 2.98072 7.11129 8.57471 0.00751056 9.01045C0.00751056 9.01045 -1.3162 50.2941 31.1831 64C31.1831 64 61.4084 56.3792 62.6638 9.01045C62.6638 9.01045 62.4412 9.04578 62.0702 9.04578C60.5863 9.04578 56.7377 8.47696 55.3751 2.7758C55.3751 2.7758 46.559 0 32.5752 0Z" fill="#716122"/>
<path d="M32.5752 0.414544C45.1245 0.414544 53.5827 2.68747 55.0312 3.10555C55.6589 5.55042 56.8095 7.3299 58.4536 8.3957C59.8809 9.32136 61.333 9.45915 62.0726 9.45915C62.1315 9.45915 62.1868 9.45797 62.2386 9.45679C61.9148 20.0088 60.1023 29.4056 56.8484 37.3926C54.2115 43.8652 50.6279 49.4321 46.1974 53.9379C42.2557 57.9467 38.3576 60.3598 35.7808 61.6764C33.4054 62.8918 31.686 63.4253 31.2138 63.5595C23.9298 60.4622 17.7823 55.6926 12.9408 49.3826C9.03681 44.2962 5.96659 38.1993 3.8126 31.2639C1.89298 25.0858 1.07331 19.3682 0.723542 15.6608C0.426766 12.5164 0.4091 10.247 0.416167 9.39438C2.48889 9.20595 5.12336 8.45341 6.66377 6.05564C7.38687 4.93096 7.61063 3.84042 7.68011 3.31518C15.9109 1.38967 24.2854 0.414544 32.5752 0.414544ZM32.5752 0C25.3583 0 16.7648 0.739585 7.29619 2.98072C7.29619 2.98072 7.11129 8.57471 0.00751056 9.01045C0.00751056 9.01045 -1.3162 50.2941 31.1831 64C31.1831 64 61.4084 56.3792 62.6638 9.01045C62.6638 9.01045 62.4412 9.04578 62.0702 9.04578C60.5863 9.04578 56.7377 8.47696 55.3751 2.7758C55.3751 2.7758 46.559 0 32.5752 0Z" fill="#716122"/>
<path d="M60.943 10.3507C60.3323 31.6507 53.4392 44.5573 46.4601 52.217C50.7539 47.0264 53.3384 40.9074 54.8847 35.1595C56.3144 29.8448 56.8588 24.8403 57.046 21.165C57.1396 19.327 57.1439 17.8208 57.1247 16.7734C57.1152 16.2497 57.0997 15.8407 57.0867 15.5623C57.0816 15.4538 57.0677 15.2313 57.0598 15.1043C57.0575 15.0684 57.0558 15.0401 57.0548 15.0243L56.9521 14.9833C44.0964 9.85197 31.2826 9.85331 21.6878 11.1349C16.8896 11.7758 12.8942 12.7372 10.0976 13.5385C8.69918 13.9392 7.60035 14.3 6.85056 14.5608C6.47567 14.6912 6.18801 14.7966 5.99379 14.8695C5.89668 14.906 5.698 14.9832 5.698 14.9832L5.58229 15.0297L5.58688 15.1539C6.3217 35.0175 11.8778 46.6698 17.6503 53.4571C11.1735 46.9611 7.33309 38.9585 5.05775 31.6008C3.27552 25.8376 2.45545 20.4753 2.08107 16.5536C1.8939 14.593 1.81818 12.993 1.78924 11.8838C1.77477 11.3293 1.772 10.8974 1.77283 10.6046C1.77317 10.4867 1.77409 10.3914 1.77506 10.3196C5.09645 10.0762 6.83747 8.65369 7.742 7.26028C8.19893 6.55639 8.43843 5.86621 8.56385 5.35194C8.6266 5.09461 8.66096 4.88065 8.67967 4.73006C8.68463 4.69008 8.6885 4.65455 8.6915 4.62383C21.8294 1.56019 33.1821 1.51476 41.2567 2.23729C45.3069 2.5997 48.5319 3.15529 50.7434 3.61996C51.8491 3.85229 52.7014 4.06188 53.2767 4.21321C53.5643 4.28887 53.7827 4.34996 53.9288 4.39205C53.9786 4.40636 54.0199 4.41848 54.0528 4.42822C54.8846 7.76232 56.6338 9.2529 58.2023 9.89791C58.9896 10.2216 59.7241 10.3295 60.2618 10.3566C60.5308 10.3701 60.7888 10.3609 60.943 10.3507Z" fill="#B49026"/>
<path fill-rule="evenodd" clip-rule="evenodd" d="M12.7659 49.4994C17.6462 55.8636 23.8479 60.6686 31.1978 63.7812C31.9563 63.5704 39.1166 61.427 46.3263 54.1054C50.7803 49.5807 54.3829 43.9902 57.0327 37.4918C60.3231 29.4211 62.1461 19.9172 62.4512 9.24152C62.3511 9.24859 62.2227 9.25448 62.0708 9.25448C60.4703 9.25448 56.6134 8.6362 55.2025 2.94092C54.1367 2.6253 45.5302 0.20752 32.5745 0.20752C24.2212 0.20752 15.7831 1.19677 7.4899 3.14702C7.44986 3.56509 7.26849 4.731 6.48887 5.94401C4.9461 8.34295 2.26216 9.04721 0.210641 9.20384C0.190621 10.6559 0.198864 20.3188 3.6059 31.3042C5.76577 38.2679 8.84659 44.3895 12.7659 49.4994ZM54.3485 4.14937L54.3721 4.24673C55.1685 7.54555 56.8627 8.96502 58.3367 9.57115C59.0784 9.87617 59.7717 9.97815 60.2796 10.0037C60.5333 10.0165 60.74 10.0102 60.8823 10.0008L61.3074 9.94668L61.3017 10.159C60.7047 32.4831 53.2407 45.693 45.909 53.323C42.2448 57.1364 38.617 59.5525 35.9035 61.0157C34.5467 61.7473 33.4184 62.2408 32.6281 62.5518C32.2329 62.7072 31.3209 63.0093 31.3209 63.0093C30.2804 62.5748 29.2193 62.0861 28.25 61.5933C28.0135 61.4898 27.7663 61.3768 27.5092 61.2536C25.8623 60.4642 23.8148 59.2551 21.6367 57.43C12.4776 50.4034 7.46265 40.5734 4.72022 31.7052C2.92907 25.9131 2.10539 20.526 1.72936 16.5872C1.54133 14.6175 1.46518 13.0094 1.43606 11.8931C1.42149 11.3349 1.41869 10.8996 1.41953 10.6036C1.41995 10.4555 1.42128 10.3423 1.42252 10.2659C1.42252 10.2659 1.42911 10.0072 1.42955 9.98769L1.59078 9.9779C4.91134 9.77623 6.5901 8.38589 7.44566 7.06791C7.87612 6.40479 8.10224 5.75359 8.2206 5.26823C8.27974 5.02575 8.31181 4.82533 8.32906 4.6865C8.33768 4.61711 8.34259 4.56318 8.34532 4.52717C8.34626 4.51473 8.34936 4.43436 8.35134 4.38302C8.35223 4.36007 8.35289 4.34292 8.35304 4.34022L8.48476 4.30934C21.7194 1.20638 33.1575 1.15785 41.2882 1.88539C45.3536 2.24917 48.5925 2.807 50.8161 3.27421C51.9279 3.50782 52.7859 3.71878 53.3666 3.87152C53.6569 3.9479 53.8779 4.00972 54.0266 4.05253C54.0821 4.06852 54.213 4.10827 54.2916 4.13212C54.3183 4.14022 54.339 4.14649 54.3485 4.14937Z" fill="#B49026"/>
<path d="M14.94 50.5137C9.76493 43.3293 5.19933 31.8732 4.52734 14.0655C4.52734 14.0655 4.85104 13.9407 4.95212 13.9035C5.15427 13.8291 5.45371 13.7215 5.84398 13.5885C6.62452 13.3224 7.76847 12.9543 9.2243 12.5454C12.1358 11.7278 16.2955 10.7468 21.2908 10.0929C31.2801 8.78517 44.6203 8.78386 58.0042 14.0195L58.1078 14.06L58.1234 14.2832C58.1279 14.3566 58.1341 14.4653 58.1409 14.6074C58.1545 14.8915 58.1705 15.3089 58.1805 15.8433C58.2004 16.912 58.1959 18.449 58.0985 20.3245C57.9036 24.0749 57.3367 29.1817 55.848 34.6048C54.8113 38.3814 53.3265 42.3146 51.2072 46.0506C49.6786 48.4232 47.3088 51.3415 45.6943 53.1135C45.9894 52.7567 47.0363 51.53 47.3155 51.1649C51.4415 46.0543 53.9683 40.1178 55.5073 34.5113C56.9874 29.1193 57.5517 24.039 57.7457 20.3062C57.8426 18.44 57.847 16.9114 57.8273 15.8498C57.8174 15.3191 57.8014 14.9052 57.788 14.6243C57.7813 14.4857 57.7753 14.3795 57.7709 14.3077C44.4954 9.14158 31.2634 9.14368 21.3367 10.4432C16.3611 11.0946 12.2182 12.0716 9.31982 12.8856C7.87073 13.2925 6.73295 13.6587 5.95798 13.9229C5.57051 14.055 5.08956 14.2302 4.88996 14.3037C5.59598 32.4838 10.3571 43.8484 15.6469 50.918C16.305 51.844 16.9732 52.6989 17.6444 53.4881C16.6864 52.5273 15.7861 51.5335 14.94 50.5137Z" fill="#716122"/>
<path d="M6.12402 15.2052V17.9102H17.3214V12.2033C14.4847 12.7389 12.069 13.3483 10.1951 13.8853C8.80358 14.284 7.71101 14.6428 6.96687 14.9016C6.59853 15.0297 6.31559 15.1334 6.12402 15.2052Z" fill="#007CC3"/>
<path d="M20.1479 11.7199V17.9102H31.3747V10.7881C27.9205 10.8274 24.6765 11.0993 21.7348 11.4922C21.1954 11.5643 20.6663 11.6404 20.1479 11.7199Z" fill="#007CC3"/>
<path d="M13.0513 45.9786C13.6799 47.0998 14.3244 48.2149 14.535 48.4617V27.9594H17.3214V20.7367H6.28968C6.78344 26.257 7.67649 31.0523 8.84019 35.2164L8.80325 27.9594H11.6297V43.0473C12.0875 44.0777 12.5627 45.0539 13.0513 45.9786Z" fill="#007CC3"/>
<path d="M20.1479 20.7367H31.3747V27.6167H31.3759V62.2111C31.3759 62.2111 28.6766 61.1807 28.4705 61.0334V27.9594H25.7619V59.5613C25.7619 59.5613 23.2593 57.9126 22.9354 57.6771V27.9594H20.1479V20.7367Z" fill="#007CC3"/>
<path d="M17.3214 27.9606V52.3186C17.3214 52.3186 19.5096 54.7328 20.1479 55.2334V27.9606H17.3214Z" fill="#007CC3"/>
<path d="M56.0309 27.8544H55.0072V33.2346C55.4455 31.3711 55.7787 29.5621 56.0309 27.8544Z" fill="#D73648"/>
<path d="M53.064 39.7467V27.8521H51.0231V44.4947C51.8027 42.9291 52.4785 41.3377 53.064 39.7467Z" fill="#D73648"/>
<path d="M49.1977 47.7861V27.8521H47.1756V50.7491C47.9026 49.7863 48.5753 48.796 49.1977 47.7861Z" fill="#D73648"/>
<path d="M45.2324 53.1057V27.8521H43.2304V55.1486C43.9332 54.4901 44.5999 53.8079 45.2324 53.1057Z" fill="#D73648"/>
<path d="M41.4049 56.7372V27.8521H39.344V58.2681L39.6863 58.0334C40.2793 57.6161 40.852 57.1836 41.4049 56.7372Z" fill="#D73648"/>
<path d="M37.4397 59.4803V27.8521H35.3399L35.4188 60.5761C36.1147 60.2291 36.7881 59.8633 37.4397 59.4803Z" fill="#D73648"/>
<path d="M33.5734 61.3701L31.5713 62.1744V27.8556H33.5345L33.5734 61.3701Z" fill="#D73648"/>
<path fill-rule="evenodd" clip-rule="evenodd" d="M31.5915 10.786L31.5635 27.8558H56.0312C56.1268 27.2082 56.2108 26.5752 56.2845 25.9593C56.12 26.0884 55.7908 26.3378 55.6153 26.4697C55.6588 26.6086 55.7011 26.7483 55.7434 26.888L55.7435 26.8883C55.795 27.0586 55.8466 27.2289 55.9003 27.3977C55.8908 27.3921 55.8162 27.3403 55.7127 27.2683C55.5331 27.1434 55.2662 26.958 55.1018 26.8489C54.9954 26.9229 54.8896 26.9976 54.7839 27.0723C54.6254 27.1844 54.4668 27.2964 54.3057 27.4059C54.3382 27.2963 54.3709 27.187 54.4035 27.0778L54.404 27.0762L54.4042 27.0755C54.4636 26.8767 54.5229 26.6781 54.5813 26.4779C54.5746 26.4712 54.4298 26.3604 54.2597 26.2302L54.2595 26.23L54.2592 26.2298L54.2588 26.2295L54.258 26.2289C54.1008 26.1086 53.9223 25.9719 53.8111 25.8856C53.9738 25.8814 54.1365 25.8775 54.2993 25.8736C54.4583 25.8699 54.6174 25.8661 54.7768 25.862C54.8851 25.5582 54.9888 25.2508 55.0924 24.9422C55.1628 25.1267 55.2284 25.3165 55.2939 25.5064L55.2945 25.5082L55.2947 25.5087C55.3352 25.6261 55.3757 25.7435 55.4174 25.8596C55.6296 25.8643 55.8432 25.868 56.0567 25.8716L56.0569 25.8716L56.0571 25.8716L56.0572 25.8716L56.0574 25.8716L56.0576 25.8716L56.0578 25.8716L56.058 25.8716L56.0582 25.8716L56.0583 25.8716L56.0591 25.8716C56.1376 25.873 56.216 25.8743 56.2944 25.8757C56.4991 24.1465 56.6224 22.5537 56.6937 21.1542C56.7868 19.3254 56.7911 17.8273 56.7721 16.787C56.7625 16.2669 56.7472 15.8613 56.7343 15.586C56.728 15.4512 56.7222 15.3477 56.718 15.2773C55.2475 14.6935 53.7776 14.1771 52.313 13.7223C52.366 13.8667 52.4167 14.0137 52.4675 14.1606L52.4676 14.1612C52.5083 14.2791 52.5491 14.3971 52.591 14.5138C52.804 14.5185 53.0185 14.5222 53.2329 14.5259C53.3409 14.5277 53.449 14.5295 53.5567 14.5315C53.5626 14.5386 53.0303 14.9425 52.7889 15.1239C52.8322 15.2624 52.8744 15.4017 52.9165 15.5409L52.9169 15.5421L52.917 15.5425C52.9686 15.7128 53.0202 15.8831 53.0739 16.0519C53.0644 16.0463 52.9898 15.9945 52.8864 15.9226C52.7067 15.7977 52.4398 15.6122 52.2754 15.5031C52.1694 15.5767 52.0642 15.6511 51.959 15.7254L51.9575 15.7265C51.799 15.8385 51.6404 15.9506 51.4793 16.0601C51.5118 15.9506 51.5444 15.8414 51.577 15.7322L51.5772 15.7316L51.5775 15.7304C51.637 15.5314 51.6964 15.3325 51.7548 15.1321C51.7481 15.1254 51.6037 15.0149 51.4339 14.8849L51.4331 14.8842L51.433 14.8842L51.4328 14.8841L51.4325 14.8838L51.4311 14.8827C51.274 14.7625 51.0957 14.626 50.9846 14.5398C51.1473 14.5356 51.31 14.5317 51.4729 14.5278C51.6318 14.5241 51.7909 14.5203 51.9503 14.5162C52.0323 14.2838 52.1122 14.0487 52.1921 13.8135L52.1923 13.8129L52.1925 13.8123L52.222 13.7256C52.2252 13.7161 52.2285 13.7066 52.2317 13.6971C51.5528 13.4872 50.875 13.2906 50.1989 13.1066C50.215 13.1596 50.231 13.2126 50.2471 13.2656C50.2987 13.436 50.3503 13.6065 50.404 13.7754C50.3946 13.7698 50.32 13.718 50.2165 13.646L50.2163 13.646L50.2159 13.6456C50.0362 13.5208 49.7698 13.3356 49.6056 13.2266C49.4992 13.3005 49.3935 13.3752 49.2879 13.4499L49.2877 13.45L49.2876 13.4501C49.1291 13.5621 48.9705 13.6742 48.8095 13.7837C48.842 13.674 48.8747 13.5645 48.9074 13.4551L48.9077 13.454C48.9672 13.255 49.0266 13.056 49.085 12.8557C49.0821 12.8527 49.0531 12.8302 49.0073 12.7949C47.4295 12.3985 45.8623 12.0694 44.3119 11.8002C44.3215 11.828 44.3311 11.8558 44.3407 11.8836C44.3817 12.0022 44.4228 12.1209 44.465 12.2386C44.6777 12.2433 44.892 12.2469 45.1062 12.2506L45.1068 12.2506C45.2149 12.2524 45.3229 12.2543 45.4307 12.2562C45.4366 12.2633 44.9043 12.6672 44.6628 12.8486C44.7062 12.9871 44.7484 13.1264 44.7905 13.2656L44.7909 13.2669C44.8425 13.4373 44.8941 13.6077 44.9478 13.7766C44.9384 13.771 44.8639 13.7193 44.7605 13.6474L44.7604 13.6473L44.7603 13.6472L44.76 13.6471C44.5803 13.5222 44.3137 13.3369 44.1494 13.2278C44.0429 13.3018 43.9372 13.3765 43.8315 13.4512C43.6729 13.5633 43.5144 13.6753 43.3533 13.7849C43.3859 13.6748 43.4187 13.5649 43.4515 13.4552L43.4515 13.455L43.4516 13.4549L43.4517 13.4545C43.5111 13.2557 43.5705 13.057 43.6288 12.8568C43.6221 12.8501 43.4771 12.7391 43.3068 12.6088L43.3067 12.6087L43.306 12.6081C43.1486 12.4877 42.9699 12.3509 42.8586 12.2645C43.0213 12.2603 43.1839 12.2564 43.3467 12.2526L43.3468 12.2526L43.3478 12.2525C43.5065 12.2488 43.6653 12.245 43.8243 12.2409C43.8821 12.077 43.9389 11.9118 43.9954 11.7461C39.6834 11.019 35.5044 10.7525 31.5915 10.786ZM38.7226 11.2776C38.793 11.462 38.8586 11.6518 38.9241 11.8418L38.9243 11.8423C38.965 11.9603 39.0057 12.0782 39.0476 12.195C39.2605 12.1997 39.4749 12.2033 39.6892 12.207L39.6894 12.207C39.7975 12.2088 39.9056 12.2107 40.0134 12.2127C40.0192 12.2197 39.4869 12.6237 39.2455 12.805C39.289 12.9439 39.3313 13.0836 39.3735 13.2232L39.3736 13.2233L39.3739 13.2242C39.4254 13.3944 39.4769 13.5644 39.5305 13.733C39.521 13.7275 39.4465 13.6756 39.3431 13.6038L39.3429 13.6036L39.3425 13.6034C39.1628 13.4785 38.8963 13.2933 38.732 13.1842C38.6256 13.2582 38.5199 13.3329 38.4142 13.4076C38.2556 13.5197 38.097 13.6318 37.9359 13.7413C37.9516 13.6883 37.9674 13.6355 37.9831 13.5826C38.0001 13.5256 38.0171 13.4686 38.0342 13.4116L38.0342 13.4114L38.0343 13.4113L38.0343 13.4111L38.0344 13.4109C38.0938 13.2121 38.1531 13.0134 38.2115 12.8133C38.2048 12.8065 38.0598 12.6955 37.8895 12.5652L37.8882 12.5642C37.731 12.4439 37.5525 12.3072 37.4413 12.2209C37.6037 12.2167 37.7661 12.2129 37.9287 12.209L37.9288 12.209L37.9295 12.209C38.0885 12.2052 38.2476 12.2014 38.407 12.1973C38.4889 11.965 38.5688 11.7299 38.6488 11.4946L38.6488 11.4945L38.6494 11.4929L38.6494 11.4927L38.6495 11.4926L38.6526 11.4834C38.6759 11.4148 38.6992 11.3461 38.7226 11.2776ZM41.5739 14.1382C41.6146 14.2563 41.6554 14.3745 41.6974 14.4915C41.9103 14.4962 42.1248 14.4998 42.3391 14.5035L42.3392 14.5035L42.3407 14.5035C42.4025 14.5046 42.4642 14.5056 42.526 14.5067C42.5717 14.5075 42.6175 14.5083 42.6631 14.5091C42.669 14.5162 42.1367 14.9201 41.8953 15.1015C41.9388 15.2404 41.981 15.38 42.0233 15.5195L42.0234 15.5198C42.075 15.6902 42.1266 15.8606 42.1803 16.0295C42.1708 16.0239 42.0962 15.9721 41.9927 15.9001L41.9924 15.8999C41.8127 15.7751 41.5461 15.5898 41.3818 15.4807C41.2754 15.5547 41.1696 15.6294 41.0639 15.7041L41.0637 15.7043C40.9052 15.8163 40.7467 15.9283 40.5857 16.0378C40.6184 15.9277 40.6512 15.8178 40.684 15.708C40.7434 15.509 40.8028 15.3101 40.8613 15.1098C40.8545 15.103 40.7096 14.992 40.5393 14.8617L40.5389 14.8614L40.5375 14.8603C40.3804 14.7401 40.2021 14.6036 40.0911 14.5174C40.2538 14.5132 40.4165 14.5093 40.5793 14.5055C40.7383 14.5017 40.8974 14.4979 41.0568 14.4938C41.1386 14.2618 41.2184 14.0269 41.2983 13.792L41.2986 13.791L41.2991 13.7895C41.3235 13.7177 41.3479 13.6458 41.3724 13.5741C41.4428 13.7584 41.5083 13.9483 41.5739 14.1382ZM44.3803 16.3959C44.3148 16.2059 44.2492 16.0161 44.1788 15.8317L44.1604 15.8864C44.0629 16.1756 43.9651 16.4656 43.8632 16.7514C43.7042 16.7555 43.5455 16.7593 43.387 16.7631L43.3857 16.7631C43.2229 16.767 43.0602 16.7708 42.8975 16.775C43.009 16.8616 43.1882 16.9988 43.3457 17.1193C43.516 17.2497 43.661 17.3606 43.6677 17.3674C43.6093 17.5677 43.5499 17.7666 43.4904 17.9655L43.4904 17.9657L43.4902 17.9663L43.4902 17.9664L43.4897 17.9679C43.4571 18.077 43.4246 18.186 43.3921 18.2954C43.5532 18.1859 43.7118 18.0738 43.8703 17.9617C43.976 17.887 44.0818 17.8123 44.1882 17.7383C44.3525 17.8474 44.6192 18.0327 44.7989 18.1576L44.799 18.1577L44.7994 18.1579L44.8003 18.1586C44.9032 18.2301 44.9773 18.2816 44.9867 18.2871C44.933 18.1182 44.8814 17.9478 44.8298 17.7774C44.7875 17.6378 44.7452 17.4981 44.7017 17.3591C44.9431 17.1778 45.4754 16.7738 45.4696 16.7668C45.3618 16.7648 45.2537 16.7629 45.1457 16.7611C44.9313 16.7574 44.7168 16.7538 44.5039 16.7491C44.4619 16.6321 44.4211 16.514 44.3803 16.3959ZM46.8486 18.147C46.9191 18.3314 46.9846 18.5213 47.0501 18.7112L47.0504 18.7119C47.091 18.8297 47.1317 18.9477 47.1737 19.0644C47.3857 19.0691 47.5993 19.0727 47.8127 19.0764L47.813 19.0764L47.8145 19.0764L47.8147 19.0764L47.8153 19.0764L47.8157 19.0764L47.8182 19.0765C47.9254 19.0783 48.0325 19.0801 48.1394 19.0821C48.1452 19.0891 47.6129 19.4931 47.3715 19.6745C47.4147 19.8124 47.4567 19.951 47.4987 20.0896L47.4996 20.0927L47.4999 20.0937C47.5514 20.2638 47.6029 20.4338 47.6565 20.6025C47.647 20.5969 47.5724 20.545 47.4689 20.4731L47.4686 20.4729L47.4685 20.4728C47.2888 20.3479 47.0223 20.1627 46.858 20.0537C46.7519 20.1274 46.6466 20.2018 46.5413 20.2763L46.5402 20.277C46.3816 20.3891 46.223 20.5012 46.0619 20.6107C46.0946 20.5006 46.1274 20.3907 46.1602 20.281L46.1606 20.2794C46.2199 20.0809 46.2792 19.8826 46.3375 19.6827C46.3308 19.676 46.1858 19.565 46.0155 19.4346L46.0153 19.4345L46.012 19.432C45.8554 19.3121 45.678 19.1763 45.5673 19.0903C45.7284 19.0862 45.8895 19.0824 46.0507 19.0785L46.0509 19.0785L46.052 19.0785L46.0524 19.0785L46.0541 19.0784L46.0555 19.0784C46.2145 19.0746 46.3736 19.0708 46.533 19.0668C46.6213 18.8173 46.7073 18.5638 46.7934 18.3096L46.7979 18.2964C46.8148 18.2466 46.8317 18.1968 46.8486 18.147ZM49.7977 20.93C49.7321 20.74 49.6666 20.5502 49.5962 20.3658L49.5776 20.4208C49.4801 20.7099 49.3824 20.9998 49.2805 21.2855C49.1211 21.2896 48.962 21.2934 48.8031 21.2972C48.6402 21.301 48.4775 21.3049 48.3148 21.3091C48.4261 21.3955 48.6049 21.5323 48.7622 21.6528L48.7633 21.6536L48.7638 21.654L48.7645 21.6545L48.765 21.6549L48.7659 21.6556C48.935 21.785 49.0784 21.8948 49.085 21.9015C49.0267 22.1013 48.9675 22.2997 48.9081 22.4983L48.9077 22.4998L48.9074 22.501L48.9072 22.5015C48.8746 22.6107 48.842 22.7199 48.8095 22.8295C48.9706 22.7199 49.1291 22.6079 49.2877 22.4958C49.3934 22.4211 49.4991 22.3464 49.6056 22.2724C49.7699 22.3815 50.0366 22.5668 50.2162 22.6917L50.2165 22.6919C50.32 22.7638 50.3946 22.8156 50.404 22.8212C50.3503 22.6523 50.2987 22.4819 50.2471 22.3115C50.2048 22.1719 50.1625 22.0322 50.119 21.8932C50.3605 21.7118 50.8928 21.3079 50.8869 21.3008C50.7812 21.2989 50.6753 21.2971 50.5693 21.2953L50.5623 21.2952L50.5608 21.2951L50.5606 21.2951C50.3471 21.2915 50.1334 21.2878 49.9212 21.2832C49.8795 21.167 49.839 21.0497 49.7985 20.9324L49.7983 20.9317L49.7977 20.93ZM52.3048 22.6622C52.3753 22.8467 52.4408 23.0365 52.5063 23.2264L52.5069 23.2281L52.507 23.2282L52.5072 23.2288L52.5074 23.2294C52.5478 23.3465 52.5882 23.4637 52.6299 23.5796C52.842 23.5843 53.0557 23.588 53.2693 23.5916L53.2695 23.5916L53.2709 23.5916L53.5956 23.5973C53.6015 23.6044 53.0691 24.0083 52.8277 24.1897C52.8712 24.3287 52.9135 24.4683 52.9558 24.608C53.0074 24.7784 53.059 24.9488 53.1127 25.1177C53.1032 25.1121 53.0286 25.0602 52.9251 24.9883L52.9247 24.988C52.745 24.8631 52.4785 24.6779 52.3142 24.5689C52.2078 24.6429 52.1021 24.7176 51.9964 24.7923C51.8378 24.9044 51.6792 25.0164 51.5181 25.1259C51.5507 25.0162 51.5834 24.9068 51.616 24.7974L51.6164 24.7962L51.6168 24.7948L51.6173 24.7931C51.6765 24.5951 51.7356 24.3973 51.7937 24.1979C51.787 24.1912 51.6436 24.0815 51.4746 23.9521L51.4736 23.9514L51.4731 23.951L51.4725 23.9505L51.4719 23.9501L51.4709 23.9492C51.3135 23.8288 51.1348 23.692 51.0235 23.6056C51.1862 23.6014 51.3489 23.5975 51.5117 23.5936C51.6707 23.5899 51.8298 23.5861 51.9892 23.582C52.0911 23.2964 52.1888 23.0065 52.2862 22.7174L52.2863 22.7172L52.3048 22.6622ZM33.3335 11.2858C33.404 11.4702 33.4695 11.66 33.535 11.85C33.5758 11.9681 33.6166 12.0863 33.6586 12.2032C33.8715 12.2079 34.0859 12.2116 34.3002 12.2152L34.3005 12.2152C34.4085 12.2171 34.5165 12.2189 34.6243 12.2209C34.6302 12.228 34.0978 12.6319 33.8564 12.8133C33.8999 12.9522 33.9422 13.0919 33.9845 13.2315L33.9848 13.2326C34.0363 13.4027 34.0878 13.5727 34.1414 13.7413C34.132 13.7357 34.0573 13.6838 33.9538 13.6119C33.7742 13.487 33.5073 13.3016 33.343 13.1925C33.2366 13.2663 33.1311 13.341 33.0255 13.4156L33.0251 13.4159C32.8665 13.5279 32.7079 13.64 32.5468 13.7495C32.5795 13.6394 32.6123 13.5295 32.6451 13.4197C32.7046 13.2207 32.764 13.0218 32.8224 12.8215C32.8157 12.8148 32.6707 12.7038 32.5004 12.5735C32.3429 12.4529 32.1637 12.3157 32.0522 12.2291C32.2149 12.225 32.3776 12.2211 32.5404 12.2172C32.6994 12.2134 32.8585 12.2097 33.0179 12.2056C33.1199 11.9196 33.2177 11.6295 33.3152 11.3402L33.3335 11.2858ZM36.1848 14.1465C36.1193 13.9565 36.0538 13.7667 35.9833 13.5823L35.965 13.6366L35.9648 13.6372C35.8673 13.9264 35.7696 14.2163 35.6677 14.5021C35.5083 14.5061 35.3492 14.5099 35.1902 14.5137C35.0274 14.5176 34.8647 14.5215 34.702 14.5256C34.8135 14.6122 34.9927 14.7494 35.1503 14.87C35.3205 15.0003 35.4655 15.1113 35.4722 15.118C35.414 15.3175 35.3548 15.5156 35.2957 15.7137L35.2949 15.7162L35.2947 15.717C35.262 15.8265 35.2292 15.9361 35.1966 16.046C35.3577 15.9365 35.5163 15.8244 35.6749 15.7123C35.7806 15.6376 35.8863 15.5629 35.9927 15.489C36.1571 15.5981 36.424 15.7835 36.6037 15.9084C36.7072 15.9803 36.7817 16.0322 36.7912 16.0378C36.7375 15.8688 36.6859 15.6985 36.6343 15.5281L36.6343 15.528L36.6338 15.5264L36.6334 15.5252C36.5914 15.3865 36.5494 15.2478 36.5062 15.1098C36.7476 14.9284 37.2799 14.5244 37.2741 14.5174C37.1668 14.5154 37.0592 14.5136 36.9516 14.5117L36.95 14.5117C36.7357 14.5081 36.5213 14.5044 36.3084 14.4997C36.2664 14.3828 36.2256 14.2646 36.1848 14.1465ZM38.7909 15.8387C38.8614 16.0232 38.9269 16.213 38.9924 16.4029L38.9926 16.4036C39.0333 16.5215 39.074 16.6394 39.116 16.7562C39.3289 16.7609 39.5434 16.7645 39.7578 16.7682C39.8658 16.77 39.9739 16.7718 40.0817 16.7738C40.0875 16.7809 39.5552 17.1848 39.3138 17.3662C39.3571 17.5046 39.3993 17.6439 39.4414 17.783L39.4419 17.7844L39.4419 17.7845L39.442 17.7849C39.4936 17.9551 39.5451 18.1254 39.5988 18.2942C39.5893 18.2886 39.5147 18.2368 39.4112 18.1648L39.4111 18.1647L39.4106 18.1644C39.2309 18.0395 38.9645 17.8544 38.8003 17.7454C38.6939 17.8194 38.5881 17.8941 38.4824 17.9688C38.3239 18.0808 38.1653 18.1929 38.0042 18.3025C38.0369 18.1924 38.0696 18.0827 38.1024 17.973L38.1024 17.9729L38.1025 17.9728L38.1025 17.9726C38.162 17.7736 38.2214 17.5748 38.2798 17.3744C38.2731 17.3677 38.1281 17.2567 37.9578 17.1264C37.8003 17.0058 37.6211 16.8686 37.5096 16.7821C37.672 16.7779 37.8344 16.774 37.997 16.7702L37.9972 16.7702L37.9978 16.7701L38.0024 16.77C38.1599 16.7663 38.3174 16.7625 38.4753 16.7585C38.5636 16.509 38.6496 16.2555 38.7358 16.0013C38.7541 15.9471 38.7725 15.8929 38.7909 15.8387ZM41.7846 19.0727C41.7426 18.9557 41.7018 18.8375 41.661 18.7194C41.5955 18.5295 41.53 18.3397 41.4595 18.1552L41.4413 18.2095C41.3437 18.4989 41.2459 18.7891 41.1439 19.075C40.9845 19.0791 40.8254 19.0829 40.6664 19.0866L40.6634 19.0867C40.5016 19.0906 40.3399 19.0944 40.1782 19.0986C40.2894 19.1849 40.4678 19.3215 40.625 19.4418L40.6265 19.4429C40.7968 19.5733 40.9417 19.6842 40.9484 19.6909C40.8901 19.8909 40.8308 20.0893 40.7715 20.2879L40.7712 20.2891L40.7711 20.2894C40.7383 20.3991 40.7055 20.5089 40.6729 20.619C40.834 20.5094 40.9925 20.3974 41.1511 20.2853L41.1522 20.2845C41.2575 20.2101 41.3629 20.1356 41.469 20.0619C41.6334 20.171 41.9001 20.3564 42.0798 20.4813C42.1834 20.5533 42.258 20.6051 42.2674 20.6107C42.2137 20.4418 42.1621 20.2714 42.1105 20.101L42.1102 20.0999C42.068 19.9606 42.0258 19.8213 41.9824 19.6827C42.2239 19.5013 42.7562 19.0974 42.7503 19.0903C42.6867 19.0892 42.6229 19.088 42.5591 19.0869C42.5149 19.0862 42.4706 19.0854 42.4263 19.0847L42.4254 19.0846L42.4246 19.0846L42.4244 19.0846L42.4243 19.0846L42.4226 19.0846C42.2095 19.081 41.9963 19.0773 41.7846 19.0727ZM44.2083 20.3728C44.2787 20.5573 44.3442 20.7471 44.4098 20.937L44.4102 20.9383C44.4508 21.056 44.4914 21.1737 44.5333 21.2902C44.7459 21.2949 44.9601 21.2986 45.1741 21.3022L45.1744 21.3022L45.175 21.3022L45.1767 21.3023L45.1771 21.3023C45.2845 21.3041 45.3919 21.3059 45.499 21.3079C45.5049 21.315 44.9726 21.7189 44.7311 21.9003C44.7746 22.0392 44.8169 22.1789 44.8592 22.3185L44.8592 22.3187C44.9108 22.489 44.9624 22.6594 45.0161 22.8283C45.0067 22.8227 44.9321 22.7709 44.8286 22.6989L44.8281 22.6986C44.6484 22.5737 44.3819 22.3885 44.2177 22.2795C44.1112 22.3535 44.0055 22.4282 43.8998 22.5029C43.7412 22.615 43.5827 22.727 43.4216 22.8365C43.441 22.7709 43.4605 22.7054 43.4801 22.6399C43.4933 22.5955 43.5066 22.5511 43.5198 22.5068L43.5201 22.5057C43.5795 22.3071 43.6388 22.1085 43.6971 21.9085C43.6904 21.9018 43.5454 21.7908 43.3752 21.6605L43.3743 21.6598C43.217 21.5394 43.0382 21.4026 42.9269 21.3161C43.0896 21.312 43.2523 21.3081 43.4152 21.3042C43.5741 21.3004 43.7332 21.2967 43.8926 21.2926C43.981 21.0431 44.0669 20.7896 44.1531 20.5354C44.1643 20.5025 44.1754 20.4695 44.1866 20.4366C44.1938 20.4153 44.201 20.3941 44.2083 20.3728ZM47.242 23.5867C47.2 23.4698 47.1592 23.3516 47.1184 23.2335L47.1184 23.2333L47.1182 23.2328C47.0527 23.0431 46.9873 22.8535 46.9169 22.6693C46.9 22.7191 46.8831 22.7689 46.8662 22.8187L46.8617 22.832C46.7756 23.0861 46.6896 23.3396 46.6013 23.5891C46.4419 23.5931 46.2828 23.5969 46.1238 23.6007C45.961 23.6046 45.7983 23.6085 45.6356 23.6126C45.7471 23.6992 45.9263 23.8364 46.0839 23.957C46.2541 24.0873 46.3991 24.1983 46.4058 24.205C46.3475 24.4048 46.2883 24.6032 46.229 24.8016L46.2288 24.8023L46.2285 24.8033L46.228 24.8049C46.1954 24.9141 46.1627 25.0234 46.1302 25.133C46.2913 25.0235 46.4499 24.9114 46.6084 24.7994C46.7142 24.7247 46.8199 24.6499 46.9263 24.576C47.0907 24.685 47.3573 24.8703 47.537 24.9952L47.5373 24.9954C47.6408 25.0673 47.7153 25.1192 47.7248 25.1248C47.6711 24.9558 47.6195 24.7855 47.5679 24.6151C47.5256 24.4754 47.4833 24.3357 47.4398 24.1968C47.6812 24.0154 48.2136 23.6114 48.2077 23.6044C48.1008 23.6024 47.9937 23.6006 47.8865 23.5988L47.884 23.5987L47.8837 23.5987L47.883 23.5987L47.8816 23.5987L47.8814 23.5987C47.6678 23.595 47.4541 23.5914 47.242 23.5867ZM49.906 25.5146C49.9467 25.6327 49.9875 25.7509 50.0295 25.8679C50.2414 25.8726 50.4548 25.8762 50.6681 25.8798L50.6699 25.8799L50.6712 25.8799L50.6714 25.8799C50.7795 25.8817 50.8875 25.8836 50.9952 25.8856C51.0011 25.8926 50.4688 26.2966 50.2274 26.4779C50.2709 26.6169 50.3132 26.7566 50.3555 26.8962L50.3556 26.8966C50.4071 27.0669 50.4587 27.2371 50.5124 27.4059C50.5029 27.4003 50.4283 27.3485 50.3248 27.2766C50.1451 27.1517 49.8783 26.9662 49.7139 26.8571C49.6075 26.9311 49.5018 27.0058 49.3961 27.0805C49.2375 27.1926 49.0789 27.3047 48.9178 27.4142C48.9498 27.3062 48.982 27.1985 49.0141 27.0909L49.016 27.0846C49.0755 26.8855 49.1349 26.6866 49.1934 26.4862C49.1867 26.4794 49.0421 26.3688 48.8722 26.2388L48.8719 26.2385L48.8705 26.2374C48.7132 26.117 48.5345 25.9802 48.4232 25.8938C48.5849 25.8896 48.7467 25.8858 48.9086 25.8819L48.9114 25.8819C49.0704 25.8781 49.2295 25.8743 49.3889 25.8702C49.4708 25.6378 49.5508 25.4027 49.6307 25.1674L49.6733 25.042C49.6837 25.0115 49.6941 24.981 49.7045 24.9505C49.7748 25.1346 49.8403 25.3242 49.9057 25.5138L49.906 25.5146ZM33.5914 16.7938C33.5495 16.6769 33.5087 16.5587 33.4679 16.4406L33.4678 16.4403C33.4023 16.2505 33.3368 16.0608 33.2664 15.8764L33.222 16.0072C33.1322 16.2718 33.0428 16.5353 32.9508 16.7962C32.7914 16.8003 32.6323 16.8041 32.4733 16.8078C32.3105 16.8117 32.1478 16.8156 31.9851 16.8197C32.0966 16.9063 32.2758 17.0435 32.4333 17.1641C32.6036 17.2944 32.7486 17.4054 32.7553 17.4121C32.6968 17.6125 32.6374 17.8114 32.578 18.0105L32.5779 18.0107L32.5777 18.0115C32.545 18.1209 32.5123 18.2304 32.4797 18.3401C32.6407 18.2307 32.7992 18.1187 32.9577 18.0066L32.9579 18.0065C33.0636 17.9318 33.1694 17.8571 33.2758 17.7831C33.4401 17.8921 33.7067 18.0774 33.8864 18.2023L33.8866 18.2024L33.8868 18.2025L33.8869 18.2026C33.9903 18.2745 34.0648 18.3263 34.0743 18.3319C34.0206 18.163 33.969 17.9925 33.9174 17.8221L33.9173 17.8219C33.875 17.6823 33.8328 17.5428 33.7893 17.4039C34.0307 17.2225 34.563 16.8186 34.5571 16.8115C34.4494 16.8095 34.3413 16.8077 34.2333 16.8058C34.0189 16.8022 33.8044 16.7985 33.5914 16.7938ZM35.935 18.1929C36.0055 18.3774 36.071 18.5672 36.1365 18.7571L36.1367 18.7576L36.1368 18.7578C36.1775 18.8757 36.2182 18.9936 36.2601 19.1103C36.4721 19.115 36.6858 19.1187 36.8993 19.1223L36.9005 19.1223H36.9011L36.9018 19.1223L36.9022 19.1224L36.9026 19.1224C37.0104 19.1242 37.1182 19.126 37.2258 19.128C37.2317 19.1351 36.6993 19.539 36.4579 19.7204C36.5013 19.859 36.5435 19.9983 36.5857 20.1376L36.586 20.1386C36.6376 20.3091 36.6892 20.4794 36.7429 20.6484C36.7335 20.6428 36.6589 20.591 36.5555 20.5191L36.5553 20.519L36.5551 20.5189C36.3754 20.394 36.1088 20.2086 35.9445 20.0996C35.8383 20.1734 35.7328 20.2479 35.6274 20.3224L35.6266 20.323C35.468 20.4351 35.3094 20.5471 35.1483 20.6566C35.1808 20.5473 35.2134 20.4382 35.2459 20.3292L35.2466 20.327C35.306 20.1279 35.3655 19.929 35.4239 19.7286C35.4172 19.7219 35.2727 19.6113 35.1027 19.4812L35.1019 19.4806C34.9444 19.36 34.7652 19.2228 34.6537 19.1363C34.8159 19.1321 34.9782 19.1282 35.1406 19.1244L35.1419 19.1243C35.3009 19.1206 35.46 19.1168 35.6194 19.1127C35.7213 18.8269 35.8191 18.5369 35.9166 18.2477L35.935 18.1929ZM38.8841 20.9747C38.8185 20.7848 38.753 20.5949 38.6826 20.4105L38.6641 20.4654L38.664 20.4655L38.6638 20.466L38.6638 20.4663C38.5664 20.7552 38.4687 21.0448 38.3669 21.3303C38.2076 21.3343 38.0484 21.3381 37.8895 21.3419L37.8881 21.3419L37.888 21.3419C37.7256 21.3458 37.5634 21.3497 37.4012 21.3538C37.5127 21.4404 37.6919 21.5776 37.8495 21.6982L37.8496 21.6983C38.0198 21.8286 38.1647 21.9395 38.1715 21.9462C38.1131 22.1462 38.0538 22.3448 37.9944 22.5435L37.9944 22.5437L37.9943 22.5438L37.9941 22.5445L37.994 22.5451L37.9939 22.5453L37.9937 22.5461C37.961 22.6553 37.9284 22.7646 37.8959 22.8742C38.057 22.7647 38.2155 22.6527 38.374 22.5406L38.3742 22.5405C38.4799 22.4658 38.5856 22.3911 38.692 22.3172C38.8563 22.4262 39.1231 22.6116 39.3027 22.7365L39.303 22.7366L39.3031 22.7367C39.4065 22.8086 39.481 22.8604 39.4905 22.866C39.4367 22.697 39.3851 22.5266 39.3335 22.3562C39.2912 22.2166 39.2489 22.0769 39.2055 21.938C39.4469 21.7566 39.9792 21.3527 39.9733 21.3456C39.8658 21.3436 39.758 21.3418 39.6501 21.3399L39.6493 21.3399L39.6486 21.3399C39.4345 21.3363 39.2203 21.3326 39.0076 21.3279C38.9657 21.2112 38.925 21.0932 38.8843 20.9753L38.8841 20.9747ZM41.3924 22.707C41.4629 22.8914 41.5284 23.0812 41.5939 23.2712C41.6347 23.3893 41.6755 23.5074 41.7175 23.6244C41.93 23.6291 42.1443 23.6327 42.3582 23.6364L42.3585 23.6364L42.3591 23.6364L42.3608 23.6364L42.3612 23.6364L42.3638 23.6365C42.4704 23.6383 42.5769 23.6401 42.6832 23.6421C42.689 23.6491 42.1567 24.0531 41.9153 24.2344C41.9588 24.3734 42.0011 24.5131 42.0434 24.6527L42.0438 24.654L42.0439 24.6544C42.0953 24.8242 42.1468 24.9941 42.2003 25.1625C42.1908 25.1569 42.1162 25.105 42.0127 25.0331C41.833 24.9082 41.5662 24.7227 41.4018 24.6137C41.2956 24.6875 41.1901 24.762 41.0846 24.8366L41.0839 24.8371L41.0837 24.8372C40.9252 24.9492 40.7667 25.0612 40.6057 25.1707C40.638 25.0618 40.6705 24.9531 40.7029 24.8446L40.704 24.8409L40.7042 24.8402C40.7636 24.6415 40.8229 24.4428 40.8813 24.2427C40.8746 24.236 40.7296 24.125 40.5593 23.9946L40.5573 23.9931C40.4002 23.8729 40.2221 23.7365 40.1111 23.6503C40.2728 23.6462 40.4346 23.6423 40.5964 23.6385L40.5971 23.6384L40.5978 23.6384H40.5979L40.5993 23.6384C40.7583 23.6346 40.9174 23.6308 41.0768 23.6268C41.1587 23.3946 41.2385 23.1598 41.3183 22.9248L41.3186 22.9239C41.3432 22.8516 41.3678 22.7793 41.3924 22.707ZM44.3803 25.5523C44.3148 25.3624 44.2492 25.1726 44.1788 24.9882L44.1604 25.0429C44.0629 25.3321 43.9651 25.6221 43.8632 25.9079C43.7038 25.912 43.5447 25.9158 43.3857 25.9196L43.3829 25.9196C43.221 25.9235 43.0592 25.9273 42.8975 25.9315C43.0086 26.0178 43.1869 26.1543 43.3441 26.2745L43.3453 26.2755L43.3458 26.2759L43.3459 26.276L43.3477 26.2773C43.5171 26.407 43.661 26.5172 43.6677 26.5239C43.6092 26.7243 43.5498 26.9232 43.4904 27.1223L43.49 27.1235C43.4573 27.2328 43.4246 27.3422 43.3921 27.4519C43.5532 27.3424 43.7117 27.2304 43.8702 27.1183L43.8704 27.1182C43.9761 27.0435 44.0818 26.9688 44.1882 26.8948C44.3526 27.0039 44.6194 27.1893 44.7991 27.3142L44.7994 27.3145C44.9028 27.3863 44.9772 27.438 44.9867 27.4436C44.933 27.2748 44.8814 27.1044 44.8299 26.9341L44.8298 26.934L44.8298 26.9339C44.7875 26.7942 44.7452 26.6546 44.7017 26.5156C44.9431 26.3342 45.4754 25.9303 45.4696 25.9232C45.3624 25.9213 45.255 25.9194 45.1476 25.9176L45.1472 25.9176L45.1468 25.9176L45.146 25.9176L45.1455 25.9176L45.1448 25.9176C44.9308 25.9139 44.7165 25.9103 44.5039 25.9056C44.4619 25.7886 44.4211 25.6704 44.3803 25.5523ZM33.3335 20.3728C33.404 20.5572 33.4695 20.747 33.535 20.937C33.5758 21.0551 33.6166 21.1733 33.6586 21.2902C33.8711 21.2949 34.0852 21.2986 34.2991 21.3022L34.2994 21.3022L34.2996 21.3022L34.3003 21.3022L34.3007 21.3022L34.3033 21.3023C34.4104 21.3041 34.5175 21.3059 34.6243 21.3079C34.6302 21.315 34.0978 21.7189 33.8564 21.9003C33.8997 22.0386 33.9419 22.1777 33.984 22.3168L33.9843 22.318L33.9845 22.3184L33.9845 22.3186L33.9846 22.3189C34.0362 22.4892 34.0877 22.6595 34.1414 22.8283C34.132 22.8227 34.0573 22.7708 33.9538 22.6989L33.9535 22.6987L33.9533 22.6985C33.7736 22.5736 33.5072 22.3885 33.343 22.2795C33.2365 22.3534 33.1309 22.4281 33.0252 22.5027L33.0251 22.5029C32.8665 22.6149 32.7079 22.727 32.5468 22.8365C32.5794 22.7268 32.6121 22.6175 32.6447 22.5081L32.645 22.5073L32.645 22.507L32.6451 22.5067C32.7046 22.3077 32.764 22.1088 32.8224 21.9085C32.8157 21.9018 32.6708 21.7909 32.5006 21.6606L32.5004 21.6605C32.3429 21.5399 32.1637 21.4027 32.0522 21.3161C32.2149 21.312 32.3776 21.3081 32.5404 21.3042C32.6994 21.3004 32.8585 21.2967 33.0179 21.2926C33.1263 20.9899 33.2299 20.6814 33.3335 20.3728ZM36.2449 23.2335C36.1793 23.0436 36.1138 22.8537 36.0434 22.6693C36.025 22.7235 36.0066 22.7778 35.9882 22.8319C35.902 23.0861 35.8161 23.3396 35.7278 23.5891C35.5684 23.5931 35.4092 23.5969 35.2503 23.6007C35.0874 23.6046 34.9248 23.6085 34.7621 23.6126C34.8732 23.6989 35.0516 23.8355 35.2087 23.9558L35.2096 23.9564L35.21 23.9567L35.2102 23.9569L35.2107 23.9573L35.2111 23.9576C35.381 24.0877 35.5255 24.1983 35.5323 24.205C35.4738 24.4054 35.4144 24.6044 35.3549 24.8034L35.3548 24.8037C35.3221 24.9133 35.2893 25.023 35.2567 25.133C35.4177 25.0236 35.5762 24.9115 35.7347 24.7995L35.7349 24.7994C35.8406 24.7246 35.9463 24.6499 36.0528 24.576C36.217 24.6849 36.4835 24.8701 36.6632 24.995L36.6638 24.9954L36.6639 24.9955C36.7673 25.0674 36.8418 25.1192 36.8513 25.1248C36.7975 24.9558 36.7459 24.7854 36.6943 24.615C36.6521 24.4754 36.6098 24.3357 36.5663 24.1968C36.8077 24.0154 37.34 23.6114 37.3341 23.6044C37.2266 23.6024 37.1188 23.6006 37.0109 23.5987L37.0101 23.5987L37.0094 23.5987C36.7953 23.5951 36.5811 23.5914 36.3684 23.5867C36.3264 23.4698 36.2856 23.3516 36.2449 23.2335ZM38.8298 24.9505C38.9002 25.1349 38.9657 25.3247 39.0313 25.5147L39.0316 25.5155C39.0722 25.6333 39.1129 25.7512 39.1548 25.8679C39.3669 25.8726 39.5805 25.8762 39.794 25.8798L39.7958 25.8799L39.7967 25.8799C39.9047 25.8817 40.0128 25.8836 40.1205 25.8856C40.1264 25.8926 39.5941 26.2966 39.3527 26.4779C39.3961 26.6168 39.4384 26.7564 39.4807 26.8959L39.4807 26.8962C39.5323 27.0666 39.5839 27.237 39.6377 27.4059C39.6282 27.4004 39.5542 27.3489 39.4513 27.2774L39.4501 27.2766L39.45 27.2765C39.2703 27.1516 39.0036 26.9662 38.8392 26.8571C38.733 26.9309 38.6276 27.0054 38.5221 27.08L38.5213 27.0805C38.3628 27.1926 38.2042 27.3047 38.0431 27.4142C38.0756 27.3045 38.1083 27.1951 38.141 27.0857L38.1412 27.0849L38.1413 27.0846C38.2008 26.8855 38.2602 26.6866 38.3187 26.4862C38.3119 26.4795 38.1674 26.3688 37.9975 26.2388L37.9969 26.2383L37.9968 26.2382L37.9955 26.2372C37.8383 26.1169 37.6597 25.9802 37.5485 25.8938C37.6178 25.892 37.6871 25.8903 37.7564 25.8886C37.8488 25.8863 37.9413 25.8841 38.0338 25.8819L38.0367 25.8819C38.1956 25.8781 38.3548 25.8743 38.5142 25.8702C38.616 25.5847 38.7137 25.2949 38.8111 25.0059L38.8112 25.0056L38.8113 25.0052L38.8298 24.9505ZM33.5914 25.9056C33.5495 25.7886 33.5087 25.6705 33.4679 25.5523C33.4024 25.3624 33.3368 25.1726 33.2664 24.9882C33.2418 25.0602 33.2174 25.1322 33.1929 25.2043L33.1926 25.2052C33.1126 25.4404 33.0327 25.6756 32.9508 25.9079C32.7914 25.912 32.6323 25.9158 32.4733 25.9196L32.4705 25.9196C32.3086 25.9235 32.1468 25.9273 31.9851 25.9315C32.0964 26.0179 32.2753 26.1549 32.4327 26.2753L32.4334 26.2759L32.4344 26.2767C32.6042 26.4066 32.7486 26.5171 32.7553 26.5239C32.697 26.7238 32.6377 26.9222 32.5784 27.1208L32.5778 27.1227L32.5777 27.123L32.5777 27.1232L32.5772 27.1247C32.5447 27.2336 32.5121 27.3426 32.4797 27.4519C32.6408 27.3424 32.7993 27.2303 32.9578 27.1183L32.958 27.1182L32.9584 27.1179L32.9588 27.1176L32.9589 27.1175L32.9594 27.1172C33.0646 27.0428 33.1698 26.9684 33.2758 26.8948C33.4402 27.0039 33.7069 27.1892 33.8866 27.3141L33.8867 27.3143L33.8878 27.315L33.8881 27.3152L33.8895 27.3162L33.8907 27.317L33.891 27.3172C33.9923 27.3876 34.065 27.4381 34.0743 27.4436C34.0206 27.2747 33.969 27.1044 33.9174 26.934L33.9174 26.9339C33.8751 26.7942 33.8328 26.6546 33.7893 26.5156C34.0307 26.3342 34.563 25.9303 34.5571 25.9232C34.4495 25.9213 34.3415 25.9194 34.2335 25.9176L34.2331 25.9176L34.2325 25.9176L34.2323 25.9176C34.0183 25.9139 33.8041 25.9103 33.5914 25.9056ZM47.0101 14.2009L47.0101 14.2007L47.01 14.2005C46.9445 14.0106 46.879 13.8209 46.8086 13.6365L46.8085 13.6367C46.7049 13.9452 46.6013 14.2537 46.493 14.5562C46.3336 14.5603 46.1744 14.5641 46.0155 14.5679C45.8526 14.5718 45.6899 14.5756 45.5273 14.5798C45.6387 14.6664 45.818 14.8036 45.9756 14.9242L45.9758 14.9244L45.9761 14.9246C46.1461 15.0547 46.2907 15.1654 46.2975 15.1722C46.239 15.3726 46.1796 15.5715 46.1201 15.7705L46.12 15.7709C46.0873 15.8805 46.0545 15.9902 46.0219 16.1002C46.1829 15.9908 46.3413 15.8788 46.4997 15.7668L46.5001 15.7665L46.5005 15.7662C46.6061 15.6916 46.7117 15.617 46.818 15.5431C46.9823 15.6522 47.2491 15.8376 47.4288 15.9625L47.429 15.9626C47.5324 16.0345 47.607 16.0863 47.6165 16.0919C47.5628 15.9232 47.5113 15.753 47.4597 15.5827L47.4596 15.5825L47.4595 15.5821L47.4594 15.5817C47.4172 15.4422 47.3749 15.3027 47.3315 15.1639C47.5729 14.9826 48.1052 14.5786 48.0993 14.5716C47.9916 14.5696 47.8836 14.5677 47.7755 14.5659C47.5611 14.5622 47.3466 14.5586 47.1336 14.5539C47.0917 14.4372 47.051 14.3192 47.0103 14.2014L47.0101 14.2009ZM49.5573 15.8552C49.6277 16.0397 49.6932 16.2295 49.7588 16.4194L49.7589 16.4196C49.7996 16.5377 49.8404 16.6558 49.8823 16.7726C50.0953 16.7773 50.3099 16.781 50.5243 16.7847L50.5275 16.7847C50.6345 16.7865 50.7414 16.7884 50.848 16.7903C50.8539 16.7974 50.3216 17.2013 50.0802 17.3827C50.1235 17.5212 50.1657 17.6604 50.2078 17.7996L50.2081 17.8005L50.2083 17.801L50.2084 17.8013C50.2599 17.9716 50.3115 18.1419 50.3652 18.3107C50.3558 18.3051 50.2818 18.2537 50.179 18.1823L50.1783 18.1818L50.1782 18.1817L50.1776 18.1813C49.9979 18.0564 49.7311 17.871 49.5667 17.7619C49.4608 17.8355 49.3556 17.9098 49.2504 17.9842L49.2489 17.9853C49.0903 18.0973 48.9317 18.2094 48.7706 18.3189C48.8033 18.2088 48.8361 18.099 48.8689 17.9892L48.8689 17.9891L48.8694 17.9874C48.9287 17.789 48.9879 17.5907 49.0462 17.3909C49.0394 17.3842 48.8945 17.2732 48.7241 17.1429L48.7237 17.1425L48.7221 17.1413C48.5651 17.0211 48.387 16.8848 48.276 16.7985C48.4387 16.7944 48.6014 16.7905 48.7642 16.7866L48.7667 16.7866C48.9248 16.7828 49.0831 16.779 49.2417 16.775C49.3236 16.5426 49.4035 16.3075 49.4835 16.0722L49.4838 16.0713L49.4841 16.0704C49.4991 16.0261 49.5142 15.9818 49.5293 15.9375C49.5386 15.9101 49.5479 15.8826 49.5573 15.8552ZM52.4675 18.7159C52.4019 18.526 52.3364 18.3362 52.266 18.1517C52.2542 18.1861 52.2426 18.2204 52.2309 18.2548C52.2182 18.2919 52.2056 18.329 52.193 18.3661L52.1922 18.3687C52.1122 18.6039 52.0323 18.8391 51.9503 19.0715C51.7909 19.0756 51.6318 19.0793 51.4729 19.0831L51.47 19.0832C51.3081 19.087 51.1464 19.0909 50.9846 19.095C51.0958 19.1814 51.2744 19.3181 51.4317 19.4385L51.4323 19.439L51.4328 19.4393C51.6031 19.5697 51.7481 19.6807 51.7548 19.6874C51.6964 19.8877 51.637 20.0866 51.5776 20.2856L51.5775 20.2857L51.5772 20.2869L51.577 20.2874C51.5444 20.3966 51.5118 20.5059 51.4793 20.6154C51.6404 20.5059 51.799 20.3938 51.9575 20.2817C52.0632 20.207 52.1689 20.1323 52.2754 20.0584C52.4397 20.1674 52.7064 20.3528 52.8861 20.4777L52.8863 20.4778C52.9898 20.5497 53.0644 20.6016 53.0739 20.6072C53.0201 20.4382 52.9685 20.2678 52.9169 20.0974L52.9169 20.0973L52.9165 20.0962C52.8744 19.957 52.8322 19.8177 52.7889 19.6792C53.0303 19.4978 53.5626 19.0939 53.5567 19.0868C53.4828 19.0854 53.4087 19.0841 53.3346 19.0829L53.2327 19.0811L53.2324 19.0811L53.2306 19.0811C53.017 19.0774 52.8032 19.0738 52.591 19.0691C52.549 18.9522 52.5083 18.8342 52.4675 18.7161L52.4675 18.7159ZM55.255 20.9957L55.255 20.9958C55.2958 21.1139 55.3366 21.2322 55.3786 21.3491C55.5912 21.3538 55.8054 21.3575 56.0194 21.3611L56.0196 21.3611L56.0203 21.3611L56.0206 21.3611L56.0231 21.3612C56.1303 21.363 56.2374 21.3648 56.3443 21.3668C56.3502 21.3738 55.8179 21.7778 55.5764 21.9592C55.6199 22.0981 55.6622 22.2378 55.7045 22.3774C55.7561 22.5478 55.8077 22.7182 55.8614 22.8872C55.852 22.8816 55.7773 22.8297 55.6738 22.7578C55.4941 22.6329 55.2273 22.4475 55.063 22.3384C54.9565 22.4123 54.8508 22.487 54.7451 22.5618C54.5865 22.6738 54.4279 22.7859 54.2668 22.8954C54.2994 22.7857 54.3321 22.6763 54.3647 22.5669L54.3651 22.5657L54.3652 22.5655L54.3656 22.5641C54.4249 22.3656 54.4841 22.1672 54.5424 21.9674C54.5357 21.9607 54.3918 21.8505 54.2224 21.7208L54.2219 21.7204L54.2212 21.7199L54.2207 21.7195L54.2204 21.7194C54.0629 21.5988 53.8837 21.4616 53.7722 21.375C53.9349 21.3709 54.0976 21.367 54.2604 21.3631C54.4194 21.3593 54.5785 21.3555 54.7379 21.3515C54.8262 21.102 54.9122 20.8486 54.9983 20.5944L54.9984 20.5943L55.0535 20.4317C55.1239 20.616 55.1894 20.8057 55.2549 20.9955L55.255 20.9957ZM55.2549 16.4404L55.255 16.4406C55.2958 16.5587 55.3366 16.6769 55.3786 16.7938C55.5915 16.7985 55.806 16.8022 56.0204 16.8058L56.023 16.8059C56.1302 16.8077 56.2374 16.8095 56.3443 16.8115C56.3502 16.8186 55.8179 17.2225 55.5764 17.4039C55.6199 17.5428 55.6622 17.6824 55.7044 17.822L55.7045 17.8222L55.7046 17.8225C55.7562 17.9928 55.8077 18.1631 55.8614 18.3319C55.852 18.3263 55.7773 18.2744 55.6738 18.2025C55.4942 18.0776 55.2274 17.8922 55.063 17.7831C54.9566 17.8569 54.8511 17.9316 54.7455 18.0062L54.7451 18.0065C54.5865 18.1185 54.428 18.2306 54.2668 18.3401C54.2994 18.2305 54.332 18.1211 54.3647 18.0118L54.3651 18.0104C54.4246 17.8114 54.484 17.6125 54.5424 17.4121C54.5357 17.4054 54.3912 17.2948 54.2213 17.1648L54.2206 17.1642L54.2204 17.1641C54.0629 17.0435 53.8837 16.9063 53.7722 16.8197C53.9349 16.8156 54.0976 16.8117 54.2605 16.8078C54.4194 16.8041 54.5785 16.8003 54.7379 16.7962C54.8299 16.5353 54.9193 16.2719 55.0091 16.0073L55.0092 16.0072L55.0535 15.8764C55.1239 16.0608 55.1894 16.2505 55.2549 16.4404Z" fill="#003976"/>
</g>
<defs>
<clipPath id="clip0">
<path d="M0 0H62.6633V64H0V0Z" fill="white"/>
</clipPath>
</defs>
</svg>
