<svg width="2887" height="32" viewBox="0 0 2887 32" fill="none" xmlns="http://www.w3.org/2000/svg">
<line y1="24" x2="2191" y2="24" stroke="black" stroke-width="4"/>
<line x1="2703" y1="16" x2="2771" y2="16" stroke="black" stroke-width="4"/>
<line x1="2819" y1="16" x2="2887" y2="16" stroke="black" stroke-width="4"/>
<line x1="2587" y1="16" x2="2655" y2="16" stroke="black" stroke-width="4"/>
<line x1="2471" y1="16" x2="2539" y2="16" stroke="black" stroke-width="4"/>
<line x1="2355" y1="16" x2="2423" y2="16" stroke="black" stroke-width="4"/>
<line x1="2239" y1="16" x2="2307" y2="16" stroke="black" stroke-width="4"/>
<line x1="1659" y1="16" x2="2191" y2="16" stroke="black" stroke-width="4"/>
<line x1="1543" y1="16" x2="1611" y2="16" stroke="black" stroke-width="4"/>
<line x1="1427" y1="16" x2="1495" y2="16" stroke="black" stroke-width="4"/>
<line x1="1311" y1="16" x2="1379" y2="16" stroke="black" stroke-width="4"/>
<line x1="1195" y1="16" x2="1263" y2="16" stroke="black" stroke-width="4"/>
<line x1="1079" y1="16" x2="1147" y2="16" stroke="black" stroke-width="4"/>
<line x1="963" y1="16" x2="1031" y2="16" stroke="black" stroke-width="4"/>
<line y1="16" x2="915" y2="16" stroke="black" stroke-width="4"/>
</svg>
