<svg xmlns="http://www.w3.org/2000/svg" xmlns:xlink="http://www.w3.org/1999/xlink" width="285.063" height="48" viewBox="0 0 285.063 48">
  <defs>
    <clipPath id="clip-offwhite-1H">
      <rect width="285.063" height="48"/>
    </clipPath>
  </defs>
  <g id="offwhite-1H" clip-path="url(#clip-offwhite-1H)">
    <g id="Group_30" data-name="Group 30" transform="translate(-24.3 -24.289)">
      <g id="Group_24" data-name="Group 24" transform="translate(24.3 24.289)">
        <path id="Path_113" data-name="Path 113" d="M113.363,83.218h-1.63a.191.191,0,0,0-.191.191v4.18a.143.143,0,0,1-.143.143h-5.022a.143.143,0,0,1-.143-.143l0-4.18a.191.191,0,0,0-.191-.191h-1.63a.191.191,0,0,0-.191.191V94.072a.191.191,0,0,0,.191.191h1.634a.191.191,0,0,0,.191-.191l0-4.18a.143.143,0,0,1,.143-.143l5.022,0a.143.143,0,0,1,.143.143v4.183a.191.191,0,0,0,.191.191h1.634a.191.191,0,0,0,.191-.191l0-10.663A.191.191,0,0,0,113.363,83.218Z" transform="translate(-73.508 -60.572)" fill="#ececec"/>
        <path id="Path_114" data-name="Path 114" d="M83.957,73.246V71.66a.191.191,0,0,0-.191-.191H75.287a.191.191,0,0,0-.191.191V82.324a.191.191,0,0,0,.191.191l8.479,0a.191.191,0,0,0,.191-.191V80.736a.191.191,0,0,0-.191-.191H77.255a.143.143,0,0,1-.143-.143v-2.28a.143.143,0,0,1,.143-.143l5.033,0a.191.191,0,0,0,.191-.191V76.2a.191.191,0,0,0-.191-.191H77.253a.143.143,0,0,1-.143-.143V73.583a.143.143,0,0,1,.143-.143l6.514,0A.191.191,0,0,0,83.957,73.246Z" transform="translate(-55.576 -53.338)" fill="#ececec"/>
        <path id="Path_115" data-name="Path 115" d="M45.289,59.722H43.045a.3.3,0,0,0-.269.174l-4.629,10.4a.338.338,0,0,0,.309.476l11.425,0a.338.338,0,0,0,.309-.476L45.558,59.9A.294.294,0,0,0,45.289,59.722Zm-4.237,8.937,3-6.722a.129.129,0,0,1,.236,0l3,6.722a.146.146,0,0,1-.133.205H41.185A.146.146,0,0,1,41.052,68.659Z" transform="translate(-32.808 -46.106)" fill="#ececec"/>
        <path id="Path_116" data-name="Path 116" d="M79.357,32.727a22.34,22.34,0,0,1-20.489,39.7l-.759,1.47A23.994,23.994,0,0,0,80.115,31.257Z" transform="translate(-45.117 -28.579)" fill="#ececec"/>
        <path id="Path_117" data-name="Path 117" d="M38.051,68.141a22.34,22.34,0,0,1,20.489-39.7l.759-1.47A23.994,23.994,0,0,0,37.292,69.611Z" transform="translate(-24.3 -24.289)" fill="#ececec"/>
      </g>
      <g id="Group_26" data-name="Group 26" transform="translate(293.173 36.689)">
        <g id="Group_25" data-name="Group 25" transform="translate(0 0)">
          <path id="Path_118" data-name="Path 118" d="M723.968,65.081V62.939h6.383V56.556h2.142v6.383h6.384v2.142h-6.384v6.383h-2.142V65.081Z" transform="translate(-723.968 -56.556)" fill="#ececec"/>
        </g>
      </g>
      <g id="Group_28" data-name="Group 28" transform="translate(90.966 36.963)">
        <g id="Group_27" data-name="Group 27">
          <path id="Path_119" data-name="Path 119" d="M199.921,72.67v3.484c1.485-2.6,3.37-3.8,5.825-3.8a4.523,4.523,0,0,1,4.8,4.083c1.514-2.8,3.427-4.083,5.968-4.083,2.484,0,4.94,1.285,4.94,5.94v9.281h-2.142v-9c0-2.97-1.342-4.226-3.256-4.226-2.341,0-4.055,1.714-5.368,5.112v8.11h-2.142v-9c0-2.97-1.342-4.226-3.256-4.226-2.37,0-4.027,1.714-5.368,5.14v8.082h-2.142V72.67Z" transform="translate(-197.779 -66.559)" fill="#ececec"/>
          <path id="Path_120" data-name="Path 120" d="M271.526,88.28l-6.054-15.106h2.456L272.64,85.51l4.369-12.336h2.427l-8.053,20.874H269.1l2.456-5.769Z" transform="translate(-239.458 -67.063)" fill="#ececec"/>
          <path id="Path_121" data-name="Path 121" d="M314.55,59.723c3.6,0,6.539,1.371,6.539,5.283a4.6,4.6,0,0,1-2.6,4.4c2.484.742,4,2.427,4,4.825,0,3.427-2.97,5.569-6.854,5.569h-5.654V59.723Zm4.2,5.283c0-2.284-1.513-3.226-4.226-3.226h-2.313v6.882h2.342C317.263,68.661,318.748,67.291,318.748,65.006Zm1.4,9.11c0-2.056-1.8-3.627-4.855-3.627h-3.084v7.253h3.513C318.719,77.742,320.147,75.943,320.147,74.116Z" transform="translate(-266.863 -58.781)" fill="#ececec"/>
          <path id="Path_122" data-name="Path 122" d="M351.444,73.174h2.142v8.995c0,2.941,1.371,4.2,3.2,4.2,2.456,0,4.112-1.656,5.369-5.055V73.174h2.142V88.08h-2.142v-3.37c-1.428,2.513-3.313,3.655-5.826,3.655-2.456,0-4.883-1.257-4.883-5.94Z" transform="translate(-292.393 -67.063)" fill="#ececec"/>
          <path id="Path_123" data-name="Path 123" d="M394.621,84.807a9.283,9.283,0,0,0,4.4,1.085c2.085,0,3.57-.543,3.57-2.313,0-3.827-8.281-.657-8.281-6.854,0-2.6,1.942-4.369,5.455-4.369a9.827,9.827,0,0,1,4.483,1.114l-.571,1.971a7.435,7.435,0,0,0-3.883-1.114c-1.8,0-3.284.743-3.284,2.285,0,4.284,8.224,1.085,8.224,6.853,0,2.742-2.656,4.4-5.74,4.4a12.271,12.271,0,0,1-4.969-1.114Z" transform="translate(-318.608 -66.559)" fill="#ececec"/>
          <path id="Path_124" data-name="Path 124" d="M431.257,57.271a1.591,1.591,0,0,1,1.6,1.571,1.609,1.609,0,0,1-1.6,1.571,1.584,1.584,0,0,1-1.571-1.571A1.566,1.566,0,0,1,431.257,57.271Zm1.085,6.111V78.289H430.2V63.382Z" transform="translate(-340.567 -57.271)" fill="#ececec"/>
          <path id="Path_125" data-name="Path 125" d="M451.073,72.67v3.512c1.542-2.627,3.484-3.826,5.94-3.826,2.514,0,4.969,1.285,4.969,5.94v9.281H459.84v-9c0-2.97-1.371-4.226-3.256-4.226-2.541,0-4.169,1.685-5.511,5.112v8.11h-2.142V72.67Z" transform="translate(-352.417 -66.559)" fill="#ececec"/>
          <path id="Path_126" data-name="Path 126" d="M499.28,72.356c3.8,0,6.882,2.57,6.882,7.767a6.594,6.594,0,0,1-.057.8H494.312c.2,3.341,2.142,4.969,5.511,4.969a9.307,9.307,0,0,0,5.112-1.313l.485,1.742a10.776,10.776,0,0,1-5.711,1.542c-4.712,0-7.682-2.742-7.682-7.568C492.027,75.183,495.368,72.356,499.28,72.356Zm-.057,1.97c-2.6,0-4.512,1.571-4.883,4.769h9.538C503.592,75.84,501.765,74.326,499.223,74.326Z" transform="translate(-378.951 -66.559)" fill="#ececec"/>
          <path id="Path_127" data-name="Path 127" d="M535.5,84.807a9.284,9.284,0,0,0,4.4,1.085c2.085,0,3.57-.543,3.57-2.313,0-3.827-8.281-.657-8.281-6.854,0-2.6,1.942-4.369,5.454-4.369a9.824,9.824,0,0,1,4.483,1.114l-.571,1.971a7.435,7.435,0,0,0-3.883-1.114c-1.8,0-3.284.743-3.284,2.285,0,4.284,8.224,1.085,8.224,6.853,0,2.742-2.656,4.4-5.74,4.4a12.27,12.27,0,0,1-4.969-1.114Z" transform="translate(-405.35 -66.559)" fill="#ececec"/>
          <path id="Path_128" data-name="Path 128" d="M569.31,84.807a9.284,9.284,0,0,0,4.4,1.085c2.085,0,3.57-.543,3.57-2.313,0-3.827-8.281-.657-8.281-6.854,0-2.6,1.941-4.369,5.454-4.369a9.824,9.824,0,0,1,4.483,1.114l-.571,1.971a7.436,7.436,0,0,0-3.884-1.114c-1.8,0-3.284.743-3.284,2.285,0,4.284,8.225,1.085,8.225,6.853,0,2.742-2.656,4.4-5.74,4.4a12.273,12.273,0,0,1-4.969-1.114Z" transform="translate(-426.166 -66.559)" fill="#ececec"/>
          <path id="Path_129" data-name="Path 129" d="M601.478,75.029V73.373L611.5,59.723h1.856v13.25h2.856v2.056h-2.856v5.055H611.13V75.029Zm9.652-11.708-7.11,9.652h7.11Z" transform="translate(-446.342 -58.781)" fill="#ececec"/>
          <path id="Path_130" data-name="Path 130" d="M653.182,59.723,660.663,79.8h-2.484l-2.17-6h-8.024l-2.113,6h-2.484l7.567-20.076Zm-1.228,2.827-3.255,9.2h6.568Z" transform="translate(-472.146 -58.781)" fill="#ececec"/>
          <path id="Path_131" data-name="Path 131" d="M697.32,59.723V79.8h-2.142V59.723Z" transform="translate(-504.034 -58.781)" fill="#ececec"/>
          <path id="Path_132" data-name="Path 132" d="M715.227,59.723V79.8h-2.142V59.723Z" transform="translate(-515.06 -58.781)" fill="#ececec"/>
        </g>
      </g>
    </g>
  </g>
</svg>
