<svg xmlns="http://www.w3.org/2000/svg" xmlns:xlink="http://www.w3.org/1999/xlink" width="207" height="48" viewBox="0 0 207 48">
  <defs>
    <clipPath id="clip-DEH-blue_horizontal-offwhite">
      <rect width="207" height="48"/>
    </clipPath>
  </defs>
  <g id="DEH-blue_horizontal-offwhite" data-name="DEH-blue horizontal-offwhite" clip-path="url(#clip-DEH-blue_horizontal-offwhite)">
    <g id="Group_200" data-name="Group 200" transform="translate(-269.733 -2650.598)">
      <path id="Path_749" data-name="Path 749" d="M199.676,134.053h-1.63a.191.191,0,0,0-.191.191v4.179a.143.143,0,0,1-.143.143H192.69a.143.143,0,0,1-.143-.143l0-4.179a.191.191,0,0,0-.191-.191h-1.63a.191.191,0,0,0-.191.191V144.9a.191.191,0,0,0,.191.191h1.634a.191.191,0,0,0,.191-.191l0-4.179a.143.143,0,0,1,.143-.143l5.021,0a.143.143,0,0,1,.143.143V144.9a.191.191,0,0,0,.191.191h1.634a.191.191,0,0,0,.191-.191l0-10.66a.191.191,0,0,0-.191-.191" transform="translate(110.382 2539.184)" fill="#f2f2f2"/>
      <path id="Path_750" data-name="Path 750" d="M163.081,121.186V119.6a.191.191,0,0,0-.191-.191h-8.478a.191.191,0,0,0-.191.191v10.66a.191.191,0,0,0,.191.191l8.478,0a.191.191,0,0,0,.191-.191v-1.582a.191.191,0,0,0-.191-.191h-6.51a.143.143,0,0,1-.143-.143v-2.28a.144.144,0,0,1,.143-.143l5.032,0a.191.191,0,0,0,.191-.191v-1.585a.191.191,0,0,0-.191-.191h-5.033a.143.143,0,0,1-.143-.143v-2.281a.143.143,0,0,1,.143-.143l6.513,0a.191.191,0,0,0,.191-.191" transform="translate(135.504 2549.314)" fill="#f2f2f2"/>
      <path id="Path_751" data-name="Path 751" d="M115.288,104.765h-2.244a.293.293,0,0,0-.268.174l-4.628,10.392a.338.338,0,0,0,.309.476l11.423,0a.338.338,0,0,0,.309-.476l-4.632-10.387a.294.294,0,0,0-.269-.174m-4.236,8.933,3-6.719a.129.129,0,0,1,.236,0l3,6.719a.146.146,0,0,1-.133.205h-5.962a.146.146,0,0,1-.133-.205" transform="translate(167.4 2559.446)" fill="#f2f2f2"/>
      <path id="Path_752" data-name="Path 752" d="M154.287,70.748A22.333,22.333,0,1,1,133.8,110.44l-.758,1.469a23.987,23.987,0,1,0,22-42.63Z" transform="translate(150.157 2583.996)" fill="#f2f2f2"/>
      <path id="Path_753" data-name="Path 753" d="M104.638,104.431a22.333,22.333,0,1,1,20.486-39.691l.758-1.469a23.987,23.987,0,1,0-22,42.63Z" transform="translate(179.319 2590.005)" fill="#f2f2f2"/>
      <path id="Path_754" data-name="Path 754" d="M549.2,207.747l-.071-.012a7.376,7.376,0,0,1-1.469-.491.334.334,0,0,1-.192-.432c.256-.656.717-1.84.969-2.49a.333.333,0,0,1,.429-.191c.186.071.379.138.565.2.226.076.395.128.568.178a.336.336,0,0,1,.23.41l-.69,2.576a.341.341,0,0,1-.34.249" transform="translate(-136.54 2490.717)" fill="#f2f2f2"/>
      <path id="Path_755" data-name="Path 755" d="M524.647,191.2a.339.339,0,0,1-.478-.058c-.333-.434-.624-.848-.89-1.266a.335.335,0,0,1,.1-.461c.6-.378,1.671-1.058,2.261-1.434a.333.333,0,0,1,.459.1c.1.158.21.318.316.472.156.223.262.365.372.509a.334.334,0,0,1-.056.467Z" transform="translate(-119.784 2501.911)" fill="#f2f2f2"/>
      <path id="Path_756" data-name="Path 756" d="M535.591,201.279a.342.342,0,0,1-.471.092c-.449-.307-.854-.611-1.238-.927a.335.335,0,0,1-.045-.471c.451-.545,1.261-1.525,1.705-2.064a.334.334,0,0,1,.467-.047c.154.125.313.248.468.368.2.148.341.25.491.353a.338.338,0,0,1,.09.461Z" transform="translate(-127.071 2495.09)" fill="#f2f2f2"/>
      <path id="Path_757" data-name="Path 757" d="M517.78,178.587a.342.342,0,0,1-.432-.2c-.177-.5-.324-.972-.447-1.442a.337.337,0,0,1,.242-.409c1.143-.3,2.489-.655,2.67-.683a.336.336,0,0,1,.328.249c.108.4.227.789.353,1.144a.335.335,0,0,1-.2.427Z" transform="translate(-115.399 2510.267)" fill="#f2f2f2"/>
      <path id="Path_758" data-name="Path 758" d="M431.3,144.465a.334.334,0,0,1-.33-.279c-.065-.391-.15-.79-.251-1.188a.336.336,0,0,1,.242-.407l2.6-.663.063-.008a.338.338,0,0,1,.337.253c.055.219.2.8.308,1.461a.335.335,0,0,1-.276.386l-2.651.443Z" transform="translate(-55.779 2533.741)" fill="#f2f2f2"/>
      <path id="Path_759" data-name="Path 759" d="M425.278,128.216a.335.335,0,0,1-.293-.173c-.115-.209-.349-.621-.629-1.033a.335.335,0,0,1,.092-.469l2.22-1.485a.338.338,0,0,1,.187-.057.335.335,0,0,1,.28.149c.273.41.535.839.777,1.275a.334.334,0,0,1,.029.256.341.341,0,0,1-.161.2l-2.339,1.292a.343.343,0,0,1-.163.042" transform="translate(-51.342 2545.447)" fill="#f2f2f2"/>
      <path id="Path_760" data-name="Path 760" d="M414.837,115.207a.336.336,0,0,1-.221-.084c-.171-.151-.521-.451-.943-.758a.335.335,0,0,1-.073-.471l1.586-2.152a.339.339,0,0,1,.272-.137.329.329,0,0,1,.2.067c.388.285.779.6,1.162.935a.336.336,0,0,1,.114.229.34.34,0,0,1-.083.246l-1.762,2.01a.339.339,0,0,1-.253.115" transform="translate(-43.896 2554.713)" fill="#f2f2f2"/>
      <path id="Path_761" data-name="Path 761" d="M401.088,106.907a.326.326,0,0,1-.13-.027c-.21-.085-.639-.251-1.136-.4a.336.336,0,0,1-.226-.419l.781-2.557a.339.339,0,0,1,.321-.238.329.329,0,0,1,.1.015c.472.145.945.311,1.408.5a.338.338,0,0,1,.187.438l-.993,2.48a.335.335,0,0,1-.311.211" transform="translate(-34.242 2560.482)" fill="#f2f2f2"/>
      <path id="Rectangle_26" data-name="Rectangle 26" d="M1.08,0h0A1.08,1.08,0,0,1,2.16,1.08V45.249a1.08,1.08,0,0,1-1.08,1.08h0A1.081,1.081,0,0,1,0,45.248V1.08A1.08,1.08,0,0,1,1.08,0Z" transform="translate(388.538 2651.426)" fill="#f2f2f2"/>
      <path id="Path_762" data-name="Path 762" d="M337.825,109.608a.337.337,0,0,1-.336-.336V63.615a.336.336,0,0,1,.336-.336h1.488a.337.337,0,0,1,.336.336V82.092a16.453,16.453,0,0,1,13.221-6.605.341.341,0,0,1,.336.336l-.011,1.49a.336.336,0,0,1-.336.333A14.435,14.435,0,0,0,339.633,86.3l.016,17.219a20.65,20.65,0,0,0,13.2,4.773c7.508,0,14.195-6.413,14.407-14.654a.337.337,0,0,1,.336-.331l1.49.006a.342.342,0,0,1,.335.339c-.25,9.262-7.725,16.8-16.567,16.8a22.952,22.952,0,0,1-13.224-4.239l.027,3.059a.336.336,0,0,1-.336.337Z" transform="translate(8.715 2588.147)" fill="#f2f2f2"/>
      <path id="Path_763" data-name="Path 763" d="M740.122,124.64a.339.339,0,0,1-.465-.089c-.118-.173-.24-.345-.364-.513-.077-.1-.254-.327-.36-.461a.337.337,0,0,1,.051-.47l2.08-1.683a.339.339,0,0,1,.474.048c.317.392.616.8.891,1.2a.337.337,0,0,1-.093.466Z" transform="translate(-268.964 2547.972)" fill="#f2f2f2"/>
      <path id="Path_764" data-name="Path 764" d="M729.9,113.472a.34.34,0,0,1-.471.056c-.164-.127-.332-.254-.5-.375-.1-.076-.341-.235-.484-.329a.336.336,0,0,1-.095-.463l1.464-2.239a.338.338,0,0,1,.466-.1c.421.276.831.57,1.217.873a.337.337,0,0,1,.054.472Z" transform="translate(-261.652 2555.845)" fill="#f2f2f2"/>
      <path id="Path_765" data-name="Path 765" d="M717.127,106.4a.336.336,0,0,1-.432.2c-.2-.072-.394-.14-.593-.2-.123-.04-.4-.118-.561-.165a.337.337,0,0,1-.232-.411l.707-2.582a.338.338,0,0,1,.324-.248,8,8,0,0,1,1.513.469.337.337,0,0,1,.2.433Z" transform="translate(-252.663 2560.676)" fill="#f2f2f2"/>
      <path id="Path_766" data-name="Path 766" d="M701.209,104.4a.337.337,0,0,1-.346-.321l-.118-2.672a.343.343,0,0,1,.322-.352c.294-.012,1.205-.013,1.493,0a.342.342,0,0,1,.322.351l-.112,2.672a.334.334,0,0,1-.334.32c-.207-.008-.4-.012-.643-.012-.129,0-.414.009-.585.015" transform="translate(-242.595 2562.018)" fill="#f2f2f2"/>
      <path id="Path_767" data-name="Path 767" d="M701.209,104.4a.337.337,0,0,1-.346-.321l-.118-2.672a.343.343,0,0,1,.322-.352c.294-.012,1.205-.013,1.493,0a.342.342,0,0,1,.322.351l-.112,2.672a.334.334,0,0,1-.334.32c-.207-.008-.4-.012-.643-.012-.129,0-.414.009-.585.015" transform="translate(-242.595 2562.018)" fill="#f2f2f2"/>
      <path id="Path_768" data-name="Path 768" d="M685.508,106.561a.339.339,0,0,1-.429-.2l-.93-2.506a.339.339,0,0,1,.2-.435c.468-.173.947-.328,1.423-.46a.313.313,0,0,1,.413.234l.713,2.578a.336.336,0,0,1-.234.412c-.2.056-.4.117-.6.182-.124.04-.391.136-.552.194" transform="translate(-231.099 2560.706)" fill="#f2f2f2"/>
      <path id="Path_769" data-name="Path 769" d="M671.531,113.492a.338.338,0,0,1-.469-.059l-1.656-2.1a.341.341,0,0,1,.058-.474c.391-.308.8-.6,1.212-.873a.343.343,0,0,1,.465.1l1.469,2.236a.336.336,0,0,1-.1.465c-.174.115-.347.234-.516.356-.1.076-.331.249-.466.354" transform="translate(-220.865 2555.871)" fill="#f2f2f2"/>
      <path id="Path_770" data-name="Path 770" d="M660.62,124.5a.339.339,0,0,1-.464.088l-2.22-1.493a.34.34,0,0,1-.091-.467c.278-.412.576-.817.887-1.2a.341.341,0,0,1,.471-.051l2.084,1.679a.335.335,0,0,1,.049.472c-.131.163-.258.329-.381.5-.077.1-.238.338-.335.48" transform="translate(-212.876 2548.008)" fill="#f2f2f2"/>
      <path id="Path_771" data-name="Path 771" d="M746.7,138.773a.286.286,0,0,1-.324-.239c-.049-.164-.132-.437-.173-.559q-.1-.3-.212-.592a.338.338,0,0,1,.193-.432l2.5-.958a.338.338,0,0,1,.435.19c.178.462.338.939.477,1.42a.341.341,0,0,1-.231.416Z" transform="translate(-273.881 2537.857)" fill="#f2f2f2"/>
      <path id="Path_772" data-name="Path 772" d="M653.829,138.535c-.059.2-.192.239-.408.227l-2.578-.743a.34.34,0,0,1-.23-.417c.14-.484.3-.961.476-1.417a.34.34,0,0,1,.433-.193l2.5.958a.338.338,0,0,1,.193.432q-.112.294-.212.593c-.041.123-.123.395-.172.559" transform="translate(-207.903 2537.856)" fill="#f2f2f2"/>
      <path id="Path_773" data-name="Path 773" d="M566.362,138.438a.336.336,0,0,1-.336-.336v-1.489a.337.337,0,0,1,.335-.336,13.283,13.283,0,0,0,13.252-13.235V104.069a.337.337,0,0,1,.336-.336h1.488a.337.337,0,0,1,.337.336v18.974a15.411,15.411,0,0,1-15.411,15.4" transform="translate(-149.393 2560.16)" fill="#f2f2f2"/>
      <path id="Path_774" data-name="Path 774" d="M666.981,173.349c-8.981,0-16.568-7.754-16.568-16.933v-1.885a.336.336,0,0,1,.336-.337h1.488a.337.337,0,0,1,.336.337v1.885c0,8.008,6.6,14.773,14.407,14.773a20.487,20.487,0,0,0,14.339-5.808l.242-.239a.338.338,0,0,1,.474,0l1.055,1.055a.337.337,0,0,1,0,.48c-.238.229-.462.444-.519.5a22.659,22.659,0,0,1-15.586,6.171" transform="translate(-207.774 2525.25)" fill="#f2f2f2"/>
      <path id="Path_775" data-name="Path 775" d="M715.548,156.354H696.79a.336.336,0,0,1-.336-.336V154.53a.336.336,0,0,1,.336-.337h18.758a.336.336,0,0,1,.336.337v1.488a.336.336,0,0,1-.336.336" transform="translate(-239.626 2525.25)" fill="#f2f2f2"/>
      <path id="Path_776" data-name="Path 776" d="M519.406,104.069v18.989a.336.336,0,0,1-.336.336h-1.488a.336.336,0,0,1-.336-.336V104.069a.336.336,0,0,1,.336-.336h1.488a.336.336,0,0,1,.336.336" transform="translate(-115.645 2560.16)" fill="#f2f2f2"/>
    </g>
  </g>
</svg>
