<svg xmlns="http://www.w3.org/2000/svg" xmlns:xlink="http://www.w3.org/1999/xlink" width="267.832" height="48" viewBox="0 0 267.832 48">
  <defs>
    <clipPath id="clip-DEH_myBusiness4All-offwhite">
      <rect width="267.832" height="48"/>
    </clipPath>
  </defs>
  <g id="DEH_myBusiness4All-offwhite" data-name="DEH myBusiness4All-offwhite" clip-path="url(#clip-DEH_myBusiness4All-offwhite)">
    <g id="Group_56" data-name="Group 56">
      <g id="Group_53" data-name="Group 53">
        <path id="Path_227" data-name="Path 227" d="M39.855,22.646h-1.63a.191.191,0,0,0-.191.191v4.18a.143.143,0,0,1-.143.143H32.869a.143.143,0,0,1-.143-.143l0-4.18a.19.19,0,0,0-.191-.191H30.9a.191.191,0,0,0-.191.191V33.5a.192.192,0,0,0,.191.191h1.634a.191.191,0,0,0,.191-.191l0-4.181a.143.143,0,0,1,.143-.143l5.022,0a.143.143,0,0,1,.143.143V33.5a.192.192,0,0,0,.191.191h1.634a.191.191,0,0,0,.191-.191l0-10.663A.19.19,0,0,0,39.855,22.646Z" fill="#f2f2f2"/>
        <path id="Path_228" data-name="Path 228" d="M28.381,19.907V18.322a.191.191,0,0,0-.191-.191H19.711a.191.191,0,0,0-.191.191V28.985a.191.191,0,0,0,.191.191l8.479,0a.191.191,0,0,0,.191-.191V27.4a.192.192,0,0,0-.191-.191H21.679a.144.144,0,0,1-.144-.143V24.783a.143.143,0,0,1,.143-.143l5.033,0a.192.192,0,0,0,.191-.191V22.86a.192.192,0,0,0-.191-.191H21.677a.143.143,0,0,1-.143-.143V20.245a.144.144,0,0,1,.143-.144l6.514,0A.19.19,0,0,0,28.381,19.907Z" fill="#f2f2f2"/>
        <path id="Path_229" data-name="Path 229" d="M12.481,13.616H10.237a.3.3,0,0,0-.269.175L5.34,24.186a.338.338,0,0,0,.309.476l11.425-.005a.338.338,0,0,0,.309-.476L12.75,13.791A.3.3,0,0,0,12.481,13.616ZM8.244,22.553l3-6.722a.129.129,0,0,1,.236,0l3,6.722a.146.146,0,0,1-.133.2H8.378A.146.146,0,0,1,8.244,22.553Z" fill="#f2f2f2"/>
        <path id="Path_230" data-name="Path 230" d="M34.24,4.148a22.339,22.339,0,0,1-20.489,39.7l-.759,1.47A23.994,23.994,0,0,0,35,2.678Z" fill="#f2f2f2"/>
        <path id="Path_231" data-name="Path 231" d="M13.751,43.852A22.339,22.339,0,0,1,34.24,4.148L35,2.678A23.994,23.994,0,0,0,12.992,45.322Z" fill="#f2f2f2"/>
      </g>
      <g id="Group_55" data-name="Group 55">
        <g id="Group_54" data-name="Group 54">
          <path id="Path_232" data-name="Path 232" d="M68.807,18.786v3.483c1.485-2.6,3.37-3.8,5.826-3.8a4.523,4.523,0,0,1,4.8,4.083c1.514-2.8,3.427-4.083,5.969-4.083,2.484,0,4.94,1.284,4.94,5.939v9.281H88.2v-9c0-2.97-1.342-4.227-3.255-4.227-2.342,0-4.055,1.714-5.369,5.112v8.11H77.431v-9c0-2.97-1.342-4.227-3.255-4.227-2.37,0-4.027,1.714-5.369,5.141v8.081H66.666V18.786Z" fill="#f2f2f2"/>
          <path id="Path_233" data-name="Path 233" d="M98.733,33.892,92.679,18.786h2.456l4.712,12.336,4.369-12.336h2.427L98.59,39.66H96.306l2.456-5.768Z" fill="#f2f2f2"/>
          <path id="Path_234" data-name="Path 234" d="M114.352,13.617c3.6,0,6.54,1.37,6.54,5.283a4.6,4.6,0,0,1-2.6,4.4c2.485.742,4,2.427,4,4.825,0,3.427-2.97,5.569-6.853,5.569h-5.655V13.617Zm4.2,5.283c0-2.285-1.513-3.227-4.226-3.227h-2.313v6.882h2.341C117.065,22.555,118.55,21.184,118.55,18.9Zm1.4,9.109c0-2.056-1.8-3.626-4.855-3.626h-3.084v7.253h3.512C118.522,31.636,119.95,29.837,119.95,28.009Z" fill="#f2f2f2"/>
          <path id="Path_235" data-name="Path 235" d="M125.717,18.786h2.141v9c0,2.941,1.371,4.2,3.2,4.2,2.456,0,4.112-1.656,5.368-5.055V18.786h2.142V33.692h-2.142V30.323c-1.427,2.512-3.312,3.655-5.825,3.655-2.456,0-4.883-1.257-4.883-5.94Z" fill="#f2f2f2"/>
          <path id="Path_236" data-name="Path 236" d="M142.678,30.922a9.275,9.275,0,0,0,4.4,1.085c2.085,0,3.569-.542,3.569-2.313,0-3.826-8.281-.657-8.281-6.853,0-2.6,1.942-4.369,5.454-4.369a9.829,9.829,0,0,1,4.484,1.113l-.572,1.971a7.43,7.43,0,0,0-3.883-1.114c-1.8,0-3.284.742-3.284,2.285,0,4.283,8.224,1.084,8.224,6.853,0,2.741-2.656,4.4-5.74,4.4a12.286,12.286,0,0,1-4.969-1.114Z" fill="#f2f2f2"/>
          <path id="Path_237" data-name="Path 237" d="M157.355,12.675a1.59,1.59,0,0,1,1.6,1.57,1.609,1.609,0,0,1-1.6,1.571,1.585,1.585,0,0,1-1.571-1.571A1.566,1.566,0,0,1,157.355,12.675Zm1.085,6.111V33.692H156.3V18.786Z" fill="#f2f2f2"/>
          <path id="Path_238" data-name="Path 238" d="M165.322,18.786V22.3c1.542-2.627,3.484-3.826,5.94-3.826,2.513,0,4.969,1.284,4.969,5.939v9.281h-2.142v-9c0-2.97-1.371-4.227-3.256-4.227-2.541,0-4.169,1.685-5.511,5.112v8.11H163.18V18.786Z" fill="#f2f2f2"/>
          <path id="Path_239" data-name="Path 239" d="M186.995,18.472c3.8,0,6.882,2.569,6.882,7.767a6.709,6.709,0,0,1-.057.8H182.026c.2,3.341,2.142,4.968,5.511,4.968a9.3,9.3,0,0,0,5.112-1.313l.485,1.742a10.775,10.775,0,0,1-5.711,1.542c-4.712,0-7.682-2.742-7.682-7.568C179.741,21.3,183.082,18.472,186.995,18.472Zm-.057,1.97c-2.6,0-4.512,1.57-4.883,4.769h9.537C191.307,21.955,189.479,20.442,186.938,20.442Z" fill="#f2f2f2"/>
          <path id="Path_240" data-name="Path 240" d="M196.817,30.922a9.275,9.275,0,0,0,4.4,1.085c2.084,0,3.569-.542,3.569-2.313,0-3.826-8.281-.657-8.281-6.853,0-2.6,1.942-4.369,5.454-4.369a9.829,9.829,0,0,1,4.484,1.113l-.572,1.971a7.43,7.43,0,0,0-3.883-1.114c-1.8,0-3.284.742-3.284,2.285,0,4.283,8.224,1.084,8.224,6.853,0,2.741-2.656,4.4-5.74,4.4a12.277,12.277,0,0,1-4.968-1.114Z" fill="#f2f2f2"/>
          <path id="Path_241" data-name="Path 241" d="M209.809,30.922a9.275,9.275,0,0,0,4.4,1.085c2.085,0,3.57-.542,3.57-2.313,0-3.826-8.282-.657-8.282-6.853,0-2.6,1.942-4.369,5.455-4.369a9.828,9.828,0,0,1,4.483,1.113l-.571,1.971a7.436,7.436,0,0,0-3.884-1.114c-1.8,0-3.284.742-3.284,2.285,0,4.283,8.224,1.084,8.224,6.853,0,2.741-2.655,4.4-5.74,4.4a12.277,12.277,0,0,1-4.968-1.114Z" fill="#f2f2f2"/>
          <path id="Path_242" data-name="Path 242" d="M221.8,28.923V27.267l10.024-13.65h1.856v13.25h2.856v2.056h-2.856v5.055h-2.227V28.923Zm9.653-11.708-7.111,9.652h7.111Z" fill="#f2f2f2"/>
          <path id="Path_243" data-name="Path 243" d="M247.7,13.617l7.482,20.075H252.7l-2.171-6H242.5l-2.113,6h-2.484l7.567-20.075Zm-1.228,2.827-3.255,9.195h6.568Z" fill="#f2f2f2"/>
          <path id="Path_244" data-name="Path 244" d="M259.951,13.617V33.692h-2.142V13.617Z" fill="#f2f2f2"/>
          <path id="Path_245" data-name="Path 245" d="M266.832,13.617V33.692h-2.141V13.617Z" fill="#f2f2f2"/>
        </g>
      </g>
    </g>
  </g>
</svg>
