<svg xmlns="http://www.w3.org/2000/svg" xmlns:xlink="http://www.w3.org/1999/xlink" width="80" height="80" viewBox="0 0 80 80">
  <defs>
    <clipPath id="clip-path">
      <rect id="Rectangle_101" data-name="Rectangle 101" width="80" height="80" fill="none"/>
    </clipPath>
    <clipPath id="clip-DEH_DarkMode_80px">
      <rect width="80" height="80"/>
    </clipPath>
  </defs>
  <g id="DEH_DarkMode_80px" data-name="DEH DarkMode 80px" clip-path="url(#clip-DEH_DarkMode_80px)">
    <g id="Group_313" data-name="Group 313">
      <g id="Group_312" data-name="Group 312" clip-path="url(#clip-path)">
        <path id="Path_1898" data-name="Path 1898" d="M13.926,29.937A37.235,37.235,0,1,1,29.936,80.1a37.235,37.235,0,0,1-16.01-50.165" transform="translate(-7.014 -7.014)" fill="#fff"/>
        <path id="Path_1899" data-name="Path 1899" d="M196.648,133.738h-2.717a.318.318,0,0,0-.318.318v6.967a.239.239,0,0,1-.239.239H185a.239.239,0,0,1-.239-.238l0-6.967a.318.318,0,0,0-.318-.318h-2.717a.318.318,0,0,0-.318.318v17.772a.318.318,0,0,0,.318.318h2.724a.318.318,0,0,0,.318-.318l0-6.967a.239.239,0,0,1,.239-.239l8.372,0a.239.239,0,0,1,.239.239v6.971a.318.318,0,0,0,.318.318h2.724a.318.318,0,0,0,.318-.318l-.007-17.772a.318.318,0,0,0-.318-.318" transform="translate(-130.21 -95.994)" fill="#000f1e"/>
        <path id="Path_1900" data-name="Path 1900" d="M130.07,110.039V107.4a.318.318,0,0,0-.318-.318H115.617a.318.318,0,0,0-.318.318v17.772a.318.318,0,0,0,.318.318l14.134-.007a.318.318,0,0,0,.318-.318v-2.638a.318.318,0,0,0-.318-.318H118.9a.239.239,0,0,1-.239-.238v-3.8a.239.239,0,0,1,.238-.239l8.39-.006a.318.318,0,0,0,.318-.318V114.96a.318.318,0,0,0-.318-.318h-8.391a.239.239,0,0,1-.239-.239v-3.8a.239.239,0,0,1,.238-.239l10.859-.005a.318.318,0,0,0,.318-.318" transform="translate(-82.759 -76.858)" fill="#000f1e"/>
        <path id="Path_1901" data-name="Path 1901" d="M43.32,80.418H39.579a.491.491,0,0,0-.448.291L31.415,98.034a.564.564,0,0,0,.515.793l19.046-.007a.564.564,0,0,0,.514-.794L43.767,80.709a.49.49,0,0,0-.448-.291M36.257,95.312l5-11.2a.215.215,0,0,1,.393,0l5,11.2a.243.243,0,0,1-.222.342h-9.94a.243.243,0,0,1-.222-.342" transform="translate(-22.514 -57.722)" fill="#000f1e"/>
        <path id="Path_1902" data-name="Path 1902" d="M112.16,18.263A37.235,37.235,0,1,1,78.005,84.437l-1.264,2.45a39.991,39.991,0,1,0,36.684-71.074Z" transform="translate(-55.083 -11.35)" fill="#00a3e0"/>
        <path id="Path_1903" data-name="Path 1903" d="M22.922,73.087A37.235,37.235,0,1,1,57.077,6.913l1.264-2.45A39.991,39.991,0,1,0,21.658,75.537Z" transform="translate(0 0)" fill="#fa4616"/>
      </g>
    </g>
  </g>
</svg>
