<?xml version="1.0" encoding="utf-8"?>
<!-- Generator: Adobe Illustrator 26.2.1, SVG Export Plug-In . SVG Version: 6.00 Build 0)  -->
<svg version="1.0" id="Layer_1" xmlns="http://www.w3.org/2000/svg" xmlns:xlink="http://www.w3.org/1999/xlink" x="0px" y="0px"
	 width="257px" height="48px" viewBox="0 0 257 48" enable-background="new 0 0 257 48" xml:space="preserve">
<g>
	<defs>
		<rect id="SVGID_1_" width="257" height="48"/>
	</defs>
	<clipPath id="SVGID_00000090260737175364845870000000783667350989724327_">
		<use xlink:href="#SVGID_1_"  overflow="visible"/>
	</clipPath>
	<g id="DEH-MyEnergyTips-OffWhite" clip-path="url(#SVGID_00000090260737175364845870000000783667350989724327_)">
		<g id="Group_2">
			<g>
				<defs>
					<rect id="SVGID_00000101088934004778585950000008281790236037366156_" width="252.2" height="48"/>
				</defs>
				<clipPath id="SVGID_00000088121203441814033260000002995818695022972573_">
					<use xlink:href="#SVGID_00000101088934004778585950000008281790236037366156_"  overflow="visible"/>
				</clipPath>
				<g id="Group_1" clip-path="url(#SVGID_00000088121203441814033260000002995818695022972573_)">
					<path id="Path_1" fill="#F2F2F2" d="M39.9,22.6h-1.6c-0.1,0-0.2,0.1-0.2,0.2v0V27c0,0.1-0.1,0.1-0.1,0.1h-5
						c-0.1,0-0.1-0.1-0.1-0.1v-4.2c0-0.1-0.1-0.2-0.2-0.2l0,0h-1.6c-0.1,0-0.2,0.1-0.2,0.2v0v10.7c0,0.1,0.1,0.2,0.2,0.2l0,0h1.6
						c0.1,0,0.2-0.1,0.2-0.2c0,0,0,0,0,0v-4.2c0-0.1,0.1-0.1,0.1-0.1h5c0.1,0,0.1,0.1,0.1,0.1v4.2c0,0.1,0.1,0.2,0.2,0.2l0,0h1.6
						c0.1,0,0.2-0.1,0.2-0.2l0,0V22.8C40.1,22.7,40,22.6,39.9,22.6L39.9,22.6"/>
					<path id="Path_2" fill="#F2F2F2" d="M28.4,19.9v-1.6c0-0.1-0.1-0.2-0.2-0.2h0h-8.5c-0.1,0-0.2,0.1-0.2,0.2v0V29
						c0,0.1,0.1,0.2,0.2,0.2h0h8.5c0.1,0,0.2-0.1,0.2-0.2v0v-1.6c0-0.1-0.1-0.2-0.2-0.2h0h-6.5c-0.1,0-0.1-0.1-0.1-0.1v0v-2.3
						c0-0.1,0.1-0.1,0.1-0.1h0h5c0.1,0,0.2-0.1,0.2-0.2v0v-1.6c0-0.1-0.1-0.2-0.2-0.2h0h-5c-0.1,0-0.1-0.1-0.1-0.1v0v-2.3
						c0-0.1,0.1-0.1,0.1-0.1h0h6.5C28.3,20.1,28.4,20,28.4,19.9L28.4,19.9"/>
					<path id="Path_3" fill="#F2F2F2" d="M12.5,13.6h-2.2c-0.1,0-0.2,0.1-0.3,0.2L5.3,24.2c-0.1,0.2,0,0.4,0.2,0.4c0,0,0.1,0,0.1,0
						h11.4c0.2,0,0.3-0.2,0.3-0.3c0,0,0-0.1,0-0.1l-4.6-10.4C12.7,13.7,12.6,13.6,12.5,13.6 M8.2,22.6l3-6.7c0-0.1,0.1-0.1,0.2-0.1
						c0,0,0.1,0,0.1,0.1l3,6.7c0,0.1,0,0.2-0.1,0.2c0,0,0,0-0.1,0h-6C8.3,22.8,8.2,22.7,8.2,22.6C8.2,22.6,8.2,22.6,8.2,22.6"/>
					<path id="Path_4" fill="#F2F2F2" d="M34.2,4.1c10.9,5.8,15,19.4,9.2,30.2C37.7,45,24.6,49.2,13.8,43.8L13,45.3
						c11.9,5.9,26.3,1.1,32.2-10.8C51,22.9,46.5,8.8,35,2.7L34.2,4.1z"/>
					<path id="Path_5" fill="#F2F2F2" d="M13.8,43.9C2.8,38.1-1.4,24.6,4.4,13.7C10,2.9,23.3-1.4,34.2,4.1L35,2.7
						C23.2-3.4,8.8,1.2,2.7,13S1.2,39.2,13,45.3L13.8,43.9z"/>
					<path id="Path_6" fill="#F2F2F2" d="M68.8,18.8v3.5c1.5-2.6,3.4-3.8,5.8-3.8c2.4-0.2,4.6,1.6,4.8,4.1c1.5-2.8,3.4-4.1,6-4.1
						c2.5,0,4.9,1.3,4.9,5.9v9.3h-2.1v-9c0-3-1.3-4.2-3.3-4.2c-2.3,0-4.1,1.7-5.4,5.1v8.1h-2.1v-9c0-3-1.3-4.2-3.3-4.2
						c-2.4,0-4,1.7-5.4,5.1v8.1h-2.1V18.8H68.8z"/>
					<path id="Path_7" fill="#F2F2F2" d="M98.7,33.9l-6.1-15.1h2.5l4.7,12.3l4.4-12.3h2.4l-8.1,20.9h-2.3L98.7,33.9L98.7,33.9z"/>
					<path id="Path_8" fill="#F2F2F2" d="M120.7,13.6v2.1H112v6.9h7.5v2.1H112v7h8.7v2.1h-11V13.6H120.7z"/>
					<path id="Path_9" fill="#F2F2F2" d="M126.5,18.8v3.5c1.5-2.6,3.5-3.8,5.9-3.8c2.5,0,5,1.3,5,5.9v9.3h-2.1v-9
						c0-3-1.4-4.2-3.3-4.2c-2.5,0-4.2,1.7-5.5,5.1v8.1h-2.1V18.8H126.5z"/>
					<path id="Path_10" fill="#F2F2F2" d="M148.2,18.5c3.8,0,6.9,2.6,6.9,7.8c0,0.3,0,0.5-0.1,0.8h-11.8c0.2,3.3,2.1,5,5.5,5
						c1.8,0.1,3.6-0.4,5.1-1.3l0.5,1.7c-1.7,1-3.7,1.6-5.7,1.5c-4.7,0-7.7-2.7-7.7-7.6C140.9,21.3,144.3,18.5,148.2,18.5
						 M148.1,20.4c-2.6,0-4.5,1.6-4.9,4.8h9.5C152.5,22,150.7,20.4,148.1,20.4"/>
					<path id="Path_11" fill="#F2F2F2" d="M160.8,18.8v3.5c1.2-2.1,2.9-3.8,5.1-3.8c0.5,0,1,0.1,1.5,0.3l-0.5,1.9
						c-0.4-0.1-0.8-0.2-1.2-0.2c-2.2,0-3.9,2.1-5,5v8.2h-2.1V18.8H160.8z"/>
					<path id="Path_12" fill="#F2F2F2" d="M169.8,36c1.8,1.2,4,1.9,6.2,2c2.9,0,5.4-1.6,5.4-4.4v-3.1c-1.1,2.1-3.4,3.3-5.7,3.2
						c-4,0-7.2-2.6-7.2-7.5c0-5,3.2-7.7,7.2-7.7c2.4-0.1,4.6,1.2,5.7,3.3v-3h2.1v14.7c0,4-3.5,6.5-7.6,6.5c-2.3,0-4.6-0.6-6.5-1.9
						L169.8,36z M175.6,20.4c-2.9,0-5,1.6-5,5.7c0,3.7,2.2,5.6,5,5.6c3.1,0,5.1-2.2,5.7-5.5C180.9,23,178.5,20.4,175.6,20.4"/>
					<path id="Path_13" fill="#F2F2F2" d="M192.2,33.9l-6.1-15.1h2.5l4.7,12.3l4.4-12.3h2.4l-8.1,20.9h-2.3L192.2,33.9L192.2,33.9z"
						/>
					<path id="Path_14" fill="#F2F2F2" d="M198.8,15.7v-2.1h15.4v2.1h-6.6v18h-2.2v-18H198.8z"/>
					<path id="Path_15" fill="#F2F2F2" d="M218.1,12.7c0.9,0,1.6,0.7,1.6,1.6c0,0.9-0.7,1.6-1.6,1.6c-0.9,0-1.6-0.7-1.6-1.6
						C216.5,13.4,217.2,12.7,218.1,12.7C218.1,12.7,218.1,12.7,218.1,12.7 M219.1,33.7H217V18.8h2.1V33.7z"/>
					<path id="Path_16" fill="#F2F2F2" d="M226,18.8v3c1.1-2.1,3.3-3.4,5.7-3.3c4,0,7.2,2.8,7.2,7.8c0,4.9-3.2,7.7-7.2,7.7
						c-2.4,0.1-4.7-1.3-5.7-3.5v9.2h-2.1V18.8H226z M231.7,20.4c-2.9,0-5.2,2.6-5.7,5.8c0.6,3.3,2.6,5.8,5.7,5.8c2.9,0,5-2.1,5-5.7
						C236.7,22.2,234.6,20.4,231.7,20.4"/>
					<path id="Path_17" fill="#F2F2F2" d="M242,30.9c1.4,0.7,2.9,1.1,4.4,1.1c2.1,0,3.6-0.5,3.6-2.3c0-3.8-8.3-0.7-8.3-6.9
						c0-2.6,1.9-4.4,5.5-4.4c1.6,0,3.1,0.4,4.5,1.1l-0.6,2c-1.2-0.7-2.5-1.1-3.9-1.1c-1.8,0-3.3,0.7-3.3,2.3c0,4.3,8.2,1.1,8.2,6.9
						c0,2.7-2.7,4.4-5.7,4.4c-1.7,0-3.4-0.4-5-1.1L242,30.9z"/>
				</g>
			</g>
		</g>
	</g>
</g>
</svg>
