<svg xmlns="http://www.w3.org/2000/svg" xmlns:xlink="http://www.w3.org/1999/xlink" width="203" height="48" viewBox="0 0 203 48">
  <defs>
    <clipPath id="clip-path">
      <rect id="Rectangle_69" data-name="Rectangle 69" width="200.159" height="48" fill="#f2f2f2"/>
    </clipPath>
    <clipPath id="clip-DEH_myEnergy_Offwhite">
      <rect width="203" height="48"/>
    </clipPath>
  </defs>
  <g id="DEH_myEnergy_Offwhite" data-name="DEH_myEnergy Offwhite" clip-path="url(#clip-DEH_myEnergy_Offwhite)">
    <g id="Group_250" data-name="Group 250">
      <g id="Group_249" data-name="Group 249" clip-path="url(#clip-path)">
        <path id="Path_1470" data-name="Path 1470" d="M89.064,58.929h-1.63a.191.191,0,0,0-.191.191V63.3a.143.143,0,0,1-.143.143H82.078a.143.143,0,0,1-.143-.143l0-4.18a.191.191,0,0,0-.191-.191h-1.63a.191.191,0,0,0-.191.191V69.783a.191.191,0,0,0,.191.191h1.634a.19.19,0,0,0,.191-.191l0-4.18a.143.143,0,0,1,.143-.143l5.022,0a.143.143,0,0,1,.143.143v4.183a.191.191,0,0,0,.191.191h1.634a.191.191,0,0,0,.191-.191l0-10.663a.191.191,0,0,0-.191-.191" transform="translate(-49.208 -36.283)" fill="#f2f2f2"/>
        <path id="Path_1471" data-name="Path 1471" d="M59.657,48.957V47.371a.191.191,0,0,0-.191-.191H50.987a.191.191,0,0,0-.191.191V58.034a.191.191,0,0,0,.191.191l8.479,0a.191.191,0,0,0,.191-.191V56.447a.191.191,0,0,0-.191-.191H52.955a.143.143,0,0,1-.143-.143v-2.28a.143.143,0,0,1,.143-.143l5.033,0a.191.191,0,0,0,.191-.191V51.909a.191.191,0,0,0-.191-.191H52.953a.143.143,0,0,1-.143-.143V49.294a.143.143,0,0,1,.143-.143l6.514,0a.191.191,0,0,0,.191-.191" transform="translate(-31.276 -29.049)" fill="#f2f2f2"/>
        <path id="Path_1472" data-name="Path 1472" d="M20.99,35.434H18.745a.294.294,0,0,0-.269.174L13.848,46a.338.338,0,0,0,.309.476l11.425,0A.338.338,0,0,0,25.891,46L21.258,35.608a.294.294,0,0,0-.269-.174M16.753,44.37l3-6.721a.129.129,0,0,1,.236,0l3,6.721a.146.146,0,0,1-.133.205H16.886a.146.146,0,0,1-.133-.205" transform="translate(-8.508 -21.817)" fill="#f2f2f2"/>
        <path id="Path_1473" data-name="Path 1473" d="M55.057,8.438a22.34,22.34,0,0,1-20.489,39.7l-.759,1.47A23.994,23.994,0,0,0,55.815,6.968Z" transform="translate(-20.817 -4.29)" fill="#f2f2f2"/>
        <path id="Path_1474" data-name="Path 1474" d="M13.751,43.852A22.34,22.34,0,0,1,34.24,4.148L35,2.678A23.994,23.994,0,0,0,12.992,45.322Z" transform="translate(0 0)" fill="#f2f2f2"/>
        <path id="Path_1475" data-name="Path 1475" d="M175.622,48.38v3.484c1.485-2.6,3.37-3.8,5.825-3.8a4.524,4.524,0,0,1,4.8,4.083c1.514-2.8,3.427-4.083,5.968-4.083,2.484,0,4.94,1.285,4.94,5.94v9.281h-2.142v-9c0-2.97-1.342-4.226-3.256-4.226-2.341,0-4.055,1.714-5.368,5.112v8.11h-2.142v-9c0-2.97-1.342-4.226-3.255-4.226-2.37,0-4.027,1.714-5.368,5.14v8.082H173.48V48.38Z" transform="translate(-106.814 -29.595)" fill="#f2f2f2"/>
        <path id="Path_1476" data-name="Path 1476" d="M247.227,63.99l-6.054-15.106h2.456L248.34,61.22l4.369-12.336h2.427l-8.053,20.875H244.8l2.456-5.769Z" transform="translate(-148.493 -30.098)" fill="#f2f2f2"/>
        <path id="Path_1477" data-name="Path 1477" d="M296.647,35.433V37.49h-8.738V44.4h7.482v2.056h-7.482v7h8.738v2.056H285.682V35.433Z" transform="translate(-175.898 -21.817)" fill="#f2f2f2"/>
        <path id="Path_1478" data-name="Path 1478" d="M325.794,48.38v3.512c1.542-2.627,3.484-3.826,5.94-3.826,2.513,0,4.969,1.285,4.969,5.94v9.281H334.56v-9c0-2.97-1.371-4.226-3.255-4.226-2.542,0-4.169,1.685-5.511,5.112v8.11h-2.142V48.38Z" transform="translate(-199.277 -29.595)" fill="#f2f2f2"/>
        <path id="Path_1479" data-name="Path 1479" d="M374,48.066c3.8,0,6.882,2.57,6.882,7.767a6.589,6.589,0,0,1-.057.8H369.033c.2,3.341,2.142,4.969,5.511,4.969a9.307,9.307,0,0,0,5.112-1.313l.486,1.742a10.777,10.777,0,0,1-5.711,1.542c-4.712,0-7.682-2.741-7.682-7.568,0-5.112,3.341-7.939,7.253-7.939m-.057,1.97c-2.6,0-4.512,1.571-4.883,4.769H378.6c-.286-3.255-2.113-4.769-4.655-4.769" transform="translate(-225.812 -29.595)" fill="#f2f2f2"/>
        <path id="Path_1480" data-name="Path 1480" d="M414.96,48.426v3.484c1.171-2.056,2.856-3.769,5.112-3.769a4.172,4.172,0,0,1,1.513.286l-.457,1.885a3.548,3.548,0,0,0-1.171-.228c-2.17,0-3.941,2.142-5,5.026v8.224h-2.142V48.426Z" transform="translate(-254.178 -29.64)" fill="#f2f2f2"/>
        <path id="Path_1481" data-name="Path 1481" d="M439.555,65.6a11.394,11.394,0,0,0,6.2,1.971c2.856,0,5.368-1.6,5.368-4.427V60.088a6.18,6.18,0,0,1-5.74,3.2c-4.027,0-7.225-2.627-7.225-7.539,0-5,3.2-7.681,7.225-7.681a6.355,6.355,0,0,1,5.74,3.341V48.38h2.142V63.058c0,4.026-3.455,6.482-7.6,6.482a11.578,11.578,0,0,1-6.54-1.913Zm5.854-15.563c-2.856,0-5.026,1.628-5.026,5.683,0,3.655,2.17,5.6,5.026,5.6,3.141,0,5.112-2.2,5.711-5.483-.485-3.2-2.8-5.8-5.711-5.8" transform="translate(-269.778 -29.595)" fill="#f2f2f2"/>
        <path id="Path_1482" data-name="Path 1482" d="M490.575,63.99l-6.054-15.106h2.456l4.712,12.336,4.369-12.336h2.427l-8.053,20.875h-2.285L490.6,63.99Z" transform="translate(-298.326 -30.098)" fill="#f2f2f2"/>
      </g>
    </g>
  </g>
</svg>
