<svg xmlns="http://www.w3.org/2000/svg" xmlns:xlink="http://www.w3.org/1999/xlink" width="296" height="48" viewBox="0 0 296 48">
  <defs>
    <clipPath id="clip-path">
      <rect id="Rectangle_118" data-name="Rectangle 118" width="292.789" height="48" fill="#f2f2f2"/>
    </clipPath>
    <clipPath id="clip-DEH_myBusinessEnter_off-white">
      <rect width="296" height="48"/>
    </clipPath>
  </defs>
  <g id="DEH_myBusinessEnter_off-white" data-name="DEH_myBusinessEnter off-white" clip-path="url(#clip-DEH_myBusinessEnter_off-white)">
    <g id="Group_329" data-name="Group 329">
      <g id="Group_328" data-name="Group 328" clip-path="url(#clip-path)">
        <path id="Path_2104" data-name="Path 2104" d="M89.064,58.929h-1.63a.191.191,0,0,0-.191.191V63.3a.143.143,0,0,1-.143.143H82.078a.143.143,0,0,1-.143-.143l0-4.18a.191.191,0,0,0-.191-.191h-1.63a.191.191,0,0,0-.191.191V69.783a.191.191,0,0,0,.191.191h1.634a.191.191,0,0,0,.191-.191l0-4.18a.143.143,0,0,1,.143-.143l5.022,0a.143.143,0,0,1,.143.143v4.183a.191.191,0,0,0,.191.191h1.634a.191.191,0,0,0,.191-.191l0-10.663a.191.191,0,0,0-.191-.191" transform="translate(-49.208 -36.283)" fill="#f2f2f2"/>
        <path id="Path_2105" data-name="Path 2105" d="M59.657,48.957V47.371a.191.191,0,0,0-.191-.191H50.987a.191.191,0,0,0-.191.191V58.034a.191.191,0,0,0,.191.191l8.479,0a.191.191,0,0,0,.191-.191V56.447a.191.191,0,0,0-.191-.191H52.955a.143.143,0,0,1-.143-.143v-2.28a.143.143,0,0,1,.143-.143l5.033,0a.191.191,0,0,0,.191-.191V51.909a.191.191,0,0,0-.191-.191H52.953a.143.143,0,0,1-.143-.143V49.294a.143.143,0,0,1,.143-.143l6.514,0a.191.191,0,0,0,.191-.191" transform="translate(-31.276 -29.049)" fill="#f2f2f2"/>
        <path id="Path_2106" data-name="Path 2106" d="M20.99,35.433H18.745a.294.294,0,0,0-.269.174L13.848,46a.338.338,0,0,0,.309.476l11.425,0A.338.338,0,0,0,25.891,46L21.258,35.607a.294.294,0,0,0-.269-.174M16.753,44.37l3-6.722a.129.129,0,0,1,.236,0l3,6.722a.146.146,0,0,1-.133.206H16.886a.146.146,0,0,1-.133-.206" transform="translate(-8.508 -21.817)" fill="#f2f2f2"/>
        <path id="Path_2107" data-name="Path 2107" d="M55.057,8.438a22.34,22.34,0,0,1-20.489,39.7l-.759,1.47A23.994,23.994,0,0,0,55.815,6.968Z" transform="translate(-20.817 -4.29)" fill="#f2f2f2"/>
        <path id="Path_2108" data-name="Path 2108" d="M13.751,43.852A22.34,22.34,0,0,1,34.24,4.148L35,2.678A23.994,23.994,0,0,0,12.992,45.322Z" transform="translate(0 0)" fill="#f2f2f2"/>
        <path id="Path_2109" data-name="Path 2109" d="M175.622,48.382v3.484c1.485-2.6,3.369-3.8,5.825-3.8a4.523,4.523,0,0,1,4.8,4.083c1.513-2.8,3.427-4.083,5.968-4.083,2.484,0,4.94,1.285,4.94,5.94v9.281h-2.142v-9c0-2.97-1.342-4.226-3.255-4.226-2.341,0-4.055,1.714-5.368,5.112v8.11h-2.142v-9c0-2.97-1.342-4.226-3.255-4.226-2.37,0-4.027,1.714-5.368,5.14v8.082H173.48V48.382Z" transform="translate(-106.814 -29.596)" fill="#f2f2f2"/>
        <path id="Path_2110" data-name="Path 2110" d="M247.227,63.99l-6.054-15.107h2.456L248.34,61.22l4.369-12.337h2.427l-8.053,20.875H244.8l2.456-5.769Z" transform="translate(-148.493 -30.098)" fill="#f2f2f2"/>
        <path id="Path_2111" data-name="Path 2111" d="M290.25,35.435c3.6,0,6.539,1.37,6.539,5.283a4.6,4.6,0,0,1-2.6,4.4c2.484.742,4,2.428,4,4.826,0,3.427-2.97,5.569-6.853,5.569h-5.654V35.435Zm4.2,5.283c0-2.284-1.513-3.227-4.226-3.227h-2.313v6.883h2.342c2.713,0,4.2-1.371,4.2-3.655m1.4,9.109c0-2.056-1.8-3.627-4.855-3.627h-3.084v7.253h3.513c3,0,4.426-1.8,4.426-3.627" transform="translate(-175.898 -21.818)" fill="#f2f2f2"/>
        <path id="Path_2112" data-name="Path 2112" d="M327.144,48.884h2.142v9c0,2.941,1.371,4.2,3.2,4.2,2.456,0,4.112-1.657,5.369-5.054V48.884h2.142V63.791h-2.142v-3.37c-1.428,2.513-3.313,3.655-5.826,3.655-2.456,0-4.883-1.256-4.883-5.94Z" transform="translate(-201.427 -30.099)" fill="#f2f2f2"/>
        <path id="Path_2113" data-name="Path 2113" d="M370.321,60.518a9.284,9.284,0,0,0,4.4,1.085c2.085,0,3.57-.543,3.57-2.313,0-3.826-8.281-.657-8.281-6.853,0-2.6,1.941-4.369,5.454-4.369a9.83,9.83,0,0,1,4.483,1.113l-.571,1.971a7.436,7.436,0,0,0-3.884-1.114c-1.8,0-3.284.742-3.284,2.285,0,4.283,8.224,1.085,8.224,6.853,0,2.741-2.656,4.4-5.74,4.4a12.288,12.288,0,0,1-4.969-1.113Z" transform="translate(-227.642 -29.596)" fill="#f2f2f2"/>
        <path id="Path_2114" data-name="Path 2114" d="M406.957,32.981a1.591,1.591,0,0,1,1.6,1.571,1.61,1.61,0,0,1-1.6,1.571,1.585,1.585,0,0,1-1.571-1.571,1.566,1.566,0,0,1,1.571-1.571M408.042,54H405.9V39.092h2.142Z" transform="translate(-249.602 -20.307)" fill="#f2f2f2"/>
        <path id="Path_2115" data-name="Path 2115" d="M426.774,48.382v3.513c1.542-2.627,3.484-3.826,5.94-3.826,2.513,0,4.969,1.285,4.969,5.94v9.281h-2.142v-9c0-2.97-1.371-4.226-3.256-4.226-2.541,0-4.17,1.685-5.511,5.112v8.11h-2.142V48.382Z" transform="translate(-261.452 -29.596)" fill="#f2f2f2"/>
        <path id="Path_2116" data-name="Path 2116" d="M474.98,48.067c3.8,0,6.883,2.57,6.883,7.767a6.6,6.6,0,0,1-.057.8H470.012c.2,3.341,2.142,4.969,5.511,4.969a9.305,9.305,0,0,0,5.111-1.313l.485,1.742a10.78,10.78,0,0,1-5.711,1.542c-4.712,0-7.682-2.741-7.682-7.567,0-5.111,3.341-7.939,7.253-7.939m-.057,1.97c-2.6,0-4.512,1.571-4.883,4.769h9.538c-.286-3.255-2.113-4.769-4.654-4.769" transform="translate(-287.986 -29.596)" fill="#f2f2f2"/>
        <path id="Path_2117" data-name="Path 2117" d="M511.2,60.518a9.284,9.284,0,0,0,4.4,1.085c2.085,0,3.57-.543,3.57-2.313,0-3.826-8.281-.657-8.281-6.853,0-2.6,1.941-4.369,5.454-4.369a9.829,9.829,0,0,1,4.483,1.113l-.571,1.971a7.436,7.436,0,0,0-3.884-1.114c-1.8,0-3.284.742-3.284,2.285,0,4.283,8.224,1.085,8.224,6.853,0,2.741-2.656,4.4-5.74,4.4A12.283,12.283,0,0,1,510.6,62.46Z" transform="translate(-314.385 -29.596)" fill="#f2f2f2"/>
        <path id="Path_2118" data-name="Path 2118" d="M545.01,60.518a9.284,9.284,0,0,0,4.4,1.085c2.085,0,3.57-.543,3.57-2.313,0-3.826-8.281-.657-8.281-6.853,0-2.6,1.941-4.369,5.454-4.369a9.83,9.83,0,0,1,4.483,1.113l-.571,1.971a7.436,7.436,0,0,0-3.884-1.114c-1.8,0-3.284.742-3.284,2.285,0,4.283,8.224,1.085,8.224,6.853,0,2.741-2.656,4.4-5.74,4.4a12.287,12.287,0,0,1-4.969-1.113Z" transform="translate(-335.201 -29.596)" fill="#f2f2f2"/>
        <path id="Path_2119" data-name="Path 2119" d="M593.272,35.434V37.49h-8.738V44.4h7.482v2.056h-7.482v7h8.738v2.056H582.307V35.434Z" transform="translate(-358.534 -21.817)" fill="#f2f2f2"/>
        <path id="Path_2120" data-name="Path 2120" d="M622.419,48.382v3.513c1.542-2.627,3.484-3.826,5.94-3.826,2.513,0,4.969,1.285,4.969,5.94v9.281h-2.142v-9c0-2.97-1.371-4.226-3.256-4.226-2.541,0-4.17,1.685-5.511,5.112v8.11h-2.142V48.382Z" transform="translate(-381.913 -29.596)" fill="#f2f2f2"/>
        <path id="Path_2121" data-name="Path 2121" d="M663.486,43.482h-2.713V41.655h2.713V37.143h2.142v4.512h5.54v1.828h-5.54V51.25c0,2.77,1.2,3.655,2.828,3.655a6.325,6.325,0,0,0,3.027-.8l.542,1.742a7.972,7.972,0,0,1-4,1c-2.513,0-4.54-1.484-4.54-5.254Z" transform="translate(-406.847 -22.869)" fill="#f2f2f2"/>
        <path id="Path_2122" data-name="Path 2122" d="M700.274,48.067c3.8,0,6.883,2.57,6.883,7.767a6.59,6.59,0,0,1-.057.8H695.306c.2,3.341,2.142,4.969,5.511,4.969a9.306,9.306,0,0,0,5.112-1.313l.485,1.742a10.78,10.78,0,0,1-5.711,1.542c-4.712,0-7.682-2.741-7.682-7.567,0-5.111,3.341-7.939,7.253-7.939m-.057,1.97c-2.6,0-4.512,1.571-4.883,4.769h9.538c-.286-3.255-2.113-4.769-4.654-4.769" transform="translate(-426.703 -29.596)" fill="#f2f2f2"/>
        <path id="Path_2123" data-name="Path 2123" d="M741.234,48.427v3.484c1.171-2.056,2.856-3.769,5.112-3.769a4.171,4.171,0,0,1,1.513.285l-.457,1.885a3.548,3.548,0,0,0-1.171-.228c-2.17,0-3.941,2.142-5,5.026v8.224h-2.142V48.427Z" transform="translate(-455.069 -29.642)" fill="#f2f2f2"/>
      </g>
    </g>
  </g>
</svg>
