<svg xmlns="http://www.w3.org/2000/svg" xmlns:xlink="http://www.w3.org/1999/xlink" width="349" height="48" viewBox="0 0 349 48">
  <defs>
    <clipPath id="clip-path">
      <rect id="Rectangle_57" data-name="Rectangle 57" width="348.125" height="48" fill="#f2f2f2"/>
    </clipPath>
    <clipPath id="clip-DEH_myEnergyHeatPump-offwhite">
      <rect width="349" height="48"/>
    </clipPath>
  </defs>
  <g id="DEH_myEnergyHeatPump-offwhite" clip-path="url(#clip-DEH_myEnergyHeatPump-offwhite)">
    <g id="Group_226" data-name="Group 226">
      <g id="Group_225" data-name="Group 225" clip-path="url(#clip-path)">
        <path id="Path_1200" data-name="Path 1200" d="M89.067,58.94H87.438a.193.193,0,0,0-.192.192v4.181a.142.142,0,0,1-.142.142H82.082a.142.142,0,0,1-.142-.142V59.132a.193.193,0,0,0-.192-.192H80.118a.193.193,0,0,0-.192.192V69.795a.193.193,0,0,0,.192.192h1.633a.193.193,0,0,0,.192-.192l0-4.181a.142.142,0,0,1,.142-.142l5.022,0a.142.142,0,0,1,.142.142v4.181a.193.193,0,0,0,.192.192h1.633a.193.193,0,0,0,.192-.192l0-10.663a.189.189,0,0,0-.192-.188" transform="translate(-49.215 -36.293)" fill="#f2f2f2"/>
        <path id="Path_1201" data-name="Path 1201" d="M59.657,48.959V47.372a.193.193,0,0,0-.192-.192H50.988a.193.193,0,0,0-.192.192V58.035a.193.193,0,0,0,.192.192l8.476,0a.193.193,0,0,0,.192-.192V56.448a.193.193,0,0,0-.192-.192H52.955a.142.142,0,0,1-.142-.142V53.835a.142.142,0,0,1,.142-.142l5.034,0a.193.193,0,0,0,.192-.192V51.91a.193.193,0,0,0-.192-.192H52.955a.142.142,0,0,1-.142-.142V49.293a.142.142,0,0,1,.142-.142l6.513,0a.184.184,0,0,0,.188-.188" transform="translate(-31.278 -29.051)" fill="#f2f2f2"/>
        <path id="Path_1202" data-name="Path 1202" d="M21,35.44H18.754a.3.3,0,0,0-.269.173l-4.626,10.4a.339.339,0,0,0,.307.476l11.424,0a.338.338,0,0,0,.307-.476l-4.63-10.39A.3.3,0,0,0,21,35.44M16.76,44.378l3-6.72a.127.127,0,0,1,.234,0l3,6.72a.145.145,0,0,1-.134.2h-5.96a.146.146,0,0,1-.134-.2" transform="translate(-8.515 -21.822)" fill="#f2f2f2"/>
        <path id="Path_1203" data-name="Path 1203" d="M55.061,8.448a22.338,22.338,0,0,1-20.488,39.7l-.757,1.472A23.992,23.992,0,0,0,55.822,6.98Z" transform="translate(-20.822 -4.298)" fill="#f2f2f2"/>
        <path id="Path_1204" data-name="Path 1204" d="M13.751,43.85A22.338,22.338,0,0,1,34.239,4.15L35,2.678A23.992,23.992,0,0,0,12.99,45.318Z" transform="translate(0 0)" fill="#f2f2f2"/>
        <path id="Path_1205" data-name="Path 1205" d="M175.632,48.391v3.485c1.483-2.6,3.37-3.8,5.825-3.8a4.521,4.521,0,0,1,4.8,4.085c1.514-2.8,3.427-4.085,5.967-4.085,2.482,0,4.941,1.283,4.941,5.94V63.3h-2.14v-9c0-2.97-1.341-4.227-3.255-4.227-2.34,0-4.054,1.714-5.368,5.11V63.3h-2.14V54.3c0-2.97-1.341-4.227-3.255-4.227-2.371,0-4.027,1.714-5.368,5.141V63.3H173.5V48.391Z" transform="translate(-106.831 -29.605)" fill="#f2f2f2"/>
        <path id="Path_1206" data-name="Path 1206" d="M247.238,63.995l-6.052-15.1h2.455l4.711,12.334,4.369-12.334h2.428L247.1,69.762h-2.282l2.455-5.768h-.031" transform="translate(-148.511 -30.104)" fill="#f2f2f2"/>
        <path id="Path_1207" data-name="Path 1207" d="M296.652,35.44V37.5h-8.738V44.4H295.4V46.46h-7.481v7h8.738v2.056H285.686V35.44Z" transform="translate(-175.912 -21.822)" fill="#f2f2f2"/>
        <path id="Path_1208" data-name="Path 1208" d="M325.8,48.385V51.9c1.541-2.628,3.485-3.827,5.94-3.827,2.513,0,4.968,1.283,4.968,5.94v9.28h-2.14V54.3c0-2.97-1.372-4.227-3.255-4.227-2.54,0-4.169,1.683-5.51,5.11V63.29h-2.14v-14.9Z" transform="translate(-199.299 -29.599)" fill="#f2f2f2"/>
        <path id="Path_1209" data-name="Path 1209" d="M374,48.08c3.8,0,6.882,2.571,6.882,7.766a6.135,6.135,0,0,1-.058.8H369.032c.2,3.339,2.14,4.968,5.51,4.968a9.281,9.281,0,0,0,5.11-1.314l.484,1.741a10.761,10.761,0,0,1-5.71,1.541c-4.711,0-7.681-2.74-7.681-7.566,0-5.11,3.343-7.935,7.255-7.935m-.058,1.967c-2.6,0-4.511,1.572-4.884,4.768H378.6c-.284-3.255-2.109-4.768-4.653-4.768" transform="translate(-225.825 -29.605)" fill="#f2f2f2"/>
        <path id="Path_1210" data-name="Path 1210" d="M414.966,48.434v3.485c1.172-2.056,2.855-3.769,5.11-3.769a4.179,4.179,0,0,1,1.514.284l-.457,1.883a3.553,3.553,0,0,0-1.172-.227c-2.171,0-3.939,2.14-5,5.026v8.223h-2.14v-14.9Z" transform="translate(-254.199 -29.649)" fill="#f2f2f2"/>
        <path id="Path_1211" data-name="Path 1211" d="M439.559,65.6a11.391,11.391,0,0,0,6.194,1.971c2.855,0,5.368-1.6,5.368-4.427V60.093a6.177,6.177,0,0,1-5.741,3.2c-4.027,0-7.224-2.628-7.224-7.539,0-5,3.2-7.681,7.224-7.681a6.359,6.359,0,0,1,5.741,3.339V48.381h2.14V63.059c0,4.027-3.454,6.482-7.6,6.482a11.576,11.576,0,0,1-6.54-1.914Zm5.852-15.562c-2.855,0-5.026,1.629-5.026,5.683,0,3.654,2.171,5.6,5.026,5.6,3.139,0,5.11-2.2,5.71-5.483-.484-3.2-2.8-5.8-5.71-5.8" transform="translate(-269.796 -29.599)" fill="#f2f2f2"/>
        <path id="Path_1212" data-name="Path 1212" d="M490.578,63.995l-6.052-15.1h2.455l4.711,12.334,4.369-12.334h2.428l-8.054,20.872h-2.286l2.455-5.768h-.027" transform="translate(-298.349 -30.104)" fill="#f2f2f2"/>
        <path id="Path_1213" data-name="Path 1213" d="M531.264,35.44V44.4H543.6V35.44h2.229V55.513H543.6V46.491H531.264v9.022h-2.229V35.44Z" transform="translate(-325.756 -21.822)" fill="#f2f2f2"/>
        <path id="Path_1214" data-name="Path 1214" d="M589.941,48.08c3.8,0,6.882,2.571,6.882,7.766a6.136,6.136,0,0,1-.058.8H584.972c.2,3.339,2.14,4.968,5.51,4.968a9.281,9.281,0,0,0,5.11-1.314l.484,1.741a10.761,10.761,0,0,1-5.71,1.541c-4.711,0-7.681-2.74-7.681-7.566,0-5.11,3.343-7.935,7.255-7.935m-.058,1.967c-2.6,0-4.511,1.572-4.884,4.768h9.537c-.284-3.255-2.113-4.768-4.653-4.768" transform="translate(-358.791 -29.605)" fill="#f2f2f2"/>
        <path id="Path_1215" data-name="Path 1215" d="M633.261,48.08a6.4,6.4,0,0,1,5.71,3.281v-2.97h2.14V63.3h-2.14V60.157a6.212,6.212,0,0,1-5.71,3.427c-4.054,0-7.255-2.74-7.255-7.681,0-5,3.2-7.823,7.255-7.823m.027,1.967c-2.882,0-5.026,1.8-5.026,5.825,0,3.654,2.14,5.741,5.026,5.741,3.112,0,5.084-2.482,5.683-5.768-.488-3.2-2.828-5.8-5.683-5.8" transform="translate(-385.466 -29.605)" fill="#f2f2f2"/>
        <path id="Path_1216" data-name="Path 1216" d="M675.379,43.49h-2.713V41.661h2.713V37.15h2.14v4.511h5.541V43.49h-5.537v7.766c0,2.77,1.2,3.654,2.828,3.654a6.343,6.343,0,0,0,3.028-.8l.542,1.741a7.984,7.984,0,0,1-4,1c-2.513,0-4.542-1.483-4.542-5.253V43.49Z" transform="translate(-414.197 -22.875)" fill="#f2f2f2"/>
        <path id="Path_1217" data-name="Path 1217" d="M713.467,35.44c4.142,0,7.339,1.914,7.339,6.309,0,4.284-3.454,6.252-7.339,6.252h-2.083v7.508h-2.229V35.44Zm5,6.455c0-2.913-1.683-4.4-4.941-4.4h-2.14v8.453h2.171c3.228,0,4.911-1.8,4.911-4.058" transform="translate(-436.666 -21.822)" fill="#f2f2f2"/>
        <path id="Path_1218" data-name="Path 1218" d="M747.42,48.89h2.14v9c0,2.939,1.372,4.2,3.2,4.2,2.455,0,4.111-1.656,5.368-5.053V48.89h2.14v14.9h-2.14v-3.37c-1.426,2.513-3.312,3.654-5.825,3.654-2.455,0-4.884-1.256-4.884-5.94V48.89Z" transform="translate(-460.224 -30.104)" fill="#f2f2f2"/>
        <path id="Path_1219" data-name="Path 1219" d="M795.342,48.391v3.485c1.483-2.6,3.37-3.8,5.825-3.8a4.521,4.521,0,0,1,4.8,4.085c1.514-2.8,3.427-4.085,5.967-4.085,2.482,0,4.941,1.283,4.941,5.94V63.3h-2.14v-9c0-2.97-1.341-4.227-3.255-4.227-2.34,0-4.054,1.714-5.368,5.11V63.3h-2.14V54.3c0-2.97-1.341-4.227-3.255-4.227-2.371,0-4.027,1.714-5.368,5.141V63.3h-2.14V48.391Z" transform="translate(-488.42 -29.605)" fill="#f2f2f2"/>
        <path id="Path_1220" data-name="Path 1220" d="M868.826,48.391v3.028a6.326,6.326,0,0,1,5.741-3.339c4.027,0,7.224,2.828,7.224,7.823,0,4.941-3.2,7.681-7.224,7.681a6.155,6.155,0,0,1-5.741-3.485v9.222h-2.14V48.391Zm5.71,1.656c-2.886,0-5.226,2.6-5.71,5.794.6,3.285,2.6,5.768,5.71,5.768,2.882,0,5-2.083,5-5.741,0-4.023-2.11-5.821-5-5.821" transform="translate(-533.665 -29.605)" fill="#f2f2f2"/>
      </g>
    </g>
  </g>
</svg>
