<svg xmlns="http://www.w3.org/2000/svg" xmlns:xlink="http://www.w3.org/1999/xlink" width="235" height="48" viewBox="0 0 235 48">
  <defs>
    <clipPath id="clip-econtract_logo_RGB-OffWhite-negativesafeArea2H">
      <rect width="235" height="48"/>
    </clipPath>
  </defs>
  <g id="econtract_logo_RGB-OffWhite-negativesafeArea2H" clip-path="url(#clip-econtract_logo_RGB-OffWhite-negativesafeArea2H)">
    <g id="Group_86" data-name="Group 86" transform="translate(-46.897 -46.897)">
      <g id="Group_81" data-name="Group 81" transform="translate(104.235 54.329)">
        <path id="Path_303" data-name="Path 303" d="M203.232,79.327a12.258,12.258,0,0,1,8.743,3.128l-2.7,3.171a8.152,8.152,0,0,0-6-2.486,7.6,7.6,0,0,0-7.93,7.843c0,5.185,3.644,7.928,7.972,7.928a8.383,8.383,0,0,0,6.042-2.486l2.615,2.914a12.365,12.365,0,0,1-8.871,3.386c-7.371,0-12.259-4.671-12.259-11.7C190.846,84.255,196.033,79.327,203.232,79.327Z" transform="translate(-190.846 -73.841)" fill="#f2f2f2"/>
        <path id="Path_304" data-name="Path 304" d="M261.432,79.327c7.156,0,12.387,4.757,12.387,11.7,0,6.9-5.444,11.657-12.43,11.657-7.156,0-12.343-4.5-12.343-11.657C249.046,84.255,254.4,79.327,261.432,79.327Zm-.044,3.771a7.6,7.6,0,0,0-7.842,7.929c0,5.229,3.644,7.929,7.885,7.929a7.929,7.929,0,0,0-.044-15.857Z" transform="translate(-225.864 -73.841)" fill="#f2f2f2"/>
        <path id="Path_305" data-name="Path 305" d="M327.026,79.734v4.843c2.229-3.6,5.143-5.357,8.743-5.357,4.244,0,7.8,2.143,7.8,9.3v13.714h-4.286V88.948c0-4.157-1.758-5.957-4.5-5.957-3.514,0-5.872,2.314-7.758,7.157v12.085H322.74v-22.5Z" transform="translate(-270.204 -73.776)" fill="#f2f2f2"/>
        <path id="Path_306" data-name="Path 306" d="M383.2,75.026V71.512h4.031V65.555h4.242v5.957h5.4v3.514h-5.4V94.012h-4.242V75.026Z" transform="translate(-306.584 -65.555)" fill="#f2f2f2"/>
        <path id="Path_307" data-name="Path 307" d="M430.416,79.864V84.62c1.758-2.914,4.285-5.185,7.543-5.185a6.8,6.8,0,0,1,2.272.343l-.73,3.729a5.824,5.824,0,0,0-1.886-.343c-3.042,0-5.613,2.871-7.2,7.071v12.128H426.13v-22.5Z" transform="translate(-332.412 -73.906)" fill="#f2f2f2"/>
        <path id="Path_308" data-name="Path 308" d="M474.047,79.112a9.484,9.484,0,0,1,8.312,4.543V79.669h4.286v22.5H482.36V97.754a9.151,9.151,0,0,1-8.312,4.886c-6,0-11.015-4.114-11.015-11.7S467.96,79.112,474.047,79.112Zm8.312,11.657c-.9-4.628-4.114-7.886-7.928-7.886-3.943,0-6.9,2.572-6.9,8.014,0,5.057,2.956,7.972,6.9,7.972,4.2,0,7.029-3.429,7.928-7.929Z" transform="translate(-354.615 -73.712)" fill="#f2f2f2"/>
        <path id="Path_309" data-name="Path 309" d="M546.421,79.327a12.258,12.258,0,0,1,8.743,3.128l-2.7,3.171a8.152,8.152,0,0,0-6-2.486,7.6,7.6,0,0,0-7.929,7.843c0,5.185,3.644,7.928,7.971,7.928a8.383,8.383,0,0,0,6.042-2.486l2.615,2.914a12.364,12.364,0,0,1-8.87,3.386c-7.371,0-12.259-4.671-12.259-11.7C534.034,84.255,539.221,79.327,546.421,79.327Z" transform="translate(-397.336 -73.841)" fill="#f2f2f2"/>
        <path id="Path_310" data-name="Path 310" d="M591.374,75.026V71.512H595.4V65.555h4.242v5.957h5.4v3.514h-5.4V94.012H595.4V75.026Z" transform="translate(-431.836 -65.555)" fill="#f2f2f2"/>
      </g>
      <g id="Group_85" data-name="Group 85" transform="translate(46.897 46.897)">
        <g id="Group_82" data-name="Group 82" transform="translate(12.787 12.253)">
          <path id="Path_311" data-name="Path 311" d="M90.23,77.658c5.958,0,10.758,3.814,10.758,11.785a7.073,7.073,0,0,1-.129,1.457H83.5c.427,4.5,3.128,6.685,7.842,6.685a14.936,14.936,0,0,0,7.714-1.929l.813,3.214a16.81,16.81,0,0,1-9.042,2.357C83.373,101.229,79,96.943,79,89.658,79,82.158,83.972,77.658,90.23,77.658ZM90.144,81.3c-3.6,0-6.044,2.186-6.6,6.514H96.486C96.058,83.4,93.7,81.3,90.144,81.3Z" transform="translate(-79.001 -77.658)" fill="#f2f2f2"/>
        </g>
        <g id="Group_83" data-name="Group 83" transform="translate(12.961 2.692)">
          <path id="Path_312" data-name="Path 312" d="M90.455,98.963a23.884,23.884,0,0,1-11.019-2.706l1.332-2.567a21.1,21.1,0,0,0,19.427-37.468l1.332-2.567A24.01,24.01,0,0,1,90.455,98.963Z" transform="translate(-79.436 -53.655)" fill="#f2f2f2"/>
        </g>
        <g id="Group_84" data-name="Group 84">
          <path id="Path_313" data-name="Path 313" d="M59.858,92.191a23.994,23.994,0,0,1,22.09-42.6l-1.332,2.567A21.1,21.1,0,0,0,61.19,89.624Z" transform="translate(-46.897 -46.897)" fill="#f2f2f2"/>
        </g>
      </g>
    </g>
  </g>
</svg>
