<svg width="61" height="60" viewBox="0 0 61 60" fill="none" xmlns="http://www.w3.org/2000/svg">
<path d="M53.0897 43.9935C52.3387 44.3876 51.5642 44.7344 50.7708 45.0318C48.2584 45.9762 45.598 46.4552 42.9172 46.4457C32.5697 46.4457 23.5567 39.2658 23.5567 30.0312C23.5702 28.7946 23.9097 27.584 24.5402 26.524C25.1708 25.4639 26.0697 24.5927 27.1444 24C17.7814 24.3977 15.375 34.2508 15.375 40.0169C15.375 56.3652 30.2727 58 33.4886 58C35.2168 58 37.8201 57.4919 39.3951 56.9838L39.6795 56.8954C45.7073 54.7917 50.8459 50.6776 54.2491 45.2307C54.348 45.0652 54.3905 44.8715 54.37 44.6793C54.3494 44.4871 54.2671 44.307 54.1355 44.1666C54.0039 44.0262 53.8304 43.9333 53.6415 43.902C53.4526 43.8707 53.2588 43.9029 53.0897 43.9935Z" fill="url(#paint0_linear_11169_196913)"/>
<path opacity="0.35" d="M53.0897 43.9935C52.3387 44.3876 51.5642 44.7344 50.7708 45.0318C48.2584 45.9762 45.598 46.4552 42.9172 46.4457C32.5697 46.4457 23.5567 39.2658 23.5567 30.0312C23.5702 28.7946 23.9097 27.584 24.5402 26.524C25.1708 25.4639 26.0697 24.5927 27.1444 24C17.7814 24.3977 15.375 34.2508 15.375 40.0169C15.375 56.3652 30.2727 58 33.4886 58C35.2168 58 37.8201 57.4919 39.3951 56.9838L39.6795 56.8954C45.7073 54.7917 50.8459 50.6776 54.2491 45.2307C54.348 45.0652 54.3905 44.8715 54.37 44.6793C54.3494 44.4871 54.2671 44.307 54.1355 44.1666C54.0039 44.0262 53.8304 43.9333 53.6415 43.902C53.4526 43.8707 53.2588 43.9029 53.0897 43.9935Z" fill="url(#paint1_radial_11169_196913)"/>
<path d="M25.5636 54.8404C23.6091 53.6431 21.9149 52.0752 20.5792 50.2276C19.0538 48.1684 18.0039 45.805 17.503 43.3032C17.0021 40.8014 17.0624 38.2218 17.6796 35.7454C18.2969 33.269 19.4561 30.9558 21.076 28.9682C22.6959 26.9805 24.7372 25.3667 27.0567 24.2397C27.7593 23.9149 28.9231 23.3518 30.4821 23.3735C31.5791 23.3818 32.6593 23.6403 33.6383 24.1287C34.6172 24.6171 35.4684 25.3222 36.1253 26.1888C37.0087 27.3606 37.493 28.7784 37.5086 30.2386C37.5086 30.1953 42.8882 13 19.9424 13C10.3029 13 2.37617 22.0091 2.37617 29.9354C2.33782 34.1224 3.24543 38.2652 5.03306 42.0631C7.96062 48.2114 13.0752 53.0856 19.4058 55.7604C25.7364 58.4351 32.8425 58.7243 39.375 56.5729C37.0864 57.2858 34.6681 57.5001 32.2873 57.201C29.9064 56.9019 27.6198 56.0965 25.5855 54.8404H25.5636Z" fill="url(#paint2_linear_11169_196913)"/>
<path opacity="0.41" d="M25.5636 54.8404C23.6091 53.6431 21.9149 52.0752 20.5792 50.2276C19.0538 48.1684 18.0039 45.805 17.503 43.3032C17.0021 40.8014 17.0624 38.2218 17.6796 35.7454C18.2969 33.269 19.4561 30.9558 21.076 28.9682C22.6959 26.9805 24.7372 25.3667 27.0567 24.2397C27.7593 23.9149 28.9231 23.3518 30.4821 23.3735C31.5791 23.3818 32.6593 23.6403 33.6383 24.1287C34.6172 24.6171 35.4684 25.3222 36.1253 26.1888C37.0087 27.3606 37.493 28.7784 37.5086 30.2386C37.5086 30.1953 42.8882 13 19.9424 13C10.3029 13 2.37617 22.0091 2.37617 29.9354C2.33782 34.1224 3.24543 38.2652 5.03306 42.0631C7.96062 48.2114 13.0752 53.0856 19.4058 55.7604C25.7364 58.4351 32.8425 58.7243 39.375 56.5729C37.0864 57.2858 34.6681 57.5001 32.2873 57.201C29.9064 56.9019 27.6198 56.0965 25.5855 54.8404H25.5636Z" fill="url(#paint3_radial_11169_196913)"/>
<path d="M36.3068 34.3161C36.1064 34.5333 35.5498 34.8591 35.5498 35.5323C35.5498 36.097 35.9283 36.6616 36.6185 37.1177C39.8024 39.2895 45.8362 38.9855 45.8584 38.9855C48.232 38.9839 50.5617 38.3614 52.6047 37.1829C54.6615 36.0094 56.3682 34.3318 57.5555 32.3166C58.7427 30.3014 59.3694 28.0184 59.3732 25.6941C59.44 20.8294 57.592 17.5934 56.8573 16.16C52.1149 7.16884 41.9398 2 30.8741 2C23.3846 1.99928 16.1958 4.87435 10.8626 10.0034C5.52933 15.1324 2.48032 22.1031 2.375 29.4079C2.48632 21.4809 10.5685 15.0741 20.1869 15.0741C20.9662 15.0741 25.4192 15.1393 29.5382 17.2459C32.432 18.6486 34.8284 20.865 36.4181 23.6092C37.7762 25.9113 38.0212 28.8432 38.0212 30.016C38.0212 31.1888 37.42 32.9045 36.2845 34.3378L36.3068 34.3161Z" fill="url(#paint4_radial_11169_196913)"/>
<path d="M36.3068 34.3161C36.1064 34.5333 35.5498 34.8591 35.5498 35.5323C35.5498 36.097 35.9283 36.6616 36.6185 37.1177C39.8024 39.2895 45.8362 38.9855 45.8584 38.9855C48.232 38.9839 50.5617 38.3614 52.6047 37.1829C54.6615 36.0094 56.3682 34.3318 57.5555 32.3166C58.7427 30.3014 59.3694 28.0184 59.3732 25.6941C59.44 20.8294 57.592 17.5934 56.8573 16.16C52.1149 7.16884 41.9398 2 30.8741 2C23.3846 1.99928 16.1958 4.87435 10.8626 10.0034C5.52933 15.1324 2.48032 22.1031 2.375 29.4079C2.48632 21.4809 10.5685 15.0741 20.1869 15.0741C20.9662 15.0741 25.4192 15.1393 29.5382 17.2459C32.432 18.6486 34.8284 20.865 36.4181 23.6092C37.7762 25.9113 38.0212 28.8432 38.0212 30.016C38.0212 31.1888 37.42 32.9045 36.2845 34.3378L36.3068 34.3161Z" fill="url(#paint5_radial_11169_196913)"/>
<defs>
<linearGradient id="paint0_linear_11169_196913" x1="15.375" y1="41.011" x2="54.4023" y2="41.011" gradientUnits="userSpaceOnUse">
<stop stop-color="#0C59A4"/>
<stop offset="1" stop-color="#114A8B"/>
</linearGradient>
<radialGradient id="paint1_radial_11169_196913" cx="0" cy="0" r="1" gradientUnits="userSpaceOnUse" gradientTransform="translate(36.9231 41.3082) scale(20.87 20.0222)">
<stop offset="0.7" stop-opacity="0"/>
<stop offset="0.9" stop-opacity="0.5"/>
<stop offset="1"/>
</radialGradient>
<linearGradient id="paint2_linear_11169_196913" x1="35.8837" y1="24.1531" x2="11.8108" y2="50.7538" gradientUnits="userSpaceOnUse">
<stop stop-color="#1B9DE2"/>
<stop offset="0.2" stop-color="#1595DF"/>
<stop offset="0.7" stop-color="#0680D7"/>
<stop offset="1" stop-color="#0078D4"/>
</linearGradient>
<radialGradient id="paint3_radial_11169_196913" cx="0" cy="0" r="1" gradientUnits="userSpaceOnUse" gradientTransform="translate(17.8465 45.666) rotate(-81.2663) scale(31.0622 25.4282)">
<stop offset="0.8" stop-opacity="0"/>
<stop offset="0.9" stop-opacity="0.5"/>
<stop offset="1"/>
</radialGradient>
<radialGradient id="paint4_radial_11169_196913" cx="0" cy="0" r="1" gradientUnits="userSpaceOnUse" gradientTransform="translate(8.13939 12.276) rotate(92.3483) scale(43.9938 96.0503)">
<stop stop-color="#35C1F1"/>
<stop offset="0.1" stop-color="#34C1ED"/>
<stop offset="0.2" stop-color="#2FC2DF"/>
<stop offset="0.3" stop-color="#2BC3D2"/>
<stop offset="0.7" stop-color="#36C752"/>
</radialGradient>
<radialGradient id="paint5_radial_11169_196913" cx="0" cy="0" r="1" gradientUnits="userSpaceOnUse" gradientTransform="translate(55.8242 18.7879) rotate(73.3526) scale(21.1737 17.5819)">
<stop stop-color="#66EB6E"/>
<stop offset="1" stop-color="#66EB6E" stop-opacity="0"/>
</radialGradient>
</defs>
</svg>
