<svg xmlns="http://www.w3.org/2000/svg" xmlns:xlink="http://www.w3.org/1999/xlink" width="399" height="48" viewBox="0 0 399 48">
  <defs>
    <clipPath id="clip-FotismosOdonKaiPlateion_OffWhite">
      <rect width="399" height="48"/>
    </clipPath>
  </defs>
  <g id="FotismosOdonKaiPlateion_OffWhite" data-name="FotismosOdonKaiPlateion OffWhite" clip-path="url(#clip-FotismosOdonKaiPlateion_OffWhite)">
    <g id="Group_143" data-name="Group 143" transform="translate(-46.142 -32.182)">
      <g id="Group_142" data-name="Group 142" transform="translate(48.569 45.182)">
        <path id="Path_380" data-name="Path 380" d="M48.569,56.606c0-4.77,3.695-7.748,8.8-8.134v-2.4h2.151v2.4c5.212.331,8.768,3.226,8.768,8.134,0,4.77-3.75,7.831-8.768,8.217v2.4H57.365v-2.4C52.153,64.465,48.569,61.624,48.569,56.606Zm2.261,0c0,4.108,2.84,5.983,6.535,6.259V50.43C53.781,50.733,50.83,52.663,50.83,56.606Zm8.686-6.177V62.865c3.447-.3,6.508-2.233,6.508-6.2C66,52.663,63.073,50.733,59.516,50.43Z" transform="translate(-48.569 -45.742)" fill="#f2f2f2"/>
        <path id="Path_381" data-name="Path 381" d="M113.009,61.232l.717,1.489c-2.206,1.462-3.089,3.088-3.089,6.2s.938,5.4,3.447,5.4c2.371,0,3.475-2.178,3.475-5.432v-4.55h2.068V68.9c0,3.253,1.158,5.432,3.529,5.432,2.537,0,3.364-2.289,3.364-5.4,0-3.419-1.075-4.881-2.9-6.369l.993-1.324a8.558,8.558,0,0,1,4.081,7.61c0,4.219-1.847,7.362-5.542,7.362a4.7,4.7,0,0,1-4.633-3.447,4.814,4.814,0,0,1-4.6,3.447c-3.667,0-5.459-2.757-5.459-7.335C108.459,65.092,110.444,62.17,113.009,61.232Z" transform="translate(-86.236 -55.277)" fill="#f2f2f2"/>
        <path id="Path_382" data-name="Path 382" d="M171.1,63.842h-4.6V62.05h12.794v1.792h-6.121v7.472c0,2.675.965,3.529,2.537,3.529a4.894,4.894,0,0,0,2.454-.579l.607,1.571a6.619,6.619,0,0,1-3.474.882c-2.427,0-4.191-1.434-4.191-5.073Z" transform="translate(-122.736 -55.791)" fill="#f2f2f2"/>
        <path id="Path_383" data-name="Path 383" d="M209.069,62.05h2.068v9.6c0,2.4.689,3.2,2.261,3.2a5.855,5.855,0,0,0,1.765-.276l.414,1.709a6.71,6.71,0,0,1-2.592.441c-2.426,0-3.915-1.379-3.915-4.742Z" transform="translate(-149.514 -55.791)" fill="#f2f2f2"/>
        <path id="Path_384" data-name="Path 384" d="M236.548,62.05h8v1.792h-4.163a6.155,6.155,0,0,1,3.143,5.653,6.894,6.894,0,0,1-7.2,7.224c-3.695,0-7.2-2.344-7.2-7.362C229.131,64.228,233.019,62.05,236.548,62.05Zm1.1,1.792h-.662c-3.144,0-5.681,1.489-5.681,5.4,0,3.833,2.261,5.57,5.184,5.57,2.868,0,4.963-1.848,4.963-5.377A6.073,6.073,0,0,0,237.651,63.842Z" transform="translate(-162.132 -55.791)" fill="#f2f2f2"/>
        <path id="Path_385" data-name="Path 385" d="M281.578,62.05v8.686c0,2.84,1.324,4.053,3.088,4.053,2.371,0,3.971-1.6,5.184-4.881V62.05h2.068V76.443H289.85V73.272c-1.3,2.371-2.95,3.447-5.349,3.447a3.949,3.949,0,0,1-2.923-1.047v6.59H279.51V62.05Z" transform="translate(-193.818 -55.791)" fill="#f2f2f2"/>
        <path id="Path_386" data-name="Path 386" d="M329.875,51.137c3.474,0,7.583,2.317,7.583,7.39a7.342,7.342,0,0,1-7.638,7.583,7.045,7.045,0,0,1-7.362-7.417A7.281,7.281,0,0,1,329.875,51.137Zm.055,1.9a5.17,5.17,0,0,0-5.294,5.515c0,3.915,2.482,5.653,5.294,5.653a5.083,5.083,0,0,0,5.349-5.487A5.269,5.269,0,0,0,329.931,53.04Zm1.627-7.858-.882,4.357H328.8l.717-4.357Z" transform="translate(-220.83 -45.182)" fill="#f2f2f2"/>
        <path id="Path_387" data-name="Path 387" d="M379.072,77.721c0-1.186-1.13-1.682-2.509-1.82-.22-.028-.469-.055-.689-.083-3.309-.5-6.232-2.454-6.232-6.976,0-5.018,3.612-7.61,7.142-7.61a7.006,7.006,0,0,1,4.742,1.406l-.745,1.847a5.856,5.856,0,0,0-4-1.351c-2.482,0-4.963,1.93-4.963,5.6,0,3.364,2.289,4.825,4.688,5.239.138.028.248.028.386.055,1.985.248,4.164,1.075,4.164,3.171a5.561,5.561,0,0,1-1.351,3.419l-1.572-.634A4.175,4.175,0,0,0,379.072,77.721Z" transform="translate(-250.506 -55.277)" fill="#f2f2f2"/>
        <path id="Path_388" data-name="Path 388" d="M435.069,47.856c5.6,0,9.541,4.081,9.541,9.927,0,5.653-4.164,10.009-9.541,10.009-5.652,0-9.623-4-9.623-10.009C425.446,52.1,429.554,47.856,435.069,47.856Zm-.055,2.04c-3.888,0-7.307,2.923-7.307,7.886,0,5.211,3.309,7.969,7.362,7.969,3.7,0,7.279-2.868,7.279-7.914C442.321,52.764,438.929,49.9,435.014,49.9Z" transform="translate(-285.603 -46.864)" fill="#f2f2f2"/>
        <path id="Path_389" data-name="Path 389" d="M490.636,53.673c-.524-.386-1.048-.772-1.627-1.158l-3.088-2.151V48.6h11.195v1.764h-8.024l2.151,1.544c3.943,2.84,7.114,5.459,7.114,9.347a6.92,6.92,0,0,1-7.307,7c-4.246,0-6.976-2.868-6.976-6.783A7.7,7.7,0,0,1,490.636,53.673Zm1.544,1.213c-3.668.689-5.956,2.785-5.956,6.48a4.632,4.632,0,0,0,4.881,4.991,4.9,4.9,0,0,0,5.1-5.018C496.205,58.968,494.827,57.065,492.18,54.887Z" transform="translate(-322.476 -47.332)" fill="#f2f2f2"/>
        <path id="Path_390" data-name="Path 390" d="M533.875,51.137l.717,1.489c-2.206,1.462-3.088,3.088-3.088,6.2s.937,5.4,3.447,5.4c2.371,0,3.474-2.178,3.474-5.432v-4.55h2.068V58.8c0,3.253,1.158,5.432,3.53,5.432,2.537,0,3.364-2.289,3.364-5.4,0-3.419-1.075-4.881-2.9-6.369l.992-1.324a8.558,8.558,0,0,1,4.081,7.61c0,4.219-1.847,7.362-5.542,7.362a4.7,4.7,0,0,1-4.632-3.447,4.814,4.814,0,0,1-4.605,3.447c-3.667,0-5.459-2.757-5.459-7.335C529.325,55,531.31,52.075,533.875,51.137Zm7.417-5.955-.882,4.357h-1.875l.716-4.357Z" transform="translate(-350.937 -45.182)" fill="#f2f2f2"/>
        <path id="Path_391" data-name="Path 391" d="M590.1,62.05l4.467,11.636,4.3-11.636h2.344l-5.818,14.393h-1.9L587.729,62.05Z" transform="translate(-387.67 -55.791)" fill="#f2f2f2"/>
        <path id="Path_392" data-name="Path 392" d="M650.58,62.05v6.81l6.094-6.81h2.564l-6.728,7.059,7.252,7.335h-2.729l-6.452-6.673v6.673h-2.068V62.05Z" transform="translate(-425.899 -55.791)" fill="#f2f2f2"/>
        <path id="Path_393" data-name="Path 393" d="M687.169,61.232a6.182,6.182,0,0,1,5.515,3.171V61.536h2.068V75.929h-2.068V72.9a6,6,0,0,1-5.515,3.309c-3.915,0-7-2.647-7-7.417C680.165,63.962,683.254,61.232,687.169,61.232Zm.028,1.9c-2.785,0-4.853,1.737-4.853,5.625,0,3.53,2.068,5.542,4.853,5.542,3.005,0,4.908-2.4,5.487-5.57C692.215,65.644,689.954,63.135,687.2,63.135Z" transform="translate(-445.807 -55.277)" fill="#f2f2f2"/>
        <path id="Path_394" data-name="Path 394" d="M731.808,62.05h2.068v9.6c0,2.4.689,3.2,2.261,3.2a5.855,5.855,0,0,0,1.765-.276l.414,1.709a6.709,6.709,0,0,1-2.592.441c-2.426,0-3.915-1.379-3.915-4.742Z" transform="translate(-478.287 -55.791)" fill="#f2f2f2"/>
        <path id="Path_395" data-name="Path 395" d="M789.229,48.6V67.984h-2.151V50.613h-11.36V67.984h-2.151V48.6Z" transform="translate(-504.551 -47.332)" fill="#f2f2f2"/>
        <path id="Path_396" data-name="Path 396" d="M828.892,52.812c-.937-2.482-1.847-3.006-3.143-3.006a2.732,2.732,0,0,0-1.324.331l-.386-1.82a5.586,5.586,0,0,1,2.068-.386c2.537,0,3.557,1.489,4.715,4.577l5.68,15.055h-2.288l-4.219-11.691-4.6,11.691h-2.261l5.956-14.2Z" transform="translate(-535.723 -46.911)" fill="#f2f2f2"/>
        <path id="Path_397" data-name="Path 397" d="M870.258,61.232a6.182,6.182,0,0,1,5.515,3.171V61.536h2.068V75.929h-2.068V72.9a6,6,0,0,1-5.515,3.309c-3.915,0-7-2.647-7-7.417C863.254,63.962,866.342,61.232,870.258,61.232Zm.027,1.9c-2.784,0-4.853,1.737-4.853,5.625,0,3.53,2.068,5.542,4.853,5.542,3.006,0,4.908-2.4,5.488-5.57C875.3,65.644,873.043,63.135,870.285,63.135Z" transform="translate(-560.959 -55.277)" fill="#f2f2f2"/>
        <path id="Path_398" data-name="Path 398" d="M914.448,63.842h-4.6V62.05h12.794v1.792h-6.122v7.472c0,2.675.965,3.529,2.537,3.529a4.895,4.895,0,0,0,2.454-.579l.606,1.571a6.619,6.619,0,0,1-3.474.882c-2.426,0-4.191-1.434-4.191-5.073Z" transform="translate(-590.261 -55.791)" fill="#f2f2f2"/>
        <path id="Path_399" data-name="Path 399" d="M952.529,68.429c-1.461-.634-2.482-1.517-2.482-3.061,0-2.509,2.261-4.136,6.259-4.136a10.558,10.558,0,0,1,5.211,1.186l-.607,1.82a8.844,8.844,0,0,0-4.522-1.1c-2.565,0-4.191.8-4.191,2.482,0,1.489,1.489,2.123,3.5,2.123h2.7V69.5H955.59c-2.509,0-3.667.882-3.667,2.344,0,1.82,1.764,2.454,4.3,2.454a9.46,9.46,0,0,0,4.908-1.186l.524,1.626a11.348,11.348,0,0,1-5.79,1.462c-3.778,0-6.122-1.462-6.122-4.081A3.879,3.879,0,0,1,952.529,68.429Z" transform="translate(-615.357 -55.277)" fill="#f2f2f2"/>
        <path id="Path_400" data-name="Path 400" d="M990.167,62.05h2.068v9.6c0,2.4.689,3.2,2.26,3.2a5.853,5.853,0,0,0,1.765-.276l.414,1.709a6.707,6.707,0,0,1-2.592.441c-2.426,0-3.915-1.379-3.915-4.742Z" transform="translate(-640.78 -55.791)" fill="#f2f2f2"/>
        <path id="Path_401" data-name="Path 401" d="M1015.523,51.137l.717,1.489c-2.206,1.462-3.088,3.088-3.088,6.2s.937,5.4,3.447,5.4c2.371,0,3.474-2.178,3.474-5.432v-4.55h2.068V58.8c0,3.253,1.158,5.432,3.529,5.432,2.537,0,3.365-2.289,3.365-5.4,0-3.419-1.076-4.881-2.9-6.369l.993-1.324a8.558,8.558,0,0,1,4.081,7.61c0,4.219-1.847,7.362-5.542,7.362a4.7,4.7,0,0,1-4.632-3.447,4.814,4.814,0,0,1-4.6,3.447c-3.667,0-5.46-2.757-5.46-7.335C1010.973,55,1012.959,52.075,1015.523,51.137Zm7.417-5.955-.882,4.357h-1.875l.717-4.357Z" transform="translate(-653.866 -45.182)" fill="#f2f2f2"/>
        <path id="Path_402" data-name="Path 402" d="M1071.748,62.05l4.467,11.636,4.3-11.636h2.344l-5.818,14.393h-1.9l-5.763-14.393Z" transform="translate(-690.599 -55.791)" fill="#f2f2f2"/>
      </g>
    </g>
  </g>
</svg>
