<svg xmlns="http://www.w3.org/2000/svg" xmlns:xlink="http://www.w3.org/1999/xlink" width="257" height="48" viewBox="0 0 257 48">
  <defs>
    <clipPath id="clip-Gamma21_Epaggelmatiko_Off_White">
      <rect width="257" height="48"/>
    </clipPath>
  </defs>
  <g id="Gamma21_Epaggelmatiko_Off_White" data-name="Gamma21 Epaggelmatiko Off White" clip-path="url(#clip-Gamma21_Epaggelmatiko_Off_White)">
    <g id="Group_162" data-name="Group 162" transform="translate(-48.599 -32.182)">
      <g id="Group_161" data-name="Group 161" transform="translate(48.599 45.182)">
        <path id="Path_507" data-name="Path 507" d="M59.8,48.6v2.1H50.874V69.1H48.6V48.6Z" transform="translate(-48.599 -47.258)" fill="#f2f2f2"/>
        <path id="Path_508" data-name="Path 508" d="M89.594,53.953a3.823,3.823,0,0,0-4.141-3.938,6.849,6.849,0,0,0-4.725,2.129l-.846-1.78a8.025,8.025,0,0,1,5.8-2.508c4.317,0,6.3,2.975,6.3,6.037,0,3.879-3.7,7.583-9.071,12.658h9.421v2.1H80.086V66.611C86.357,60.544,89.594,57.278,89.594,53.953Z" transform="translate(-67.603 -46.807)" fill="#f2f2f2"/>
        <path id="Path_509" data-name="Path 509" d="M124.137,67.062V51.137l-5.484,2.946-.874-1.779,6.766-3.7h1.75V67.062h4.783V69.1H118.712V67.062Z" transform="translate(-90.626 -47.258)" fill="#f2f2f2"/>
        <path id="Path_510" data-name="Path 510" d="M194.069,48.6v2.1h-8.925v7.058h7.642v2.1h-7.642V67h8.925v2.1h-11.2V48.6Z" transform="translate(-130.168 -47.258)" fill="#f2f2f2"/>
        <path id="Path_511" data-name="Path 511" d="M234.11,62.05V77.275h-2.188V64h-8.9V77.275h-2.187V62.05Z" transform="translate(-153.235 -55.429)" fill="#f2f2f2"/>
        <path id="Path_512" data-name="Path 512" d="M271.642,61.233a6.538,6.538,0,0,1,5.833,3.354V61.554h2.187V76.779h-2.187V73.57a6.346,6.346,0,0,1-5.833,3.5c-4.142,0-7.408-2.8-7.408-7.846C264.234,64.12,267.5,61.233,271.642,61.233Zm.029,2.012c-2.946,0-5.133,1.837-5.133,5.95,0,3.733,2.187,5.862,5.133,5.862,3.179,0,5.192-2.537,5.8-5.891C276.98,65.9,274.588,63.245,271.671,63.245Z" transform="translate(-179.598 -54.933)" fill="#f2f2f2"/>
        <path id="Path_513" data-name="Path 513" d="M310.674,62.05h2.508l4.725,12.308,4.55-12.308h2.479L318.9,76.983v6.446h-2.187v-6.3Z" transform="translate(-207.81 -55.429)" fill="#f2f2f2"/>
        <path id="Path_514" data-name="Path 514" d="M348.942,62.05h2.508l4.725,12.308,4.55-12.308H363.2l-6.037,14.933v6.446H354.98v-6.3Z" transform="translate(-231.058 -55.429)" fill="#f2f2f2"/>
        <path id="Path_515" data-name="Path 515" d="M392.311,68.845c-1.546-.671-2.625-1.6-2.625-3.237,0-2.654,2.392-4.375,6.621-4.375a11.164,11.164,0,0,1,5.512,1.254l-.642,1.925a9.355,9.355,0,0,0-4.783-1.167c-2.713,0-4.433.846-4.433,2.625,0,1.575,1.575,2.246,3.7,2.246h2.859v1.867h-2.975c-2.654,0-3.879.933-3.879,2.479,0,1.925,1.867,2.6,4.549,2.6a10,10,0,0,0,5.192-1.254l.554,1.721a12,12,0,0,1-6.125,1.546c-4,0-6.475-1.546-6.475-4.317A4.1,4.1,0,0,1,392.311,68.845Z" transform="translate(-255.615 -54.933)" fill="#f2f2f2"/>
        <path id="Path_516" data-name="Path 516" d="M430.384,53.094c-.992-2.625-1.954-3.179-3.325-3.179a2.887,2.887,0,0,0-1.4.35l-.408-1.925a5.914,5.914,0,0,1,2.187-.408c2.684,0,3.762,1.575,4.987,4.842L438.434,68.7h-2.421L431.55,56.331,426.68,68.7h-2.392l6.3-15.021Z" transform="translate(-276.831 -46.852)" fill="#f2f2f2"/>
        <path id="Path_517" data-name="Path 517" d="M470.093,62.05v9.187c0,3,1.4,4.288,3.266,4.288,2.508,0,4.2-1.691,5.484-5.162V62.05h2.187V77.275h-2.187V73.921c-1.371,2.508-3.121,3.646-5.658,3.646a4.176,4.176,0,0,1-3.092-1.108v6.971h-2.187V62.05Z" transform="translate(-303.329 -55.429)" fill="#f2f2f2"/>
        <path id="Path_518" data-name="Path 518" d="M518.336,61.233a6.538,6.538,0,0,1,5.833,3.354V61.554h2.188V76.779H524.17V73.57a6.345,6.345,0,0,1-5.833,3.5c-4.142,0-7.408-2.8-7.408-7.846C510.928,64.12,514.195,61.233,518.336,61.233Zm.029,2.012c-2.946,0-5.133,1.837-5.133,5.95,0,3.733,2.187,5.862,5.133,5.862,3.179,0,5.192-2.537,5.8-5.891C523.674,65.9,521.282,63.245,518.365,63.245Z" transform="translate(-329.465 -54.933)" fill="#f2f2f2"/>
        <path id="Path_519" data-name="Path 519" d="M562.388,63.946h-4.871v-1.9H571.05v1.9h-6.475v7.9c0,2.829,1.021,3.733,2.683,3.733a5.174,5.174,0,0,0,2.6-.613l.641,1.663a7.005,7.005,0,0,1-3.675.933c-2.567,0-4.433-1.517-4.433-5.367Z" transform="translate(-357.768 -55.429)" fill="#f2f2f2"/>
        <path id="Path_520" data-name="Path 520" d="M600.094,62.05h2.187V72.2c0,2.538.729,3.384,2.391,3.384a6.194,6.194,0,0,0,1.867-.292l.438,1.809a7.1,7.1,0,0,1-2.742.467c-2.567,0-4.142-1.459-4.142-5.017Z" transform="translate(-383.633 -55.429)" fill="#f2f2f2"/>
        <path id="Path_521" data-name="Path 521" d="M626.431,62.05v7.2l6.446-7.2h2.712l-7.117,7.467,7.671,7.758h-2.888l-6.825-7.058v7.058h-2.188V62.05Z" transform="translate(-398.304 -55.429)" fill="#f2f2f2"/>
        <path id="Path_522" data-name="Path 522" d="M663.669,51.482c3.675,0,8.021,2.45,8.021,7.817a7.766,7.766,0,0,1-8.079,8.021,7.452,7.452,0,0,1-7.787-7.846A7.7,7.7,0,0,1,663.669,51.482Zm.059,2.012a5.469,5.469,0,0,0-5.6,5.833c0,4.142,2.625,5.979,5.6,5.979,3.033,0,5.658-1.9,5.658-5.8C669.385,55.478,666.585,53.494,663.727,53.494Zm1.721-8.312-.933,4.608h-1.983l.758-4.608Z" transform="translate(-417.489 -45.182)" fill="#f2f2f2"/>
      </g>
    </g>
  </g>
</svg>
