<svg xmlns="http://www.w3.org/2000/svg" xmlns:xlink="http://www.w3.org/1999/xlink" width="257" height="48" viewBox="0 0 257 48">
  <defs>
    <clipPath id="clip-Gamma22_Epaggelmatiko_OffWhite">
      <rect width="257" height="48"/>
    </clipPath>
  </defs>
  <g id="Gamma22_Epaggelmatiko_OffWhite" data-name="Gamma22 Epaggelmatiko OffWhite" clip-path="url(#clip-Gamma22_Epaggelmatiko_OffWhite)">
    <g id="Group_164" data-name="Group 164" transform="translate(-48.599 -32.182)">
      <g id="Group_163" data-name="Group 163" transform="translate(48.599 45.182)">
        <path id="Path_523" data-name="Path 523" d="M59.8,48.6v2.1H50.874V69.1H48.6V48.6Z" transform="translate(-48.599 -47.258)" fill="#f2f2f2"/>
        <path id="Path_524" data-name="Path 524" d="M89.594,53.952a3.823,3.823,0,0,0-4.141-3.938,6.853,6.853,0,0,0-4.725,2.129l-.846-1.779a8.026,8.026,0,0,1,5.8-2.508c4.317,0,6.3,2.975,6.3,6.038,0,3.879-3.7,7.584-9.071,12.658h9.421v2.1H80.086V66.611C86.357,60.544,89.594,57.277,89.594,53.952Z" transform="translate(-67.603 -46.806)" fill="#f2f2f2"/>
        <path id="Path_525" data-name="Path 525" d="M126.822,53.952a3.823,3.823,0,0,0-4.142-3.938,6.852,6.852,0,0,0-4.725,2.129l-.846-1.779a8.026,8.026,0,0,1,5.8-2.508c4.317,0,6.3,2.975,6.3,6.038,0,3.879-3.7,7.584-9.071,12.658h9.421v2.1h-12.25V66.611C123.585,60.544,126.822,57.277,126.822,53.952Z" transform="translate(-90.219 -46.806)" fill="#f2f2f2"/>
        <path id="Path_526" data-name="Path 526" d="M189.686,48.6v2.1h-8.925v7.059H188.4v2.1h-7.642V67h8.925v2.1h-11.2V48.6Z" transform="translate(-127.505 -47.258)" fill="#f2f2f2"/>
        <path id="Path_527" data-name="Path 527" d="M229.727,62.05V77.275H227.54V64h-8.9V77.275h-2.188V62.05Z" transform="translate(-150.572 -55.429)" fill="#f2f2f2"/>
        <path id="Path_528" data-name="Path 528" d="M267.26,61.232a6.537,6.537,0,0,1,5.833,3.354V61.553h2.187V76.778h-2.187V73.57a6.346,6.346,0,0,1-5.833,3.5c-4.142,0-7.409-2.8-7.409-7.846C259.851,64.12,263.117,61.232,267.26,61.232Zm.029,2.013c-2.946,0-5.134,1.838-5.134,5.95,0,3.733,2.187,5.863,5.134,5.863,3.179,0,5.192-2.538,5.8-5.892C272.6,65.9,270.205,63.245,267.289,63.245Z" transform="translate(-176.934 -54.932)" fill="#f2f2f2"/>
        <path id="Path_529" data-name="Path 529" d="M306.29,62.05H308.8l4.725,12.309,4.55-12.309h2.479l-6.037,14.934v6.446h-2.187v-6.3Z" transform="translate(-205.145 -55.429)" fill="#f2f2f2"/>
        <path id="Path_530" data-name="Path 530" d="M344.558,62.05h2.508l4.725,12.309,4.55-12.309h2.479l-6.037,14.934v6.446H350.6v-6.3Z" transform="translate(-228.393 -55.429)" fill="#f2f2f2"/>
        <path id="Path_531" data-name="Path 531" d="M387.927,68.845c-1.546-.671-2.625-1.6-2.625-3.238,0-2.654,2.392-4.375,6.621-4.375a11.168,11.168,0,0,1,5.512,1.254l-.642,1.925a9.355,9.355,0,0,0-4.783-1.167c-2.713,0-4.433.846-4.433,2.625,0,1.575,1.575,2.246,3.7,2.246h2.858v1.867h-2.975c-2.654,0-3.879.933-3.879,2.479,0,1.925,1.867,2.6,4.55,2.6a10,10,0,0,0,5.192-1.254l.554,1.72a12,12,0,0,1-6.125,1.546c-4,0-6.475-1.546-6.475-4.317A4.1,4.1,0,0,1,387.927,68.845Z" transform="translate(-252.95 -54.932)" fill="#f2f2f2"/>
        <path id="Path_532" data-name="Path 532" d="M426,53.094c-.991-2.625-1.954-3.179-3.325-3.179a2.889,2.889,0,0,0-1.4.35l-.408-1.925a5.907,5.907,0,0,1,2.187-.409c2.684,0,3.763,1.575,4.988,4.842L434.051,68.7H431.63l-4.463-12.367L422.3,68.7H419.9l6.3-15.021Z" transform="translate(-274.166 -46.852)" fill="#f2f2f2"/>
        <path id="Path_533" data-name="Path 533" d="M465.709,62.05v9.188c0,3,1.4,4.288,3.266,4.288,2.508,0,4.2-1.692,5.484-5.163V62.05h2.187V77.275H474.46V73.921c-1.371,2.508-3.121,3.646-5.658,3.646a4.177,4.177,0,0,1-3.092-1.108v6.97h-2.187V62.05Z" transform="translate(-300.663 -55.429)" fill="#f2f2f2"/>
        <path id="Path_534" data-name="Path 534" d="M513.953,61.232a6.539,6.539,0,0,1,5.834,3.354V61.553h2.187V76.778h-2.187V73.57a6.346,6.346,0,0,1-5.834,3.5c-4.142,0-7.409-2.8-7.409-7.846C506.544,64.12,509.811,61.232,513.953,61.232Zm.029,2.013c-2.945,0-5.133,1.838-5.133,5.95,0,3.733,2.188,5.863,5.133,5.863,3.179,0,5.192-2.538,5.8-5.892C519.29,65.9,516.9,63.245,513.982,63.245Z" transform="translate(-326.799 -54.932)" fill="#f2f2f2"/>
        <path id="Path_535" data-name="Path 535" d="M558,63.946h-4.871v-1.9h13.534v1.9h-6.475v7.9c0,2.829,1.021,3.733,2.683,3.733a5.178,5.178,0,0,0,2.6-.612l.641,1.662a7,7,0,0,1-3.675.933c-2.567,0-4.433-1.517-4.433-5.367Z" transform="translate(-355.102 -55.429)" fill="#f2f2f2"/>
        <path id="Path_536" data-name="Path 536" d="M595.71,62.05H597.9V72.2c0,2.538.729,3.383,2.392,3.383a6.2,6.2,0,0,0,1.867-.292l.437,1.808a7.1,7.1,0,0,1-2.742.467c-2.567,0-4.142-1.459-4.142-5.017Z" transform="translate(-380.967 -55.429)" fill="#f2f2f2"/>
        <path id="Path_537" data-name="Path 537" d="M622.047,62.05v7.2l6.446-7.2h2.712l-7.117,7.467,7.671,7.759h-2.887l-6.825-7.058v7.058H619.86V62.05Z" transform="translate(-395.638 -55.429)" fill="#f2f2f2"/>
        <path id="Path_538" data-name="Path 538" d="M659.285,51.482c3.675,0,8.021,2.45,8.021,7.817a7.766,7.766,0,0,1-8.079,8.021,7.452,7.452,0,0,1-7.788-7.846A7.7,7.7,0,0,1,659.285,51.482Zm.058,2.013a5.469,5.469,0,0,0-5.6,5.833c0,4.142,2.625,5.979,5.6,5.979,3.033,0,5.658-1.9,5.658-5.8C665,55.478,662.2,53.494,659.343,53.494Zm1.721-8.312-.933,4.608h-1.983l.758-4.608Z" transform="translate(-414.822 -45.182)" fill="#f2f2f2"/>
      </g>
    </g>
  </g>
</svg>
