<svg width="66" height="48" viewBox="0 0 66 48" fill="none" xmlns="http://www.w3.org/2000/svg">
<g clip-path="url(#clip0_10936_181949)">
<path d="M46.8664 16.9296L46.852 16.336V5.11443L43.7496 8.21683C41.2104 5.10883 37.348 3.12403 33.0296 3.12403C30.8924 3.12218 28.784 3.61585 26.8698 4.56627C24.9556 5.51669 23.2879 6.89798 21.9976 8.60163L27.0824 13.74C27.5803 12.8201 28.2856 12.0288 29.1424 11.4288C30.0224 10.736 31.288 10.1696 33.028 10.1696C33.2384 10.1696 33.4008 10.1936 33.52 10.2496C34.5549 10.3322 35.5565 10.6541 36.4458 11.1898C37.3352 11.7256 38.0879 12.4605 38.6448 13.3368L35.0448 16.9368L46.872 16.9392" fill="#1C3AA9"/>
<path d="M32.9408 3.12408L32.3472 3.13848H21.1256L24.2272 6.24008C21.1192 8.77928 19.1344 12.6417 19.1344 16.9601C19.1326 19.0972 19.6262 21.2057 20.5766 23.1198C21.5271 25.034 22.9084 26.7018 24.612 27.9921L29.7504 22.9073C28.8305 22.4094 28.0392 21.7041 27.4392 20.8473C26.7464 19.9673 26.18 18.7017 26.18 16.9617C26.18 16.7513 26.204 16.5889 26.26 16.4697C26.3426 15.4347 26.6645 14.4331 27.2002 13.5438C27.736 12.6545 28.4709 11.9017 29.3472 11.3449L32.9472 14.9449L32.9496 3.11768" fill="#4285F4"/>
<path d="M19.136 16.96L19.1504 17.5536V28.784L22.2528 25.6816C24.792 28.7896 28.6544 30.7744 32.9728 30.7744C35.1099 30.7763 37.2184 30.2826 39.1325 29.3322C41.0467 28.3818 42.7145 27.0005 44.0048 25.2968L38.92 20.1584C38.4221 21.0783 37.7168 21.8696 36.86 22.4696C35.98 23.1624 34.7144 23.7288 32.9744 23.7288C32.764 23.7288 32.6016 23.7048 32.4824 23.6488C31.4474 23.5662 30.4458 23.2444 29.5565 22.7086C28.6672 22.1729 27.9144 21.4379 27.3576 20.5616L30.9576 16.9616C26.3976 16.9792 21.248 16.9896 19.1304 16.9592" fill="#ABABAB"/>
<path d="M14.7176 34.819C14.1976 34.819 13.732 34.9174 13.3192 35.115C12.9099 35.3049 12.551 35.5882 12.2712 35.9422C11.9888 36.3006 11.7712 36.7358 11.6192 37.2462C11.4672 37.7566 11.3976 38.3198 11.3976 38.947V40.755C11.3976 41.395 11.4712 41.955 11.6192 42.4622C11.7792 42.9686 11.9872 43.4014 12.2648 43.7598C12.5424 44.1182 12.8784 44.3942 13.2728 44.587C13.6672 44.7798 14.1112 44.875 14.604 44.875C15.1104 44.875 15.5544 44.8014 15.9352 44.6534C16.3208 44.5054 16.6432 44.2934 16.8952 44.015C17.1627 43.7192 17.3664 43.3714 17.4936 42.9934C17.6376 42.5934 17.7224 42.1422 17.7496 41.6358H16.52C16.488 42.0254 16.4352 42.3598 16.3584 42.6374C16.2953 42.8851 16.1808 43.1168 16.0224 43.3174C15.8784 43.4918 15.6904 43.6214 15.4576 43.707C15.2288 43.787 14.9456 43.827 14.6096 43.827C14.2512 43.827 13.9456 43.7486 13.6952 43.5918C13.444 43.4302 13.2392 43.211 13.0832 42.9326C12.9272 42.6542 12.8192 42.3302 12.7472 41.9582C12.68 41.5862 12.6464 41.1854 12.6464 40.755V38.9334C12.6464 38.4718 12.6864 38.0534 12.7664 37.6774C12.8512 37.3014 12.9792 36.9814 13.1504 36.7158C13.3216 36.4502 13.536 36.2478 13.796 36.1038C14.056 35.9558 14.3656 35.8822 14.724 35.8822C15.024 35.8822 15.2816 35.927 15.4968 36.0166C15.7128 36.1014 15.8912 36.2366 16.0344 36.4198C16.1776 36.603 16.288 36.8198 16.364 37.1054C16.44 37.391 16.492 37.715 16.5184 38.1006H17.7624C17.74 37.5726 17.6568 37.1038 17.5224 36.6958C17.388 36.2878 17.1784 35.9454 16.924 35.667C16.6696 35.3886 16.364 35.187 15.9896 35.027C15.6264 34.883 15.2072 34.811 14.7336 34.811L14.7176 34.819ZM45.0776 34.819C44.5576 34.819 44.092 34.9174 43.6792 35.115C43.2699 35.3049 42.911 35.5882 42.6312 35.9422C42.3488 36.3006 42.1312 36.7358 41.9792 37.2462C41.8272 37.7566 41.7576 38.3198 41.7576 38.947V40.755C41.7576 41.395 41.8312 41.955 41.9792 42.4622C42.1392 42.9686 42.3472 43.4014 42.6248 43.7598C42.9024 44.1182 43.2384 44.3942 43.6328 44.587C44.0485 44.7844 44.504 44.8832 44.964 44.8758C45.4704 44.8758 45.9144 44.8022 46.2952 44.6542C46.6808 44.5062 47.0032 44.2942 47.2552 44.0158C47.5227 43.72 47.7264 43.3722 47.8536 42.9942C47.9976 42.5942 48.0824 42.143 48.1096 41.6366H46.872C46.84 42.0262 46.7872 42.3606 46.7104 42.6382C46.6473 42.8859 46.5329 43.1176 46.3744 43.3182C46.2304 43.4926 46.0424 43.6222 45.8096 43.7078C45.5808 43.7878 45.2976 43.8278 44.9616 43.8278C44.6032 43.8278 44.2976 43.7494 44.0472 43.5926C43.796 43.431 43.5912 43.2118 43.4352 42.9334C43.2792 42.655 43.1712 42.331 43.0992 41.959C43.032 41.587 42.9984 41.1862 42.9984 40.7558V38.9342C42.9945 38.5122 43.035 38.091 43.1192 37.6774C43.204 37.3014 43.332 36.9814 43.5032 36.7158C43.6636 36.4608 43.8856 36.2503 44.1488 36.1038C44.4088 35.9558 44.7184 35.8822 45.0768 35.8822C45.3768 35.8822 45.6344 35.927 45.8496 36.0166C46.0656 36.1014 46.244 36.2366 46.3872 36.4198C46.5304 36.603 46.6408 36.8198 46.7168 37.1054C46.7928 37.391 46.8448 37.715 46.8712 38.1006H48.1152C48.0928 37.5726 48.0096 37.1038 47.8752 36.6958C47.7408 36.2878 47.5312 35.9454 47.2768 35.667C47.0224 35.3886 46.7168 35.187 46.3424 35.027C45.9792 34.883 45.56 34.811 45.0864 34.811L45.0776 34.819ZM21.804 34.9534L18.652 44.7414H19.916L20.676 42.187H23.9832L24.756 44.7414H26.02L22.86 34.9534H21.804ZM27.3496 34.9534V44.7414H28.58V40.9014H30.468C30.9384 40.9014 31.348 40.8374 31.7184 40.7062C32.0888 40.575 32.3864 40.3862 32.6328 40.1278C32.884 39.8766 33.0728 39.5678 33.1976 39.1998C33.3272 38.8278 33.3928 38.4062 33.3928 37.9358C33.3973 37.5286 33.3313 37.1237 33.1976 36.739C33.0811 36.3871 32.891 36.064 32.64 35.791C32.3842 35.5159 32.0694 35.3023 31.7192 35.1662C31.356 35.0182 30.9392 34.9446 30.4688 34.9446L27.3496 34.9534ZM34.3336 34.9534V36.0158H36.8936V44.7414H38.124V36.0158H40.6984V34.9534H34.3336ZM49.7752 34.9534V44.7414H51.0056V40.2158H54.9448V44.7398H56.1816V34.9534H54.944V39.1614H51.0048V34.9534H49.7752ZM60.8472 34.9534L57.6952 44.7414H58.9592L59.7192 42.187H63.0264L63.7992 44.7414H65.0632L61.9032 34.9534H60.8472ZM28.5792 36.0158H30.4672C30.7672 36.0158 31.0232 36.0694 31.2336 36.1774C31.4496 36.2846 31.6232 36.4286 31.7576 36.6078C31.8997 36.7935 32.0025 37.0061 32.06 37.2326C32.1277 37.4688 32.1616 37.7134 32.1608 37.959C32.1634 38.218 32.1294 38.476 32.06 38.7254C31.9976 38.9542 31.8968 39.1534 31.7576 39.3238C31.6232 39.4894 31.448 39.6198 31.2336 39.7134C31.0232 39.8078 30.7672 39.8542 30.4672 39.8542H28.5792V36.0158ZM22.3272 36.675L23.6648 41.1254H20.996L22.3272 36.675ZM61.372 36.675L62.7096 41.1254H60.04L61.372 36.675ZM3.46404 37.3342C3.15444 37.3342 2.88804 37.4126 2.66404 37.5694C2.44404 37.7262 2.26083 37.939 2.10403 38.2078L2.08403 37.4686H0.936035V44.7422H2.12563V39.539C2.23763 39.2294 2.39763 38.9854 2.60323 38.8062C2.81363 38.627 3.08083 38.5374 3.40323 38.5374L3.67924 38.551C3.76726 38.5573 3.85487 38.5685 3.94164 38.5846L3.93524 37.4286C3.90728 37.4163 3.87803 37.4072 3.84803 37.4014C3.81203 37.3878 3.77204 37.3774 3.72803 37.3678C3.68149 37.3587 3.63449 37.352 3.58723 37.3478C3.54243 37.3398 3.50243 37.3342 3.46723 37.3342H3.46404ZM7.46404 37.3342C7.12004 37.3342 6.78403 37.395 6.46243 37.5158C6.14083 37.6366 5.85284 37.8358 5.60164 38.1142C5.35524 38.3878 5.15603 38.7542 5.00323 39.1902C4.84324 39.6302 4.77444 40.1694 4.77444 40.8102V41.6302C4.77444 42.1862 4.83844 42.6678 4.96964 43.0758C5.10083 43.4838 5.28564 43.8222 5.52724 44.0918C5.77465 44.3568 6.08108 44.5596 6.42164 44.6838C6.77204 44.8142 7.16324 44.879 7.59763 44.879C7.91123 44.879 8.19124 44.847 8.43764 44.7846C8.66797 44.7293 8.89126 44.648 9.10324 44.5422C9.28363 44.4479 9.45091 44.3304 9.60083 44.1926C9.73304 44.0708 9.85234 43.9357 9.95683 43.7894L9.33844 43.0374C9.24004 43.1574 9.13443 43.2774 9.02244 43.3734C8.91044 43.4718 8.78724 43.559 8.65284 43.6358C8.51229 43.7098 8.36317 43.7663 8.20884 43.8038C8.03061 43.846 7.84796 43.8664 7.66483 43.8646C7.10483 43.8646 6.69044 43.6886 6.39444 43.3334C6.10324 42.979 5.95764 42.4134 5.95764 41.6326V41.4726H10.0184V40.7798C10.0184 40.2238 9.97044 39.7334 9.87764 39.3078C9.78483 38.8822 9.63364 38.5238 9.42724 38.2318C9.22661 37.9449 8.9525 37.7172 8.63364 37.5726C8.31123 37.4126 7.91364 37.3438 7.46404 37.3438V37.3342ZM7.46404 38.3558C7.72404 38.3558 7.93923 38.4038 8.10963 38.4966C8.27812 38.5891 8.41768 38.7265 8.51284 38.8934C8.61684 39.0638 8.68883 39.2678 8.73443 39.5054C8.7865 39.7601 8.81807 40.0185 8.82883 40.2782V40.4398H5.96483C5.98243 40.0398 6.03204 39.6934 6.11284 39.4238C6.19364 39.1542 6.29843 38.9422 6.42883 38.7854C6.56323 38.6238 6.71683 38.5118 6.89283 38.4494C7.07634 38.3852 7.26961 38.3532 7.46404 38.355V38.3558Z" fill="#A6A6A6"/>
</g>
<defs>
<clipPath id="clip0_10936_181949">
<rect width="65" height="48" fill="white" transform="translate(0.5)"/>
</clipPath>
</defs>
</svg>
