<svg xmlns="http://www.w3.org/2000/svg" xmlns:xlink="http://www.w3.org/1999/xlink" width="163" height="80" viewBox="0 0 163 80">
  <defs>
    <clipPath id="clip-GreenPass_PRO_combo_off-white-2">
      <rect width="163" height="80"/>
    </clipPath>
  </defs>
  <g id="GreenPass_PRO_combo_off-white-2" data-name="GreenPass_PRO combo off-white-2" clip-path="url(#clip-GreenPass_PRO_combo_off-white-2)">
    <path id="Path_1162" data-name="Path 1162" d="M21.742,172.746a9.812,9.812,0,0,1,6.791,2.6l-1.364,1.6a7.716,7.716,0,0,0-5.481-2.258c-3.7,0-6.949,2.782-6.949,7.507,0,4.961,3.173,7.586,7,7.586,3.278,0,6.084-2.257,6.4-6.379H22.476v-1.89h7.84v.945c0,5.25-3.461,9.266-8.575,9.266-5.376,0-9.152-3.806-9.152-9.529,0-5.407,3.855-9.45,9.152-9.45" transform="translate(-8.147 -111.725)" fill="#f2f2f2"/>
    <path id="Path_1163" data-name="Path 1163" d="M73.928,186.459v3.2c1.075-1.89,2.622-3.465,4.694-3.465a3.828,3.828,0,0,1,1.39.262l-.42,1.732a3.256,3.256,0,0,0-1.075-.21c-1.993,0-3.619,1.969-4.589,4.62v7.56H71.961v-13.7Z" transform="translate(-46.568 -120.424)" fill="#f2f2f2"/>
    <path id="Path_1164" data-name="Path 1164" d="M103.438,186.122c3.488,0,6.32,2.363,6.32,7.14a6.057,6.057,0,0,1-.052.735H98.876c.183,3.071,1.967,4.568,5.061,4.568a8.536,8.536,0,0,0,4.694-1.208l.446,1.6a9.891,9.891,0,0,1-5.245,1.418c-4.327,0-7.054-2.52-7.054-6.956,0-4.7,3.068-7.3,6.66-7.3m-.052,1.811c-2.386,0-4.143,1.444-4.484,4.383h8.758c-.262-2.992-1.94-4.383-4.274-4.383" transform="translate(-62.627 -120.376)" fill="#f2f2f2"/>
    <path id="Path_1165" data-name="Path 1165" d="M146.758,186.122c3.488,0,6.32,2.363,6.32,7.14a6.056,6.056,0,0,1-.052.735H142.2c.184,3.071,1.967,4.568,5.061,4.568a8.536,8.536,0,0,0,4.694-1.208l.446,1.6a9.891,9.891,0,0,1-5.245,1.418c-4.327,0-7.054-2.52-7.054-6.956,0-4.7,3.068-7.3,6.66-7.3m-.052,1.811c-2.386,0-4.143,1.444-4.484,4.383h8.758c-.262-2.992-1.94-4.383-4.274-4.383" transform="translate(-90.661 -120.376)" fill="#f2f2f2"/>
    <path id="Path_1166" data-name="Path 1166" d="M188.135,186.412v3.229c1.416-2.415,3.2-3.518,5.454-3.518,2.308,0,4.563,1.181,4.563,5.46v8.531h-1.967v-8.268c0-2.73-1.259-3.885-2.989-3.885-2.334,0-3.829,1.549-5.061,4.7v7.454h-1.967v-13.7Z" transform="translate(-120.474 -120.376)" fill="#f2f2f2"/>
    <path id="Path_1167" data-name="Path 1167" d="M236.864,173.49c3.8,0,6.739,1.759,6.739,5.8,0,3.937-3.173,5.748-6.739,5.748h-1.914v6.9H232.9V173.49Zm4.589,5.933c0-2.678-1.547-4.043-4.536-4.043h-1.967v7.77h1.993c2.963,0,4.51-1.654,4.51-3.727" transform="translate(-150.718 -112.206)" fill="#f2f2f2"/>
    <path id="Path_1168" data-name="Path 1168" d="M275.01,186.122a5.877,5.877,0,0,1,5.244,3.019v-2.73h1.967v13.7h-1.967v-2.887a5.7,5.7,0,0,1-5.244,3.15c-3.724,0-6.661-2.52-6.661-7.061,0-4.593,2.937-7.192,6.661-7.192m.026,1.811c-2.648,0-4.615,1.654-4.615,5.355,0,3.36,1.967,5.276,4.615,5.276,2.858,0,4.668-2.284,5.218-5.3-.446-2.94-2.6-5.329-5.218-5.329" transform="translate(-173.655 -120.376)" fill="#f2f2f2"/>
    <path id="Path_1169" data-name="Path 1169" d="M317.347,197.567a8.518,8.518,0,0,0,4.038,1c1.914,0,3.278-.5,3.278-2.126,0-3.517-7.6-.6-7.6-6.3,0-2.389,1.783-4.017,5.008-4.017a9.02,9.02,0,0,1,4.117,1.024l-.524,1.811a6.826,6.826,0,0,0-3.566-1.024c-1.652,0-3.016.682-3.016,2.1,0,3.937,7.552,1,7.552,6.3,0,2.52-2.439,4.042-5.271,4.042a11.272,11.272,0,0,1-4.563-1.023Z" transform="translate(-205.006 -120.376)" fill="#f2f2f2"/>
    <path id="Path_1170" data-name="Path 1170" d="M351.155,197.567a8.519,8.519,0,0,0,4.038,1c1.914,0,3.278-.5,3.278-2.126,0-3.517-7.6-.6-7.6-6.3,0-2.389,1.783-4.017,5.008-4.017a9.019,9.019,0,0,1,4.117,1.024l-.524,1.811a6.826,6.826,0,0,0-3.566-1.024c-1.652,0-3.016.682-3.016,2.1,0,3.937,7.552,1,7.552,6.3,0,2.52-2.439,4.042-5.271,4.042a11.269,11.269,0,0,1-4.562-1.023Z" transform="translate(-226.884 -120.376)" fill="#f2f2f2"/>
    <path id="Path_1171" data-name="Path 1171" d="M392.878,173.459c2.508,0,4.56,1.246,4.56,4,0,2.686-2.174,4-4.56,4h-1.456V185.8h-1.806V173.459Zm2.684,4.091c0-1.668-.982-2.528-2.894-2.528h-1.245v4.863h1.263c1.894,0,2.876-1,2.876-2.335" transform="translate(-252.129 -112.186)" fill="#f2f2f2"/>
    <path id="Path_1172" data-name="Path 1172" d="M418.7,181.985v1.949a3.761,3.761,0,0,1,3.087-2.124,2.789,2.789,0,0,1,.929.14l-.3,1.527a2.4,2.4,0,0,0-.771-.141c-1.245,0-2.3,1.176-2.947,2.9V191.2h-1.754v-9.216Z" transform="translate(-269.819 -117.586)" fill="#f2f2f2"/>
    <path id="Path_1174" data-name="Path 1174" d="M22.038,0A22.061,22.061,0,1,0,44.076,22.061,22.05,22.05,0,0,0,22.038,0M8.456,37.448a46.458,46.458,0,0,1,13.583-1.983,46.458,46.458,0,0,1,13.583,1.983,20.486,20.486,0,0,1-27.165,0m28.09-.865c-.09.09-.183.173-.274.261A47.082,47.082,0,0,0,22.038,34.7,47.077,47.077,0,0,0,7.806,36.845c-.091-.088-.185-.172-.275-.262a20.553,20.553,0,0,1,0-29.044A20.516,20.516,0,0,1,42.555,22.061a20.414,20.414,0,0,1-6.009,14.522" fill="#f2f2f2"/>
    <path id="Path_1175" data-name="Path 1175" d="M56.26,31.422a4.981,4.981,0,0,0-3.083-1.691.117.117,0,0,0-.031-.01l-.137-.024a10.411,10.411,0,0,0-1.783-.16,7.982,7.982,0,0,0-2.674.44,6.87,6.87,0,0,0-2.89,1.957,6,6,0,0,0-1.455,2.882,5.237,5.237,0,0,0,.513,3,3.447,3.447,0,0,0,.929,1.273q.086.068.177.133v1.75a4.628,4.628,0,0,1-4.35,4.642c-.058,0-.116,0-.174,0a3.991,3.991,0,0,1-3.01-1.32,4.768,4.768,0,0,1-1.165-3.209V36.343a4.679,4.679,0,0,0,3.757-4.583v-4.6a.687.687,0,0,0-.686-.687H38.883V23.13a.687.687,0,0,0-.686-.687h-.44a.687.687,0,0,0-.686.687v3.345H35.363V23.13a.687.687,0,0,0-.686-.687h-.439a.687.687,0,0,0-.686.687v3.345H32.235a.687.687,0,0,0-.686.687v4.6a4.678,4.678,0,0,0,3.79,4.589v4.609c0,3.577,2.481,6.348,5.772,6.446.064,0,.128,0,.191,0a6.324,6.324,0,0,0,6.313-6.32v-1.07a4.841,4.841,0,0,0,.89.125c.071,0,.141,0,.212,0a4.416,4.416,0,0,0,2.531-.765,4.528,4.528,0,0,0,.909-.906l.058-.07a4.482,4.482,0,0,0,.817-1.434A7.724,7.724,0,0,1,54.5,34.723l1.38-1.231a1.58,1.58,0,0,0,.384-2.07m-22.9.254V28.288h5.712v3.478a2.861,2.861,0,0,1-2.854,2.859c-.048,0-.1,0-.145,0a2.9,2.9,0,0,1-2.712-2.945m19.915,1.692a9.784,9.784,0,0,0-1.942,2.938l-.026.071a2.639,2.639,0,0,1-.5.869l-.06.073a3.019,3.019,0,0,1-.549.571,2.586,2.586,0,0,1-1.482.432c-.044,0-.089,0-.134,0a3.3,3.3,0,0,1-1.365-.379,10.8,10.8,0,0,1,.563-1.278l2.28.123h.023a.38.38,0,0,0,.019-.76l-1.9-.1a7.759,7.759,0,0,1,2.509-2.6.381.381,0,0,0-.1-.7.394.394,0,0,0-.094-.012.377.377,0,0,0-.194.055A7.555,7.555,0,0,0,48.6,34.106l-.083-.749a.38.38,0,0,0-.378-.338l-.041,0a.38.38,0,0,0-.336.42l.164,1.5a11.461,11.461,0,0,0-1.336,2.495,3.283,3.283,0,0,1-.228-.416,3.474,3.474,0,0,1-.352-1.952,4.105,4.105,0,0,1,1.026-1.943A5.04,5.04,0,0,1,49.159,31.7a6.175,6.175,0,0,1,2.067-.336,8.613,8.613,0,0,1,1.47.133l.236.041a4.514,4.514,0,0,1,1.626.691Z" transform="translate(-20.416 -14.515)" fill="#f2f2f2"/>
    <path id="Path_1173" data-name="Path 1173" d="M439.32,181.66a4.822,4.822,0,1,1-.035,9.638,4.578,4.578,0,0,1-4.84-4.775,4.7,4.7,0,0,1,4.875-4.863m.035,1.527a3.005,3.005,0,0,0-3.069,3.265c0,2.265,1.385,3.318,3.051,3.318a2.976,2.976,0,0,0,3.1-3.248,3.053,3.053,0,0,0-3.086-3.335" transform="translate(-281.139 -117.49)" fill="#f2f2f2"/>
  </g>
</svg>
