<svg xmlns="http://www.w3.org/2000/svg" xmlns:xlink="http://www.w3.org/1999/xlink" width="371" height="48" viewBox="0 0 371 48">
  <defs>
    <clipPath id="clip-DEH_myBusinessGasBenefit_logo_RGB-ColorPositive-2H-outl_1">
      <rect width="371" height="48"/>
    </clipPath>
  </defs>
  <g id="DEH_myBusinessGasBenefit_logo_RGB-ColorPositive-2H-outl_1" data-name="DEH_myBusinessGasBenefit logo_RGB-ColorPositive-2H-outl – 1" clip-path="url(#clip-DEH_myBusinessGasBenefit_logo_RGB-ColorPositive-2H-outl_1)">
    <g id="Group_40" data-name="Group 40" transform="translate(-24.3 -24.289)">
      <g id="dei_logo" data-name="dei logo" transform="translate(24.3 24.289)">
        <g id="Group_37" data-name="Group 37">
          <path id="Path_182" data-name="Path 182" d="M113.363,83.219h-1.63a.191.191,0,0,0-.191.191v4.18a.143.143,0,0,1-.143.143h-5.022a.143.143,0,0,1-.143-.143l0-4.18a.191.191,0,0,0-.191-.191h-1.63a.191.191,0,0,0-.191.191V94.073a.191.191,0,0,0,.191.191h1.634a.191.191,0,0,0,.191-.191l0-4.181a.144.144,0,0,1,.143-.143l5.022,0a.143.143,0,0,1,.143.143v4.183a.191.191,0,0,0,.191.191h1.634a.191.191,0,0,0,.191-.191l0-10.663A.191.191,0,0,0,113.363,83.219Z" transform="translate(-73.507 -60.573)" fill="#f2f2f2"/>
          <path id="Path_183" data-name="Path 183" d="M83.957,73.247V71.661a.191.191,0,0,0-.191-.191H75.287a.191.191,0,0,0-.191.191V82.324a.191.191,0,0,0,.191.191l8.479,0a.191.191,0,0,0,.191-.191V80.737a.191.191,0,0,0-.191-.191H77.255a.143.143,0,0,1-.143-.143v-2.28a.143.143,0,0,1,.143-.143l5.033,0a.191.191,0,0,0,.191-.191V76.2a.191.191,0,0,0-.191-.191H77.253a.144.144,0,0,1-.143-.143V73.584a.143.143,0,0,1,.143-.143l6.514,0A.191.191,0,0,0,83.957,73.247Z" transform="translate(-55.575 -53.339)" fill="#f2f2f2"/>
          <path id="Path_184" data-name="Path 184" d="M45.289,59.723H43.045a.294.294,0,0,0-.269.174l-4.629,10.4a.338.338,0,0,0,.309.476l11.425,0a.338.338,0,0,0,.309-.476L45.558,59.9A.294.294,0,0,0,45.289,59.723Zm-4.237,8.936,3-6.722a.129.129,0,0,1,.236,0l3,6.722a.146.146,0,0,1-.133.206H41.185A.146.146,0,0,1,41.052,68.659Z" transform="translate(-32.808 -46.106)" fill="#f2f2f2"/>
          <path id="Path_185" data-name="Path 185" d="M79.357,32.727a22.34,22.34,0,0,1-20.49,39.7l-.758,1.47A23.994,23.994,0,0,0,80.115,31.257Z" transform="translate(-45.116 -28.579)" fill="#f2f2f2"/>
          <path id="Path_186" data-name="Path 186" d="M38.05,68.141a22.34,22.34,0,0,1,20.49-39.7l.759-1.47A23.994,23.994,0,0,0,37.292,69.611Z" transform="translate(-24.3 -24.289)" fill="#f2f2f2"/>
        </g>
      </g>
      <g id="keimena" transform="translate(90.966 36.963)">
        <g id="Group_39" data-name="Group 39" transform="translate(0)">
          <g id="Group_38" data-name="Group 38">
            <path id="Path_187" data-name="Path 187" d="M199.921,72.669v3.484c1.485-2.6,3.37-3.8,5.825-3.8a4.524,4.524,0,0,1,4.8,4.084c1.514-2.8,3.427-4.084,5.968-4.084,2.484,0,4.94,1.285,4.94,5.94v9.281h-2.142v-9c0-2.97-1.342-4.226-3.256-4.226-2.341,0-4.055,1.714-5.369,5.112v8.11h-2.142v-9c0-2.97-1.342-4.226-3.255-4.226-2.37,0-4.027,1.714-5.369,5.14v8.082h-2.142V72.669Z" transform="translate(-197.779 -66.558)" fill="#f2f2f2"/>
            <path id="Path_188" data-name="Path 188" d="M271.526,88.279l-6.054-15.106h2.456l4.712,12.336,4.369-12.336h2.427l-8.053,20.875H269.1l2.456-5.769Z" transform="translate(-239.458 -67.062)" fill="#f2f2f2"/>
            <path id="Path_189" data-name="Path 189" d="M314.55,59.723c3.6,0,6.539,1.371,6.539,5.283a4.6,4.6,0,0,1-2.6,4.4c2.484.742,4,2.428,4,4.826,0,3.427-2.97,5.569-6.854,5.569h-5.654V59.723Zm4.2,5.283c0-2.285-1.514-3.227-4.226-3.227h-2.313v6.882h2.342C317.263,68.661,318.748,67.29,318.748,65.006Zm1.4,9.11c0-2.056-1.8-3.627-4.855-3.627h-3.084v7.253h3.513C318.719,77.742,320.147,75.943,320.147,74.115Z" transform="translate(-266.863 -58.78)" fill="#f2f2f2"/>
            <path id="Path_190" data-name="Path 190" d="M351.444,73.173h2.142v9c0,2.941,1.371,4.2,3.2,4.2,2.456,0,4.112-1.656,5.369-5.054V73.173h2.142V88.08h-2.142V84.71c-1.428,2.513-3.313,3.655-5.826,3.655-2.456,0-4.883-1.257-4.883-5.94Z" transform="translate(-292.392 -67.062)" fill="#f2f2f2"/>
            <path id="Path_191" data-name="Path 191" d="M394.621,84.806a9.279,9.279,0,0,0,4.4,1.085c2.085,0,3.57-.543,3.57-2.313,0-3.827-8.281-.657-8.281-6.854,0-2.6,1.942-4.369,5.455-4.369a9.832,9.832,0,0,1,4.483,1.114l-.571,1.971a7.438,7.438,0,0,0-3.883-1.114c-1.8,0-3.284.742-3.284,2.285,0,4.284,8.224,1.085,8.224,6.853,0,2.742-2.656,4.4-5.74,4.4a12.278,12.278,0,0,1-4.969-1.114Z" transform="translate(-318.607 -66.558)" fill="#f2f2f2"/>
            <path id="Path_192" data-name="Path 192" d="M431.257,57.27a1.591,1.591,0,0,1,1.6,1.571,1.61,1.61,0,0,1-1.6,1.571,1.584,1.584,0,0,1-1.571-1.571A1.566,1.566,0,0,1,431.257,57.27Zm1.085,6.111V78.288H430.2V63.381Z" transform="translate(-340.566 -57.27)" fill="#f2f2f2"/>
            <path id="Path_193" data-name="Path 193" d="M451.073,72.669v3.512c1.542-2.627,3.484-3.827,5.94-3.827,2.514,0,4.969,1.285,4.969,5.94v9.281H459.84v-9c0-2.97-1.371-4.226-3.256-4.226-2.541,0-4.169,1.685-5.512,5.112v8.11h-2.142V72.669Z" transform="translate(-352.416 -66.558)" fill="#f2f2f2"/>
            <path id="Path_194" data-name="Path 194" d="M499.28,72.355c3.8,0,6.882,2.57,6.882,7.768a6.607,6.607,0,0,1-.057.8H494.312c.2,3.341,2.142,4.969,5.512,4.969a9.307,9.307,0,0,0,5.112-1.314l.485,1.742a10.776,10.776,0,0,1-5.711,1.542c-4.712,0-7.682-2.742-7.682-7.568C492.027,75.182,495.368,72.355,499.28,72.355Zm-.057,1.971c-2.6,0-4.512,1.571-4.883,4.769h9.538C503.593,75.839,501.765,74.326,499.223,74.326Z" transform="translate(-378.95 -66.558)" fill="#f2f2f2"/>
            <path id="Path_195" data-name="Path 195" d="M535.5,84.806a9.28,9.28,0,0,0,4.4,1.085c2.085,0,3.57-.543,3.57-2.313,0-3.827-8.281-.657-8.281-6.854,0-2.6,1.942-4.369,5.454-4.369a9.83,9.83,0,0,1,4.483,1.114l-.571,1.971a7.438,7.438,0,0,0-3.883-1.114c-1.8,0-3.284.742-3.284,2.285,0,4.284,8.224,1.085,8.224,6.853,0,2.742-2.656,4.4-5.74,4.4a12.276,12.276,0,0,1-4.969-1.114Z" transform="translate(-405.349 -66.558)" fill="#f2f2f2"/>
            <path id="Path_196" data-name="Path 196" d="M569.31,84.806a9.28,9.28,0,0,0,4.4,1.085c2.085,0,3.57-.543,3.57-2.313,0-3.827-8.281-.657-8.281-6.854,0-2.6,1.941-4.369,5.454-4.369a9.831,9.831,0,0,1,4.483,1.114l-.571,1.971a7.439,7.439,0,0,0-3.884-1.114c-1.8,0-3.284.742-3.284,2.285,0,4.284,8.225,1.085,8.225,6.853,0,2.742-2.656,4.4-5.74,4.4a12.28,12.28,0,0,1-4.969-1.114Z" transform="translate(-426.165 -66.558)" fill="#f2f2f2"/>
            <path id="Path_197" data-name="Path 197" d="M613.154,58.979a10.693,10.693,0,0,1,7.4,2.827l-1.485,1.742a8.408,8.408,0,0,0-5.968-2.456c-4.026,0-7.567,3.027-7.567,8.167,0,5.4,3.456,8.253,7.625,8.253,3.57,0,6.625-2.456,6.968-6.939h-6.168V68.517h8.538v1.028c0,5.711-3.769,10.081-9.338,10.081-5.854,0-9.966-4.141-9.966-10.367C603.188,63.377,607.386,58.979,613.154,58.979Z" transform="translate(-447.393 -58.322)" fill="#f2f2f2"/>
            <path id="Path_198" data-name="Path 198" d="M667.061,72.355a6.4,6.4,0,0,1,5.711,3.284v-2.97h2.142V87.576h-2.142V84.435a6.213,6.213,0,0,1-5.711,3.427c-4.055,0-7.253-2.742-7.253-7.682C659.808,75.182,663.006,72.355,667.061,72.355Zm.028,1.971c-2.884,0-5.026,1.8-5.026,5.825,0,3.655,2.142,5.74,5.026,5.74,3.113,0,5.083-2.484,5.683-5.769C672.287,76.924,669.946,74.326,667.09,74.326Z" transform="translate(-482.255 -66.558)" fill="#f2f2f2"/>
            <path id="Path_199" data-name="Path 199" d="M708.855,84.806a9.28,9.28,0,0,0,4.4,1.085c2.085,0,3.57-.543,3.57-2.313,0-3.827-8.281-.657-8.281-6.854,0-2.6,1.941-4.369,5.454-4.369a9.831,9.831,0,0,1,4.483,1.114l-.571,1.971a7.439,7.439,0,0,0-3.884-1.114c-1.8,0-3.284.742-3.284,2.285,0,4.284,8.225,1.085,8.225,6.853,0,2.742-2.656,4.4-5.74,4.4a12.28,12.28,0,0,1-4.969-1.114Z" transform="translate(-512.084 -66.558)" fill="#f2f2f2"/>
            <path id="Path_200" data-name="Path 200" d="M750.72,59.723c3.6,0,6.539,1.371,6.539,5.283a4.6,4.6,0,0,1-2.6,4.4c2.484.742,4,2.428,4,4.826,0,3.427-2.97,5.569-6.854,5.569h-5.654V59.723Zm4.2,5.283c0-2.285-1.513-3.227-4.226-3.227h-2.313v6.882h2.342C753.433,68.661,754.918,67.29,754.918,65.006Zm1.4,9.11c0-2.056-1.8-3.627-4.855-3.627h-3.084v7.253h3.512C754.889,77.742,756.317,75.943,756.317,74.115Z" transform="translate(-535.417 -58.78)" fill="#f2f2f2"/>
            <path id="Path_201" data-name="Path 201" d="M792.636,72.355c3.8,0,6.883,2.57,6.883,7.768a6.6,6.6,0,0,1-.057.8H787.668c.2,3.341,2.142,4.969,5.511,4.969a9.307,9.307,0,0,0,5.112-1.314l.485,1.742a10.777,10.777,0,0,1-5.711,1.542c-4.712,0-7.682-2.742-7.682-7.568C785.383,75.182,788.724,72.355,792.636,72.355Zm-.057,1.971c-2.6,0-4.512,1.571-4.883,4.769h9.538C796.949,75.839,795.121,74.326,792.58,74.326Z" transform="translate(-559.573 -66.558)" fill="#f2f2f2"/>
            <path id="Path_202" data-name="Path 202" d="M833.6,72.669v3.512c1.542-2.627,3.484-3.827,5.94-3.827,2.513,0,4.969,1.285,4.969,5.94v9.281h-2.142v-9c0-2.97-1.371-4.226-3.255-4.226-2.542,0-4.17,1.685-5.512,5.112v8.11h-2.142V72.669Z" transform="translate(-587.939 -66.558)" fill="#f2f2f2"/>
            <path id="Path_203" data-name="Path 203" d="M881.8,72.355c3.8,0,6.883,2.57,6.883,7.768a6.608,6.608,0,0,1-.057.8H876.834c.2,3.341,2.142,4.969,5.511,4.969a9.307,9.307,0,0,0,5.112-1.314l.485,1.742a10.777,10.777,0,0,1-5.711,1.542c-4.712,0-7.682-2.742-7.682-7.568C874.549,75.182,877.89,72.355,881.8,72.355Zm-.057,1.971c-2.6,0-4.512,1.571-4.883,4.769H886.4C886.115,75.839,884.287,74.326,881.746,74.326Z" transform="translate(-614.473 -66.558)" fill="#f2f2f2"/>
            <path id="Path_204" data-name="Path 204" d="M916.384,66.261V64.434h2.227v-.057c0-3.741,2.056-5.4,5.226-5.4a5.647,5.647,0,0,1,1.913.257l-.371,1.913a7.175,7.175,0,0,0-1.6-.2c-1.885,0-3.027.8-3.027,3.427v.057h4.055v1.828h-4.055V79.34h-2.142V66.261Z" transform="translate(-640.231 -58.322)" fill="#f2f2f2"/>
            <path id="Path_205" data-name="Path 205" d="M946.192,57.27a1.591,1.591,0,0,1,1.6,1.571,1.61,1.61,0,0,1-1.6,1.571,1.584,1.584,0,0,1-1.571-1.571A1.566,1.566,0,0,1,946.192,57.27Zm1.085,6.111V78.288h-2.142V63.381Z" transform="translate(-657.617 -57.27)" fill="#f2f2f2"/>
            <path id="Path_206" data-name="Path 206" d="M961.6,67.772h-2.713V65.944H961.6V61.432h2.142v4.512h5.54v1.828h-5.54v7.767c0,2.77,1.2,3.655,2.827,3.655a6.323,6.323,0,0,0,3.027-.8l.543,1.742a7.972,7.972,0,0,1-4,1c-2.513,0-4.54-1.485-4.54-5.255Z" transform="translate(-666.401 -59.833)" fill="#f2f2f2"/>
          </g>
        </g>
      </g>
    </g>
  </g>
</svg>
