<svg xmlns="http://www.w3.org/2000/svg" xmlns:xlink="http://www.w3.org/1999/xlink" width="357" height="48" viewBox="0 0 357 48">
  <defs>
    <clipPath id="clip-myEnergySolarNet_Pro_offwhite">
      <rect width="357" height="48"/>
    </clipPath>
  </defs>
  <g id="myEnergySolarNet_Pro_offwhite" data-name="myEnergySolarNet Pro offwhite" clip-path="url(#clip-myEnergySolarNet_Pro_offwhite)">
    <path id="Path_1985" data-name="Path 1985" d="M89.064,58.929h-1.63a.191.191,0,0,0-.191.191V63.3a.143.143,0,0,1-.143.143H82.078a.143.143,0,0,1-.143-.143l0-4.18a.191.191,0,0,0-.191-.191h-1.63a.191.191,0,0,0-.191.191V69.783a.191.191,0,0,0,.191.191h1.634a.19.19,0,0,0,.191-.191l0-4.18a.143.143,0,0,1,.143-.143l5.022,0a.143.143,0,0,1,.143.143v4.183a.191.191,0,0,0,.191.191h1.634a.191.191,0,0,0,.191-.191l0-10.663a.191.191,0,0,0-.191-.191" transform="translate(-49.293 -36.283)" fill="#f2f2f2"/>
    <path id="Path_1986" data-name="Path 1986" d="M59.657,48.957V47.371a.191.191,0,0,0-.191-.191H50.987a.191.191,0,0,0-.191.191V58.034a.191.191,0,0,0,.191.191l8.479,0a.191.191,0,0,0,.191-.191V56.447a.191.191,0,0,0-.191-.191H52.955a.143.143,0,0,1-.143-.143v-2.28a.143.143,0,0,1,.143-.143l5.033,0a.191.191,0,0,0,.191-.191V51.909a.191.191,0,0,0-.191-.191H52.953a.143.143,0,0,1-.143-.143V49.294a.143.143,0,0,1,.143-.143l6.514,0a.191.191,0,0,0,.191-.191" transform="translate(-31.361 -29.049)" fill="#f2f2f2"/>
    <path id="Path_1987" data-name="Path 1987" d="M20.99,35.433H18.745a.294.294,0,0,0-.269.174L13.848,46a.338.338,0,0,0,.309.476l11.425,0A.338.338,0,0,0,25.891,46L21.258,35.607a.294.294,0,0,0-.269-.174M16.753,44.37l3-6.722a.129.129,0,0,1,.236,0l3,6.722a.146.146,0,0,1-.133.205H16.886a.146.146,0,0,1-.133-.205" transform="translate(-8.593 -21.816)" fill="#f2f2f2"/>
    <path id="Path_1988" data-name="Path 1988" d="M55.057,8.438a22.34,22.34,0,0,1-20.489,39.7l-.759,1.47A23.994,23.994,0,0,0,55.815,6.968Z" transform="translate(-20.902 -4.291)" fill="#f2f2f2"/>
    <path id="Path_1989" data-name="Path 1989" d="M13.751,43.852A22.34,22.34,0,0,1,34.24,4.148L35,2.678A23.994,23.994,0,0,0,12.992,45.322Z" transform="translate(-0.085)" fill="#f2f2f2"/>
    <path id="Path_1990" data-name="Path 1990" d="M175.621,48.381v3.484c1.485-2.6,3.37-3.8,5.825-3.8a4.524,4.524,0,0,1,4.8,4.083c1.514-2.8,3.427-4.083,5.968-4.083,2.484,0,4.94,1.285,4.94,5.94v9.281h-2.142v-9c0-2.97-1.342-4.226-3.256-4.226-2.341,0-4.055,1.714-5.368,5.111v8.11h-2.142v-9c0-2.97-1.342-4.226-3.255-4.226-2.37,0-4.027,1.714-5.368,5.14v8.081h-2.142V48.381Z" transform="translate(-106.898 -29.596)" fill="#f2f2f2"/>
    <path id="Path_1991" data-name="Path 1991" d="M247.226,63.99l-6.054-15.106h2.456l4.712,12.336,4.369-12.336h2.427l-8.053,20.875H244.8l2.456-5.769Z" transform="translate(-148.578 -30.099)" fill="#f2f2f2"/>
    <path id="Path_1992" data-name="Path 1992" d="M296.647,35.434v2.056h-8.738V44.4h7.482v2.056h-7.482v7h8.738v2.056H285.682V35.434Z" transform="translate(-175.983 -21.817)" fill="#f2f2f2"/>
    <path id="Path_1993" data-name="Path 1993" d="M325.793,48.381v3.512c1.542-2.627,3.484-3.826,5.94-3.826,2.513,0,4.968,1.285,4.968,5.94v9.281h-2.142v-9c0-2.97-1.371-4.226-3.255-4.226-2.542,0-4.169,1.685-5.511,5.111v8.11h-2.142V48.381Z" transform="translate(-199.361 -29.596)" fill="#f2f2f2"/>
    <path id="Path_1994" data-name="Path 1994" d="M374,48.067c3.8,0,6.883,2.57,6.883,7.767a6.6,6.6,0,0,1-.057.8H369.033c.2,3.341,2.142,4.968,5.511,4.968a9.306,9.306,0,0,0,5.111-1.313l.485,1.742a10.777,10.777,0,0,1-5.711,1.542c-4.712,0-7.682-2.741-7.682-7.567,0-5.112,3.341-7.939,7.253-7.939m-.057,1.97c-2.6,0-4.512,1.571-4.883,4.769H378.6c-.286-3.256-2.113-4.769-4.655-4.769" transform="translate(-225.897 -29.596)" fill="#f2f2f2"/>
    <path id="Path_1995" data-name="Path 1995" d="M414.96,48.427v3.484c1.171-2.056,2.856-3.769,5.112-3.769a4.179,4.179,0,0,1,1.513.285l-.457,1.885a3.548,3.548,0,0,0-1.171-.228c-2.17,0-3.941,2.142-5,5.026v8.224h-2.142V48.427Z" transform="translate(-254.263 -29.642)" fill="#f2f2f2"/>
    <path id="Path_1996" data-name="Path 1996" d="M439.555,65.6a11.4,11.4,0,0,0,6.2,1.97c2.856,0,5.368-1.6,5.368-4.426V60.089a6.181,6.181,0,0,1-5.74,3.2c-4.027,0-7.225-2.627-7.225-7.539,0-5,3.2-7.681,7.225-7.681a6.355,6.355,0,0,1,5.74,3.341V48.381h2.142V63.059c0,4.027-3.455,6.482-7.6,6.482a11.58,11.58,0,0,1-6.54-1.913Zm5.854-15.563c-2.856,0-5.026,1.628-5.026,5.683,0,3.655,2.17,5.6,5.026,5.6,3.141,0,5.112-2.2,5.711-5.483-.485-3.2-2.8-5.8-5.711-5.8" transform="translate(-269.863 -29.596)" fill="#f2f2f2"/>
    <path id="Path_1997" data-name="Path 1997" d="M490.575,63.99l-6.054-15.106h2.456l4.712,12.336,4.369-12.336h2.427l-8.053,20.875h-2.285L490.6,63.99Z" transform="translate(-298.411 -30.099)" fill="#f2f2f2"/>
    <path id="Path_1998" data-name="Path 1998" d="M525.881,51.882a10.165,10.165,0,0,0,4.826,1.342c3.027,0,4.512-1.571,4.512-3.541,0-4.74-9.766-2.17-9.766-9.281,0-3.512,2.684-5.711,6.339-5.711a8.836,8.836,0,0,1,5.14,1.456l-.942,1.885a8.512,8.512,0,0,0-4.255-1.228c-2.713,0-4.027,1.513-4.027,3.369,0,5.54,9.8,2.685,9.8,9.309,0,3.541-3.027,5.854-6.8,5.854a12.2,12.2,0,0,1-5.539-1.342Z" transform="translate(-323.438 -21.36)" fill="#f2f2f2"/>
    <path id="Path_1999" data-name="Path 1999" d="M571.337,48.067c3.6,0,7.853,2.4,7.853,7.653a7.6,7.6,0,0,1-7.91,7.853,7.3,7.3,0,0,1-7.625-7.682,7.54,7.54,0,0,1,7.682-7.824m.057,1.97a5.355,5.355,0,0,0-5.483,5.711c0,4.055,2.57,5.854,5.483,5.854a5.264,5.264,0,0,0,5.54-5.682c0-3.941-2.742-5.883-5.54-5.883" transform="translate(-347.135 -29.596)" fill="#f2f2f2"/>
    <rect id="Rectangle_111" data-name="Rectangle 111" width="2.142" height="20.075" transform="translate(235.709 13.617)" fill="#f2f2f2"/>
    <path id="Path_2000" data-name="Path 2000" d="M636,48.067a6.4,6.4,0,0,1,5.711,3.284v-2.97h2.142V63.287h-2.142V60.146A6.213,6.213,0,0,1,636,63.573c-4.055,0-7.253-2.741-7.253-7.682,0-5,3.2-7.824,7.253-7.824m.029,1.97c-2.884,0-5.026,1.8-5.026,5.825,0,3.655,2.142,5.74,5.026,5.74,3.113,0,5.083-2.484,5.683-5.769-.486-3.2-2.827-5.8-5.683-5.8" transform="translate(-387.213 -29.596)" fill="#f2f2f2"/>
    <path id="Path_2001" data-name="Path 2001" d="M682.532,48.427v3.484c1.171-2.056,2.856-3.769,5.112-3.769a4.18,4.18,0,0,1,1.513.285l-.457,1.885a3.548,3.548,0,0,0-1.171-.228c-2.17,0-3.941,2.142-5,5.026v8.224H680.39V48.427Z" transform="translate(-419.011 -29.642)" fill="#f2f2f2"/>
    <path id="Path_2002" data-name="Path 2002" d="M713.155,35.434l10.28,13.936L725.206,52V35.434h2.227V55.509h-2.227L714.668,41.174l-1.513-2.2V55.509h-2.227V35.434Z" transform="translate(-437.813 -21.817)" fill="#f2f2f2"/>
    <path id="Path_2003" data-name="Path 2003" d="M771.086,48.067c3.8,0,6.882,2.57,6.882,7.767a6.576,6.576,0,0,1-.057.8H766.118c.2,3.341,2.142,4.968,5.511,4.968a9.3,9.3,0,0,0,5.111-1.313l.485,1.742a10.776,10.776,0,0,1-5.711,1.542c-4.712,0-7.682-2.741-7.682-7.567,0-5.112,3.342-7.939,7.254-7.939m-.057,1.97c-2.6,0-4.512,1.571-4.883,4.769h9.537c-.285-3.256-2.113-4.769-4.655-4.769" transform="translate(-470.388 -29.596)" fill="#f2f2f2"/>
    <path id="Path_2004" data-name="Path 2004" d="M807.118,43.483H804.4V41.655h2.713V37.143h2.142v4.512h5.54v1.828h-5.54V51.25c0,2.77,1.2,3.655,2.828,3.655a6.325,6.325,0,0,0,3.027-.8l.542,1.742a7.972,7.972,0,0,1-4,1c-2.513,0-4.54-1.485-4.54-5.254Z" transform="translate(-495.368 -22.87)" fill="#f2f2f2"/>
    <path id="Path_2005" data-name="Path 2005" d="M847.594,35.4c2.731,0,4.965,1.356,4.965,4.354,0,2.922-2.368,4.355-4.965,4.355h-1.585V48.83h-1.967V35.4Zm2.922,4.45c0-1.814-1.069-2.75-3.151-2.75h-1.356v5.29h1.375c2.063,0,3.132-1.089,3.132-2.54" transform="translate(-519.773 -21.799)" fill="#f2f2f2"/>
    <path id="Path_2006" data-name="Path 2006" d="M873.287,43.944v2.12a4.1,4.1,0,0,1,3.361-2.311,3.044,3.044,0,0,1,1.013.153l-.325,1.662a2.606,2.606,0,0,0-.84-.153c-1.356,0-2.5,1.279-3.208,3.151v5.4h-1.91V43.944Z" transform="translate(-536.604 -26.939)" fill="#f2f2f2"/>
    <path id="Path_2007" data-name="Path 2007" d="M894.18,43.6a5.246,5.246,0,1,1-.038,10.485,4.982,4.982,0,0,1-5.271-5.195,5.111,5.111,0,0,1,5.309-5.29m.038,1.662a3.271,3.271,0,0,0-3.342,3.552c0,2.464,1.509,3.61,3.323,3.61a3.239,3.239,0,0,0,3.38-3.534,3.323,3.323,0,0,0-3.361-3.628" transform="translate(-547.375 -26.848)" fill="#f2f2f2"/>
  </g>
</svg>
