<svg xmlns="http://www.w3.org/2000/svg" xmlns:xlink="http://www.w3.org/1999/xlink" width="272" height="48" viewBox="0 0 272 48">
  <defs>
    <clipPath id="clip-path">
      <rect id="Rectangle_86" data-name="Rectangle 86" width="270.231" height="48" fill="#f2f2f2"/>
    </clipPath>
    <clipPath id="clip-myEnergySolar_offwhite">
      <rect width="272" height="48"/>
    </clipPath>
  </defs>
  <g id="myEnergySolar_offwhite" data-name="myEnergySolar offwhite" clip-path="url(#clip-myEnergySolar_offwhite)">
    <g id="Group_293" data-name="Group 293">
      <g id="Group_292" data-name="Group 292" clip-path="url(#clip-path)">
        <path id="Path_1725" data-name="Path 1725" d="M89.064,58.929h-1.63a.191.191,0,0,0-.191.191V63.3a.143.143,0,0,1-.143.143H82.078a.143.143,0,0,1-.143-.143l0-4.18a.191.191,0,0,0-.191-.191h-1.63a.191.191,0,0,0-.191.191V69.783a.191.191,0,0,0,.191.191h1.634a.19.19,0,0,0,.191-.191l0-4.18a.143.143,0,0,1,.143-.143l5.022,0a.143.143,0,0,1,.143.143v4.183a.191.191,0,0,0,.191.191h1.634a.191.191,0,0,0,.191-.191l0-10.663a.191.191,0,0,0-.191-.191" transform="translate(-49.208 -36.283)" fill="#f2f2f2"/>
        <path id="Path_1726" data-name="Path 1726" d="M59.657,48.957V47.371a.191.191,0,0,0-.191-.191H50.987a.191.191,0,0,0-.191.191V58.034a.191.191,0,0,0,.191.191l8.479,0a.191.191,0,0,0,.191-.191V56.447a.191.191,0,0,0-.191-.191H52.955a.143.143,0,0,1-.143-.143v-2.28a.143.143,0,0,1,.143-.143l5.033,0a.191.191,0,0,0,.191-.191V51.909a.191.191,0,0,0-.191-.191H52.953a.143.143,0,0,1-.143-.143V49.294a.143.143,0,0,1,.143-.143l6.514,0a.191.191,0,0,0,.191-.191" transform="translate(-31.276 -29.049)" fill="#f2f2f2"/>
        <path id="Path_1727" data-name="Path 1727" d="M20.99,35.433H18.745a.294.294,0,0,0-.269.174L13.848,46a.338.338,0,0,0,.309.476l11.425,0A.338.338,0,0,0,25.891,46L21.258,35.607a.294.294,0,0,0-.269-.174M16.753,44.37l3-6.722a.129.129,0,0,1,.236,0l3,6.722a.146.146,0,0,1-.133.206H16.886a.146.146,0,0,1-.133-.206" transform="translate(-8.508 -21.817)" fill="#f2f2f2"/>
        <path id="Path_1728" data-name="Path 1728" d="M55.057,8.438a22.34,22.34,0,0,1-20.489,39.7l-.759,1.47A23.994,23.994,0,0,0,55.815,6.968Z" transform="translate(-20.817 -4.29)" fill="#f2f2f2"/>
        <path id="Path_1729" data-name="Path 1729" d="M13.751,43.852A22.34,22.34,0,0,1,34.24,4.148L35,2.678A23.994,23.994,0,0,0,12.992,45.322Z" transform="translate(0 0)" fill="#f2f2f2"/>
        <path id="Path_1730" data-name="Path 1730" d="M175.621,48.381v3.484c1.485-2.6,3.37-3.8,5.825-3.8a4.524,4.524,0,0,1,4.8,4.083c1.513-2.8,3.427-4.083,5.968-4.083,2.484,0,4.94,1.285,4.94,5.94v9.281H195.01v-9c0-2.97-1.342-4.226-3.255-4.226-2.341,0-4.055,1.714-5.368,5.112v8.11h-2.142v-9c0-2.97-1.342-4.226-3.255-4.226-2.37,0-4.027,1.714-5.368,5.14v8.082h-2.142V48.381Z" transform="translate(-106.813 -29.596)" fill="#f2f2f2"/>
        <path id="Path_1731" data-name="Path 1731" d="M247.226,63.99l-6.054-15.106h2.456L248.34,61.22l4.369-12.336h2.427l-8.053,20.875H244.8l2.456-5.769Z" transform="translate(-148.493 -30.099)" fill="#f2f2f2"/>
        <path id="Path_1732" data-name="Path 1732" d="M296.647,35.434V37.49h-8.738V44.4h7.482v2.056h-7.482v7h8.738v2.056H285.681V35.434Z" transform="translate(-175.898 -21.817)" fill="#f2f2f2"/>
        <path id="Path_1733" data-name="Path 1733" d="M325.794,48.381v3.512c1.542-2.627,3.484-3.826,5.94-3.826,2.513,0,4.969,1.285,4.969,5.94v9.281H334.56v-9c0-2.97-1.37-4.226-3.255-4.226-2.541,0-4.169,1.685-5.511,5.112v8.11h-2.142V48.381Z" transform="translate(-199.277 -29.596)" fill="#f2f2f2"/>
        <path id="Path_1734" data-name="Path 1734" d="M374,48.067c3.8,0,6.882,2.57,6.882,7.767a6.589,6.589,0,0,1-.057.8H369.034c.2,3.341,2.141,4.969,5.511,4.969a9.305,9.305,0,0,0,5.111-1.313l.486,1.742a10.777,10.777,0,0,1-5.711,1.542c-4.712,0-7.681-2.742-7.681-7.568,0-5.111,3.341-7.939,7.253-7.939m-.058,1.97c-2.6,0-4.512,1.571-4.883,4.769H378.6c-.286-3.255-2.113-4.769-4.655-4.769" transform="translate(-225.813 -29.596)" fill="#f2f2f2"/>
        <path id="Path_1735" data-name="Path 1735" d="M414.96,48.427V51.91c1.171-2.056,2.856-3.769,5.112-3.769a4.17,4.17,0,0,1,1.513.286l-.457,1.885a3.548,3.548,0,0,0-1.171-.228c-2.17,0-3.941,2.142-5,5.026v8.224h-2.142V48.427Z" transform="translate(-254.178 -29.641)" fill="#f2f2f2"/>
        <path id="Path_1736" data-name="Path 1736" d="M439.555,65.6a11.4,11.4,0,0,0,6.2,1.971c2.856,0,5.368-1.6,5.368-4.427V60.089a6.18,6.18,0,0,1-5.74,3.2c-4.027,0-7.225-2.627-7.225-7.539,0-5,3.2-7.681,7.225-7.681a6.355,6.355,0,0,1,5.74,3.341V48.381h2.142V63.059c0,4.026-3.456,6.482-7.6,6.482a11.579,11.579,0,0,1-6.54-1.913Zm5.854-15.563c-2.856,0-5.026,1.628-5.026,5.683,0,3.655,2.17,5.6,5.026,5.6,3.141,0,5.112-2.2,5.711-5.483-.485-3.2-2.8-5.8-5.711-5.8" transform="translate(-269.778 -29.596)" fill="#f2f2f2"/>
        <path id="Path_1737" data-name="Path 1737" d="M490.575,63.99l-6.054-15.106h2.456l4.712,12.336,4.369-12.336h2.427l-8.053,20.875h-2.285L490.6,63.99Z" transform="translate(-298.326 -30.099)" fill="#f2f2f2"/>
        <path id="Path_1738" data-name="Path 1738" d="M525.881,51.881a10.165,10.165,0,0,0,4.826,1.342c3.027,0,4.512-1.571,4.512-3.541,0-4.74-9.766-2.17-9.766-9.281,0-3.512,2.684-5.711,6.34-5.711a8.834,8.834,0,0,1,5.14,1.456l-.942,1.885a8.517,8.517,0,0,0-4.255-1.228c-2.713,0-4.027,1.514-4.027,3.37,0,5.54,9.8,2.684,9.8,9.309,0,3.541-3.027,5.854-6.8,5.854a12.2,12.2,0,0,1-5.54-1.342Z" transform="translate(-323.353 -21.359)" fill="#f2f2f2"/>
        <path id="Path_1739" data-name="Path 1739" d="M571.338,48.067c3.6,0,7.853,2.4,7.853,7.653a7.6,7.6,0,0,1-7.91,7.853,7.3,7.3,0,0,1-7.625-7.682,7.54,7.54,0,0,1,7.682-7.824m.057,1.97a5.355,5.355,0,0,0-5.483,5.711c0,4.055,2.57,5.854,5.483,5.854,2.97,0,5.54-1.856,5.54-5.682,0-3.941-2.742-5.883-5.54-5.883" transform="translate(-347.051 -29.596)" fill="#f2f2f2"/>
        <rect id="Rectangle_85" data-name="Rectangle 85" width="2.142" height="20.075" transform="translate(235.794 13.617)" fill="#f2f2f2"/>
        <path id="Path_1740" data-name="Path 1740" d="M636,48.067a6.4,6.4,0,0,1,5.711,3.284v-2.97h2.142V63.287h-2.142V60.146A6.213,6.213,0,0,1,636,63.573c-4.055,0-7.253-2.742-7.253-7.682,0-5,3.2-7.824,7.253-7.824m.028,1.97c-2.884,0-5.026,1.8-5.026,5.825,0,3.655,2.142,5.74,5.026,5.74,3.113,0,5.083-2.484,5.683-5.769-.486-3.2-2.827-5.8-5.683-5.8" transform="translate(-387.129 -29.596)" fill="#f2f2f2"/>
        <path id="Path_1741" data-name="Path 1741" d="M682.533,48.427V51.91c1.171-2.056,2.856-3.769,5.112-3.769a4.17,4.17,0,0,1,1.513.286l-.457,1.885a3.552,3.552,0,0,0-1.171-.228c-2.17,0-3.941,2.142-5,5.026v8.224h-2.142V48.427Z" transform="translate(-418.926 -29.641)" fill="#f2f2f2"/>
      </g>
    </g>
  </g>
</svg>
