<svg xmlns="http://www.w3.org/2000/svg" xmlns:xlink="http://www.w3.org/1999/xlink" width="241" height="48" viewBox="0 0 241 48">
  <defs>
    <clipPath id="clip-path">
      <rect id="Rectangle_99" data-name="Rectangle 99" width="237.851" height="48" fill="#f2f2f2"/>
    </clipPath>
    <clipPath id="clip-myHome4All_offwhite">
      <rect width="241" height="48"/>
    </clipPath>
  </defs>
  <g id="myHome4All_offwhite" data-name="myHome4All offwhite" clip-path="url(#clip-myHome4All_offwhite)">
    <g id="Group_309" data-name="Group 309">
      <g id="Group_308" data-name="Group 308" clip-path="url(#clip-path)">
        <path id="Path_1864" data-name="Path 1864" d="M89.064,58.929h-1.63a.191.191,0,0,0-.191.191V63.3a.143.143,0,0,1-.143.143H82.078a.143.143,0,0,1-.143-.143l0-4.18a.191.191,0,0,0-.191-.191h-1.63a.191.191,0,0,0-.191.191V69.783a.191.191,0,0,0,.191.191h1.634a.191.191,0,0,0,.191-.191l0-4.18a.143.143,0,0,1,.143-.143l5.022,0a.143.143,0,0,1,.143.143v4.183a.191.191,0,0,0,.191.191h1.634a.191.191,0,0,0,.191-.191l0-10.663a.191.191,0,0,0-.191-.191" transform="translate(-49.208 -36.283)" fill="#f2f2f2"/>
        <path id="Path_1865" data-name="Path 1865" d="M59.657,48.957V47.371a.191.191,0,0,0-.191-.191H50.987a.191.191,0,0,0-.191.191V58.034a.191.191,0,0,0,.191.191l8.479,0a.191.191,0,0,0,.191-.191V56.447a.191.191,0,0,0-.191-.191H52.955a.143.143,0,0,1-.143-.143v-2.28a.143.143,0,0,1,.143-.143l5.033,0a.191.191,0,0,0,.191-.191V51.909a.191.191,0,0,0-.191-.191H52.953a.143.143,0,0,1-.143-.143V49.294a.143.143,0,0,1,.143-.143l6.514,0a.191.191,0,0,0,.191-.191" transform="translate(-31.276 -29.049)" fill="#f2f2f2"/>
        <path id="Path_1866" data-name="Path 1866" d="M20.99,35.433H18.745a.294.294,0,0,0-.269.174L13.848,46a.338.338,0,0,0,.309.476l11.425,0A.338.338,0,0,0,25.891,46L21.258,35.607a.294.294,0,0,0-.269-.174M16.753,44.37l3-6.722a.129.129,0,0,1,.236,0l3,6.722a.146.146,0,0,1-.133.206H16.886a.146.146,0,0,1-.133-.206" transform="translate(-8.508 -21.817)" fill="#f2f2f2"/>
        <path id="Path_1867" data-name="Path 1867" d="M55.057,8.438a22.34,22.34,0,0,1-20.489,39.7l-.759,1.47A23.994,23.994,0,0,0,55.815,6.968Z" transform="translate(-20.817 -4.29)" fill="#f2f2f2"/>
        <path id="Path_1868" data-name="Path 1868" d="M13.751,43.852A22.34,22.34,0,0,1,34.24,4.148L35,2.678A23.994,23.994,0,0,0,12.992,45.322Z" transform="translate(0 0)" fill="#f2f2f2"/>
        <path id="Path_1869" data-name="Path 1869" d="M175.621,48.382v3.484c1.485-2.6,3.369-3.8,5.825-3.8a4.523,4.523,0,0,1,4.8,4.083c1.514-2.8,3.427-4.083,5.969-4.083,2.484,0,4.94,1.284,4.94,5.939v9.281h-2.142v-9c0-2.97-1.342-4.226-3.256-4.226-2.341,0-4.055,1.714-5.368,5.111v8.11h-2.142v-9c0-2.97-1.342-4.226-3.255-4.226-2.37,0-4.027,1.714-5.369,5.14v8.081h-2.142V48.382Z" transform="translate(-106.813 -29.596)" fill="#f2f2f2"/>
        <path id="Path_1870" data-name="Path 1870" d="M247.226,63.991l-6.054-15.106h2.456l4.711,12.336,4.37-12.336h2.427l-8.053,20.874H244.8l2.456-5.769Z" transform="translate(-148.493 -30.099)" fill="#f2f2f2"/>
        <path id="Path_1871" data-name="Path 1871" d="M287.909,35.434V44.4h12.336V35.434h2.227V55.509h-2.227V46.486H287.909v9.024h-2.227V35.434Z" transform="translate(-175.898 -21.817)" fill="#f2f2f2"/>
        <path id="Path_1872" data-name="Path 1872" d="M346.937,48.067c3.6,0,7.853,2.4,7.853,7.653a7.6,7.6,0,0,1-7.91,7.853,7.3,7.3,0,0,1-7.625-7.682,7.54,7.54,0,0,1,7.682-7.824m.057,1.97a5.355,5.355,0,0,0-5.483,5.711c0,4.055,2.57,5.854,5.483,5.854,2.97,0,5.54-1.856,5.54-5.682,0-3.941-2.741-5.883-5.54-5.883" transform="translate(-208.884 -29.596)" fill="#f2f2f2"/>
        <path id="Path_1873" data-name="Path 1873" d="M391.331,48.382v3.484c1.485-2.6,3.369-3.8,5.825-3.8a4.524,4.524,0,0,1,4.8,4.083c1.514-2.8,3.427-4.083,5.968-4.083,2.484,0,4.94,1.284,4.94,5.939v9.281h-2.142v-9c0-2.97-1.342-4.226-3.256-4.226-2.341,0-4.055,1.714-5.368,5.111v8.11h-2.142v-9c0-2.97-1.342-4.226-3.255-4.226-2.37,0-4.027,1.714-5.368,5.14v8.081h-2.142V48.382Z" transform="translate(-239.629 -29.596)" fill="#f2f2f2"/>
        <path id="Path_1874" data-name="Path 1874" d="M467.181,48.067c3.8,0,6.883,2.57,6.883,7.767a6.59,6.59,0,0,1-.057.8H462.213c.2,3.341,2.142,4.969,5.511,4.969a9.306,9.306,0,0,0,5.112-1.313l.485,1.742a10.777,10.777,0,0,1-5.711,1.542c-4.712,0-7.682-2.742-7.682-7.568,0-5.111,3.341-7.939,7.253-7.939m-.057,1.97c-2.6,0-4.512,1.571-4.883,4.769h9.538c-.286-3.255-2.113-4.769-4.654-4.769" transform="translate(-283.184 -29.596)" fill="#f2f2f2"/>
        <path id="Path_1875" data-name="Path 1875" d="M501.762,50.741V49.085l10.023-13.65h1.856v13.25H516.5v2.056h-2.856V55.8h-2.227V50.741Zm9.652-11.708-7.11,9.652h7.11Z" transform="translate(-308.942 -21.818)" fill="#f2f2f2"/>
        <path id="Path_1876" data-name="Path 1876" d="M553.466,35.435l7.482,20.075h-2.484l-2.17-6h-8.024l-2.113,6h-2.484l7.567-20.075Zm-1.228,2.827-3.256,9.2h6.568Z" transform="translate(-334.746 -21.818)" fill="#f2f2f2"/>
        <rect id="Rectangle_97" data-name="Rectangle 97" width="2.142" height="20.075" transform="translate(228.827 13.617)" fill="#f2f2f2"/>
        <rect id="Rectangle_98" data-name="Rectangle 98" width="2.142" height="20.075" transform="translate(235.709 13.617)" fill="#f2f2f2"/>
      </g>
    </g>
  </g>
</svg>
