<svg xmlns="http://www.w3.org/2000/svg" width="345.561" height="48" viewBox="0 0 345.561 48">
  <g id="Group_8" data-name="Group 8" transform="translate(-24.3 -24.289)">
    <g id="dei_logo" data-name="dei logo" transform="translate(24.3 24.289)">
      <g id="Group_5" data-name="Group 5">
        <path id="Path_22" data-name="Path 22" d="M113.363,83.219h-1.63a.191.191,0,0,0-.191.191v4.18a.143.143,0,0,1-.143.143h-5.022a.143.143,0,0,1-.143-.143l0-4.18a.191.191,0,0,0-.191-.191h-1.63a.191.191,0,0,0-.191.191V94.073a.191.191,0,0,0,.191.191h1.634a.191.191,0,0,0,.191-.191l0-4.181a.144.144,0,0,1,.143-.143l5.022,0a.143.143,0,0,1,.143.143v4.183a.191.191,0,0,0,.191.191h1.634a.191.191,0,0,0,.191-.191l0-10.663A.191.191,0,0,0,113.363,83.219Z" transform="translate(-73.507 -60.573)" fill="#f2f2f2"/>
        <path id="Path_23" data-name="Path 23" d="M83.957,73.247V71.661a.191.191,0,0,0-.191-.191H75.287a.191.191,0,0,0-.191.191V82.324a.191.191,0,0,0,.191.191l8.479,0a.191.191,0,0,0,.191-.191V80.737a.191.191,0,0,0-.191-.191H77.255a.143.143,0,0,1-.143-.143v-2.28a.143.143,0,0,1,.143-.143l5.033,0a.191.191,0,0,0,.191-.191V76.2a.191.191,0,0,0-.191-.191H77.253a.144.144,0,0,1-.143-.143V73.584a.143.143,0,0,1,.143-.143l6.514,0A.191.191,0,0,0,83.957,73.247Z" transform="translate(-55.575 -53.339)" fill="#f2f2f2"/>
        <path id="Path_24" data-name="Path 24" d="M45.289,59.723H43.045a.294.294,0,0,0-.269.174l-4.629,10.4a.338.338,0,0,0,.309.476l11.425,0a.338.338,0,0,0,.309-.476L45.558,59.9A.294.294,0,0,0,45.289,59.723Zm-4.237,8.936,3-6.722a.129.129,0,0,1,.236,0l3,6.722a.146.146,0,0,1-.133.206H41.185A.146.146,0,0,1,41.052,68.659Z" transform="translate(-32.808 -46.106)" fill="#f2f2f2"/>
        <path id="Path_25" data-name="Path 25" d="M79.357,32.727a22.34,22.34,0,0,1-20.49,39.7l-.758,1.47A23.994,23.994,0,0,0,80.115,31.257Z" transform="translate(-45.116 -28.579)" fill="#f2f2f2"/>
        <path id="Path_26" data-name="Path 26" d="M38.05,68.141a22.34,22.34,0,0,1,20.49-39.7l.759-1.47A23.994,23.994,0,0,0,37.292,69.611Z" transform="translate(-24.3 -24.289)" fill="#f2f2f2"/>
      </g>
    </g>
    <g id="keimena" transform="translate(90.966 37.62)">
      <g id="Group_7" data-name="Group 7" transform="translate(0 0)">
        <g id="Group_6" data-name="Group 6">
          <path id="Path_27" data-name="Path 27" d="M199.921,72.669v3.484c1.485-2.6,3.37-3.8,5.825-3.8a4.524,4.524,0,0,1,4.8,4.084c1.514-2.8,3.427-4.084,5.968-4.084,2.484,0,4.94,1.285,4.94,5.94v9.281h-2.142v-9c0-2.97-1.342-4.226-3.256-4.226-2.341,0-4.055,1.714-5.369,5.112v8.11h-2.142v-9c0-2.97-1.342-4.226-3.255-4.226-2.37,0-4.027,1.714-5.369,5.14v8.082h-2.142V72.669Z" transform="translate(-197.779 -67.215)" fill="#f2f2f2"/>
          <path id="Path_28" data-name="Path 28" d="M271.526,88.279l-6.054-15.106h2.456l4.712,12.336,4.369-12.336h2.427l-8.053,20.875H269.1l2.456-5.769Z" transform="translate(-239.458 -67.718)" fill="#f2f2f2"/>
          <path id="Path_29" data-name="Path 29" d="M312.208,59.723V68.69h12.336V59.723h2.227V79.8h-2.227V70.774H312.208V79.8h-2.227V59.723Z" transform="translate(-266.863 -59.437)" fill="#f2f2f2"/>
          <path id="Path_30" data-name="Path 30" d="M371.238,72.355c3.6,0,7.853,2.4,7.853,7.654a7.6,7.6,0,0,1-7.91,7.853,7.3,7.3,0,0,1-7.625-7.682A7.54,7.54,0,0,1,371.238,72.355Zm.057,1.971a5.355,5.355,0,0,0-5.483,5.711c0,4.055,2.57,5.854,5.483,5.854,2.97,0,5.54-1.857,5.54-5.683C376.835,76.267,374.094,74.326,371.3,74.326Z" transform="translate(-299.85 -67.215)" fill="#f2f2f2"/>
          <path id="Path_31" data-name="Path 31" d="M415.631,72.669v3.484c1.485-2.6,3.37-3.8,5.825-3.8a4.524,4.524,0,0,1,4.8,4.084c1.513-2.8,3.427-4.084,5.968-4.084,2.484,0,4.94,1.285,4.94,5.94v9.281h-2.142v-9c0-2.97-1.342-4.226-3.256-4.226-2.341,0-4.055,1.714-5.368,5.112v8.11h-2.142v-9c0-2.97-1.342-4.226-3.255-4.226-2.37,0-4.027,1.714-5.369,5.14v8.082h-2.142V72.669Z" transform="translate(-330.594 -67.215)" fill="#f2f2f2"/>
          <path id="Path_32" data-name="Path 32" d="M491.48,72.355c3.8,0,6.882,2.57,6.882,7.768a6.6,6.6,0,0,1-.057.8H486.512c.2,3.341,2.142,4.969,5.512,4.969a9.307,9.307,0,0,0,5.112-1.314l.485,1.742a10.778,10.778,0,0,1-5.711,1.542c-4.712,0-7.682-2.742-7.682-7.568C484.227,75.182,487.568,72.355,491.48,72.355Zm-.057,1.971c-2.6,0-4.512,1.571-4.883,4.769h9.538C495.793,75.839,493.965,74.326,491.424,74.326Z" transform="translate(-374.148 -67.215)" fill="#f2f2f2"/>
          <path id="Path_33" data-name="Path 33" d="M537.737,58.979a10.693,10.693,0,0,1,7.4,2.827l-1.485,1.742a8.408,8.408,0,0,0-5.968-2.456c-4.026,0-7.567,3.027-7.567,8.167,0,5.4,3.456,8.253,7.625,8.253,3.57,0,6.625-2.456,6.968-6.939h-6.168V68.517h8.538v1.028c0,5.711-3.769,10.081-9.338,10.081-5.854,0-9.966-4.141-9.966-10.367C527.771,63.377,531.969,58.979,537.737,58.979Z" transform="translate(-400.958 -58.979)" fill="#f2f2f2"/>
          <path id="Path_34" data-name="Path 34" d="M591.644,72.355a6.4,6.4,0,0,1,5.711,3.284v-2.97H599.5V87.576h-2.142V84.435a6.213,6.213,0,0,1-5.711,3.427c-4.055,0-7.253-2.742-7.253-7.682C584.391,75.182,587.589,72.355,591.644,72.355Zm.028,1.971c-2.884,0-5.026,1.8-5.026,5.825,0,3.655,2.142,5.74,5.026,5.74,3.113,0,5.083-2.484,5.683-5.769C596.87,76.924,594.529,74.326,591.673,74.326Z" transform="translate(-435.82 -67.215)" fill="#f2f2f2"/>
          <path id="Path_35" data-name="Path 35" d="M633.438,84.806a9.28,9.28,0,0,0,4.4,1.085c2.085,0,3.57-.543,3.57-2.313,0-3.827-8.281-.657-8.281-6.854,0-2.6,1.941-4.369,5.454-4.369a9.831,9.831,0,0,1,4.483,1.114l-.571,1.971a7.439,7.439,0,0,0-3.884-1.114c-1.8,0-3.284.742-3.284,2.285,0,4.284,8.225,1.085,8.225,6.853,0,2.742-2.656,4.4-5.74,4.4a12.279,12.279,0,0,1-4.969-1.114Z" transform="translate(-465.649 -67.215)" fill="#f2f2f2"/>
          <path id="Path_36" data-name="Path 36" d="M677.2,58.979a9.6,9.6,0,0,1,7.2,2.913l-1.4,1.828a7.389,7.389,0,0,0-5.854-2.627c-3.94,0-7.482,3.027-7.482,8.167,0,5.4,3.427,8.253,7.539,8.253a7.5,7.5,0,0,0,5.74-2.57l1.485,1.542a9.666,9.666,0,0,1-7.225,3.142c-5.854,0-9.88-4.141-9.88-10.367C667.316,63.377,671.514,58.979,677.2,58.979Z" transform="translate(-486.878 -58.979)" fill="#f2f2f2"/>
          <path id="Path_37" data-name="Path 37" d="M724.931,72.355c3.6,0,7.853,2.4,7.853,7.654a7.6,7.6,0,0,1-7.91,7.853,7.3,7.3,0,0,1-7.624-7.682A7.54,7.54,0,0,1,724.931,72.355Zm.057,1.971a5.355,5.355,0,0,0-5.483,5.711c0,4.055,2.57,5.854,5.483,5.854,2.97,0,5.54-1.857,5.54-5.683C730.528,76.267,727.786,74.326,724.988,74.326Z" transform="translate(-517.622 -67.215)" fill="#f2f2f2"/>
          <path id="Path_38" data-name="Path 38" d="M769.324,72.669v3.512c1.542-2.627,3.484-3.827,5.94-3.827,2.513,0,4.969,1.285,4.969,5.94v9.281h-2.142v-9c0-2.97-1.371-4.226-3.256-4.226-2.541,0-4.169,1.685-5.511,5.112v8.11h-2.142V72.669Z" transform="translate(-548.366 -67.215)" fill="#f2f2f2"/>
          <path id="Path_39" data-name="Path 39" d="M810.391,67.772h-2.713V65.944h2.713V61.432h2.142v4.512h5.54v1.828h-5.54v7.767c0,2.77,1.2,3.655,2.827,3.655a6.323,6.323,0,0,0,3.027-.8l.543,1.742a7.972,7.972,0,0,1-4,1c-2.513,0-4.54-1.485-4.54-5.255Z" transform="translate(-573.3 -60.489)" fill="#f2f2f2"/>
          <path id="Path_40" data-name="Path 40" d="M845.413,72.716V76.2c1.171-2.056,2.856-3.77,5.112-3.77a4.172,4.172,0,0,1,1.514.286l-.457,1.885a3.549,3.549,0,0,0-1.171-.228c-2.17,0-3.941,2.142-5,5.026v8.224h-2.142V72.716Z" transform="translate(-595.215 -67.261)" fill="#f2f2f2"/>
          <path id="Path_41" data-name="Path 41" d="M875.695,72.355c3.6,0,7.853,2.4,7.853,7.654a7.6,7.6,0,0,1-7.91,7.853,7.3,7.3,0,0,1-7.625-7.682A7.54,7.54,0,0,1,875.695,72.355Zm.058,1.971a5.355,5.355,0,0,0-5.483,5.711c0,4.055,2.57,5.854,5.483,5.854a5.265,5.265,0,0,0,5.54-5.683C881.292,76.267,878.551,74.326,875.752,74.326Z" transform="translate(-610.449 -67.215)" fill="#f2f2f2"/>
          <path id="Path_42" data-name="Path 42" d="M920.089,59.723V79.8h-2.142V59.723Z" transform="translate(-641.194 -59.437)" fill="#f2f2f2"/>
        </g>
      </g>
    </g>
  </g>
</svg>
