<svg xmlns="http://www.w3.org/2000/svg" xmlns:xlink="http://www.w3.org/1999/xlink" width="294" height="48" viewBox="0 0 294 48">
  <defs>
    <clipPath id="clip-path">
      <rect id="Rectangle_105" data-name="Rectangle 105" width="291.39" height="48" fill="#f2f2f2"/>
    </clipPath>
    <clipPath id="clip-myRewardsMiles_offwhite">
      <rect width="294" height="48"/>
    </clipPath>
  </defs>
  <g id="myRewardsMiles_offwhite" data-name="myRewardsMiles offwhite" clip-path="url(#clip-myRewardsMiles_offwhite)">
    <g id="Group_316" data-name="Group 316" clip-path="url(#clip-path)">
      <path id="Path_1922" data-name="Path 1922" d="M89.064,58.929h-1.63a.191.191,0,0,0-.191.191V63.3a.143.143,0,0,1-.143.143H82.078a.143.143,0,0,1-.143-.143l0-4.18a.191.191,0,0,0-.191-.191h-1.63a.191.191,0,0,0-.191.191V69.783a.191.191,0,0,0,.191.191h1.634a.19.19,0,0,0,.191-.191l0-4.18a.143.143,0,0,1,.143-.143l5.022,0a.143.143,0,0,1,.143.143v4.183a.191.191,0,0,0,.191.191h1.634a.191.191,0,0,0,.191-.191l0-10.663a.191.191,0,0,0-.191-.191" transform="translate(-49.208 -36.283)" fill="#f2f2f2"/>
      <path id="Path_1923" data-name="Path 1923" d="M59.657,48.957V47.371a.191.191,0,0,0-.191-.191H50.987a.191.191,0,0,0-.191.191V58.034a.191.191,0,0,0,.191.191l8.479,0a.191.191,0,0,0,.191-.191V56.447a.191.191,0,0,0-.191-.191H52.955a.143.143,0,0,1-.143-.143v-2.28a.143.143,0,0,1,.143-.143l5.033,0a.191.191,0,0,0,.191-.191V51.909a.191.191,0,0,0-.191-.191H52.953a.143.143,0,0,1-.143-.143V49.294a.143.143,0,0,1,.143-.143l6.514,0a.191.191,0,0,0,.191-.191" transform="translate(-31.276 -29.049)" fill="#f2f2f2"/>
      <path id="Path_1924" data-name="Path 1924" d="M20.99,35.433H18.745a.294.294,0,0,0-.269.174L13.848,46a.338.338,0,0,0,.309.476l11.425,0A.338.338,0,0,0,25.891,46L21.258,35.607a.294.294,0,0,0-.269-.174M16.753,44.37l3-6.722a.129.129,0,0,1,.236,0l3,6.722a.146.146,0,0,1-.133.205H16.886a.146.146,0,0,1-.133-.205" transform="translate(-8.508 -21.817)" fill="#f2f2f2"/>
      <path id="Path_1925" data-name="Path 1925" d="M55.057,8.438a22.34,22.34,0,0,1-20.489,39.7l-.759,1.47A23.994,23.994,0,0,0,55.815,6.968Z" transform="translate(-20.817 -4.29)" fill="#f2f2f2"/>
      <path id="Path_1926" data-name="Path 1926" d="M13.751,43.852A22.34,22.34,0,0,1,34.24,4.148L35,2.678A23.994,23.994,0,0,0,12.992,45.322Z" transform="translate(0 0)" fill="#f2f2f2"/>
      <path id="Path_1927" data-name="Path 1927" d="M175.622,48.381v3.484c1.485-2.6,3.37-3.8,5.825-3.8a4.524,4.524,0,0,1,4.8,4.083c1.514-2.8,3.427-4.083,5.968-4.083,2.484,0,4.94,1.285,4.94,5.94v9.281h-2.142v-9c0-2.97-1.342-4.226-3.256-4.226-2.341,0-4.055,1.714-5.368,5.112v8.11h-2.142v-9c0-2.97-1.342-4.226-3.255-4.226-2.37,0-4.027,1.714-5.368,5.14v8.082H173.48V48.381Z" transform="translate(-106.814 -29.596)" fill="#f2f2f2"/>
      <path id="Path_1928" data-name="Path 1928" d="M247.227,63.991l-6.054-15.106h2.456l4.712,12.336,4.369-12.336h2.427l-8.053,20.874H244.8l2.456-5.769Z" transform="translate(-148.493 -30.099)" fill="#f2f2f2"/>
      <path id="Path_1929" data-name="Path 1929" d="M290.28,35.434c3.884,0,7.253,1.342,7.253,5.769a5.628,5.628,0,0,1-4.4,5.711l5.254,8.6h-2.656l-4.8-8.253a5.077,5.077,0,0,1-.657.028h-2.37v8.224h-2.227V35.434Zm4.912,5.911c0-2.513-1.6-3.855-4.912-3.855h-2.37v7.739h2.4c3.284,0,4.883-1.628,4.883-3.884" transform="translate(-175.898 -21.817)" fill="#f2f2f2"/>
      <path id="Path_1930" data-name="Path 1930" d="M330.905,48.067c3.8,0,6.882,2.57,6.882,7.767a6.6,6.6,0,0,1-.057.8H325.937c.2,3.341,2.142,4.969,5.511,4.969a9.3,9.3,0,0,0,5.111-1.313l.486,1.742a10.777,10.777,0,0,1-5.711,1.542c-4.712,0-7.681-2.742-7.681-7.568,0-5.111,3.341-7.939,7.253-7.939m-.057,1.97c-2.6,0-4.512,1.571-4.883,4.769H335.5c-.285-3.255-2.113-4.769-4.654-4.769" transform="translate(-199.277 -29.596)" fill="#f2f2f2"/>
      <path id="Path_1931" data-name="Path 1931" d="M364.742,48.884H367.2l4,11.994,4.141-11.994h2.142l3.8,12.022,4.312-12.022h2.428l-5.883,14.906-1.97-.028-3.827-11.794-4.255,11.823-2-.028Z" transform="translate(-224.577 -30.099)" fill="#f2f2f2"/>
      <path id="Path_1932" data-name="Path 1932" d="M436.122,48.067a6.4,6.4,0,0,1,5.711,3.284v-2.97h2.142V63.287h-2.142V60.146a6.213,6.213,0,0,1-5.711,3.427c-4.055,0-7.253-2.742-7.253-7.682,0-5,3.2-7.824,7.253-7.824m.028,1.97c-2.884,0-5.026,1.8-5.026,5.825,0,3.655,2.142,5.74,5.026,5.74,3.113,0,5.083-2.484,5.683-5.769-.486-3.2-2.827-5.8-5.683-5.8" transform="translate(-264.061 -29.596)" fill="#f2f2f2"/>
      <path id="Path_1933" data-name="Path 1933" d="M482.654,48.427V51.91c1.171-2.056,2.856-3.769,5.112-3.769a4.164,4.164,0,0,1,1.513.286l-.457,1.885a3.549,3.549,0,0,0-1.171-.229c-2.17,0-3.941,2.142-5,5.026v8.224h-2.142V48.427Z" transform="translate(-295.858 -29.641)" fill="#f2f2f2"/>
      <path id="Path_1934" data-name="Path 1934" d="M512.553,40.289a6.387,6.387,0,0,1,5.74,3.341v-8.2h2.142V55.509h-2.142V52.34a6.231,6.231,0,0,1-5.74,3.455c-4.027,0-7.225-2.742-7.225-7.682,0-5,3.2-7.824,7.225-7.824m.028,1.97c-2.856,0-5,1.8-5,5.825,0,3.655,2.142,5.74,5,5.74,3.141,0,5.112-2.484,5.711-5.769-.485-3.2-2.8-5.8-5.711-5.8" transform="translate(-311.138 -21.817)" fill="#f2f2f2"/>
      <path id="Path_1935" data-name="Path 1935" d="M554.375,60.517a9.284,9.284,0,0,0,4.4,1.085c2.085,0,3.57-.543,3.57-2.313,0-3.827-8.281-.657-8.281-6.854,0-2.6,1.941-4.369,5.454-4.369A9.829,9.829,0,0,1,564,49.18l-.571,1.971a7.436,7.436,0,0,0-3.884-1.114c-1.8,0-3.284.743-3.284,2.285,0,4.283,8.224,1.085,8.224,6.853,0,2.741-2.656,4.4-5.74,4.4a12.276,12.276,0,0,1-4.968-1.114Z" transform="translate(-340.968 -29.596)" fill="#f2f2f2"/>
      <path id="Path_1936" data-name="Path 1936" d="M593.869,35.434v.057l7.454,13.736,7.2-13.793h2.2V55.509H608.49V39.717l-6.225,11.794h-2.17l-6.2-11.423V55.509H591.67V35.434Z" transform="translate(-364.3 -21.817)" fill="#f2f2f2"/>
      <path id="Path_1937" data-name="Path 1937" d="M654.692,32.982a1.59,1.59,0,0,1,1.6,1.571,1.609,1.609,0,0,1-1.6,1.571,1.584,1.584,0,0,1-1.571-1.571,1.566,1.566,0,0,1,1.571-1.571M655.777,54h-2.142V39.093h2.142Z" transform="translate(-402.136 -20.307)" fill="#f2f2f2"/>
      <rect id="Rectangle_104" data-name="Rectangle 104" width="2.142" height="20.075" transform="translate(258.381 13.617)" fill="#f2f2f2"/>
      <path id="Path_1938" data-name="Path 1938" d="M694.776,48.067c3.8,0,6.883,2.57,6.883,7.767a6.59,6.59,0,0,1-.057.8H689.808c.2,3.341,2.142,4.969,5.511,4.969a9.306,9.306,0,0,0,5.111-1.313l.485,1.742a10.777,10.777,0,0,1-5.711,1.542c-4.712,0-7.682-2.742-7.682-7.568,0-5.111,3.341-7.939,7.253-7.939m-.057,1.97c-2.6,0-4.512,1.571-4.883,4.769h9.538c-.286-3.255-2.113-4.769-4.654-4.769" transform="translate(-423.318 -29.596)" fill="#f2f2f2"/>
      <path id="Path_1939" data-name="Path 1939" d="M731,60.517a9.284,9.284,0,0,0,4.4,1.085c2.085,0,3.57-.543,3.57-2.313,0-3.827-8.281-.657-8.281-6.854,0-2.6,1.941-4.369,5.454-4.369a9.829,9.829,0,0,1,4.483,1.113l-.571,1.971a7.437,7.437,0,0,0-3.884-1.114c-1.8,0-3.284.743-3.284,2.285,0,4.283,8.224,1.085,8.224,6.853,0,2.741-2.656,4.4-5.74,4.4a12.28,12.28,0,0,1-4.969-1.114Z" transform="translate(-449.716 -29.596)" fill="#f2f2f2"/>
    </g>
  </g>
</svg>
