<svg xmlns="http://www.w3.org/2000/svg" xmlns:xlink="http://www.w3.org/1999/xlink" width="80" height="80" viewBox="0 0 80 80">
  <defs>
    <clipPath id="clip-path">
      <rect id="Rectangle_52" data-name="Rectangle 52" width="80" height="80" fill="#000f1e"/>
    </clipPath>
    <clipPath id="clip-picto_GDPR_80">
      <rect width="80" height="80"/>
    </clipPath>
  </defs>
  <g id="picto_GDPR_80" data-name="picto GDPR 80" clip-path="url(#clip-picto_GDPR_80)">
    <g id="Group_459" data-name="Group 459">
      <g id="Group_458" data-name="Group 458" clip-path="url(#clip-path)">
        <path id="Path_672" data-name="Path 672" d="M40,0A40,40,0,1,0,80,40,40,40,0,0,0,40,0M15.328,67.89A84.486,84.486,0,0,1,40,64.3a84.494,84.494,0,0,1,24.673,3.586,37.233,37.233,0,0,1-49.344,0m51-1.559c-.161.161-.325.319-.488.476A85.53,85.53,0,0,0,40,62.922a85.528,85.528,0,0,0-25.841,3.886c-.164-.158-.328-.316-.489-.477A37.237,37.237,0,1,1,66.331,13.669a37.238,37.238,0,0,1,0,52.662" fill="#000f1e"/>
        <path id="Path_673" data-name="Path 673" d="M127.275,116.876l-.727-.45c-.467-.289-.988-.6-1.54-.921-4.35-2.564-10.925-6.438-13.608-14.69-2.274-6.992-1.222-16.51-1.176-16.912l.1-.881,16.95-5.547,16.95,5.547.1.881c.046.4,1.1,9.92-1.176,16.912-2.683,8.252-9.258,12.126-13.608,14.69-.552.325-1.073.633-1.54.922ZM112.889,85.09c-.2,2.462-.571,9.614,1.138,14.871,2.36,7.257,8.153,10.671,12.384,13.164q.446.263.864.512.417-.249.864-.512c4.23-2.493,10.023-5.907,12.383-13.164,1.71-5.257,1.335-12.409,1.138-14.871l-14.386-4.707Z" transform="translate(-87.275 -61.503)" fill="#000f1e"/>
        <path id="Path_674" data-name="Path 674" d="M164.889,145.309l-3.582-3.552,1.452-1.464,2.118,2.1,8.46-8.529,1.464,1.452Z" transform="translate(-128.05 -106.266)" fill="#000f1e"/>
      </g>
    </g>
  </g>
</svg>
