<svg xmlns="http://www.w3.org/2000/svg" xmlns:xlink="http://www.w3.org/1999/xlink" width="80" height="80" viewBox="0 0 80 80">
  <defs>
    <clipPath id="clip-path">
      <rect id="Rectangle_75" data-name="Rectangle 75" width="80" height="80" fill="#f2f2f2"/>
    </clipPath>
    <clipPath id="clip-picto_for_deaf_2_off-white">
      <rect width="80" height="80"/>
    </clipPath>
  </defs>
  <g id="picto_for_deaf_2_off-white" data-name="picto for deaf 2 off-white" clip-path="url(#clip-picto_for_deaf_2_off-white)">
    <g id="Group_508" data-name="Group 508">
      <g id="Group_507" data-name="Group 507" clip-path="url(#clip-path)">
        <path id="Path_811" data-name="Path 811" d="M40,0A40,40,0,1,0,80,40,40,40,0,0,0,40,0M15.328,67.89A84.486,84.486,0,0,1,40,64.3a84.494,84.494,0,0,1,24.673,3.586,37.233,37.233,0,0,1-49.344,0m51-1.559c-.161.161-.325.319-.488.476A85.53,85.53,0,0,0,40,62.922a85.528,85.528,0,0,0-25.841,3.886c-.164-.158-.328-.316-.489-.477A37.237,37.237,0,1,1,66.331,13.669a37.238,37.238,0,0,1,0,52.662" fill="#f2f2f2"/>
        <path id="Path_812" data-name="Path 812" d="M142.051,96.373l-.14-.321a2.863,2.863,0,0,0-3.622-1.537,2.843,2.843,0,0,0-.235-1.2l-.047-.107a2.868,2.868,0,0,0-3.749-1.49l-6.879,2.806,3.43-4.715a2.716,2.716,0,0,0-.6-3.79,2.687,2.687,0,0,0-1.285-.5l.193-.266a2.719,2.719,0,0,0-.6-3.79l-.094-.068a2.686,2.686,0,0,0-1.285-.5l.306-.42a2.717,2.717,0,0,0-.6-3.79l-.284-.206a2.716,2.716,0,0,0-3.79.6l-.05.069a2.687,2.687,0,0,0-.87-1.069l-.095-.069a2.716,2.716,0,0,0-3.79.6l-6.722,9.262-.024-5.015a2.719,2.719,0,0,0-2.472-2.9l-.116-.01a2.719,2.719,0,0,0-2.938,2.48c0,.062-.441,6.23-.592,8.536l-.029.432a60.5,60.5,0,0,0-.1,7.9,9.87,9.87,0,0,0,4.152,7.8,8.628,8.628,0,0,0,2.1,1.126,10.915,10.915,0,0,0,.85,5.822,8.182,8.182,0,0,0,7.351,5.011h.131c2.6-.053,6.921-1.824,8.657-2.583,2.143-.937,10.527-4.584,10.527-4.584a2.857,2.857,0,0,0,.772-4.748l.078-.034a2.866,2.866,0,0,0,1.482-3.766l-.047-.109a2.843,2.843,0,0,0-.709-.981l.253-.11a2.866,2.866,0,0,0,1.482-3.768M129.4,87.14a1.333,1.333,0,0,1,.294,1.86s-2.681,3.684-4.74,6.518l-.607.248,2.3-3.436a2.866,2.866,0,0,0-.14-3.473l1.034-1.422h0a1.338,1.338,0,0,1,1.86-.294m-19.461,16.839a8.423,8.423,0,0,1-3.584-6.743,59.313,59.313,0,0,1,.1-7.746l.029-.433c.151-2.3.587-8.467.591-8.519a1.338,1.338,0,0,1,1.442-1.212l.116.01a1.337,1.337,0,0,1,1.212,1.442c0,.021,0,.042,0,.063L109.875,88a.691.691,0,0,0,1.25.4l7.961-10.969a1.333,1.333,0,0,1,1.86-.294l.095.069a1.338,1.338,0,0,1,.294,1.86h0l-7.763,10.679a.691.691,0,1,0,1.117.812l9.2-12.657a1.333,1.333,0,0,1,1.86-.294l.284.206a1.333,1.333,0,0,1,.294,1.86L124.635,82h0l-7.508,10.328a.691.691,0,1,0,1.117.812l7.508-10.329a1.338,1.338,0,0,1,1.861-.293l.094.068a1.337,1.337,0,0,1,.294,1.86l-2.594,3.569a2.868,2.868,0,0,0-3.522.925c-.153.2-3.749,5.041-5.057,6.966-.34.5-.677.964-1.034,1.455a41.452,41.452,0,0,0-3.511,5.555,9.808,9.808,0,0,0-.77,1.936,7.32,7.32,0,0,1-1.575-.874M139.9,98.6l-14.347,6.247a.84.84,0,1,0,.671,1.54l11.707-5.1a1.183,1.183,0,0,1,1.556.61l.047.109a1.188,1.188,0,0,1-.612,1.556l-11.814,5.144a.84.84,0,1,0,.671,1.541l9.349-4.071h0a1.182,1.182,0,0,1,.944,2.168s-8.386,3.648-10.53,4.585c-1.283.561-5.65,2.395-8.017,2.442a6.481,6.481,0,0,1-5.908-4,8.8,8.8,0,0,1,.151-7.669,39.524,39.524,0,0,1,3.385-5.353c.365-.5.71-.977,1.065-1.5,1.289-1.9,4.979-6.858,5.027-6.923a1.188,1.188,0,0,1,1.649-.279l.1.067a1.184,1.184,0,0,1,.279,1.649l-.013.02-3.831,5.727a.84.84,0,0,0,1.016,1.245l12.474-5.088a1.188,1.188,0,0,1,1.556.613l.047.107a1.188,1.188,0,0,1-.612,1.556h0l-12.1,5.271a.84.84,0,0,0,.671,1.541l14.347-6.248a1.188,1.188,0,0,1,1.556.612l.14.321A1.184,1.184,0,0,1,139.9,98.6" transform="translate(-83.266 -59.935)" fill="#f2f2f2"/>
      </g>
    </g>
  </g>
</svg>
