<svg xmlns="http://www.w3.org/2000/svg" xmlns:xlink="http://www.w3.org/1999/xlink" width="80" height="80" viewBox="0 0 80 80">
  <defs>
    <clipPath id="clip-picto-euro">
      <rect width="80" height="80"/>
    </clipPath>
  </defs>
  <g id="picto-euro" clip-path="url(#clip-picto-euro)">
    <g id="Group_174" data-name="Group 174" transform="translate(-89.913 -89.538)">
      <g id="Group_172" data-name="Group 172" transform="translate(114.521 108.137)">
        <g id="Group_171" data-name="Group 171">
          <path id="Path_257" data-name="Path 257" d="M213.465,202.707h-4.192v-2.664H213.2c-.045-.487-.068-1.239-.068-2.263q0-1.663.068-2.461h-3.926v-2.592h4.257a17.289,17.289,0,0,1,4.393-9.484,12.039,12.039,0,0,1,9.046-3.493q6.454,0,9.515,4.724l-2.928,2.132a7.289,7.289,0,0,0-6.653-3.394,8.361,8.361,0,0,0-6.22,2.461,12.908,12.908,0,0,0-3.227,7.054h11.776v2.592H217.123c-.045.532-.065,1.352-.065,2.461,0,1.023.02,1.776.065,2.263h12.109v2.664H217.389q1.531,9.446,9.448,9.448h.2a7.125,7.125,0,0,0,6.721-3.926l2.793,2.128q-3.127,5.253-9.714,5.256Q215.46,215.611,213.465,202.707Z" transform="translate(-209.273 -179.75)" fill="#000f1e"/>
        </g>
      </g>
      <g id="Group_173" data-name="Group 173" transform="translate(89.913 89.538)">
        <path id="Path_258" data-name="Path 258" d="M129.913,92.3a37.237,37.237,0,1,1-26.331,10.907A36.993,36.993,0,0,1,129.913,92.3m0-2.763a40,40,0,1,0,40,40,40,40,0,0,0-40-40Z" transform="translate(-89.913 -89.538)" fill="#000f1e"/>
        <path id="Path_259" data-name="Path 259" d="M179.051,396.115A83.92,83.92,0,0,1,205.3,400.2l1.135-1.075a84.957,84.957,0,0,0-27.38-4.392h0a85.011,85.011,0,0,0-27.238,4.344l.86,1.167a83.863,83.863,0,0,1,26.378-4.13" transform="translate(-139.051 -331.812)" fill="#000f1e"/>
      </g>
    </g>
  </g>
</svg>
