<svg xmlns="http://www.w3.org/2000/svg" xmlns:xlink="http://www.w3.org/1999/xlink" width="80" height="80" viewBox="0 0 80 80">
  <defs>
    <clipPath id="clip-picto-teleworking">
      <rect width="80" height="80"/>
    </clipPath>
  </defs>
  <g id="picto-teleworking" clip-path="url(#clip-picto-teleworking)">
    <g id="Group_366" data-name="Group 366" transform="translate(-89.913 -89.538)">
      <path id="Path_524" data-name="Path 524" d="M129.913,92.3a37.237,37.237,0,1,1-26.331,10.907A36.993,36.993,0,0,1,129.913,92.3m0-2.763a40,40,0,1,0,40,40,40,40,0,0,0-40-40Z" fill="#000f1e"/>
      <path id="Path_525" data-name="Path 525" d="M179.051,396.115A83.92,83.92,0,0,1,205.3,400.2l1.135-1.075a84.957,84.957,0,0,0-27.38-4.392h0a85.011,85.011,0,0,0-27.238,4.344l.86,1.167a83.863,83.863,0,0,1,26.378-4.13" transform="translate(-49.138 -242.274)" fill="#000f1e"/>
      <g id="Group_361" data-name="Group 361" transform="translate(129.597 138.95)">
        <path id="Path_526" data-name="Path 526" d="M283.222,330.845a.824.824,0,0,1-.594-.261.683.683,0,0,1-.232-.565.793.793,0,0,1,.232-.594.9.9,0,0,1,1.189,0,.949.949,0,0,1,.23.594.91.91,0,0,1-.826.826Z" transform="translate(-282.396 -329.203)" fill="#000f1e"/>
      </g>
      <g id="Group_365" data-name="Group 365" transform="translate(120.512 119.941)">
        <g id="Group_362" data-name="Group 362" transform="translate(4.543 0)">
          <path id="Path_527" data-name="Path 527" d="M265.732,247.74a5.368,5.368,0,1,1,5.368-5.368A5.374,5.374,0,0,1,265.732,247.74Zm0-9.085a3.717,3.717,0,1,0,3.717,3.717A3.722,3.722,0,0,0,265.732,238.655Z" transform="translate(-260.364 -237.003)" fill="#000f1e"/>
        </g>
        <g id="Group_363" data-name="Group 363" transform="translate(0 9.085)">
          <path id="Path_528" data-name="Path 528" d="M255.675,293.458h-1.652v-1.652h1.652a.828.828,0,0,0,.826-.826V288.5c0-3.4-3.4-5.781-8.259-5.781s-8.259,2.378-8.259,5.781v2.478a.827.827,0,0,0,.826.826h1.652v1.652h-1.652a2.482,2.482,0,0,1-2.478-2.478V288.5c0-4.378,4.075-7.433,9.911-7.433s9.911,3.055,9.911,7.433v2.478A2.482,2.482,0,0,1,255.675,293.458Z" transform="translate(-238.331 -281.069)" fill="#000f1e"/>
        </g>
        <g id="Group_364" data-name="Group 364" transform="translate(3.304 14.866)">
          <path id="Path_529" data-name="Path 529" d="M265.918,319.022h-9.911a1.654,1.654,0,0,1-1.652-1.652v-6.607a1.654,1.654,0,0,1,1.652-1.652h9.911a1.654,1.654,0,0,1,1.652,1.652v6.607A1.654,1.654,0,0,1,265.918,319.022Zm-9.911-8.259v6.607h9.911v-6.607Z" transform="translate(-254.355 -309.111)" fill="#000f1e"/>
        </g>
      </g>
      <path id="Path_530" data-name="Path 530" d="M222.985,167.322l-6.007-6.007v-9.84a1.294,1.294,0,0,0-1.292-1.294H210.9a1.3,1.3,0,0,0-1.294,1.294v2.465l-6.572-6.575a1.309,1.309,0,0,0-1.829,0L181.25,167.322a1.287,1.287,0,0,0,0,1.829l3.191,3.191a1.277,1.277,0,0,0,1.218.345v15.5a1.294,1.294,0,1,0,2.587,0V170.37l13.871-13.876,13.871,13.876v17.818a1.294,1.294,0,1,0,2.587,0v-15.5a1.277,1.277,0,0,0,1.218-.342l3.192-3.194a1.293,1.293,0,0,0,0-1.829Zm-2.537,1.119-1.363,1.365a.292.292,0,0,1-.413,0l-15.848-15.847a1.027,1.027,0,0,0-1.415,0l-15.845,15.847a.292.292,0,0,1-.413,0l-1.365-1.365a.292.292,0,0,1,0-.413l18.125-18.122a.292.292,0,0,1,.413,0l7.865,7.865a1,1,0,0,0,.714.289,1.047,1.047,0,0,0,.377-.069,1.011,1.011,0,0,0,.619-.928v-4.294a.292.292,0,0,1,.292-.292h2.2a.292.292,0,0,1,.292.292v9.082a1.007,1.007,0,0,0,.294.71l5.47,5.468A.292.292,0,0,1,220.448,168.441Z" transform="translate(-72.203 -45.608)" fill="#000f1e"/>
    </g>
  </g>
</svg>
