<svg xmlns="http://www.w3.org/2000/svg" xmlns:xlink="http://www.w3.org/1999/xlink" width="80" height="80" viewBox="0 0 80 80">
  <defs>
    <clipPath id="clip-picto-epikairopoiisi">
      <rect width="80" height="80"/>
    </clipPath>
  </defs>
  <g id="picto-epikairopoiisi" clip-path="url(#clip-picto-epikairopoiisi)">
    <g id="Group_392" data-name="Group 392" transform="translate(-89.913 -89.538)">
      <path id="Path_569" data-name="Path 569" d="M129.913,89.538a40,40,0,1,0,40,40A40,40,0,0,0,129.913,89.538Zm-24.672,67.89a86.661,86.661,0,0,1,49.344,0,37.233,37.233,0,0,1-49.344,0Zm51-1.559c-.161.161-.325.319-.488.476a87.873,87.873,0,0,0-51.684,0c-.164-.158-.328-.316-.489-.477a37.237,37.237,0,1,1,52.662,0Z" fill="#000f1e"/>
      <g id="Group_391" data-name="Group 391" transform="translate(112.189 106.216)">
        <path id="Path_570" data-name="Path 570" d="M232.5,175.745l-4.406-4.406a3.1,3.1,0,0,0-4.383,0L220.051,175h0l-18.284,18.284a3.954,3.954,0,0,0-.78.972l-2.958,10.352c-.265.927.277,1.469,1.2,1.2l10.352-2.958a3.954,3.954,0,0,0,.972-.78l18.284-18.284h0l3.662-3.662A3.1,3.1,0,0,0,232.5,175.745ZM200.539,203.3l1.939-6.786,4.847,4.847Zm8.768-2.894-5.874-5.874,18.055-18.055,5.874,5.874Zm21.728-21.728-2.2,2.2-5.875-5.875,2.2-2.2a1.029,1.029,0,0,1,.733-.3h0a1.032,1.032,0,0,1,.734.3l4.406,4.406A1.039,1.039,0,0,1,231.034,178.681Z" transform="translate(-197.962 -170.432)" fill="#000f1e"/>
        <g id="Group_390" data-name="Group 390" transform="translate(9.873 10.442)">
          <rect id="Rectangle_15" data-name="Rectangle 15" width="19.339" height="2.062" transform="translate(0 13.676) rotate(-45.004)" fill="#000f1e"/>
        </g>
      </g>
    </g>
  </g>
</svg>
