<svg xmlns="http://www.w3.org/2000/svg" xmlns:xlink="http://www.w3.org/1999/xlink" width="80" height="80" viewBox="0 0 80 80">
  <defs>
    <clipPath id="clip-picto-FixIt-combo_offwhite">
      <rect width="80" height="80"/>
    </clipPath>
  </defs>
  <g id="picto-FixIt-combo_offwhite" clip-path="url(#clip-picto-FixIt-combo_offwhite)">
    <g id="picto-FixIt-combo_offwhite-2" data-name="picto-FixIt-combo_offwhite">
      <g id="keimena">
        <g id="Group_21" data-name="Group 21">
          <g id="Group_20" data-name="Group 20">
            <path id="Path_31" data-name="Path 31" d="M14.98,61.28v1.89H6.95v6.85h7.14v1.89H6.95v7.82H4.9V61.28Z" fill="#f2f2f2"/>
            <path id="Path_32" data-name="Path 32" d="M19.05,60.42a1.44,1.44,0,1,1-1.44,1.44A1.434,1.434,0,0,1,19.05,60.42Zm1,5.62v13.7H18.08V66.04Z" fill="#f2f2f2"/>
            <path id="Path_33" data-name="Path 33" d="M22.65,66.04h2.44l3.68,5.33,3.67-5.33h2.47l-5.09,6.85,5.01,6.85H32.31l-3.6-5.3-3.78,5.3H22.65l4.99-6.82Z" fill="#f2f2f2"/>
            <path id="Path_34" data-name="Path 34" d="M38.87,78.03V62.99H36.45V61.28H43.3v1.71H40.91V78.03H43.3v1.71H36.45V78.03Z" fill="#f2f2f2"/>
            <path id="Path_35" data-name="Path 35" d="M47.4,67.72H44.91V66.04H47.4V61.89h1.97v4.15h5.09v1.68H49.37v7.14c0,2.55,1.1,3.36,2.6,3.36a5.765,5.765,0,0,0,2.78-.74l.5,1.6a7.3,7.3,0,0,1-3.68.92c-2.31,0-4.17-1.37-4.17-4.83Z" fill="#f2f2f2"/>
          </g>
        </g>
      </g>
      <g id="picto">
        <g id="Group_24" data-name="Group 24">
          <path id="Path_36" data-name="Path 36" d="M22.06,0A22.06,22.06,0,1,0,44.12,22.06,22.064,22.064,0,0,0,22.06,0ZM8.45,37.44a46.563,46.563,0,0,1,13.61-1.98,46.563,46.563,0,0,1,13.61,1.98,20.529,20.529,0,0,1-27.22,0Zm28.13-.86c-.09.09-.18.18-.27.26A47.2,47.2,0,0,0,22.06,34.7,47.3,47.3,0,0,0,7.81,36.84c-.09-.09-.18-.17-.27-.26A20.534,20.534,0,1,1,36.58,7.54a20.521,20.521,0,0,1,0,29.04Z" fill="#f2f2f2"/>
          <g id="Group_23" data-name="Group 23">
            <g id="Group_22" data-name="Group 22">
              <path id="Path_37" data-name="Path 37" d="M22.06,12.08a6.488,6.488,0,0,0-2.67.54.131.131,0,0,1-.12-.03l-.37-.43a.122.122,0,0,1,.06-.2,9.573,9.573,0,0,1,3.09-.64,9.573,9.573,0,0,1,3.09.64.123.123,0,0,1,.06.2l-.37.43a.105.105,0,0,1-.12.03A6.407,6.407,0,0,0,22.06,12.08Z" fill="#f2f2f2"/>
            </g>
            <path id="Path_38" data-name="Path 38" d="M24.33,18.09h0a4.784,4.784,0,0,0,2.41-3.54,1.4,1.4,0,0,0-.08-2.31c0-.03.01-.06.01-.09v-.01A4.641,4.641,0,0,0,25.2,8.76a4.645,4.645,0,0,0-6.34,0,4.68,4.68,0,0,0-1.47,3.38v.01a.277.277,0,0,0,.01.09,1.4,1.4,0,0,0-.08,2.31,4.788,4.788,0,0,0,2.43,3.54c-4.51.65-7.09,3.28-7.09,7.21v1.68a2.386,2.386,0,0,0,2.38,2.38h14a2.386,2.386,0,0,0,2.38-2.38V25.3C31.44,21.37,28.85,18.74,24.33,18.09ZM19.39,9.32a3.87,3.87,0,0,1,6.52,2.82,1.25,1.25,0,0,1-.37.8.774.774,0,0,1-.58.21,2.522,2.522,0,0,1-.63-.15c-.13-.04-.27-.09-.41-.13a6.833,6.833,0,0,0-1.88-.29,6.526,6.526,0,0,0-1.88.29c-.15.04-.29.09-.41.13a2.522,2.522,0,0,1-.63.15.774.774,0,0,1-.58-.21,1.25,1.25,0,0,1-.37-.8A3.9,3.9,0,0,1,19.39,9.32Zm-1.32,4.97h0a.348.348,0,0,0-.2-.29h0a.64.64,0,0,1-.21-.97,1.919,1.919,0,0,0,.36.46,1.5,1.5,0,0,0,1.12.41,2.8,2.8,0,0,0,.84-.19q.18-.06.39-.12a6.133,6.133,0,0,1,1.67-.26,5.77,5.77,0,0,1,1.67.26q.21.06.39.12a2.863,2.863,0,0,0,.84.19,1.544,1.544,0,0,0,1.12-.41,1.919,1.919,0,0,0,.36-.46.64.64,0,0,1-.21.97h0a.366.366,0,0,0-.19.29h0a3.992,3.992,0,0,1-7.95,0Zm.82,5.13c.34-.08.69-.15,1.06-.2a15.97,15.97,0,0,1,4.22,0c.35.05.69.11,1.02.19V22.1H18.9V19.42Zm-3.22,3.44v5.37h-.62a1.24,1.24,0,0,1-1.24-1.24V25.3a5.527,5.527,0,0,1,1.55-4.07,6.15,6.15,0,0,1,1.69-1.18v2.04h-.61A.777.777,0,0,0,15.67,22.86Zm8.48,3.33-.51-.88a.075.075,0,0,1,0-.09l.51-.88a.089.089,0,0,1,.08-.05h1.01a.075.075,0,0,1,.07.05l.51.88a.075.075,0,0,1,0,.09l-.51.88a.084.084,0,0,1-.07.04H24.23A.1.1,0,0,1,24.15,26.19Zm3.52,2.03H25.53V27.01a.125.125,0,0,1,.06-.11,1.791,1.791,0,0,0,.97-1.6,1.821,1.821,0,0,0-3.62-.28,1.8,1.8,0,0,0,.95,1.88.125.125,0,0,1,.06.11v1.21H20.14V26.81a.109.109,0,0,1,.07-.1,1.812,1.812,0,0,0,.96-1.6,1.842,1.842,0,0,0-.98-1.62c-.02,0-.05.01-.05.04v1.64a.117.117,0,0,1-.08.11l-.64.32a.127.127,0,0,1-.12,0l-.65-.32a.123.123,0,0,1-.07-.11V23.53c0-.02-.03-.04-.05-.04a1.832,1.832,0,0,0-.99,1.62,1.791,1.791,0,0,0,.97,1.6.1.1,0,0,1,.07.1v1.41H16.43l.03-5.39h11.2l.02.02v5.37Zm2.64-1.24a1.246,1.246,0,0,1-1.24,1.24H28.4V22.85a.76.76,0,0,0-.76-.76h-.61V20.03a6.394,6.394,0,0,1,1.73,1.19,5.527,5.527,0,0,1,1.55,4.07v1.69Z" fill="#f2f2f2"/>
          </g>
        </g>
      </g>
    </g>
  </g>
</svg>
