<svg xmlns="http://www.w3.org/2000/svg" xmlns:xlink="http://www.w3.org/1999/xlink" width="80" height="80" viewBox="0 0 80 80">
  <defs>
    <clipPath id="clip-picto-vulnerable_clients2">
      <rect width="80" height="80"/>
    </clipPath>
  </defs>
  <g id="picto-vulnerable_clients2" data-name="picto-vulnerable clients2" clip-path="url(#clip-picto-vulnerable_clients2)">
    <g id="Group_389" data-name="Group 389" transform="translate(-89.913 -89.538)">
      <path id="Path_567" data-name="Path 567" d="M218.088,166.143a4.437,4.437,0,0,0-5.2-3.355l-7.844,1.563a3.919,3.919,0,0,0-2.86-1.48l-2.982-.2v-7.137a4.068,4.068,0,0,0,3-3.919v-5.344a4.084,4.084,0,0,0-2.316-3.676,10.985,10.985,0,0,0-3.716-.987,4.091,4.091,0,1,0-2.051,0,11.009,11.009,0,0,0-3.722.989,4.083,4.083,0,0,0-2.312,3.673v5.344a4.068,4.068,0,0,0,3,3.919v6.589l-.948-.064a7.523,7.523,0,0,0-5.038,1.459l-6.816,4.959-5.717,5.662a1.62,1.62,0,0,0,0,2.3l7.827,7.827a1.669,1.669,0,0,0,1.132.444,1.7,1.7,0,0,0,1.154-.456l4.818-4.814,8.185,1.023a12.583,12.583,0,0,0,8.372-1.919l12.043-7.711A4.3,4.3,0,0,0,218.088,166.143ZM193.114,137.65a2.029,2.029,0,1,1,2.029,2.029A2.031,2.031,0,0,1,193.114,137.65Zm-.969,15.961a2,2,0,0,1-2-2v-5.344a2.012,2.012,0,0,1,1.136-1.811,9.265,9.265,0,0,1,7.724,0,2.01,2.01,0,0,1,1.134,1.811v5.344a2,2,0,0,1-2,2,1,1,0,0,0-1,1v7.919l-4-.27V154.61A1,1,0,0,0,192.145,153.611ZM181.572,180.85l-5.563-5.564,3.086-3.086,5.563,5.564Zm32.795-12.717-12.061,7.713a9.326,9.326,0,0,1-6.206,1.414l-8.429-1.036-6.089-6.129,5.431-4.006a4.209,4.209,0,0,1,2.869-.825l12.042.813a.808.808,0,0,1,.724.716.765.765,0,0,1-.585.806l-2.96.669a12.056,12.056,0,0,1-3.406.323l-3.416-.19a1.633,1.633,0,0,0-.414,3.239,1.909,1.909,0,0,0,.225.014l3.414.19a14.169,14.169,0,0,0,4.309-.39l2.949-.666a3.915,3.915,0,0,0,3.057-3.253l7.661-1.606a1.211,1.211,0,0,1,1.419.921A1.234,1.234,0,0,1,214.367,168.133Z" transform="translate(-65.23 -34.945)" fill="#000f1e"/>
      <path id="Path_568" data-name="Path 568" d="M129.913,89.538a40,40,0,1,0,40,40A40,40,0,0,0,129.913,89.538Zm-24.672,67.89a86.661,86.661,0,0,1,49.344,0,37.233,37.233,0,0,1-49.344,0Zm51-1.559c-.161.161-.325.319-.488.476a87.873,87.873,0,0,0-51.684,0c-.164-.158-.328-.316-.489-.477a37.237,37.237,0,1,1,52.662,0Z" transform="translate(0)" fill="#000f1e"/>
    </g>
  </g>
</svg>
