<svg xmlns="http://www.w3.org/2000/svg" xmlns:xlink="http://www.w3.org/1999/xlink" width="134" height="80" viewBox="0 0 134 80">
  <defs>
    <clipPath id="clip-path">
      <rect id="Rectangle_46" data-name="Rectangle 46" width="133.691" height="80" fill="#f2f2f2"/>
    </clipPath>
    <clipPath id="clip-picto_GreenPass_offWhite">
      <rect width="134" height="80"/>
    </clipPath>
  </defs>
  <g id="picto_GreenPass_offWhite" data-name="picto GreenPass offWhite" clip-path="url(#clip-picto_GreenPass_offWhite)">
    <g id="Group_442" data-name="Group 442">
      <g id="Group_441" data-name="Group 441" clip-path="url(#clip-path)">
        <path id="Path_641" data-name="Path 641" d="M22.061,1.524a20.538,20.538,0,0,1,14.522,35.06A20.537,20.537,0,1,1,7.539,7.539,20.4,20.4,0,0,1,22.061,1.524m0-1.524A22.061,22.061,0,1,0,44.122,22.061,22.061,22.061,0,0,0,22.061,0" fill="#f2f2f2"/>
        <path id="Path_642" data-name="Path 642" d="M34.948,99a46.285,46.285,0,0,1,14.474,2.253l.626-.593a46.856,46.856,0,0,0-15.1-2.423,46.883,46.883,0,0,0-15.022,2.4l.474.644A46.249,46.249,0,0,1,34.948,99" transform="translate(-12.887 -63.538)" fill="#f2f2f2"/>
        <path id="Path_643" data-name="Path 643" d="M56.285,31.421A4.989,4.989,0,0,0,53.2,29.73a.133.133,0,0,0-.031-.01L53.03,29.7a10.434,10.434,0,0,0-1.785-.161,8,8,0,0,0-2.677.44,6.88,6.88,0,0,0-2.893,1.956,6.007,6.007,0,0,0-1.456,2.882,5.231,5.231,0,0,0,.514,3,3.448,3.448,0,0,0,.93,1.273q.086.068.178.133v1.75a4.63,4.63,0,0,1-4.354,4.642c-.058,0-.117,0-.174,0A4,4,0,0,1,38.3,44.3a4.764,4.764,0,0,1-1.166-3.208V36.342a4.68,4.68,0,0,0,3.761-4.583v-4.6a.688.688,0,0,0-.687-.687H38.891V23.129a.688.688,0,0,0-.687-.687h-.44a.688.688,0,0,0-.687.687v3.344h-1.71V23.129a.688.688,0,0,0-.687-.687h-.44a.688.688,0,0,0-.687.687v3.344H32.236a.688.688,0,0,0-.687.687v4.6a4.68,4.68,0,0,0,3.793,4.589v4.609c0,3.577,2.484,6.348,5.778,6.446.064,0,.128,0,.191,0a6.326,6.326,0,0,0,6.319-6.319v-1.07a4.882,4.882,0,0,0,.891.125c.071,0,.142,0,.213,0a4.426,4.426,0,0,0,2.533-.765,4.539,4.539,0,0,0,.91-.906l.058-.07a4.48,4.48,0,0,0,.817-1.434,7.719,7.719,0,0,1,1.467-2.248L55.9,33.491a1.579,1.579,0,0,0,.384-2.07m-22.922.254V28.288H39.08v3.478a2.863,2.863,0,0,1-2.857,2.859c-.048,0-.1,0-.146,0a2.9,2.9,0,0,1-2.715-2.945M53.3,33.368A9.778,9.778,0,0,0,51.354,36.3l-.026.071a2.644,2.644,0,0,1-.5.869l-.06.073a3.031,3.031,0,0,1-.55.571,2.59,2.59,0,0,1-1.483.432c-.045,0-.089,0-.134,0a3.318,3.318,0,0,1-1.367-.379,10.821,10.821,0,0,1,.563-1.279l2.282.123H50.1a.38.38,0,0,0,.02-.76l-1.905-.1a7.763,7.763,0,0,1,2.511-2.6.38.38,0,0,0-.1-.695.392.392,0,0,0-.094-.012.377.377,0,0,0-.194.055,7.552,7.552,0,0,0-1.719,1.434l-.083-.749a.38.38,0,0,0-.378-.338l-.041,0a.38.38,0,0,0-.336.42l.164,1.5a11.457,11.457,0,0,0-1.338,2.5,3.307,3.307,0,0,1-.228-.416,3.471,3.471,0,0,1-.353-1.952,4.107,4.107,0,0,1,1.028-1.943A5.05,5.05,0,0,1,49.177,31.7a6.2,6.2,0,0,1,2.069-.335,8.631,8.631,0,0,1,1.471.133l.236.041a4.52,4.52,0,0,1,1.628.69Z" transform="translate(-20.405 -14.515)" fill="#f2f2f2"/>
        <path id="Path_644" data-name="Path 644" d="M21.751,172.747a9.828,9.828,0,0,1,6.8,2.6l-1.365,1.6a7.728,7.728,0,0,0-5.486-2.258c-3.7,0-6.956,2.782-6.956,7.507,0,4.961,3.176,7.586,7.009,7.586,3.281,0,6.09-2.258,6.4-6.379h-5.67v-1.89h7.848v.945c0,5.25-3.465,9.266-8.583,9.266-5.381,0-9.161-3.806-9.161-9.529,0-5.407,3.859-9.45,9.161-9.45" transform="translate(-8.143 -111.726)" fill="#f2f2f2"/>
        <path id="Path_645" data-name="Path 645" d="M73.93,186.46v3.2c1.076-1.89,2.625-3.465,4.7-3.465a3.835,3.835,0,0,1,1.391.262l-.42,1.732a3.262,3.262,0,0,0-1.076-.209c-2,0-3.622,1.969-4.594,4.62v7.56H71.961v-13.7Z" transform="translate(-46.541 -120.425)" fill="#f2f2f2"/>
        <path id="Path_646" data-name="Path 646" d="M103.445,186.123c3.491,0,6.326,2.363,6.326,7.14a6.05,6.05,0,0,1-.052.735H98.878c.184,3.071,1.969,4.568,5.066,4.568a8.552,8.552,0,0,0,4.7-1.208l.446,1.6a9.907,9.907,0,0,1-5.25,1.418c-4.331,0-7.061-2.52-7.061-6.956,0-4.7,3.071-7.3,6.667-7.3m-.052,1.811c-2.389,0-4.147,1.444-4.489,4.383h8.767c-.262-2.992-1.942-4.383-4.278-4.383" transform="translate(-62.592 -120.377)" fill="#f2f2f2"/>
        <path id="Path_647" data-name="Path 647" d="M146.765,186.123c3.491,0,6.326,2.363,6.326,7.14a6.048,6.048,0,0,1-.052.735H142.2c.184,3.071,1.969,4.568,5.066,4.568a8.552,8.552,0,0,0,4.7-1.208l.446,1.6a9.907,9.907,0,0,1-5.25,1.418c-4.331,0-7.061-2.52-7.061-6.956,0-4.7,3.071-7.3,6.667-7.3m-.052,1.811c-2.389,0-4.147,1.444-4.489,4.383h8.767c-.262-2.992-1.942-4.383-4.278-4.383" transform="translate(-90.61 -120.377)" fill="#f2f2f2"/>
        <path id="Path_648" data-name="Path 648" d="M188.136,186.413v3.229c1.418-2.415,3.2-3.518,5.46-3.518,2.31,0,4.567,1.181,4.567,5.46v8.531h-1.969v-8.268c0-2.73-1.26-3.885-2.992-3.885-2.336,0-3.833,1.549-5.066,4.7v7.454h-1.969v-13.7Z" transform="translate(-120.405 -120.377)" fill="#f2f2f2"/>
        <path id="Path_649" data-name="Path 649" d="M236.868,173.491c3.806,0,6.746,1.759,6.746,5.8,0,3.937-3.176,5.749-6.746,5.749h-1.916v6.9H232.9V173.491Zm4.594,5.932c0-2.678-1.549-4.042-4.541-4.042h-1.969v7.77h2c2.966,0,4.515-1.654,4.515-3.727" transform="translate(-150.633 -112.207)" fill="#f2f2f2"/>
        <path id="Path_650" data-name="Path 650" d="M275.015,186.123a5.884,5.884,0,0,1,5.25,3.019v-2.73h1.969v13.7h-1.969v-2.887a5.711,5.711,0,0,1-5.25,3.15c-3.727,0-6.667-2.52-6.667-7.061,0-4.594,2.94-7.192,6.667-7.192m.026,1.811c-2.651,0-4.62,1.654-4.62,5.355,0,3.36,1.969,5.276,4.62,5.276,2.861,0,4.673-2.284,5.224-5.3-.447-2.94-2.6-5.329-5.224-5.329" transform="translate(-173.556 -120.377)" fill="#f2f2f2"/>
        <path id="Path_651" data-name="Path 651" d="M317.346,197.569a8.534,8.534,0,0,0,4.042,1c1.916,0,3.281-.5,3.281-2.126,0-3.517-7.612-.6-7.612-6.3,0-2.389,1.785-4.016,5.014-4.016a9.037,9.037,0,0,1,4.121,1.024l-.525,1.811a6.838,6.838,0,0,0-3.57-1.023c-1.654,0-3.019.682-3.019,2.1,0,3.937,7.56,1,7.56,6.3,0,2.52-2.441,4.042-5.276,4.042a11.294,11.294,0,0,1-4.567-1.023Z" transform="translate(-204.89 -120.377)" fill="#f2f2f2"/>
        <path id="Path_652" data-name="Path 652" d="M351.155,197.569a8.534,8.534,0,0,0,4.042,1c1.916,0,3.281-.5,3.281-2.126,0-3.517-7.612-.6-7.612-6.3,0-2.389,1.785-4.016,5.014-4.016A9.037,9.037,0,0,1,360,187.148l-.525,1.811a6.838,6.838,0,0,0-3.57-1.023c-1.654,0-3.019.682-3.019,2.1,0,3.937,7.56,1,7.56,6.3,0,2.52-2.441,4.042-5.276,4.042a11.294,11.294,0,0,1-4.567-1.023Z" transform="translate(-226.756 -120.377)" fill="#f2f2f2"/>
      </g>
    </g>
  </g>
</svg>
