<svg width="61" height="60" viewBox="0 0 61 60" fill="none" xmlns="http://www.w3.org/2000/svg">
<path d="M59.0311 28.4573C59.0311 32.1877 58.2964 35.8815 56.8688 39.3278C55.4413 42.7742 53.3489 45.9057 50.7112 48.5434C48.0734 51.1812 44.942 53.2736 41.4956 54.7011C38.0492 56.1286 34.3554 56.8634 30.625 56.8634C23.0913 56.8634 15.8661 53.8706 10.5389 48.5434C5.21176 43.2163 2.21899 35.9911 2.21899 28.4573C2.21899 20.9236 5.21176 13.6984 10.5389 8.37119C15.8661 3.04402 23.0913 0.0512409 30.625 0.051239C34.3554 0.0512388 38.0492 0.785986 41.4956 2.21353C44.942 3.64106 48.0734 5.73344 50.7112 8.37119C53.3489 11.0089 55.4413 14.1404 56.8688 17.5868C58.2964 21.0332 59.0311 24.727 59.0311 28.4573Z" fill="url(#paint0_linear_11169_196900)" stroke="#CDCDCD" stroke-width="0.0930123" stroke-linecap="round" stroke-linejoin="round"/>
<path d="M56.8052 28.4573C56.8052 35.4007 54.047 42.0598 49.1372 46.9695C44.2275 51.8792 37.5684 54.6375 30.625 54.6375C23.6816 54.6375 17.0226 51.8792 12.1128 46.9695C7.20309 42.0598 4.44482 35.4007 4.44482 28.4573C4.44482 21.5139 7.20309 14.8549 12.1128 9.94513C17.0226 5.03539 23.6816 2.27713 30.625 2.27713C37.5684 2.27713 44.2275 5.03539 49.1372 9.94513C54.047 14.8549 56.8052 21.5139 56.8052 28.4573Z" fill="url(#paint1_radial_11169_196900)"/>
<path d="M30.6252 3.6424C30.4137 3.6424 30.2434 3.81262 30.2434 4.02408V8.42682C30.2434 8.63829 30.4137 8.80851 30.6252 8.80851C30.8366 8.80851 31.0069 8.63829 31.0069 8.42682V4.02408C31.0069 3.81262 30.8366 3.6424 30.6252 3.6424ZM28.1281 3.80022C28.1028 3.7975 28.0768 3.7975 28.0505 3.80054C27.8401 3.82248 27.6885 4.00945 27.7105 4.21978L27.9029 6.06169C27.9248 6.27201 28.1118 6.42368 28.3221 6.40171C28.5325 6.37977 28.6841 6.19278 28.6621 5.98246L28.4699 4.14056C28.4507 3.95653 28.3051 3.8174 28.1281 3.80022H28.1281ZM33.1397 3.80203C32.9627 3.81908 32.817 3.95819 32.7977 4.1422L32.604 5.98395C32.5818 6.19426 32.7335 6.38142 32.9438 6.40354C33.1541 6.42567 33.3411 6.27415 33.3632 6.06385L33.557 4.22194C33.5791 4.01163 33.4274 3.82462 33.2171 3.80252C33.1908 3.79979 33.165 3.7998 33.1397 3.80204V3.80203ZM25.563 4.17218C25.5376 4.17238 25.5118 4.1749 25.4859 4.18034C25.279 4.22414 25.1477 4.426 25.1915 4.63288L26.1033 8.94006C26.1471 9.14694 26.349 9.27824 26.5559 9.23445C26.7627 9.19065 26.8941 8.98896 26.8503 8.78208L25.9384 4.47474C25.9001 4.29371 25.7408 4.17056 25.563 4.17195L25.563 4.17218ZM35.7046 4.17582C35.5268 4.17401 35.3675 4.29728 35.329 4.47827L34.4141 8.78495C34.3701 8.9918 34.5013 9.1937 34.7081 9.23765C34.915 9.28163 35.1169 9.15041 35.1608 8.94359L36.0758 4.63689C36.1197 4.43005 35.9885 4.22814 35.7817 4.1842C35.7559 4.17876 35.73 4.17604 35.7046 4.17604L35.7046 4.17582ZM23.115 4.86242C23.0656 4.85788 23.0145 4.86333 22.9643 4.88002C22.7631 4.9454 22.6538 5.15976 22.7192 5.36088L23.2914 7.12224C23.3568 7.32336 23.5714 7.43271 23.7725 7.36736C23.9736 7.30198 24.0828 7.08745 24.0174 6.88634L23.4451 5.12499C23.3962 4.97415 23.2632 4.875 23.115 4.86239V4.86242ZM38.1388 4.86333C37.9905 4.87594 37.8576 4.97508 37.8086 5.12591L37.236 6.88711C37.1706 7.08821 37.2799 7.30276 37.481 7.36814C37.6821 7.43352 37.8966 7.32425 37.962 7.12318L38.5346 5.36182C38.6 5.16071 38.4907 4.94617 38.2897 4.88079C38.2394 4.86447 38.1882 4.85912 38.1388 4.86329V4.86333ZM20.6942 5.7483C20.6446 5.7492 20.5944 5.76008 20.5461 5.78157C20.353 5.86745 20.2665 6.0921 20.3524 6.28533L22.1406 10.3085C22.2265 10.5017 22.4511 10.5881 22.6444 10.5022C22.8375 10.4164 22.9242 10.1917 22.8383 9.99848L21.0499 5.9753C20.9855 5.83037 20.843 5.74541 20.6942 5.7483ZM40.5869 5.7618C40.4381 5.75908 40.2955 5.8435 40.2309 5.98831L38.4372 10.009C38.3511 10.2021 38.4372 10.427 38.6303 10.5131C38.8235 10.5993 39.0483 10.5132 39.1344 10.32L40.9281 6.29935C41.0142 6.10623 40.9281 5.8814 40.735 5.79524C40.6868 5.77375 40.6365 5.76288 40.5869 5.76179V5.7618ZM18.4472 6.9372C18.3739 6.93176 18.2984 6.94807 18.2298 6.98779C18.0466 7.09352 17.9843 7.32606 18.0901 7.50919L19.0161 9.11306C19.1218 9.2962 19.3543 9.35848 19.5375 9.25274C19.7206 9.14701 19.7829 8.9145 19.6771 8.73136L18.7512 7.1275C18.6851 7.01303 18.5694 6.94576 18.4472 6.93721V6.9372ZM42.8031 6.9372C42.681 6.94536 42.5654 7.013 42.4993 7.12747L41.5732 8.73133C41.4674 8.91447 41.5299 9.14698 41.713 9.25272C41.8962 9.35845 42.1287 9.29616 42.2344 9.11303L43.1604 7.50916C43.2661 7.32603 43.2038 7.09349 43.0207 6.98776C42.9521 6.94813 42.8764 6.93209 42.8031 6.93717V6.9372ZM16.2653 8.29807C16.1918 8.30079 16.1183 8.32437 16.0541 8.37089C15.8829 8.49506 15.8451 8.73282 15.9693 8.90399L18.5545 12.4677C18.6787 12.6389 18.9166 12.6767 19.0878 12.5526C19.2589 12.4284 19.2968 12.1907 19.1725 12.0195L16.5872 8.45577C16.5096 8.34878 16.3876 8.29393 16.2653 8.29811V8.29807ZM45.0124 8.31748C44.89 8.31295 44.7681 8.36781 44.6903 8.47464L42.1002 12.0349C41.9758 12.2059 42.0133 12.4438 42.1843 12.5682C42.3553 12.6926 42.5932 12.6551 42.7176 12.4842L45.3076 8.92392C45.4319 8.75292 45.3943 8.51507 45.2234 8.39067C45.1593 8.34406 45.0858 8.32011 45.0124 8.31748ZM14.315 9.9337C14.2176 9.92826 14.1181 9.96081 14.0395 10.0316C13.8824 10.173 13.8698 10.4134 14.0113 10.5706L15.2504 11.9471C15.3919 12.1043 15.6322 12.1169 15.7894 11.9754C15.9466 11.8339 15.9592 11.5934 15.8177 11.4362L14.5787 10.0598C14.508 9.98123 14.4124 9.93878 14.315 9.93366V9.9337ZM46.9381 9.93642C46.8407 9.94186 46.7451 9.98403 46.6744 10.0626L45.4352 11.4388C45.2937 11.596 45.3063 11.8365 45.4634 11.978C45.6206 12.1195 45.861 12.1068 46.0025 11.9497L47.2418 10.5735C47.3833 10.4163 47.3706 10.1758 47.2135 10.0343C47.1348 9.96359 47.0356 9.93136 46.9382 9.93646L46.9381 9.93642ZM12.4457 11.7292C12.3483 11.7347 12.2529 11.7768 12.1821 11.8554C12.0407 12.0126 12.0533 12.253 12.2104 12.3944L15.4826 15.3401C15.6398 15.4816 15.8801 15.4689 16.0216 15.3118C16.1631 15.1546 16.1506 14.9142 15.9934 14.7728L12.7211 11.8271C12.6425 11.7564 12.5431 11.7242 12.4456 11.7293L12.4457 11.7292ZM48.8164 11.7421C48.719 11.7367 48.6195 11.7691 48.5408 11.8398L45.2667 14.7831C45.1094 14.9245 45.0965 15.1649 45.2379 15.3222C45.3792 15.4794 45.6198 15.4922 45.7771 15.3508L49.0513 12.4075C49.2086 12.2661 49.2214 12.0257 49.08 11.8685C49.0093 11.7898 48.9138 11.7473 48.8164 11.7421H48.8164ZM10.8913 13.728C10.7689 13.7235 10.6469 13.7786 10.5692 13.8855C10.4449 14.0566 10.4826 14.2943 10.6537 14.4186L12.152 15.5072C12.3231 15.6315 12.5608 15.5939 12.6851 15.4228C12.8094 15.2517 12.7718 15.0139 12.6008 14.8896L11.1025 13.801C11.0384 13.7544 10.9647 13.7306 10.8913 13.728L10.8913 13.728ZM50.3694 13.7419C50.296 13.7446 50.2224 13.7681 50.1582 13.8147L48.6593 14.9023C48.4881 15.0265 48.4503 15.2644 48.5744 15.4356C48.6986 15.6067 48.9363 15.6444 49.1075 15.5202L50.6066 14.4327C50.7778 14.3085 50.8155 14.0707 50.6913 13.8996C50.6137 13.7926 50.4918 13.7377 50.3694 13.7419V13.7419ZM9.43865 15.8601C9.31651 15.8682 9.20096 15.9359 9.13487 16.0503C9.02914 16.2335 9.09144 16.466 9.27457 16.5717L13.0874 18.7731C13.2705 18.8788 13.503 18.8165 13.6088 18.6334C13.7145 18.4503 13.6522 18.2177 13.4691 18.112L9.65625 15.9106C9.5876 15.871 9.51193 15.8549 9.43865 15.86V15.8601ZM51.8117 15.8601C51.7384 15.8546 51.6627 15.8709 51.5941 15.9107L47.7813 18.112C47.5981 18.2178 47.5358 18.4503 47.6416 18.6334C47.7473 18.8166 47.9798 18.8788 48.1629 18.7731L51.9759 16.5718C52.1591 16.466 52.2213 16.2335 52.1156 16.0504C52.0495 15.9359 51.9338 15.8686 51.8117 15.8601V15.8601ZM8.34033 18.1326C8.19159 18.129 8.04895 18.2141 7.98434 18.3589C7.89819 18.5521 7.98428 18.7769 8.17742 18.863L9.86892 19.6175C10.0621 19.7037 10.2869 19.6176 10.373 19.4245C10.4592 19.2313 10.3729 19.0065 10.1798 18.9204L8.48844 18.1659C8.4402 18.1443 8.38991 18.1336 8.34033 18.1326ZM52.9174 18.1483C52.8678 18.1492 52.8174 18.1601 52.7691 18.1816L51.0773 18.9347C50.8841 19.0208 50.7977 19.2455 50.8837 19.4387C50.9698 19.6318 51.1946 19.7182 51.3878 19.6322L53.0796 18.8789C53.2728 18.7929 53.3591 18.5681 53.273 18.375C53.2086 18.2301 53.0661 18.1453 52.9174 18.1483ZM7.36149 20.5078C7.21323 20.5202 7.08033 20.6193 7.0312 20.7701C6.96573 20.9711 7.0747 21.1857 7.27581 21.2513L11.4619 22.6153C11.663 22.6807 11.8776 22.5716 11.9431 22.3706C12.0086 22.1696 11.8996 21.9549 11.6985 21.8894L7.51239 20.5254C7.46215 20.509 7.4109 20.5037 7.36149 20.5078V20.5078ZM53.8944 20.5241C53.845 20.5196 53.794 20.525 53.7437 20.5417L49.5566 21.9028C49.3555 21.9681 49.2463 22.1827 49.3116 22.3838C49.377 22.5849 49.5915 22.6941 49.7927 22.6288L53.9796 21.2677C54.1807 21.2023 54.2901 20.9878 54.2247 20.7867C54.1757 20.6358 54.0427 20.5367 53.8944 20.5241V20.5241ZM6.75164 23.0011C6.57381 22.9993 6.41433 23.1227 6.37586 23.3037C6.33188 23.5105 6.4631 23.7124 6.66992 23.7564L8.48152 24.1414C8.68837 24.1854 8.89024 24.0542 8.93421 23.8473C8.97819 23.6405 8.84699 23.4386 8.64018 23.3946L6.82874 23.0097C6.80289 23.0042 6.77703 23.0015 6.75164 23.0015V23.0011ZM54.4995 23.0047C54.4741 23.0049 54.4485 23.0083 54.4226 23.0129L52.611 23.3977C52.4042 23.4417 52.273 23.6434 52.3169 23.8502C52.3609 24.0571 52.5628 24.1884 52.7696 24.1445L54.5811 23.7596C54.7879 23.7157 54.9192 23.5138 54.8753 23.3069C54.8368 23.1259 54.6774 23.0028 54.4995 23.0043L54.4995 23.0047ZM6.29004 25.509C6.11303 25.526 5.96733 25.6649 5.94788 25.8489C5.92567 26.0592 6.07696 26.2464 6.28725 26.2686L10.6656 26.7315C10.8759 26.7537 11.0631 26.6023 11.0853 26.392C11.1076 26.1817 10.9561 25.9945 10.7458 25.9723L6.36747 25.5094C6.34118 25.5066 6.31534 25.5066 6.29004 25.509V25.509ZM54.9644 25.542C54.9391 25.5392 54.9131 25.5392 54.8868 25.5423L50.5079 25.9993C50.2976 26.0212 50.146 26.2082 50.1679 26.4185C50.1898 26.6288 50.3768 26.7805 50.5871 26.7585L54.966 26.3015C55.1763 26.2796 55.3279 26.0926 55.306 25.8823C55.2868 25.6983 55.1413 25.5591 54.9644 25.5419L54.9644 25.542ZM6.2159 28.0763C6.00444 28.0763 5.83423 28.2465 5.83423 28.4579C5.83423 28.6694 6.00444 28.8396 6.2159 28.8396H8.06789C8.27934 28.8396 8.44973 28.6694 8.44973 28.4579C8.44973 28.2465 8.27934 28.0763 8.06789 28.0763H6.2159ZM53.1824 28.0763C52.971 28.0763 52.8007 28.2465 52.8007 28.4579C52.8007 28.6694 52.971 28.8396 53.1824 28.8396H55.0344C55.2459 28.8396 55.4161 28.6694 55.4161 28.4579C55.4161 28.2465 55.2459 28.0763 55.0344 28.0763H53.1824ZM10.7407 30.157C10.7154 30.1543 10.6896 30.1543 10.6633 30.1573L6.28426 30.6143C6.07393 30.6363 5.92233 30.8233 5.94426 31.0336C5.9662 31.2439 6.15317 31.3956 6.36349 31.3736L10.7425 30.9166C10.9528 30.8947 11.1044 30.7077 11.0825 30.4974C11.0633 30.3133 10.9177 30.1742 10.7407 30.157H10.7407ZM50.5073 30.1841C50.3303 30.201 50.1846 30.3399 50.1651 30.5239C50.1429 30.7342 50.2942 30.9214 50.5045 30.9437L54.8829 31.4066C55.0932 31.4288 55.2804 31.2773 55.3026 31.0671C55.3248 30.8568 55.1733 30.6695 54.9631 30.6473L50.5849 30.1844C50.5586 30.1817 50.5326 30.1817 50.5073 30.1841L50.5073 30.1841ZM8.55796 32.7627C8.53257 32.7629 8.50673 32.7654 8.48089 32.7708L6.66928 33.1556C6.46243 33.1996 6.3313 33.4015 6.37522 33.6083C6.4192 33.8152 6.62108 33.9463 6.82794 33.9024L8.63954 33.5177C8.84639 33.4738 8.97751 33.2719 8.93357 33.065C8.89513 32.884 8.7358 32.7609 8.55799 32.7624L8.55796 32.7627ZM52.6918 32.7663C52.514 32.7645 52.3547 32.8878 52.3163 33.0687C52.2723 33.2756 52.4033 33.4775 52.6101 33.5214L54.4218 33.9064C54.6286 33.9504 54.8305 33.8194 54.8744 33.6125C54.9184 33.4057 54.7872 33.2036 54.5804 33.1597L52.7689 32.7747C52.7431 32.7692 52.7173 32.7665 52.6919 32.7665L52.6918 32.7663ZM11.6085 34.2697C11.5591 34.2651 11.5081 34.2706 11.4578 34.2873L7.27072 35.6483C7.0696 35.7137 6.96038 35.9282 7.02575 36.1293C7.09113 36.3304 7.30566 36.4397 7.50677 36.3743L11.6937 35.0133C11.8948 34.9479 12.0042 34.7333 11.9388 34.5322C11.8898 34.3814 11.7568 34.2822 11.6085 34.2696V34.2697ZM49.6377 34.2832C49.4894 34.2956 49.3565 34.3946 49.3073 34.5454C49.2419 34.7465 49.3509 34.9611 49.552 35.0266L53.7381 36.3907C53.9392 36.4561 54.1538 36.347 54.2193 36.146C54.2849 35.945 54.1758 35.7303 53.9747 35.6648L49.7885 34.3008C49.7383 34.2844 49.6871 34.279 49.6377 34.2832V34.2832ZM10.0108 37.2507C9.96117 37.2517 9.91096 37.2623 9.86266 37.2838L8.17067 38.0372C7.97748 38.1231 7.89125 38.3479 7.97725 38.5411C8.06331 38.7343 8.28801 38.8205 8.48119 38.7345L10.1732 37.9813C10.3664 37.8954 10.4526 37.6706 10.3666 37.4774C10.3021 37.3325 10.1595 37.2478 10.0108 37.2507V37.2507ZM51.2334 37.2652C51.0847 37.2616 50.9421 37.3468 50.8774 37.4916C50.7913 37.6847 50.8774 37.9095 51.0705 37.9957L52.7619 38.7502C52.955 38.8363 53.1798 38.7502 53.266 38.5571C53.3521 38.364 53.266 38.1392 53.0729 38.053L51.3815 37.2985C51.3333 37.2769 51.283 37.2662 51.2334 37.2652V37.2652ZM13.305 38.0924C13.2317 38.0869 13.1561 38.1033 13.0874 38.143L9.27457 40.3443C9.09144 40.4501 9.02914 40.6826 9.13487 40.8657C9.24061 41.0489 9.47312 41.1112 9.65625 41.0054L13.4691 38.8042C13.6522 38.6985 13.7145 38.4658 13.6088 38.2827C13.5427 38.1682 13.4271 38.1009 13.305 38.0924V38.0924ZM47.9455 38.0924C47.8233 38.1005 47.7076 38.1682 47.6416 38.2827C47.5358 38.4658 47.5981 38.6985 47.7813 38.8042L51.5941 41.0054C51.7772 41.1111 52.0099 41.0488 52.1156 40.8657C52.2213 40.6826 52.159 40.4501 51.9759 40.3443L48.1629 38.143C48.0943 38.1033 48.0187 38.0873 47.9455 38.0924V38.0924ZM12.354 41.3228C12.2805 41.3256 12.207 41.3492 12.1428 41.3959L10.6438 42.4834C10.4727 42.6076 10.4348 42.8454 10.559 43.0165C10.6832 43.1877 10.9209 43.2255 11.0921 43.1013L12.5912 42.0137C12.7623 41.8896 12.8002 41.6518 12.676 41.4806C12.5984 41.3737 12.4763 41.3186 12.354 41.3228V41.3228ZM48.8873 41.3357C48.7649 41.3312 48.6429 41.3863 48.5652 41.4932C48.4409 41.6643 48.4786 41.9022 48.6497 42.0265L50.148 43.115C50.3191 43.2393 50.5568 43.2016 50.6811 43.0305C50.8054 42.8594 50.7678 42.6217 50.5968 42.4974L49.0985 41.4089C49.0344 41.3622 48.9607 41.3383 48.8873 41.3357L48.8873 41.3357ZM15.7488 41.4675C15.6514 41.4621 15.552 41.4945 15.4734 41.5652L12.1991 44.5085C12.0419 44.6499 12.0291 44.8903 12.1705 45.0476C12.3118 45.2048 12.5522 45.2176 12.7095 45.0762L15.9838 42.1329C16.141 41.9915 16.1538 41.7511 16.0124 41.5939C15.9418 41.5152 15.8463 41.4727 15.7488 41.4675ZM45.4924 41.478C45.395 41.4835 45.2994 41.5256 45.2287 41.6042C45.0872 41.7614 45.0998 42.0018 45.257 42.1432L48.5291 45.0889C48.6863 45.2304 48.9268 45.2177 49.0683 45.0606C49.2098 44.9034 49.1971 44.663 49.04 44.5216L45.7677 41.5759C45.689 41.5052 45.5898 41.473 45.4924 41.4781V41.478ZM18.8551 44.2743C18.7327 44.2697 18.6106 44.3245 18.5329 44.4314L15.9429 47.9917C15.8185 48.1627 15.8559 48.4005 16.0269 48.5249C16.1979 48.6493 16.4357 48.6119 16.5601 48.4409L19.1501 44.8806C19.2745 44.7096 19.2371 44.4718 19.0661 44.3474C19.002 44.3007 18.9285 44.2768 18.8551 44.2743ZM42.3739 44.2902C42.3005 44.2929 42.227 44.3164 42.1628 44.363C41.9916 44.4872 41.9537 44.7249 42.0779 44.8961L44.6631 48.4599C44.7872 48.631 45.025 48.6689 45.1962 48.5447C45.3673 48.4206 45.4052 48.1828 45.281 48.0117L42.6958 44.4479C42.6182 44.3409 42.4963 44.2861 42.3739 44.2903V44.2902ZM15.5116 44.8401C15.4142 44.8456 15.3186 44.8877 15.2479 44.9663L14.0087 46.3425C13.8672 46.4997 13.8798 46.7402 14.0369 46.8817C14.1941 47.0232 14.4345 47.0105 14.5759 46.8533L15.8153 45.4771C15.9568 45.32 15.9441 45.0794 15.787 44.9379C15.7084 44.8672 15.6091 44.835 15.5117 44.8401L15.5116 44.8401ZM45.7364 44.8419C45.639 44.8365 45.5397 44.869 45.4611 44.9398C45.3039 45.0812 45.2913 45.3216 45.4327 45.4788L46.6717 46.8553C46.8132 47.0125 47.0536 47.0251 47.2107 46.8836C47.3679 46.7421 47.3805 46.5016 47.239 46.3444L46 44.9681C45.9293 44.8895 45.8337 44.847 45.7363 44.8419L45.7364 44.8419ZM22.4719 46.3687C22.3231 46.3651 22.1807 46.4502 22.1161 46.595L20.3223 50.6158C20.2361 50.8089 20.3222 51.0337 20.5153 51.1198C20.7084 51.206 20.9333 51.1199 21.0194 50.9268L22.8132 46.9061C22.8994 46.7129 22.8133 46.4881 22.6201 46.402C22.5719 46.3804 22.5215 46.3697 22.4719 46.3687ZM38.7542 46.3797C38.7046 46.3807 38.6543 46.3914 38.6059 46.4128C38.4128 46.4987 38.3263 46.7234 38.4122 46.9166L40.2004 50.9398C40.2863 51.1329 40.5111 51.2194 40.7043 51.1335C40.8975 51.0477 40.984 50.823 40.8981 50.6298L39.1099 46.6066C39.0455 46.4617 38.903 46.3769 38.7542 46.3797ZM19.3198 47.6118C19.1977 47.62 19.0821 47.6876 19.0161 47.8021L18.0901 49.406C17.9843 49.5891 18.0466 49.8216 18.2298 49.9273C18.4129 50.0331 18.6454 49.9708 18.7512 49.7876L19.6771 48.1838C19.7829 48.0006 19.7206 47.7681 19.5375 47.6624C19.4688 47.6228 19.3931 47.6067 19.3198 47.6118V47.6118ZM41.9305 47.6118C41.8572 47.6064 41.7817 47.6228 41.713 47.6624C41.5299 47.7681 41.4676 48.0007 41.5733 48.1838L42.4993 49.7877C42.605 49.9708 42.8376 50.0331 43.0207 49.9274C43.2038 49.8216 43.2661 49.5891 43.1604 49.406L42.2344 47.8021C42.1683 47.6877 42.0526 47.6204 41.9305 47.6118V47.6118ZM26.4652 47.6693C26.2874 47.6675 26.1281 47.7908 26.0896 47.9718L25.1747 52.2784C25.1307 52.4853 25.2619 52.6872 25.4688 52.7311C25.6756 52.7751 25.8775 52.6439 25.9214 52.4371L26.8364 48.1304C26.8804 47.9236 26.7492 47.7217 26.5423 47.6777C26.5165 47.6723 26.4907 47.6696 26.4653 47.6696L26.4652 47.6693ZM34.7716 47.672C34.7462 47.6722 34.7205 47.6747 34.6947 47.6802C34.4878 47.724 34.3565 47.9257 34.4003 48.1325L35.3121 52.4399C35.3559 52.6468 35.5577 52.7781 35.7646 52.7343C35.9715 52.6905 36.1028 52.4886 36.059 52.2818L35.147 47.9747C35.1087 47.7937 34.9494 47.6705 34.7716 47.6719L34.7716 47.672ZM30.6252 48.1064C30.4137 48.1064 30.2434 48.2767 30.2434 48.4881V52.8909C30.2434 53.1023 30.4137 53.2726 30.6252 53.2726C30.8366 53.2726 31.0069 53.1023 31.0069 52.8909V48.4881C31.0069 48.2767 30.8366 48.1064 30.6252 48.1064ZM23.6186 49.5291C23.4704 49.5417 23.3373 49.6409 23.2883 49.7917L22.7159 51.553C22.6505 51.7541 22.7598 51.9687 22.9608 52.0341C23.1619 52.0995 23.3765 51.99 23.4419 51.7889L24.0143 50.0278C24.0797 49.8267 23.9704 49.6121 23.7693 49.5467C23.7191 49.5304 23.668 49.525 23.6186 49.5291V49.5291ZM37.6287 49.53C37.5793 49.5255 37.5283 49.5309 37.478 49.5475C37.2769 49.6129 37.1675 49.8274 37.2329 50.0285L37.8052 51.7899C37.8706 51.991 38.0851 52.1002 38.2862 52.0348C38.4873 51.9695 38.5967 51.7551 38.5313 51.554L37.9589 49.7926C37.9098 49.6418 37.777 49.5426 37.6287 49.53V49.53ZM28.2292 50.511C28.0522 50.528 27.9064 50.667 27.8871 50.851L27.6935 52.6929C27.6714 52.9032 27.8229 53.0902 28.0332 53.1124C28.2435 53.1345 28.4307 52.983 28.4528 52.7727L28.6463 50.9309C28.6685 50.7206 28.517 50.5335 28.3067 50.5113C28.2804 50.5086 28.2545 50.5086 28.2292 50.511L28.2292 50.511ZM33.0058 50.5128C32.9805 50.5101 32.9544 50.5101 32.9281 50.5131C32.7178 50.5351 32.5661 50.7221 32.5881 50.9324L32.7805 52.7745C32.8025 52.9848 32.9894 53.1363 33.1998 53.1143C33.4101 53.0924 33.5618 52.9054 33.5398 52.6951L33.3476 50.8531C33.3283 50.6691 33.1827 50.53 33.0057 50.5128L33.0058 50.5128Z" fill="#F4F2F3"/>
<g opacity="0.409" filter="url(#filter0_f_11169_196900)">
<path d="M48.5155 13.1898L27.6322 25.323L14.4282 46.1098L33.7445 31.8024L48.5155 13.1898Z" fill="black"/>
</g>
<path d="M33.6181 31.5916L27.6323 25.323L48.8663 11.0389L33.6181 31.5916Z" fill="#FF5150"/>
<path d="M33.618 31.5916L27.6322 25.323L12.384 45.8757L33.618 31.5916Z" fill="#F1F1F1"/>
<path opacity="0.243" d="M12.384 45.8757L33.618 31.5916L48.8662 11.0389L12.384 45.8757Z" fill="black"/>
<defs>
<filter id="filter0_f_11169_196900" x="13.7549" y="12.5164" width="35.4341" height="34.2667" filterUnits="userSpaceOnUse" color-interpolation-filters="sRGB">
<feFlood flood-opacity="0" result="BackgroundImageFix"/>
<feBlend mode="normal" in="SourceGraphic" in2="BackgroundImageFix" result="shape"/>
<feGaussianBlur stdDeviation="0.336663" result="effect1_foregroundBlur_11169_196900"/>
</filter>
<linearGradient id="paint0_linear_11169_196900" x1="30.6251" y1="56.8634" x2="30.6251" y2="0.051239" gradientUnits="userSpaceOnUse">
<stop stop-color="#BDBDBD"/>
<stop offset="1" stop-color="white"/>
</linearGradient>
<radialGradient id="paint1_radial_11169_196900" cx="0" cy="0" r="1" gradientUnits="userSpaceOnUse" gradientTransform="translate(30.7442 24.6403) scale(28.4062)">
<stop stop-color="#06C2E7"/>
<stop offset="0.25" stop-color="#0DB8EC"/>
<stop offset="0.5" stop-color="#12AEF1"/>
<stop offset="0.75" stop-color="#1F86F9"/>
<stop offset="1" stop-color="#107DDD"/>
</radialGradient>
</defs>
</svg>
