<svg width="386" height="96" viewBox="0 0 386 96" fill="none" xmlns="http://www.w3.org/2000/svg">
<path d="M207.58 23.1183C217.653 27.4028 226.247 34.469 230.571 42.0188L230.568 42.0262C230.733 42.3138 230.824 42.6378 230.833 42.9692C230.842 43.301 230.768 43.6293 230.619 43.9255C230.47 44.2217 230.25 44.4761 229.978 44.6658C229.706 44.856 229.391 44.9753 229.062 45.0141C217.385 46.3843 211.194 51.9574 205.73 56.877L205.72 56.8864C202.146 60.1007 198.768 63.1398 194.37 64.5982C189.456 66.2278 184.011 65.6452 177.228 62.7599C174.329 61.4988 171.517 60.0452 168.812 58.4088C163.419 65.6804 161.544 73.2021 161.544 73.2021L154.167 70.0644C157.377 62.5075 162.064 55.6675 167.952 49.9458C170.853 46.9243 174.188 44.3512 177.846 42.3111C193.916 33.2873 212.232 35.9602 212.232 35.9602C194.627 28.4714 173.899 34.8082 161.46 48.8745C162.002 43.1551 163.283 38.1678 165.284 34.0182C167.531 29.3596 170.687 25.7191 174.661 23.2063C183.124 17.8508 195.124 17.8199 207.58 23.1183Z" fill="#A0D3BD"/>
<path fill-rule="evenodd" clip-rule="evenodd" d="M245.5 44.5957C245.498 45.608 245.468 46.6136 245.409 47.6117C294.08 54.353 341.163 70.4458 384 95.1778L385.5 92.5797C342.232 67.5991 294.667 51.3636 245.5 44.5957ZM140.591 47.6117C140.532 46.6136 140.502 45.608 140.5 44.5957C91.3331 51.3636 43.7677 67.5991 0.5 92.5797L2 95.1778C44.8372 70.4457 91.92 54.353 140.591 47.6117Z" fill="#2F76AC" fill-opacity="0.2"/>
</svg>
