<svg width="1500" height="155" viewBox="0 0 1500 155" fill="none" xmlns="http://www.w3.org/2000/svg">
<path d="M271.457 139.237C268.387 134.13 262.588 134.13 259.859 134.13H197.775C197.775 134.13 109.766 134.471 109.084 134.471C108.402 134.471 106.355 135.492 106.355 135.492C103.967 136.854 101.921 138.556 101.238 140.939C99.5328 144.343 100.215 149.109 103.285 152.173C105.332 154.216 108.061 154.897 110.108 154.897H186.518H262.929C266.681 154.556 270.092 152.514 271.457 149.79C273.162 146.386 273.162 142.301 271.457 139.237Z" fill="#F6921E"/>
<path d="M318.531 0H53.1401C49.0467 0.680864 45.9766 4.08516 45.9766 8.17035C45.9766 12.2555 49.0467 15.6599 53.1401 16.3408H318.531C322.624 15.6599 325.694 12.2555 325.694 8.17035C326.035 4.08516 322.624 0.680864 318.531 0Z" fill="#0060A8"/>
<path d="M114.201 44.9349H258.153C263.952 36.7646 271.798 30.2963 279.303 25.1898H95.0983C95.4394 25.1898 108.402 34.3815 114.201 44.9349Z" fill="#0060A8"/>
<path d="M293.288 27.913C313.414 19.7426 339.68 23.8278 355.031 39.1472C368.675 52.0837 373.792 73.8714 367.652 92.9356C363.9 103.829 356.395 113.702 346.503 120.17C334.222 128.681 314.779 130.383 301.816 121.872C299.152 121.281 297.258 119.665 295.466 118.135C295.194 117.903 294.923 117.672 294.653 117.447C281.008 105.872 276.232 85.1056 282.713 68.084C287.83 55.1475 301.134 45.9559 315.802 46.6368C327.741 47.3176 338.657 54.1262 344.456 64.3392C348.549 72.1691 347.867 84.4247 343.432 91.9142C338.998 98.7228 331.493 104.17 322.624 104.17C314.779 104.17 307.615 99.7442 304.204 92.5951C301.475 86.4673 301.816 77.616 306.592 72.85C310.003 69.7861 314.437 68.4244 318.872 69.7861C322.283 70.8074 325.012 73.5309 325.012 77.2757C325.012 80.3396 323.648 82.7226 321.26 84.0843C321.089 84.0843 321.004 84.1694 320.919 84.2545C320.833 84.3397 320.748 84.4248 320.578 84.4248C320.407 84.4248 320.236 84.5098 320.066 84.5949C319.895 84.68 319.725 84.7651 319.554 84.7651C319.213 85.1053 319.213 85.1056 318.872 85.1056H318.19C317.166 85.446 316.484 85.446 315.461 85.446C315.12 86.8077 316.825 89.1908 317.166 89.5312C319.213 91.5738 322.624 92.2546 325.694 91.5738C331.152 89.8716 334.563 84.7652 335.246 79.3183C336.269 71.1479 331.493 64.3393 324.671 60.5945C317.507 56.5093 307.956 57.5306 301.134 61.9562C292.265 68.4244 290.218 81.0204 292.606 91.9142C294.994 103.148 304.204 112 315.461 114.383C329.106 117.106 342.75 111.319 350.255 100.425C358.442 89.8716 360.83 71.4883 354.007 59.2327C347.185 44.2537 330.811 35.4025 314.096 35.4025C295.676 35.062 278.961 46.9772 272.139 63.9988C268.572 72.3039 268.817 82.0974 269.062 91.8809C269.169 96.1336 269.275 100.384 269.069 104.51C269.069 105.74 269.088 107.049 269.109 108.404V108.409C269.174 112.676 269.245 117.399 268.727 121.532C267.363 124.255 264.634 125.957 261.564 125.957H240.074C238.027 125.277 236.662 124.255 235.639 122.553L234.957 119.83V70.1266C234.616 68.084 232.569 66.0414 230.522 65.701C229.158 65.3606 227.793 65.701 226.429 66.7223C225.064 67.7435 224.041 69.1053 224.041 70.8075L223.7 120.851C223.359 123.234 222.676 124.936 220.289 125.617L217.218 126.298H196.069C193.681 125.957 191.976 124.596 190.952 122.553L190.611 119.149L190.27 69.7861C190.27 68.4244 188.906 67.0626 187.541 66.0413C187.2 65.7009 186.177 65.3605 185.494 65.3605C184.471 65.3605 183.789 65.3606 183.107 65.701C181.06 66.7223 179.354 69.4457 179.695 72.1692L179.354 120.851C179.354 123.574 177.649 126.298 174.92 126.298H150.7C148.995 126.298 147.289 124.596 146.607 122.894C146.607 122.894 145.925 121.872 145.925 120.51V70.8075C145.925 68.4245 144.901 67.0626 143.196 66.0413C141.831 65.0201 140.126 65.3605 138.42 66.0413C137.397 66.7222 136.032 67.7435 135.35 69.4457L135.009 72.85V120.17C134.327 123.234 132.28 125.957 129.551 126.298H108.06C106.014 126.298 104.308 125.617 102.944 124.255C101.92 122.894 101.579 121.191 101.579 119.83L101.238 81.0204C101.579 67.7436 96.1213 55.8284 87.2522 47.3176C75.6541 36.4238 57.9159 31.9982 41.8833 36.4238C26.533 40.8494 14.2527 54.1263 11.8648 70.1266C9.81812 85.7864 15.9583 100.085 27.5563 108.255C36.4254 115.064 49.7291 117.447 59.9626 112.681C69.8551 108.936 76.6775 99.4038 78.7242 89.5312C79.7475 79.9991 78.7242 69.7861 71.5607 63.3179C65.7616 57.871 56.2103 55.8285 48.3646 58.8924C40.8599 61.6158 34.7198 69.1052 34.3787 77.9565C34.7198 83.7438 37.7899 88.8503 42.9067 91.5738C45.2945 92.9355 49.729 92.5951 52.1169 90.8929C53.4814 89.5312 55.187 87.1482 54.8459 85.1056C51.4347 85.446 48.3646 84.0843 46.659 81.7012C46.4884 81.1906 46.3178 80.7651 46.1473 80.3395C45.9768 79.914 45.8062 79.4884 45.6356 78.9778C45.2945 78.6374 45.2945 78.2969 45.2945 77.9565V75.5735C45.9767 71.8288 49.0468 68.7649 53.1403 68.7649H54.8459C59.6215 68.7649 64.3972 71.8288 66.4439 75.914C68.8317 81.7013 67.8083 89.1908 64.7383 93.9568C60.986 100.085 53.8225 103.489 47.0001 103.149C37.1077 103.489 28.5797 95.3186 25.1685 87.1482C20.0517 76.9352 23.804 63.6583 31.3086 55.8284C40.5188 45.9559 56.8925 41.8707 69.8551 47.658C81.112 52.7645 89.2989 63.9988 90.6633 76.5948C93.0512 95.3185 84.8643 112.681 68.8317 121.532C54.1636 130.383 32.6731 127.319 19.7106 117.106C3.67799 105.191 -3.48552 84.0843 1.63126 62.9775C5.38357 47.658 16.2994 34.3812 30.9675 27.913C40.86 23.4874 52.1169 22.1256 63.3738 23.4873C64.4653 23.4873 64.4654 23.4874 65.1202 23.6616C65.284 23.7052 65.4887 23.7597 65.7617 23.8278C87.2521 27.2321 107.037 45.2751 111.472 67.0627C113.476 76.6191 113.299 86.901 113.125 97.0559C113.032 102.456 112.94 107.821 113.177 113.021C113.177 114.042 114.201 115.064 115.224 115.064H121.705C122.729 114.723 123.07 113.361 123.07 112.34L123.411 66.7223C124.093 61.2753 127.845 56.1688 133.644 54.4667C140.126 52.4241 147.971 53.1049 153.088 57.5305C155.817 60.5944 157.182 64.6797 157.182 69.1053V113.021C157.182 114.383 158.205 115.064 159.228 115.404C159.805 115.404 160.422 115.424 161.059 115.444C163.059 115.509 165.263 115.58 167.074 115.064L168.097 113.702L168.439 65.701C169.462 60.5945 173.555 56.1688 178.672 54.4667C180.719 53.7858 182.766 53.4454 185.494 53.4454C189.588 53.4454 193.681 54.4667 196.751 56.8497C201.186 60.5945 202.55 66.7222 201.868 72.85V113.361C202.209 114.042 202.891 114.723 203.915 114.723H211.078C213.236 113.288 213.035 110.675 212.843 108.185C212.762 107.132 212.683 106.102 212.784 105.191L213.125 66.7223C213.466 61.9562 216.536 57.5306 220.971 55.488C227.793 52.0837 236.662 52.7645 242.12 57.5305C245.873 60.254 246.896 64.6797 247.237 69.1053V113.702C247.237 114.599 248.027 114.971 248.682 115.279L248.792 115.331C248.844 115.355 248.894 115.38 248.943 115.404L256.106 115.064C257.129 115.064 257.812 114.383 257.812 113.361L258.153 77.6161C259.176 55.488 273.503 36.0834 293.288 27.913Z" fill="#0060A8"/>
<path d="M430.933 72.8511C430.933 62.9786 430.933 53.1061 430.251 43.2336L429.569 29.9568C430.709 30.0603 431.913 30.1952 433.141 30.3328C435.954 30.6482 438.896 30.978 441.508 30.978C445.602 30.978 449.013 30.6376 452.765 29.9568C452.083 36.7654 451.742 43.2336 451.742 50.0423V63.6595L468.115 64C473.914 64 480.055 64 485.854 63.6595V50.0423C485.854 43.2336 485.512 36.7654 484.83 29.9568C486.706 29.9568 488.753 30.2121 490.8 30.4674C492.847 30.7227 494.893 30.978 496.769 30.978C499.551 30.978 502.175 30.6637 504.748 30.3554C505.962 30.21 507.165 30.0659 508.367 29.9568C507.003 43.9145 506.662 58.8934 506.662 72.8511C506.662 87.1493 507.003 100.767 508.367 114.724C504.615 114.384 500.522 114.043 496.769 114.043C493.017 114.043 488.583 114.384 484.83 114.724C485.854 108.597 485.854 102.469 485.854 96.3417V74.2129C480.055 73.8725 474.256 73.8725 468.115 73.8725C465.386 73.8725 462.658 73.9576 459.929 74.0427C457.2 74.1278 454.471 74.2129 451.742 74.2129V96.341C451.742 102.469 452.083 108.597 452.765 114.724C448.672 114.384 444.578 114.384 440.826 114.384C438.95 114.384 437.074 114.469 435.197 114.554C433.321 114.639 431.445 114.724 429.569 114.724C429.697 111.78 429.922 108.499 430.153 105.135L430.153 105.13L430.153 105.124C430.535 99.5438 430.933 93.7343 430.933 88.8515C430.704 85.1941 430.783 81.5366 430.859 77.9823C430.897 76.2442 430.933 74.5278 430.933 72.8511Z" fill="#0060A8"/>
<path d="M538.728 29.6164C540.093 43.9145 540.434 57.8723 540.434 72.1704C540.434 75.955 540.347 79.7396 540.26 83.4804V83.4852L540.26 83.4912C540.176 87.1483 540.093 90.7665 540.093 94.2985C540.093 100.766 539.411 107.574 538.728 114.382L539.646 114.33C545.106 114.008 550.292 113.703 555.784 113.703C566.718 113.703 577.008 114.024 587.592 114.355L588.532 114.384C588.532 113.533 588.446 112.512 588.361 111.49C588.276 110.469 588.191 109.448 588.191 108.597C588.191 106.894 588.191 104.852 588.532 102.809C579.321 103.831 570.452 104.171 561.242 104.171C560.901 98.7241 560.901 93.2772 560.901 87.4898V74.213C570.111 74.213 579.321 74.5534 588.191 75.2343C587.849 73.1921 587.849 71.4902 587.849 69.4482C587.849 67.665 588.109 66.1399 588.402 64.4226L588.484 63.942L588.532 63.6596C583.927 63.8298 579.407 64 574.887 64.1702C570.367 64.3404 565.847 64.5106 561.242 64.6809C561.242 56.5105 561.242 47.9997 561.583 39.8294H568.406C575.228 39.8294 582.392 40.1698 589.214 40.8506C589.214 39.8293 589.129 38.8931 589.043 37.957C588.958 37.0208 588.873 36.0846 588.873 35.0633C588.873 33.3612 588.873 31.3186 589.214 29.6164C584.736 29.6164 580.258 29.7032 575.824 29.7891C571.476 29.8734 567.17 29.9569 562.948 29.9569C554.761 29.9569 546.915 29.9568 538.728 29.6164Z" fill="#0060A8"/>
<path d="M616.502 29.9568C618.378 29.9568 620.254 30.0419 622.131 30.127C624.007 30.212 625.883 30.2971 627.759 30.2971L640.039 29.9568C639.016 39.4889 638.675 49.021 638.675 58.5531V87.8302C638.675 93.6176 638.675 99.0645 639.016 104.511C647.909 104.511 656.483 103.877 665.354 103.22L666.306 103.15C665.964 105.192 665.964 107.235 665.964 108.937C665.964 109.788 666.05 110.809 666.135 111.831C666.22 112.852 666.306 113.873 666.306 114.724L665.366 114.695C654.782 114.365 644.492 114.043 633.558 114.043C628.066 114.043 622.879 114.349 617.419 114.67L616.502 114.724C617.867 100.426 618.208 86.4685 618.208 72.5108C618.208 58.2126 617.867 44.2549 616.502 29.9568Z" fill="#0060A8"/>
<path d="M695.13 30.127C693.254 30.0419 691.378 29.9568 689.502 29.9568C690.866 44.2549 691.207 58.2126 691.207 72.5108C691.207 86.4685 690.866 100.426 689.502 114.724L690.419 114.67C695.879 114.349 701.065 114.043 706.558 114.043C717.491 114.043 727.781 114.365 738.365 114.695L739.305 114.724C739.305 113.873 739.22 112.852 739.134 111.831C739.049 110.809 738.964 109.788 738.964 108.937C738.964 107.235 738.964 105.192 739.305 103.15L738.353 103.22C729.483 103.877 720.908 104.511 712.016 104.511C711.674 99.0645 711.674 93.6176 711.674 87.8302V58.5531C711.674 49.021 712.016 39.4889 713.039 29.9568L700.759 30.2971C698.882 30.2971 697.006 30.212 695.13 30.127Z" fill="#0060A8"/>
<path d="M764.207 72.1704C764.207 57.8723 763.866 43.9145 762.501 29.6164C770.688 29.9568 778.534 29.9569 786.721 29.9569C790.943 29.9569 795.249 29.8734 799.597 29.7891C804.031 29.7032 808.509 29.6164 812.987 29.6164C812.646 31.3186 812.646 33.3612 812.646 35.0633C812.646 36.0846 812.731 37.0208 812.816 37.957C812.901 38.8931 812.987 39.8293 812.987 40.8506C806.164 40.1698 799.001 39.8294 792.179 39.8294H785.356C785.015 47.9997 785.015 56.5105 785.015 64.6809C789.62 64.5106 794.14 64.3404 798.66 64.1702C803.18 64 807.699 63.8298 812.305 63.6596C812.262 63.9133 812.22 64.1618 812.178 64.4063L812.175 64.4244C811.882 66.141 811.622 67.6643 811.622 69.4469C811.622 71.4895 811.622 73.1917 811.963 75.2343C803.094 74.5534 793.884 74.213 784.674 74.213V87.4898C784.674 93.2772 784.674 98.7241 785.015 104.171C794.225 104.171 803.094 103.831 812.305 102.809C811.963 104.852 811.963 106.894 811.963 108.597C811.963 109.448 812.049 110.469 812.134 111.49C812.219 112.512 812.305 113.533 812.305 114.384L811.365 114.355C800.781 114.024 790.491 113.703 779.557 113.703C774.065 113.703 768.878 114.008 763.418 114.33L762.501 114.384C763.183 107.575 763.866 100.767 763.866 94.2985C763.866 90.7729 763.949 87.1645 764.033 83.5141V83.4945C764.119 79.7502 764.207 75.9587 764.207 72.1704Z" fill="#0060A8"/>
<path d="M840.277 29.6164L840.618 42.8932C840.96 53.4466 840.96 64 840.618 73.8726C840.618 87.4898 840.277 100.767 839.254 114.384C839.985 114.293 840.619 114.201 841.206 114.117C842.812 113.885 844.079 113.703 846.076 113.703C847.763 113.703 848.538 113.833 849.608 114.013C850.269 114.124 851.044 114.254 852.217 114.384L852.174 113.44C851.847 106.293 851.534 99.4291 851.534 92.2559V58.2127C868.249 76.596 884.623 95.3198 900.314 114.384L901.224 114.269C903.581 113.971 905.7 113.703 907.819 113.703C910.548 113.703 912.936 114.044 915.324 114.384C914.641 108.937 914.3 103.49 914.3 97.7028C914.3 81.0216 914.3 64 914.641 47.3188C914.641 41.5315 914.982 35.4037 916.006 29.6164C913.959 29.9568 911.571 30.2972 909.183 30.2972C906.796 30.2972 905.089 30.2972 902.702 29.9569C903.384 40.5102 903.725 51.0636 903.725 61.617V84.7663C887.011 67.0639 871.66 48.6806 856.31 29.6164C854.986 29.6164 853.742 29.6966 852.461 29.7791C851.103 29.8667 849.703 29.9569 848.123 29.9569C845.735 29.9569 843.006 29.9568 840.277 29.6164Z" fill="#0060A8"/>
<path d="M946.023 29.9568C947.482 30.0781 948.854 30.2426 950.201 30.4042C952.635 30.696 954.987 30.978 957.621 30.978C960.302 30.978 962.836 30.6862 965.415 30.3891C966.775 30.2324 968.147 30.0743 969.561 29.9568C968.196 44.2542 968.196 58.2112 968.196 72.5085C968.196 86.8066 968.537 100.767 969.561 114.724C965.126 114.384 961.033 114.384 956.939 114.384C955.274 114.384 953.528 114.465 951.74 114.548C949.865 114.635 947.944 114.724 946.023 114.724C947.047 102.469 947.388 90.2132 947.388 77.9576C947.729 61.9573 947.729 45.9571 946.023 29.9568Z" fill="#0060A8"/>
<path d="M1045.29 107.235C1025.85 107.235 1018 87.8305 1018 71.1494C1018 53.7873 1026.53 36.7658 1045.63 36.4254C1055.18 36.4254 1064.05 40.5105 1067.46 49.7022H1069.17C1070.19 44.5957 1071.56 39.4893 1073.26 34.7232C1063.37 30.9784 1054.5 28.255 1043.93 28.255C1016.64 28.255 995.828 44.2553 995.828 72.5112C995.828 100.767 1015.27 116.427 1042.56 116.427C1051.43 116.427 1060.64 115.065 1068.83 110.64C1069.2 109.17 1069.52 107.7 1069.85 106.215C1070.43 103.571 1071.02 100.877 1071.9 98.0436L1069.85 97.0222C1064.39 104.512 1054.16 107.235 1045.29 107.235Z" fill="#0060A8"/>
<path fill-rule="evenodd" clip-rule="evenodd" d="M1145.58 72.1704C1145.58 57.8723 1145.58 43.9145 1143.87 29.6164C1146.22 29.6164 1148.57 29.6986 1150.95 29.7822C1153.42 29.8688 1155.94 29.9569 1158.54 29.9569C1160.63 29.9569 1163.52 29.868 1166.35 29.7811C1169.06 29.6979 1171.71 29.6164 1173.55 29.6164C1187.19 29.6164 1203.91 33.0207 1203.91 49.7019C1203.91 60.9361 1195.04 67.0639 1184.81 68.0852V69.1065C1196.06 69.7874 1205.27 76.596 1205.96 88.5111C1205.96 106.214 1191.63 113.703 1175.6 113.703C1169.8 113.703 1164.34 113.703 1158.54 113.363C1153.77 113.363 1148.99 113.363 1143.87 113.703C1144.55 107.575 1145.24 101.107 1145.24 94.6389C1145.58 87.8303 1145.58 80.0003 1145.58 72.1704ZM1170.14 37.7868C1168.77 37.7868 1167.75 37.7868 1166.73 38.1272C1166.39 42.5528 1166.05 47.3189 1166.05 52.0849V65.3618C1175.26 65.3618 1183.44 61.2765 1183.44 51.0636C1183.1 42.8932 1177.98 37.7868 1170.14 37.7868ZM1184.12 91.2346C1184.12 82.043 1178.33 74.213 1168.43 74.213H1165.7V89.5325C1165.7 94.9794 1165.7 100.426 1166.05 106.214C1166.73 106.214 1167.41 106.299 1168.09 106.384C1168.77 106.469 1169.46 106.554 1170.14 106.554C1179.35 106.554 1184.12 99.405 1184.12 91.2346Z" fill="#0060A8"/>
<path fill-rule="evenodd" clip-rule="evenodd" d="M1262.24 28.5954C1259.85 28.5954 1257.81 28.5954 1255.76 28.255C1253.97 33.0206 1252.2 37.8074 1250.43 42.5942C1245.12 56.9567 1239.81 71.3191 1233.93 85.1071C1229.49 94.9796 1225.4 104.512 1221.31 114.384C1222.16 114.384 1222.93 114.299 1223.7 114.214C1224.46 114.129 1225.23 114.044 1226.08 114.044C1228.81 114.044 1231.54 114.044 1234.27 114.384C1235.18 111.775 1236.13 109.165 1237.07 106.555C1238.97 101.335 1240.87 96.1148 1242.46 90.8945L1251.33 90.554C1257.47 90.554 1263.61 90.5541 1269.41 90.8945L1274.18 106.214L1276.91 114.384C1278.92 114.384 1280.84 114.303 1282.8 114.219C1284.84 114.132 1286.93 114.044 1289.19 114.044C1291.24 114.044 1293.28 114.129 1295.33 114.214C1297.38 114.299 1299.42 114.384 1301.47 114.384C1289.53 86.1284 1278.96 57.1917 1268.72 28.255C1266.34 28.5954 1264.29 28.5954 1262.24 28.5954ZM1256.1 54.4682C1259.85 63.3195 1263.27 71.8303 1265.99 81.022C1262.58 81.022 1259.17 81.022 1256.1 81.3623C1254.4 81.3623 1252.69 81.2772 1250.98 81.1922C1249.28 81.1071 1247.57 81.022 1245.87 81.022C1248.94 72.1707 1252.35 63.3195 1256.1 54.4682Z" fill="#0060A8"/>
<path d="M1321.6 42.8932L1321.25 29.6164C1323.98 29.9568 1326.71 29.9569 1329.1 29.9569C1330.68 29.9569 1332.08 29.8667 1333.44 29.7791C1334.72 29.6966 1335.96 29.6164 1337.29 29.6164C1352.3 48.6806 1367.99 67.0639 1384.7 84.7663V61.617C1384.7 51.0636 1384.36 40.5102 1383.68 29.9569C1386.07 30.2972 1387.77 30.2972 1390.16 30.2972C1392.55 30.2972 1394.94 29.9568 1396.98 29.6164C1395.96 35.4037 1395.62 41.5315 1395.62 47.3188C1395.28 63.9929 1395.28 81.0072 1395.28 97.6815V97.7028C1395.28 103.49 1395.62 108.937 1396.3 114.384C1393.91 114.044 1391.52 113.703 1388.8 113.703C1386.68 113.703 1384.56 113.971 1382.2 114.269L1381.29 114.384C1365.6 95.3198 1349.23 76.596 1332.51 58.2127V92.2559C1332.51 99.4301 1332.82 106.292 1333.15 113.44L1333.19 114.384C1332.02 114.254 1331.25 114.124 1330.58 114.013C1329.51 113.833 1328.74 113.703 1327.05 113.703C1325.23 113.703 1324.17 113.854 1322.76 114.056C1322.05 114.157 1321.25 114.27 1320.23 114.384C1321.25 100.767 1321.6 87.4898 1321.6 73.8726C1322.28 64 1322.28 53.4466 1321.6 42.8932Z" fill="#0060A8"/>
<path d="M1470.66 42.8932L1449.17 67.7447H1448.49V49.021C1448.49 44.7082 1448.79 40.3955 1449.1 36.0828C1449.25 33.9273 1449.4 31.7719 1449.51 29.6164C1445.42 30.2973 1442.69 30.6377 1438.26 30.6377C1435.74 30.6377 1433.61 30.3808 1431.32 30.1037C1429.88 29.9297 1428.37 29.7477 1426.66 29.6164L1427.68 42.8932C1428.02 52.7658 1428.37 62.6383 1428.37 72.5109C1428.37 86.4686 1427.68 100.426 1426.66 114.384C1428.54 114.384 1430.41 114.299 1432.29 114.214C1434.16 114.129 1436.04 114.043 1437.92 114.043C1442.01 114.043 1446.1 114.044 1450.2 114.384C1449.51 108.597 1449.17 102.469 1449.17 96.6814V77.6173C1458.04 89.5325 1466.57 101.107 1473.05 114.384C1475.44 114.384 1477.83 114.299 1480.22 114.214C1482.6 114.129 1484.99 114.043 1487.38 114.043C1491.81 114.043 1495.91 114.044 1500 114.384C1491.47 103.15 1483.29 91.9154 1475.44 80.0003L1464.52 64.0001C1475.44 52.0849 1486.7 40.8507 1497.95 29.6164C1496.42 29.6164 1494.88 29.7015 1493.35 29.7866C1491.81 29.8717 1490.28 29.9569 1488.74 29.9569C1486.01 29.9569 1483.63 29.9568 1480.9 29.6164C1478 34.1184 1474.49 38.3166 1471.23 42.2111L1470.66 42.8932Z" fill="#0060A8"/>
</svg>
