<svg width="58" height="24" viewBox="0 0 58 24" fill="none" xmlns="http://www.w3.org/2000/svg">
<path d="M42.032 21.5737C41.5566 20.7825 40.6587 20.7825 40.2362 20.7825H30.6232C30.6232 20.7825 16.9961 20.8352 16.8904 20.8352C16.7848 20.8352 16.4679 20.9935 16.4679 20.9935C16.0981 21.2045 15.7812 21.4682 15.6756 21.8374C15.4115 22.3649 15.5171 23.1034 15.9925 23.5781C16.3094 23.8946 16.732 24.0001 17.0489 24.0001H28.8802H40.7116C41.2926 23.9473 41.8207 23.6308 42.032 23.2088C42.2961 22.6814 42.2961 22.0484 42.032 21.5737Z" fill="#F6921E"/>
<path d="M49.3209 0H8.22815C7.59433 0.105494 7.11896 0.632963 7.11896 1.26593C7.11896 1.8989 7.59433 2.42638 8.22815 2.53187H49.3209C49.9547 2.42638 50.4301 1.8989 50.4301 1.26593C50.4829 0.632963 49.9547 0.105494 49.3209 0Z" fill="#0060A8"/>
<path d="M17.6827 6.96231H39.9721C40.87 5.69637 42.0848 4.69417 43.2468 3.90296H14.7249C14.7777 3.90296 16.7848 5.32714 17.6827 6.96231Z" fill="#0060A8"/>
<path d="M45.4123 4.3249C48.5286 3.05896 52.5956 3.69192 54.9725 6.06555C57.0852 8.06994 57.8775 11.4458 56.9268 14.3996C56.3458 16.0875 55.1837 17.6172 53.652 18.6194C51.7505 19.9381 48.7399 20.2018 46.7328 18.8831C46.3203 18.7916 46.0271 18.5411 45.7496 18.3041C45.7074 18.268 45.6655 18.2323 45.6236 18.1974C43.5109 16.404 42.7714 13.1864 43.775 10.5491C44.5672 8.54467 46.6272 7.1205 48.8983 7.22599C50.747 7.33149 52.4372 8.38642 53.3351 9.96884C53.9689 11.182 53.8633 13.0809 53.1766 14.2414C52.49 15.2963 51.328 16.1403 49.9547 16.1403C48.7399 16.1403 47.6307 15.4546 47.1025 14.3469C46.68 13.3974 46.7328 12.026 47.4723 11.2875C48.0004 10.8128 48.6871 10.6018 49.3737 10.8128C49.9019 10.971 50.3244 11.393 50.3244 11.9732C50.3244 12.448 50.1132 12.8172 49.7434 13.0282C49.717 13.0282 49.7038 13.0414 49.6906 13.0546C49.6774 13.0677 49.6642 13.0809 49.6378 13.0809C49.6114 13.0809 49.585 13.0941 49.5586 13.1073C49.5322 13.1205 49.5058 13.1337 49.4794 13.1337C49.4266 13.1864 49.4265 13.1864 49.3737 13.1864H49.2681C49.1096 13.2392 49.004 13.2392 48.8455 13.2392C48.7927 13.4502 49.0568 13.8194 49.1096 13.8721C49.4265 14.1886 49.9547 14.2941 50.4301 14.1886C51.2752 13.9249 51.8034 13.1337 51.909 12.2897C52.0675 11.0238 51.328 9.96885 50.2716 9.38863C49.1624 8.75566 47.6835 8.9139 46.6272 9.59962C45.2539 10.6018 44.937 12.5535 45.3067 14.2414C45.6764 15.982 47.1025 17.3535 48.8455 17.7227C50.9583 18.1447 53.071 17.248 54.233 15.56C55.5006 13.9249 55.8704 11.0765 54.814 9.17763C53.7576 6.85675 51.2224 5.48533 48.6343 5.48533C45.7821 5.43258 43.194 7.27874 42.1376 9.9161C41.5854 11.2029 41.6233 12.7203 41.6613 14.2362C41.6778 14.8951 41.6942 15.5538 41.6622 16.193C41.6622 16.3836 41.6653 16.5864 41.6685 16.7963V16.797C41.6785 17.4582 41.6896 18.1901 41.6094 18.8304C41.3981 19.2524 40.9756 19.5161 40.5002 19.5161H37.1727C36.8558 19.4106 36.6445 19.2523 36.486 18.9886L36.3804 18.5666V10.8655C36.3276 10.5491 36.0107 10.2326 35.6937 10.1798C35.4825 10.1271 35.2712 10.1798 35.0599 10.3381C34.8487 10.4963 34.6902 10.7073 34.6902 10.971L34.6374 18.7249C34.5846 19.0941 34.4789 19.3578 34.1092 19.4633L33.6338 19.5688H30.3591C29.9894 19.5161 29.7253 19.3051 29.5668 18.9886L29.514 18.4611L29.4612 10.8128C29.4612 10.6018 29.2499 10.3908 29.0386 10.2326C28.9858 10.1798 28.8274 10.1271 28.7217 10.1271C28.5633 10.1271 28.4576 10.1271 28.352 10.1798C28.0351 10.3381 27.771 10.7601 27.8238 11.182L27.771 18.7249C27.771 19.1469 27.5069 19.5688 27.0843 19.5688H23.3342C23.0701 19.5688 22.8061 19.3051 22.7004 19.0414C22.7004 19.0414 22.5948 18.8831 22.5948 18.6721V10.971C22.5948 10.6018 22.4363 10.3908 22.1722 10.2326C21.961 10.0743 21.6969 10.1271 21.4328 10.2326C21.2743 10.3381 21.063 10.4963 20.9574 10.76L20.9046 11.2875V18.6194C20.799 19.0941 20.482 19.5161 20.0595 19.5688H16.7319C16.415 19.5688 16.1509 19.4633 15.9397 19.2523C15.7812 19.0414 15.7284 18.7776 15.7284 18.5666L15.6756 12.5535C15.7284 10.4963 14.8833 8.65016 13.51 7.33148C11.7142 5.64357 8.96762 4.95786 6.48516 5.64358C4.10833 6.32929 2.20686 8.38643 1.83714 10.8655C1.52022 13.2919 2.47096 15.5073 4.26679 16.7732C5.64006 17.8282 7.69998 18.1974 9.28454 17.4589C10.8163 16.8787 11.8726 15.4018 12.1895 13.8721C12.348 12.3952 12.1895 10.8128 11.0804 9.8106C10.1824 8.96665 8.70353 8.65017 7.4887 9.1249C6.3267 9.54687 5.37597 10.7073 5.32315 12.0787C5.37597 12.9754 5.85134 13.7666 6.64362 14.1886C7.01334 14.3996 7.69998 14.3469 8.06971 14.0831C8.28098 13.8721 8.54508 13.5029 8.49226 13.1864C7.96408 13.2392 7.48871 13.0282 7.22461 12.6589C7.1982 12.5798 7.1718 12.5139 7.14539 12.448C7.11898 12.382 7.09257 12.3161 7.06616 12.237C7.01335 12.1842 7.01334 12.1315 7.01334 12.0787V11.7095C7.11898 11.1293 7.59435 10.6546 8.22817 10.6546H8.49226C9.23172 10.6546 9.97117 11.1293 10.2881 11.7623C10.6578 12.659 10.4994 13.8194 10.024 14.5579C9.44299 15.5073 8.3338 16.0348 7.27743 15.982C5.7457 16.0348 4.42524 14.7688 3.89706 13.5029C3.10478 11.9205 3.68578 9.86334 4.84778 8.65016C6.27388 7.12049 8.80917 6.48753 10.8163 7.38423C12.5593 8.17544 13.8269 9.91609 14.0382 11.8677C14.4079 14.7688 13.1403 17.459 10.6578 18.8304C8.38662 20.2018 5.05906 19.7271 3.05196 18.1447C0.569495 16.2985 -0.539694 13.0282 0.252582 9.75785C0.833585 7.38423 2.52378 5.32709 4.79497 4.3249C6.3267 3.63918 8.06971 3.42818 9.81272 3.63917C9.98173 3.63917 9.98174 3.63918 10.0831 3.66618C10.1085 3.67293 10.1402 3.68137 10.1824 3.69192C13.51 4.2194 16.5735 7.015 17.2601 10.3908C17.5704 11.8715 17.5431 13.4646 17.5161 15.038C17.5018 15.8748 17.4875 16.7059 17.5242 17.5117C17.5242 17.6699 17.6827 17.8282 17.8411 17.8282H18.8447C19.0031 17.7754 19.0559 17.5644 19.0559 17.4062L19.1088 10.3381C19.2144 9.49412 19.7954 8.70291 20.6933 8.43917C21.6969 8.12269 22.9117 8.22818 23.704 8.91389C24.1265 9.38862 24.3378 10.0216 24.3378 10.7073V17.5117C24.3378 17.7227 24.4962 17.8282 24.6547 17.8809C24.744 17.8809 24.8395 17.884 24.9382 17.8872C25.2479 17.8972 25.5891 17.9082 25.8695 17.8282L26.028 17.6172L26.0808 10.1798C26.2393 9.38863 26.8731 8.70291 27.6653 8.43917C27.9823 8.33368 28.2992 8.28094 28.7217 8.28094C29.3555 8.28094 29.9894 8.43918 30.4647 8.80841C31.1514 9.38863 31.3626 10.3381 31.257 11.2875V17.5644C31.3098 17.6699 31.4155 17.7754 31.5739 17.7754H32.6831C33.0172 17.553 32.986 17.1482 32.9563 16.7624C32.9438 16.5993 32.9315 16.4396 32.9472 16.2985L33 10.3381C33.0528 9.59961 33.5282 8.91391 34.2148 8.59742C35.2712 8.06995 36.6445 8.17543 37.4896 8.91389C38.0706 9.33587 38.229 10.0216 38.2819 10.7073V17.6172C38.2819 17.7562 38.4042 17.8138 38.5055 17.8615L38.5226 17.8696C38.5306 17.8734 38.5384 17.8772 38.5459 17.8809L39.6551 17.8282C39.8136 17.8282 39.9192 17.7227 39.9192 17.5644L39.972 12.026C40.1305 8.59742 42.3489 5.59083 45.4123 4.3249Z" fill="#0060A8"/>
</svg>
