<svg width="48" height="48" viewBox="0 0 48 48" fill="none" xmlns="http://www.w3.org/2000/svg">
<path fill-rule="evenodd" clip-rule="evenodd" d="M45.8872 21.7997H26.7632V15.6896H44.3726C45.1549 17.6061 45.6746 19.6577 45.8872 21.7997ZM47.9313 22.2268C47.0244 9.80006 36.656 0 23.9989 0C12.0663 0 2.16786 8.71019 0.313813 20.1199C0.107438 21.3828 0 22.6786 0 23.9989C0 24.9129 0.0500761 25.8185 0.150228 26.7158H0.154055C0.377187 28.6962 0.841329 30.6037 1.51645 32.4081H1.50857C2.1512 34.1359 2.99627 35.7844 4.0291 37.3223H4.03669C5.55614 39.5947 7.45325 41.5932 9.63825 43.2279H9.62923C13.7543 46.3266 18.7471 48.0001 23.9988 48.0001H23.9993C29.2511 48.0001 34.2442 46.3266 38.3689 43.2279H38.3595C40.5445 41.5932 42.4416 39.5947 43.9611 37.3223H43.9668C44.9976 35.7823 45.8447 34.1359 46.4873 32.4081H46.4813C47.1567 30.603 47.6209 28.6949 47.8439 26.7137H47.8477C47.9478 25.8185 48 24.9129 48 23.9989C47.9983 23.4035 47.9751 22.812 47.9313 22.2268ZM45.8299 26.7137H15.9576V26.6907H15.9806V16.0027L26.6677 16.0006V10.5417H15.9806V3.50729C14.0053 4.28093 12.1692 5.33198 10.5201 6.61252V10.5442H6.59443C5.31799 12.1933 4.27066 14.0287 3.5002 16.0027H10.5202V26.6907L10.5201 26.7158H2.16808C2.41342 28.7079 2.92506 30.6176 3.66629 32.4081H44.3315C45.0729 30.617 45.5847 28.7066 45.8299 26.7137ZM41.5041 37.3223H6.49361C8.32785 39.729 10.647 41.7461 13.3053 43.2279H34.6924C37.3507 41.7461 39.6699 39.729 41.5041 37.3223ZM34.6929 4.77015H26.7634V10.7755H41.5799C39.734 8.32479 37.3877 6.27238 34.6929 4.77015Z" fill="#D67A3B"/>
</svg>
