<svg width="117" height="40" viewBox="0 0 117 40" fill="none" xmlns="http://www.w3.org/2000/svg">
<g clip-path="url(#clip0)">
<path d="M20.7935 0.25909C28.8042 0.25909 34.2033 1.67967 35.1279 1.94097C35.5286 3.46901 36.2631 4.58119 37.3125 5.24731C38.2236 5.82585 39.1506 5.91197 39.6227 5.91197C39.6602 5.91197 39.6956 5.91123 39.7287 5.9105C39.5219 12.5055 38.365 18.3785 36.2879 23.3704C34.6047 27.4157 32.3171 30.895 29.489 33.7112C26.9729 36.2167 24.4846 37.7249 22.8398 38.5478C21.3235 39.3074 20.2259 39.6408 19.9245 39.7247C15.2749 37.7889 11.3507 34.8079 8.2603 30.8641C5.76824 27.6851 3.80842 23.8746 2.43346 19.54C1.20811 15.6786 0.684886 12.1051 0.461616 9.78802C0.272174 7.82276 0.260898 6.40439 0.265408 5.87148C1.58849 5.75372 3.27016 5.28338 4.25346 3.78478C4.71503 3.08185 4.85786 2.40026 4.90222 2.07199C10.1562 0.868541 15.5019 0.25909 20.7935 0.25909ZM20.7935 0C16.1868 0 10.7012 0.46224 4.65715 1.86295C4.65715 1.86295 4.53912 5.35919 0.00455009 5.63153C0.00455009 5.63153 -0.840418 31.4338 19.9049 40C19.9049 40 39.1987 35.237 40 5.63153C40 5.63153 39.858 5.65361 39.6212 5.65361C38.6739 5.65361 36.2172 5.2981 35.3474 1.73487C35.3474 1.73487 29.7198 0 20.7935 0Z" fill="#716122"/>
<path d="M20.7935 0.25909C28.8042 0.25909 34.2033 1.67967 35.1279 1.94097C35.5286 3.46901 36.2631 4.58119 37.3125 5.24731C38.2236 5.82585 39.1506 5.91197 39.6227 5.91197C39.6602 5.91197 39.6956 5.91123 39.7287 5.9105C39.5219 12.5055 38.365 18.3785 36.2879 23.3704C34.6047 27.4157 32.3171 30.895 29.489 33.7112C26.9729 36.2167 24.4846 37.7249 22.8398 38.5478C21.3235 39.3074 20.2259 39.6408 19.9245 39.7247C15.2749 37.7889 11.3507 34.8079 8.2603 30.8641C5.76824 27.6851 3.80842 23.8746 2.43346 19.54C1.20811 15.6786 0.684886 12.1051 0.461616 9.78802C0.272174 7.82276 0.260898 6.40439 0.265408 5.87148C1.58849 5.75372 3.27016 5.28338 4.25346 3.78478C4.71503 3.08185 4.85786 2.40026 4.90222 2.07199C10.1562 0.868541 15.5019 0.25909 20.7935 0.25909ZM20.7935 0C16.1868 0 10.7012 0.46224 4.65715 1.86295C4.65715 1.86295 4.53912 5.35919 0.00455009 5.63153C0.00455009 5.63153 -0.840418 31.4338 19.9049 40C19.9049 40 39.1987 35.237 40 5.63153C40 5.63153 39.858 5.65361 39.6212 5.65361C38.6739 5.65361 36.2172 5.2981 35.3474 1.73487C35.3474 1.73487 29.7198 0 20.7935 0Z" fill="#716122"/>
<path d="M38.9019 6.46914C38.5121 19.7816 34.112 27.8483 29.657 32.6355C32.3979 29.3914 34.0476 25.5671 35.0347 21.9746C35.9473 18.653 36.2948 15.5251 36.4143 13.228C36.474 12.0793 36.4768 11.1379 36.4646 10.4833C36.4585 10.156 36.4486 9.90038 36.4403 9.72636C36.437 9.65854 36.4282 9.51947 36.4231 9.44014C36.4217 9.41769 36.4206 9.40003 36.4199 9.39011L36.3544 9.36449C28.1482 6.15742 19.9687 6.15826 13.844 6.95926C10.7812 7.35982 8.23079 7.96067 6.44563 8.46152C5.553 8.71196 4.85158 8.93743 4.37297 9.10043C4.13366 9.18193 3.95004 9.24782 3.82606 9.2934C3.76408 9.3162 3.63725 9.36447 3.63725 9.36447L3.56339 9.39351L3.56632 9.47111C4.03538 21.8859 7.58202 29.1686 11.2668 33.4107C7.13243 29.3506 4.68098 24.349 3.22856 19.7504C2.0909 16.1484 1.56743 12.797 1.32845 10.3459C1.20897 9.12055 1.16064 8.12058 1.14216 7.42734C1.13293 7.08073 1.13116 6.81082 1.13169 6.62779C1.1319 6.55415 1.13249 6.49457 1.13311 6.44972C3.25326 6.29759 4.36461 5.40849 4.942 4.53761C5.23367 4.09769 5.38655 3.66632 5.46661 3.3449C5.50667 3.18407 5.5286 3.05035 5.54054 2.95622C5.54371 2.93124 5.54618 2.90903 5.5481 2.88984C13.9345 0.97506 21.1812 0.946667 26.3355 1.39824C28.9209 1.62475 30.9795 1.972 32.3912 2.26242C33.097 2.40762 33.641 2.53862 34.0082 2.63319C34.1918 2.68048 34.3312 2.71866 34.4245 2.74497C34.4563 2.75392 34.4827 2.76149 34.5037 2.76758C35.0346 4.85139 36.1512 5.783 37.1524 6.18613C37.6549 6.38846 38.1238 6.45588 38.4671 6.4728C38.6388 6.48128 38.8034 6.47549 38.9019 6.46914Z" fill="#B49026"/>
<path fill-rule="evenodd" clip-rule="evenodd" d="M8.14893 30.9371C11.2642 34.9147 15.2229 37.9178 19.9146 39.8632C20.3987 39.7314 24.9694 38.3918 29.5716 33.8158C32.4147 30.9879 34.7144 27.4938 36.4058 23.4323C38.5062 18.3881 39.6699 12.4482 39.8646 5.77589C39.8007 5.78031 39.7188 5.78399 39.6218 5.78399C38.6002 5.78399 36.1382 5.39756 35.2376 1.83801C34.5572 1.64075 29.0634 0.129639 20.7934 0.129639C15.4612 0.129639 10.0749 0.747922 4.78108 1.96682C4.75552 2.22812 4.63975 2.95681 4.14209 3.71495C3.15729 5.21429 1.44405 5.65444 0.134493 5.75234C0.121714 6.65989 0.126976 12.6992 2.3018 19.5651C3.68051 23.9174 5.64709 27.7434 8.14893 30.9371ZM34.6924 2.59329L34.7075 2.65415C35.2159 4.71591 36.2973 5.60307 37.2382 5.98191C37.7117 6.17254 38.1542 6.23628 38.4784 6.25227C38.6404 6.26026 38.7723 6.2563 38.8632 6.25044L39.1345 6.21661L39.1309 6.34928C38.7498 20.3019 33.9853 28.558 29.3052 33.3268C26.9662 35.7102 24.6505 37.2202 22.9184 38.1348C22.0523 38.592 21.332 38.9005 20.8276 39.0948C20.5753 39.192 19.9932 39.3808 19.9932 39.3808C19.329 39.1092 18.6516 38.8037 18.0329 38.4957C17.882 38.4311 17.7241 38.3604 17.56 38.2834C16.5088 37.7901 15.2018 37.0344 13.8114 35.8937C7.96489 31.5021 4.76368 25.3583 3.0131 19.8157C1.86975 16.1956 1.34397 12.8287 1.10394 10.3669C0.983915 9.13588 0.935308 8.1308 0.916716 7.4331C0.90742 7.08424 0.905627 6.8122 0.906165 6.62716C0.906434 6.53464 0.907285 6.46386 0.908073 6.41611C0.908073 6.41611 0.912279 6.25446 0.91256 6.24225L1.01548 6.23613C3.1351 6.11009 4.2067 5.24112 4.75284 4.41738C5.02761 4.00294 5.17195 3.59593 5.24751 3.29259C5.28526 3.14103 5.30573 3.01577 5.31674 2.929C5.32224 2.88563 5.32537 2.85193 5.32712 2.82942C5.32772 2.82164 5.3297 2.77141 5.33096 2.73933C5.33153 2.72498 5.33195 2.71426 5.33204 2.71258L5.41613 2.69328C13.8642 0.753925 21.1655 0.723593 26.3556 1.17831C28.9507 1.40567 31.0182 1.75431 32.4375 2.04632C33.1473 2.19232 33.695 2.32418 34.0656 2.41964C34.2509 2.46737 34.392 2.50601 34.4869 2.53277C34.5224 2.54276 34.606 2.56761 34.6561 2.58251C34.6731 2.58758 34.6863 2.59149 34.6924 2.59329Z" fill="#B49026"/>
<path d="M9.53662 31.5712C6.23321 27.0809 3.31884 19.9208 2.88989 8.79104C2.88989 8.79104 3.09652 8.71304 3.16104 8.68979C3.29008 8.64329 3.48122 8.57607 3.73034 8.49291C4.22859 8.32661 4.95881 8.09655 5.88811 7.84101C7.74662 7.32997 10.4019 6.71689 13.5906 6.30817C19.967 5.49085 28.4825 5.49004 37.0259 8.76229L37.092 8.78762L37.102 8.9271C37.1048 8.97299 37.1088 9.04095 37.1131 9.12974C37.1218 9.30731 37.1321 9.56816 37.1384 9.90216C37.1511 10.5701 37.1483 11.5308 37.0861 12.7029C36.9616 15.0469 36.5998 18.2387 35.6495 21.6281C34.9878 23.9885 34.0399 26.4468 32.6871 28.7818C31.7114 30.2646 30.1987 32.0886 29.1681 33.196C29.3565 32.9731 30.0247 32.2064 30.203 31.9782C32.8367 28.7841 34.4496 25.0737 35.432 21.5697C36.3768 18.1997 36.737 15.0245 36.8608 12.6915C36.9227 11.5251 36.9256 10.5697 36.9129 9.90627C36.9066 9.57456 36.8964 9.31585 36.8878 9.1403C36.8836 9.0537 36.8798 8.98734 36.877 8.94243C28.4028 5.71361 19.9564 5.71492 13.6198 6.52712C10.4437 6.93422 7.79918 7.54487 5.94908 8.0536C5.02408 8.30796 4.2978 8.5368 3.80312 8.70192C3.55578 8.78448 3.24877 8.894 3.12136 8.93991C3.57204 20.3025 6.61119 27.4053 9.98785 31.8239C10.4079 32.4026 10.8345 32.937 11.2629 33.4302C10.6514 32.8297 10.0767 32.2086 9.53662 31.5712Z" fill="#716122"/>
<path d="M3.90918 9.50315V11.1938H11.0568V7.62691C9.24605 7.96171 7.70405 8.34258 6.50789 8.67818C5.61962 8.92739 4.9222 9.1516 4.4472 9.31338C4.21208 9.39345 4.03146 9.45823 3.90918 9.50315Z" fill="#007CC3"/>
<path d="M12.861 7.32479V11.1938H20.0275V6.74243C17.8226 6.76702 15.7518 6.93693 13.874 7.18252C13.5297 7.22755 13.192 7.27511 12.861 7.32479Z" fill="#007CC3"/>
<path d="M8.3311 28.7365C8.73236 29.4373 9.14376 30.1342 9.27819 30.2884V17.4745H11.0568V12.9603H4.01492C4.33011 16.4105 4.90017 19.4076 5.64299 22.0101L5.61942 17.4745H7.42362V26.9045C7.71586 27.5484 8.01917 28.1586 8.3311 28.7365Z" fill="#007CC3"/>
<path d="M12.861 12.9603H20.0275V17.2603H20.0282V38.8818C20.0282 38.8818 18.3052 38.2378 18.1737 38.1458V17.4745H16.4446V37.2257C16.4446 37.2257 14.8472 36.1952 14.6404 36.048V17.4745H12.861V12.9603Z" fill="#007CC3"/>
<path d="M11.0568 17.4752V32.699C11.0568 32.699 12.4536 34.2079 12.861 34.5207V17.4752H11.0568Z" fill="#007CC3"/>
<path d="M35.7663 17.4092H35.1128V20.7718C35.3926 19.6071 35.6053 18.4765 35.7663 17.4092Z" fill="#D73648"/>
<path d="M33.8724 24.8419V17.4077H32.5697V27.8094C33.0673 26.8308 33.4987 25.8362 33.8724 24.8419Z" fill="#D73648"/>
<path d="M31.4044 29.8665V17.4077H30.1137V31.7184C30.5778 31.1166 31.0072 30.4977 31.4044 29.8665Z" fill="#D73648"/>
<path d="M28.8733 33.1912V17.4077H27.5953V34.4681C28.0439 34.0565 28.4696 33.6301 28.8733 33.1912Z" fill="#D73648"/>
<path d="M26.4301 35.4609V17.4077H25.1145V36.4177L25.333 36.271C25.7116 36.0103 26.0771 35.7399 26.4301 35.4609Z" fill="#D73648"/>
<path d="M23.8989 37.1753V17.4077H22.5586L22.6089 37.8602C23.0531 37.6433 23.483 37.4148 23.8989 37.1753Z" fill="#D73648"/>
<path d="M21.4309 38.3565L20.153 38.8592V17.4099H21.4061L21.4309 38.3565Z" fill="#D73648"/>
<path fill-rule="evenodd" clip-rule="evenodd" d="M20.1656 6.74123L20.1477 17.4099H35.7662C35.8273 17.0051 35.8809 16.6095 35.9279 16.2245C35.8229 16.3052 35.6128 16.4612 35.5007 16.5436C35.5285 16.6304 35.5555 16.7177 35.5825 16.805L35.5826 16.8052C35.6155 16.9116 35.6484 17.018 35.6827 17.1236C35.6766 17.1201 35.629 17.0877 35.563 17.0427C35.4483 16.9647 35.2779 16.8487 35.173 16.7806C35.105 16.8268 35.0375 16.8735 34.9701 16.9202C34.8688 16.9902 34.7676 17.0603 34.6648 17.1287C34.6855 17.0602 34.7064 16.9919 34.7272 16.9236L34.7275 16.9226L34.7277 16.9222C34.7656 16.798 34.8034 16.6738 34.8407 16.5487C34.8364 16.5445 34.744 16.4753 34.6354 16.3939L34.6353 16.3938L34.6351 16.3937L34.6348 16.3934L34.6343 16.3931C34.534 16.3178 34.42 16.2324 34.3491 16.1785C34.4529 16.1759 34.5568 16.1734 34.6607 16.171C34.7622 16.1687 34.8637 16.1663 34.9655 16.1637C35.0347 15.9738 35.1008 15.7817 35.167 15.5889C35.2119 15.7042 35.2538 15.8228 35.2956 15.9415L35.296 15.9426L35.2961 15.943C35.322 16.0163 35.3478 16.0897 35.3745 16.1623C35.5098 16.1652 35.6462 16.1675 35.7825 16.1697L35.7826 16.1697L35.7827 16.1697L35.7829 16.1697L35.783 16.1698L35.7831 16.1698L35.7832 16.1698L35.7833 16.1698L35.7834 16.1698L35.7836 16.1698L35.7841 16.1698C35.8342 16.1706 35.8842 16.1715 35.9342 16.1723C36.0649 15.0916 36.1436 14.0961 36.1891 13.2213C36.2486 12.0783 36.2513 11.1421 36.2391 10.4919C36.2331 10.1668 36.2233 9.91329 36.2151 9.74125C36.211 9.65701 36.2074 9.59231 36.2047 9.54832C35.266 9.18345 34.3277 8.8607 33.3928 8.57642C33.4266 8.66668 33.459 8.75854 33.4914 8.8504L33.4915 8.85072C33.5175 8.92443 33.5435 8.99817 33.5702 9.07115C33.7062 9.07409 33.8431 9.07638 33.98 9.07866C34.049 9.07981 34.1179 9.08096 34.1867 9.08219C34.1904 9.08661 33.8506 9.33908 33.6965 9.45243C33.7242 9.53901 33.7511 9.62604 33.778 9.71305L33.7783 9.71381L33.7784 9.71405C33.8113 9.8205 33.8442 9.92691 33.8785 10.0324C33.8724 10.0289 33.8248 9.99655 33.7588 9.95161C33.6441 9.87356 33.4737 9.75762 33.3688 9.68944C33.3011 9.73544 33.234 9.78191 33.1668 9.82838L33.1659 9.82904C33.0647 9.89909 32.9634 9.96913 32.8606 10.0376C32.8813 9.96914 32.9022 9.90087 32.923 9.83263L32.9231 9.83224L32.9233 9.83151C32.9613 9.70714 32.9992 9.5828 33.0365 9.45758C33.0322 9.45338 32.94 9.3843 32.8316 9.30304L32.8311 9.30265L32.831 9.30261L32.8309 9.30254L32.8307 9.30239L32.8298 9.3017C32.7296 9.22655 32.6158 9.14126 32.5449 9.08735C32.6487 9.08474 32.7526 9.08232 32.8565 9.0799C32.958 9.07754 33.0595 9.07517 33.1613 9.07263C33.2136 8.9274 33.2646 8.78046 33.3156 8.63343L33.3158 8.63304L33.3159 8.63269L33.3347 8.57852C33.3368 8.57257 33.3388 8.56662 33.3409 8.56067C32.9075 8.42952 32.4749 8.30664 32.0433 8.19164C32.0536 8.22475 32.0638 8.25788 32.0741 8.29101C32.107 8.39752 32.1399 8.50406 32.1742 8.60965C32.1682 8.60615 32.1206 8.57374 32.0545 8.52878L32.0544 8.52873L32.0541 8.52852C31.9394 8.45047 31.7694 8.33476 31.6646 8.26665C31.5966 8.31284 31.5292 8.3595 31.4618 8.40617L31.4616 8.40626L31.4616 8.40631C31.3604 8.47634 31.2592 8.54636 31.1564 8.6148C31.1771 8.54622 31.198 8.47783 31.2189 8.40946L31.2191 8.40873C31.257 8.28436 31.295 8.16001 31.3323 8.03479C31.3304 8.03296 31.3119 8.01885 31.2826 7.99679C30.2755 7.74904 29.2751 7.54338 28.2854 7.37515C28.2916 7.3925 28.2977 7.40987 28.3038 7.42724C28.33 7.50139 28.3562 7.57559 28.3832 7.6491C28.519 7.65203 28.6557 7.65432 28.7924 7.6566L28.7929 7.65661C28.8619 7.65776 28.9308 7.65891 28.9996 7.66014C29.0033 7.66456 28.6636 7.91702 28.5094 8.03038C28.5371 8.11696 28.564 8.20399 28.591 8.291L28.5912 8.29178C28.6241 8.3983 28.6571 8.50479 28.6914 8.61038C28.6853 8.60689 28.6378 8.57454 28.5718 8.52963L28.5717 8.52957L28.5716 8.52952L28.5715 8.52941C28.4568 8.45135 28.2866 8.33554 28.1817 8.26738C28.1137 8.31361 28.0462 8.3603 27.9788 8.407C27.8776 8.47704 27.7763 8.54708 27.6735 8.61554C27.6943 8.54672 27.7153 8.47809 27.7362 8.40948L27.7362 8.4094L27.7363 8.40931L27.7363 8.40908C27.7742 8.28484 27.8121 8.16062 27.8494 8.03553C27.8451 8.03132 27.7526 7.96196 27.6439 7.88049L27.6438 7.88044L27.6433 7.88007C27.5429 7.80481 27.4288 7.71931 27.3578 7.66529C27.4616 7.66269 27.5654 7.66027 27.6693 7.65785L27.6694 7.65785L27.67 7.65783C27.7713 7.65547 27.8727 7.65311 27.9742 7.65057C28.0111 7.54815 28.0473 7.44486 28.0834 7.3413C25.3309 6.88686 22.6634 6.72034 20.1656 6.74123ZM24.7176 7.04848C24.7626 7.16376 24.8044 7.28239 24.8462 7.4011L24.8464 7.40147C24.8723 7.47517 24.8983 7.54889 24.9251 7.62187C25.061 7.6248 25.1978 7.62709 25.3346 7.62937L25.3348 7.62937C25.4038 7.63052 25.4727 7.63167 25.5415 7.63291C25.5453 7.63732 25.2055 7.88979 25.0514 8.00314C25.0791 8.08997 25.1061 8.17724 25.1331 8.26449L25.1331 8.26457L25.1333 8.26515C25.1662 8.37147 25.1991 8.47775 25.2333 8.58315C25.2273 8.57966 25.1797 8.54728 25.1137 8.50238L25.1136 8.50227L25.1133 8.5021C24.9986 8.42405 24.8285 8.30828 24.7236 8.24015C24.6557 8.28637 24.5882 8.33307 24.5207 8.37976C24.4195 8.44981 24.3183 8.51985 24.2154 8.5883C24.2255 8.55521 24.2355 8.52217 24.2456 8.48914C24.2564 8.45349 24.2673 8.41786 24.2782 8.38224L24.2782 8.38213L24.2782 8.38205L24.2782 8.38197L24.2783 8.38182C24.3162 8.25757 24.3541 8.13339 24.3913 8.00829C24.3871 8.00409 24.2945 7.93472 24.1858 7.85325L24.185 7.85266C24.0846 7.77744 23.9707 7.69203 23.8997 7.63806C24.0034 7.63546 24.1071 7.63304 24.2108 7.63063L24.2109 7.63062L24.2113 7.63061C24.3128 7.62825 24.4144 7.62588 24.5161 7.62334C24.5685 7.47812 24.6194 7.33117 24.6705 7.18415L24.6705 7.18408L24.6709 7.18305L24.6709 7.18297L24.6709 7.18286L24.6729 7.17712C24.6878 7.13423 24.7027 7.09134 24.7176 7.04848ZM26.5377 8.83636C26.5637 8.91018 26.5897 8.98407 26.6165 9.05717C26.7524 9.0601 26.8893 9.06239 27.0261 9.06467L27.0262 9.06467L27.0271 9.06469C27.0666 9.06535 27.106 9.066 27.1454 9.06668C27.1746 9.06718 27.2038 9.06769 27.233 9.06821C27.2367 9.07262 26.8969 9.32509 26.7428 9.43844C26.7706 9.52523 26.7976 9.61249 26.8245 9.6997L26.8246 9.69985C26.8575 9.80637 26.8905 9.91286 26.9248 10.0185C26.9187 10.015 26.8711 9.98253 26.805 9.93757L26.8048 9.93746C26.6901 9.85941 26.5199 9.7436 26.4151 9.67545C26.3471 9.72167 26.2796 9.76837 26.2122 9.81506L26.212 9.81519C26.1108 9.88519 26.0097 9.95519 25.9069 10.0236C25.9277 9.95478 25.9487 9.88611 25.9696 9.8175C26.0076 9.69312 26.0455 9.56882 26.0828 9.44359C26.0785 9.43939 25.9859 9.37003 25.8772 9.28855L25.877 9.2884L25.8761 9.28772C25.7758 9.21256 25.662 9.12727 25.5911 9.07336C25.695 9.07075 25.7988 9.06833 25.9028 9.06591C26.0043 9.06355 26.1058 9.06118 26.2076 9.05864C26.2598 8.9136 26.3108 8.76683 26.3617 8.62L26.3619 8.61938L26.3623 8.61847C26.3778 8.57356 26.3934 8.52865 26.4091 8.48378C26.454 8.59903 26.4958 8.71768 26.5377 8.83636ZM28.3291 10.2474C28.2873 10.1287 28.2454 10.0101 28.2005 9.89479L28.1887 9.929C28.1265 10.1098 28.0641 10.291 27.999 10.4697C27.8975 10.4722 27.7962 10.4745 27.695 10.4769L27.6942 10.4769C27.5903 10.4793 27.4864 10.4818 27.3826 10.4844C27.4537 10.5385 27.5681 10.6242 27.6687 10.6996C27.7774 10.781 27.8699 10.8504 27.8742 10.8546C27.8369 10.9798 27.799 11.1041 27.7611 11.2285L27.761 11.2286L27.7609 11.2289L27.7609 11.229L27.7606 11.23C27.7398 11.2981 27.719 11.3663 27.6983 11.4346C27.8011 11.3662 27.9024 11.2961 28.0036 11.2261C28.071 11.1794 28.1385 11.1327 28.2065 11.0865C28.3114 11.1546 28.4816 11.2704 28.5963 11.3485L28.5964 11.3485L28.5966 11.3487L28.5972 11.3491C28.6629 11.3938 28.7102 11.426 28.7162 11.4295C28.6819 11.3239 28.649 11.2174 28.616 11.1109C28.589 11.0236 28.562 10.9363 28.5343 10.8495C28.6884 10.7361 29.0282 10.4836 29.0244 10.4792C28.9556 10.478 28.8866 10.4768 28.8176 10.4757C28.6808 10.4734 28.5439 10.4711 28.408 10.4682C28.3812 10.3951 28.3551 10.3212 28.3291 10.2474ZM29.9047 11.3419C29.9497 11.4572 29.9915 11.5758 30.0333 11.6945L30.0335 11.6949C30.0594 11.7686 30.0854 11.8423 30.1122 11.9153C30.2475 11.9182 30.3839 11.9204 30.5201 11.9227L30.5203 11.9227L30.5212 11.9227L30.5214 11.9228L30.5218 11.9228L30.522 11.9228L30.5236 11.9228C30.592 11.9239 30.6604 11.9251 30.7286 11.9263C30.7324 11.9307 30.3926 12.1832 30.2385 12.2965C30.266 12.3827 30.2929 12.4694 30.3197 12.556L30.3202 12.558L30.3204 12.5585C30.3533 12.6649 30.3862 12.7711 30.4204 12.8765C30.4144 12.873 30.3667 12.8406 30.3007 12.7957L30.3005 12.7956L30.3004 12.7955C30.1857 12.7174 30.0156 12.6017 29.9107 12.5335C29.843 12.5796 29.7757 12.6261 29.7085 12.6727L29.7078 12.6732C29.6066 12.7432 29.5054 12.8132 29.4025 12.8817C29.4234 12.8129 29.4443 12.7442 29.4653 12.6756L29.4655 12.6746C29.5034 12.5506 29.5412 12.4266 29.5784 12.3017C29.5741 12.2975 29.4816 12.2281 29.3729 12.1466L29.3728 12.1465L29.3707 12.145C29.2707 12.07 29.1574 11.9852 29.0868 11.9315C29.1896 11.9289 29.2925 11.9265 29.3954 11.9241L29.3955 11.9241L29.3962 11.9241L29.3965 11.924L29.3975 11.924L29.3984 11.924C29.4999 11.9216 29.6015 11.9193 29.7032 11.9167C29.7596 11.7608 29.8145 11.6024 29.8695 11.4435L29.8724 11.4352C29.8831 11.4041 29.8939 11.373 29.9047 11.3419ZM31.7872 13.0812C31.7453 12.9625 31.7035 12.8439 31.6585 12.7286L31.6467 12.763C31.5845 12.9437 31.5221 13.1249 31.4571 13.3035C31.3553 13.306 31.2538 13.3084 31.1523 13.3107C31.0483 13.3131 30.9445 13.3156 30.8406 13.3182C30.9117 13.3722 31.0258 13.4577 31.1262 13.533L31.1269 13.5335L31.1272 13.5337L31.1277 13.5341L31.128 13.5343L31.1286 13.5348C31.2365 13.6156 31.328 13.6842 31.3323 13.6884C31.2951 13.8133 31.2572 13.9373 31.2194 14.0614L31.2191 14.0624L31.2189 14.0631L31.2188 14.0634C31.1979 14.1317 31.1771 14.2 31.1564 14.2684C31.2592 14.2 31.3604 14.1299 31.4616 14.0599C31.5291 14.0132 31.5966 13.9665 31.6646 13.9203C31.7694 13.9884 31.9397 14.1042 32.0544 14.1823L32.0545 14.1824C32.1206 14.2274 32.1682 14.2598 32.1742 14.2633C32.1399 14.1577 32.107 14.0512 32.0741 13.9447C32.0471 13.8574 32.0201 13.7701 31.9923 13.6833C32.1464 13.5699 32.4862 13.3174 32.4825 13.313C32.415 13.3118 32.3474 13.3107 32.2797 13.3095L32.2752 13.3095L32.2743 13.3094L32.2742 13.3094C32.1379 13.3072 32.0015 13.3049 31.866 13.302C31.8394 13.2294 31.8136 13.156 31.7877 13.0827L31.7876 13.0823L31.7872 13.0812ZM33.3876 14.1639C33.4325 14.2792 33.4744 14.3978 33.5162 14.5165L33.5166 14.5175L33.5166 14.5176L33.5167 14.518L33.5169 14.5184C33.5427 14.5916 33.5685 14.6648 33.5951 14.7373C33.7305 14.7402 33.8669 14.7425 34.0032 14.7447L34.0033 14.7447L34.0043 14.7448L34.2115 14.7483C34.2153 14.7527 33.8755 15.0052 33.7213 15.1186C33.7491 15.2054 33.7761 15.2927 33.8031 15.38C33.836 15.4865 33.869 15.593 33.9033 15.6986C33.8972 15.6951 33.8496 15.6626 33.7835 15.6177L33.7832 15.6175C33.6685 15.5394 33.4984 15.4237 33.3936 15.3556C33.3256 15.4018 33.2581 15.4485 33.1907 15.4952C33.0895 15.5652 32.9882 15.6353 32.8854 15.7037C32.9062 15.6351 32.927 15.5668 32.9479 15.4984L32.9481 15.4976L32.9484 15.4967L32.9487 15.4957C32.9865 15.372 33.0242 15.2483 33.0613 15.1237C33.057 15.1195 32.9655 15.0509 32.8576 14.9701L32.857 14.9696L32.8567 14.9694L32.8563 14.969L32.8559 14.9688L32.8552 14.9683C32.7548 14.893 32.6407 14.8075 32.5697 14.7535C32.6735 14.7509 32.7774 14.7484 32.8813 14.746C32.9828 14.7437 33.0844 14.7413 33.1861 14.7388C33.2511 14.5602 33.3135 14.379 33.3757 14.1984L33.3757 14.1982L33.3876 14.1639ZM21.2776 7.05364C21.3225 7.1689 21.3644 7.28753 21.4062 7.40624C21.4322 7.48005 21.4583 7.55394 21.4851 7.62702C21.621 7.62996 21.7579 7.63224 21.8947 7.63452L21.8948 7.63453C21.9638 7.63568 22.0327 7.63683 22.1015 7.63806C22.1053 7.64248 21.7655 7.89494 21.6114 8.00829C21.6391 8.09514 21.6661 8.18245 21.6931 8.26972L21.6933 8.27037C21.7262 8.37667 21.7591 8.48293 21.7933 8.5883C21.7872 8.58481 21.7396 8.55239 21.6736 8.50744C21.5589 8.42939 21.3885 8.31349 21.2836 8.2453C21.2157 8.29147 21.1483 8.3381 21.0809 8.38474L21.0807 8.38492C20.9795 8.45496 20.8783 8.525 20.7754 8.59346C20.7963 8.5246 20.8172 8.45593 20.8382 8.38729C20.8761 8.26293 20.914 8.13865 20.9513 8.01345C20.947 8.00924 20.8545 7.93989 20.7458 7.85842C20.6452 7.78306 20.5308 7.69733 20.4597 7.64321C20.5635 7.64061 20.6674 7.63819 20.7713 7.63577C20.8728 7.6334 20.9744 7.63104 21.0761 7.62849C21.1412 7.44978 21.2036 7.26846 21.2659 7.0876L21.2776 7.05364ZM23.0977 8.84154C23.0558 8.72283 23.014 8.60421 22.969 8.48894L22.9573 8.5229L22.9572 8.52323C22.895 8.70398 22.8326 8.88519 22.7676 9.06379C22.6658 9.06634 22.5642 9.0687 22.4628 9.07107C22.3588 9.07349 22.255 9.07591 22.1511 9.07851C22.2223 9.13263 22.3367 9.21838 22.4373 9.29374C22.546 9.3752 22.6385 9.44454 22.6428 9.44875C22.6056 9.57343 22.5679 9.69724 22.5301 9.82107L22.5296 9.82261L22.5295 9.82311C22.5086 9.89158 22.4877 9.96007 22.4669 10.0288C22.5697 9.9603 22.6709 9.89026 22.7721 9.82021C22.8396 9.77352 22.9071 9.72683 22.975 9.6806C23.08 9.74879 23.2503 9.86472 23.365 9.94277C23.4311 9.98771 23.4787 10.0201 23.4847 10.0236C23.4504 9.91802 23.4175 9.81156 23.3846 9.70505L23.3845 9.70497L23.3842 9.70401L23.384 9.70323C23.3572 9.61655 23.3304 9.52985 23.3028 9.4436C23.4569 9.33024 23.7967 9.07778 23.793 9.07336C23.7245 9.07213 23.6558 9.07099 23.5871 9.06984L23.5861 9.06982C23.4493 9.06754 23.3124 9.06526 23.1765 9.06232C23.1497 8.98922 23.1237 8.91537 23.0977 8.84154ZM24.7612 9.89921C24.8062 10.0145 24.848 10.1331 24.8898 10.2518L24.89 10.2522C24.916 10.3259 24.9419 10.3996 24.9687 10.4726C25.1046 10.4755 25.2416 10.4778 25.3784 10.4801C25.4474 10.4813 25.5163 10.4824 25.5851 10.4836C25.5889 10.4881 25.2491 10.7405 25.095 10.8539C25.1226 10.9404 25.1496 11.0274 25.1765 11.1144L25.1767 11.1152L25.1768 11.1153L25.1768 11.1155C25.2097 11.222 25.2426 11.3284 25.2769 11.4339C25.2709 11.4304 25.2232 11.398 25.1572 11.353L25.1571 11.353L25.1568 11.3527C25.0421 11.2747 24.872 11.159 24.7672 11.0909C24.6993 11.1371 24.6318 11.1838 24.5643 11.2305C24.4631 11.3005 24.3619 11.3706 24.259 11.439C24.2799 11.3703 24.3008 11.3017 24.3217 11.2331L24.3217 11.233L24.3218 11.233L24.3218 11.2329C24.3597 11.1085 24.3977 10.9842 24.4349 10.859C24.4307 10.8548 24.3381 10.7855 24.2294 10.704C24.1289 10.6286 24.0145 10.5429 23.9433 10.4888C24.047 10.4862 24.1507 10.4838 24.2544 10.4814L24.2545 10.4814L24.2549 10.4813L24.2579 10.4813C24.3584 10.4789 24.459 10.4766 24.5597 10.4741C24.6161 10.3181 24.671 10.1597 24.726 10.0008C24.7377 9.96696 24.7495 9.93309 24.7612 9.89921ZM26.6722 11.9204C26.6454 11.8473 26.6193 11.7735 26.5933 11.6996C26.5515 11.5809 26.5096 11.4623 26.4647 11.347L26.453 11.3809C26.3907 11.5618 26.3283 11.7432 26.2632 11.9219C26.1615 11.9244 26.0599 11.9268 25.9584 11.9292L25.9565 11.9292C25.8532 11.9316 25.75 11.934 25.6468 11.9366C25.7177 11.9905 25.8316 12.0759 25.932 12.1511L25.9329 12.1518C26.0416 12.2333 26.1341 12.3026 26.1384 12.3068C26.1012 12.4318 26.0634 12.5558 26.0255 12.6799L26.0253 12.6807L26.0252 12.6809C26.0043 12.7495 25.9833 12.8181 25.9625 12.8868C26.0653 12.8184 26.1666 12.7483 26.2678 12.6783L26.2685 12.6778C26.3357 12.6313 26.403 12.5848 26.4707 12.5387C26.5756 12.6069 26.7459 12.7228 26.8606 12.8008C26.9267 12.8458 26.9743 12.8782 26.9804 12.8817C26.9461 12.7761 26.9132 12.6696 26.8802 12.5631L26.88 12.5624C26.8531 12.4754 26.8261 12.3883 26.7985 12.3017C26.9526 12.1883 27.2924 11.9359 27.2886 11.9315C27.248 11.9307 27.2073 11.93 27.1666 11.9293C27.1383 11.9289 27.1101 11.9284 27.0818 11.9279L27.0812 11.9279L27.0807 11.9279L27.0806 11.9279L27.0805 11.9279L27.0794 11.9279C26.9434 11.9256 26.8073 11.9233 26.6722 11.9204ZM28.2193 12.733C28.2642 12.8483 28.3061 12.9669 28.3479 13.0856L28.3482 13.0864C28.3741 13.16 28.4 13.2336 28.4268 13.3064C28.5625 13.3093 28.6992 13.3116 28.8358 13.3139L28.836 13.3139L28.8364 13.3139L28.8374 13.3139L28.8377 13.3139C28.9063 13.3151 28.9748 13.3162 29.0432 13.3174C29.047 13.3219 28.7072 13.5743 28.5531 13.6877C28.5808 13.7745 28.6078 13.8618 28.6348 13.9491L28.6348 13.9492C28.6678 14.0557 28.7007 14.1621 28.735 14.2677C28.7289 14.2642 28.6813 14.2318 28.6153 14.1868L28.6149 14.1866C28.5002 14.1086 28.3301 13.9928 28.2253 13.9247C28.1573 13.9709 28.0898 14.0176 28.0223 14.0643C27.9211 14.1343 27.8199 14.2044 27.7171 14.2728C27.7295 14.2318 27.742 14.1909 27.7544 14.15C27.7629 14.1222 27.7714 14.0945 27.7798 14.0667L27.78 14.0661C27.8179 13.9419 27.8558 13.8178 27.893 13.6928C27.8887 13.6886 27.7962 13.6193 27.6875 13.5378L27.6869 13.5374C27.5865 13.4621 27.4724 13.3766 27.4014 13.3226C27.5052 13.32 27.6091 13.3176 27.713 13.3151C27.8145 13.3128 27.9161 13.3104 28.0178 13.3079C28.0742 13.152 28.1291 12.9935 28.1841 12.8346C28.1912 12.8141 28.1983 12.7934 28.2055 12.7729C28.2101 12.7596 28.2147 12.7463 28.2193 12.733ZM30.1558 14.7417C30.129 14.6686 30.103 14.5948 30.0769 14.5209L30.0769 14.5208L30.0768 14.5205C30.035 14.4019 29.9932 14.2834 29.9483 14.1683C29.9375 14.1994 29.9267 14.2306 29.9159 14.2617L29.9131 14.27C29.8581 14.4288 29.8032 14.5873 29.7468 14.7432C29.6451 14.7457 29.5435 14.7481 29.442 14.7504C29.3381 14.7529 29.2342 14.7553 29.1304 14.7579C29.2016 14.812 29.316 14.8977 29.4165 14.9731C29.5252 15.0546 29.6177 15.1239 29.622 15.1281C29.5848 15.253 29.547 15.377 29.5092 15.501L29.509 15.5015L29.5088 15.5021L29.5086 15.503C29.4877 15.5713 29.4669 15.6396 29.4461 15.7081C29.549 15.6397 29.6502 15.5696 29.7514 15.4996C29.8189 15.4529 29.8864 15.4062 29.9543 15.36C30.0592 15.4281 30.2294 15.544 30.3441 15.622L30.3443 15.6221C30.4104 15.6671 30.458 15.6995 30.464 15.703C30.4297 15.5974 30.3968 15.4909 30.3638 15.3844C30.3368 15.2971 30.3098 15.2098 30.2821 15.123C30.4362 15.0096 30.776 14.7572 30.7722 14.7527C30.704 14.7515 30.6356 14.7504 30.5672 14.7492L30.5656 14.7492L30.5654 14.7492L30.565 14.7492L30.5641 14.7492L30.564 14.7492C30.4276 14.7469 30.2912 14.7446 30.1558 14.7417ZM31.8563 15.9466C31.8823 16.0204 31.9084 16.0943 31.9352 16.1674C32.0704 16.1703 32.2067 16.1726 32.3428 16.1749L32.3439 16.1749L32.3448 16.1749L32.3449 16.1749C32.4139 16.1761 32.4828 16.1772 32.5516 16.1785C32.5554 16.1829 32.2156 16.4354 32.0615 16.5487C32.0892 16.6355 32.1162 16.7228 32.1432 16.8101L32.1433 16.8103C32.1762 16.9168 32.2091 17.0232 32.2434 17.1287C32.2374 17.1252 32.1897 17.0928 32.1237 17.0478C32.009 16.9698 31.8387 16.8539 31.7337 16.7857C31.6658 16.8319 31.5983 16.8786 31.5308 16.9253C31.4296 16.9954 31.3284 17.0654 31.2255 17.1339C31.246 17.0664 31.2665 16.9991 31.287 16.9318L31.2882 16.9278C31.3262 16.8034 31.3641 16.6791 31.4014 16.5539C31.3971 16.5497 31.3049 16.4805 31.1964 16.3992L31.1962 16.3991L31.1953 16.3984C31.0949 16.3231 30.9808 16.2376 30.9098 16.1836C31.013 16.181 31.1163 16.1786 31.2196 16.1762L31.2214 16.1762C31.3229 16.1738 31.4245 16.1714 31.5262 16.1689C31.5786 16.0237 31.6296 15.8767 31.6806 15.7296L31.7078 15.6512C31.7144 15.6322 31.7211 15.6131 31.7277 15.594C31.7726 15.7091 31.8144 15.8276 31.8561 15.9461L31.8563 15.9466ZM21.4422 10.4961C21.4154 10.4231 21.3894 10.3492 21.3634 10.2754L21.3633 10.2752C21.3215 10.1566 21.2797 10.038 21.2347 9.92276L21.2064 10.0045C21.1491 10.1699 21.092 10.3346 21.0333 10.4976C20.9315 10.5002 20.83 10.5025 20.7285 10.5049C20.6245 10.5073 20.5207 10.5097 20.4168 10.5123C20.488 10.5665 20.6024 10.6522 20.703 10.7276C20.8117 10.809 20.9042 10.8784 20.9085 10.8826C20.8712 11.0078 20.8332 11.1321 20.7953 11.2565L20.7952 11.2567L20.7951 11.2572C20.7742 11.3256 20.7533 11.394 20.7326 11.4626C20.8354 11.3942 20.9365 11.3242 21.0377 11.2542L21.0378 11.2541C21.1053 11.2074 21.1728 11.1607 21.2408 11.1144C21.3456 11.1826 21.5158 11.2984 21.6305 11.3764L21.6306 11.3765L21.6307 11.3766L21.6308 11.3766C21.6968 11.4216 21.7444 11.4539 21.7504 11.4574C21.7161 11.3518 21.6832 11.2453 21.6503 11.1388L21.6502 11.1387C21.6232 11.0515 21.5963 10.9642 21.5685 10.8774C21.7226 10.7641 22.0624 10.5116 22.0587 10.5072C21.9899 10.506 21.9209 10.5048 21.8519 10.5037C21.7151 10.5014 21.5782 10.4991 21.4422 10.4961ZM22.9382 11.3706C22.9832 11.4858 23.025 11.6045 23.0668 11.7232L23.0669 11.7235L23.067 11.7236C23.093 11.7973 23.1189 11.871 23.1457 11.944C23.2811 11.9469 23.4175 11.9492 23.5537 11.9514L23.5545 11.9515H23.5549L23.5553 11.9515L23.5556 11.9515L23.5558 11.9515C23.6247 11.9526 23.6935 11.9538 23.7621 11.955C23.7659 11.9594 23.4261 12.2119 23.272 12.3252C23.2997 12.4119 23.3266 12.4989 23.3535 12.586L23.3537 12.5867C23.3867 12.6932 23.4196 12.7997 23.4539 12.9052C23.4479 12.9018 23.4003 12.8694 23.3343 12.8245L23.3342 12.8244L23.334 12.8243C23.2193 12.7462 23.0491 12.6304 22.9442 12.5622C22.8764 12.6084 22.8091 12.6549 22.7418 12.7015L22.7413 12.7019C22.6401 12.7719 22.5389 12.8419 22.436 12.9104C22.4567 12.8421 22.4775 12.7739 22.4983 12.7058L22.4988 12.7044C22.5367 12.58 22.5746 12.4556 22.6119 12.3304C22.6077 12.3262 22.5154 12.257 22.4069 12.1757L22.4064 12.1754C22.3059 12.1 22.1915 12.0143 22.1203 11.9602C22.2239 11.9576 22.3274 11.9551 22.4311 11.9527L22.432 11.9527C22.5334 11.9503 22.635 11.948 22.7367 11.9454C22.8018 11.7668 22.8642 11.5856 22.9264 11.4048L22.9382 11.3706ZM24.8207 13.1092C24.7788 12.9905 24.737 12.8718 24.692 12.7566L24.6802 12.7909L24.6802 12.791L24.6801 12.7913L24.68 12.7914C24.6179 12.972 24.5556 13.153 24.4906 13.3314C24.3888 13.334 24.2873 13.3363 24.1858 13.3387L24.1849 13.3387L24.1848 13.3387C24.0812 13.3411 23.9777 13.3435 23.8741 13.3461C23.9453 13.4003 24.0597 13.486 24.1603 13.5614L24.1603 13.5614C24.269 13.6429 24.3615 13.7122 24.3658 13.7164C24.3285 13.8414 24.2907 13.9655 24.2528 14.0897L24.2528 14.0898L24.2527 14.0899L24.2526 14.0903L24.2525 14.0907L24.2525 14.0908L24.2523 14.0913C24.2315 14.1596 24.2106 14.2279 24.1899 14.2964C24.2927 14.2279 24.3939 14.1579 24.4951 14.0879L24.4952 14.0878C24.5627 14.0411 24.6301 13.9944 24.6981 13.9482C24.803 14.0164 24.9732 14.1323 25.0879 14.2103L25.0881 14.2104L25.0881 14.2104C25.1541 14.2554 25.2017 14.2877 25.2078 14.2912C25.1735 14.1856 25.1405 14.0791 25.1076 13.9726C25.0806 13.8854 25.0536 13.7981 25.0258 13.7112C25.1799 13.5979 25.5197 13.3454 25.516 13.341C25.4473 13.3398 25.3785 13.3386 25.3097 13.3375L25.3091 13.3375L25.3087 13.3374C25.172 13.3352 25.0353 13.3329 24.8995 13.3299C24.8728 13.257 24.8468 13.1833 24.8208 13.1096L24.8207 13.1092ZM26.4218 14.1919C26.4668 14.3071 26.5086 14.4258 26.5505 14.5445C26.5765 14.6183 26.6025 14.6922 26.6293 14.7653C26.765 14.7682 26.9018 14.7705 27.0383 14.7727L27.0385 14.7727L27.0389 14.7728L27.04 14.7728L27.0402 14.7728L27.0419 14.7728C27.1099 14.7739 27.1779 14.7751 27.2458 14.7763C27.2495 14.7807 26.9097 15.0332 26.7556 15.1465C26.7834 15.2333 26.8104 15.3207 26.8374 15.4079L26.8376 15.4088L26.8377 15.409C26.8705 15.5151 26.9033 15.6213 26.9375 15.7265C26.9315 15.723 26.8839 15.6906 26.8178 15.6457C26.7031 15.5676 26.5328 15.4517 26.4278 15.3835C26.36 15.4297 26.2927 15.4763 26.2253 15.5229L26.2249 15.5232L26.2247 15.5233C26.1236 15.5933 26.0224 15.6633 25.9197 15.7317C25.9403 15.6636 25.961 15.5957 25.9817 15.5279L25.9824 15.5256L25.9825 15.5251C26.0204 15.4009 26.0583 15.2768 26.0956 15.1517C26.0913 15.1475 25.9987 15.0781 25.89 14.9967L25.8887 14.9957C25.7885 14.9206 25.6748 14.8353 25.6039 14.7814C25.7072 14.7788 25.8104 14.7764 25.9137 14.774L25.9142 14.774L25.9146 14.774H25.9147L25.9156 14.774C26.017 14.7716 26.1186 14.7693 26.2204 14.7667C26.2726 14.6217 26.3236 14.4749 26.3745 14.328L26.3747 14.3275C26.3904 14.2823 26.4061 14.237 26.4218 14.1919ZM28.3291 15.9702C28.2873 15.8515 28.2454 15.7329 28.2005 15.6176L28.1887 15.6518C28.1265 15.8326 28.0641 16.0138 27.999 16.1925C27.8973 16.195 27.7957 16.1974 27.6942 16.1997L27.6924 16.1998C27.5891 16.2022 27.4858 16.2046 27.3826 16.2072C27.4535 16.2611 27.5673 16.3464 27.6676 16.4216L27.6684 16.4222L27.6687 16.4224L27.6688 16.4225L27.6699 16.4233C27.7781 16.5044 27.8699 16.5732 27.8742 16.5774C27.8369 16.7027 27.799 16.827 27.761 16.9514L27.7608 16.9522C27.7399 17.0205 27.7191 17.0889 27.6983 17.1574C27.8011 17.089 27.9023 17.019 28.0035 16.949L28.0036 16.9489C28.0711 16.9022 28.1385 16.8555 28.2065 16.8093C28.3114 16.8774 28.4817 16.9933 28.5964 17.0714L28.5966 17.0715C28.6626 17.1164 28.7101 17.1488 28.7162 17.1523C28.6819 17.0467 28.649 16.9403 28.6161 16.8338L28.616 16.8338L28.616 16.8337C28.589 16.7464 28.562 16.6591 28.5343 16.5723C28.6884 16.4589 29.0282 16.2064 29.0244 16.202C28.956 16.2008 28.8875 16.1997 28.8189 16.1985L28.8186 16.1985L28.8184 16.1985L28.8178 16.1985L28.8176 16.1985L28.8171 16.1985C28.6805 16.1962 28.5437 16.1939 28.408 16.191C28.3812 16.1179 28.3551 16.044 28.3291 15.9702ZM21.2776 12.733C21.3225 12.8483 21.3644 12.9669 21.4062 13.0856C21.4322 13.1594 21.4583 13.2333 21.4851 13.3064C21.6207 13.3093 21.7574 13.3116 21.8939 13.3139L21.8942 13.3139L21.8943 13.3139L21.8947 13.3139L21.8949 13.3139L21.8966 13.3139C21.965 13.3151 22.0333 13.3162 22.1015 13.3174C22.1053 13.3219 21.7655 13.5743 21.6114 13.6877C21.639 13.7742 21.6659 13.8611 21.6928 13.948L21.693 13.9488L21.6931 13.949L21.6931 13.9491L21.6932 13.9493C21.7261 14.0557 21.759 14.1622 21.7933 14.2677C21.7872 14.2642 21.7396 14.2317 21.6735 14.1868L21.6733 14.1867L21.6732 14.1866C21.5585 14.1085 21.3884 13.9928 21.2836 13.9247C21.2157 13.9709 21.1482 14.0175 21.0808 14.0642L21.0807 14.0643C20.9795 14.1343 20.8783 14.2044 20.7754 14.2728C20.7962 14.2043 20.817 14.1359 20.8379 14.0676L20.838 14.0671L20.8381 14.0669L20.8382 14.0667C20.8761 13.9423 20.914 13.818 20.9513 13.6928C20.947 13.6886 20.8546 13.6193 20.7459 13.5379L20.7458 13.5378C20.6452 13.4624 20.5308 13.3767 20.4597 13.3226C20.5635 13.32 20.6674 13.3176 20.7713 13.3151C20.8728 13.3128 20.9744 13.3104 21.0761 13.3079C21.1453 13.1187 21.2114 12.9259 21.2776 12.733ZM23.136 14.5209C23.0941 14.4022 23.0523 14.2836 23.0074 14.1683C22.9956 14.2022 22.9839 14.2361 22.9722 14.27C22.9171 14.4288 22.8623 14.5872 22.8059 14.7432C22.7042 14.7457 22.6026 14.7481 22.5011 14.7504C22.3972 14.7529 22.2933 14.7553 22.1895 14.7579C22.2604 14.8118 22.3743 14.8972 22.4746 14.9724L22.4751 14.9728L22.4754 14.973L22.4756 14.9731L22.4759 14.9733L22.4761 14.9735C22.5846 15.0548 22.6768 15.1239 22.6811 15.1281C22.6438 15.2534 22.6059 15.3777 22.5679 15.5021L22.5678 15.5023C22.5469 15.5708 22.526 15.6394 22.5052 15.7081C22.608 15.6397 22.7092 15.5697 22.8103 15.4997L22.8105 15.4996C22.8779 15.4529 22.9454 15.4062 23.0134 15.36C23.1182 15.4281 23.2883 15.5438 23.403 15.6219L23.4034 15.6221L23.4035 15.6222C23.4695 15.6671 23.517 15.6995 23.5231 15.703C23.4888 15.5974 23.4558 15.4909 23.4229 15.3844C23.3959 15.2971 23.3689 15.2098 23.3411 15.123C23.4953 15.0096 23.8351 14.7572 23.8313 14.7527C23.7626 14.7515 23.6938 14.7504 23.625 14.7492L23.6245 14.7492L23.624 14.7492C23.4874 14.7469 23.3506 14.7446 23.2149 14.7417C23.1881 14.6686 23.162 14.5947 23.136 14.5209ZM24.786 15.594C24.831 15.7093 24.8728 15.828 24.9146 15.9467L24.9148 15.9472C24.9408 16.0208 24.9668 16.0945 24.9935 16.1674C25.1289 16.1704 25.2652 16.1726 25.4015 16.1749L25.4027 16.1749L25.4032 16.1749C25.4722 16.1761 25.5412 16.1772 25.6099 16.1785C25.6137 16.1829 25.2739 16.4354 25.1198 16.5487C25.1475 16.6355 25.1745 16.7227 25.2015 16.81L25.2015 16.8101C25.2345 16.9166 25.2674 17.0231 25.3017 17.1287C25.2957 17.1252 25.2484 17.0931 25.1828 17.0484L25.182 17.0479L25.1819 17.0478C25.0672 16.9698 24.897 16.8539 24.792 16.7857C24.7242 16.8318 24.6569 16.8784 24.5896 16.925L24.5891 16.9253C24.4879 16.9954 24.3867 17.0654 24.2838 17.1339C24.3046 17.0653 24.3255 16.9969 24.3463 16.9285L24.3465 16.928L24.3466 16.9279C24.3845 16.8034 24.4224 16.6791 24.4598 16.5539C24.4555 16.5497 24.3632 16.4805 24.2548 16.3992L24.2543 16.3989L24.2543 16.3989L24.2535 16.3983C24.1531 16.323 24.0391 16.2376 23.9681 16.1836C24.0123 16.1825 24.0566 16.1814 24.1008 16.1804C24.1598 16.179 24.2189 16.1776 24.278 16.1762L24.2798 16.1762C24.3812 16.1738 24.4828 16.1714 24.5845 16.1689C24.6495 15.9904 24.7119 15.8093 24.7741 15.6287L24.7742 15.6285L24.7742 15.6283L24.786 15.594ZM21.4422 16.191C21.4154 16.1179 21.3894 16.044 21.3634 15.9702C21.3215 15.8515 21.2797 15.7329 21.2347 15.6176C21.2191 15.6626 21.2034 15.7077 21.1878 15.7527L21.1876 15.7533C21.1366 15.9003 21.0856 16.0472 21.0333 16.1925C20.9315 16.195 20.83 16.1974 20.7285 16.1997L20.7267 16.1998C20.6233 16.2022 20.5201 16.2046 20.4168 16.2072C20.4879 16.2612 20.6021 16.3468 20.7025 16.4221L20.703 16.4224L20.7037 16.4229C20.812 16.5042 20.9042 16.5732 20.9085 16.5774C20.8713 16.7024 20.8334 16.8264 20.7955 16.9505L20.7952 16.9517L20.7951 16.9519L20.7951 16.952L20.7948 16.9529C20.774 17.021 20.7533 17.0891 20.7326 17.1574C20.8354 17.089 20.9366 17.0189 21.0378 16.9489L21.0378 16.9489L21.0381 16.9487L21.0384 16.9485L21.0385 16.9484L21.0388 16.9482C21.1059 16.9018 21.1731 16.8553 21.2408 16.8093C21.3457 16.8774 21.5159 16.9933 21.6306 17.0713L21.6307 17.0714L21.6314 17.0719L21.6316 17.072L21.6325 17.0726L21.6333 17.0731L21.6334 17.0733C21.6981 17.1173 21.7445 17.1488 21.7504 17.1523C21.7162 17.0467 21.6832 16.9402 21.6503 16.8338L21.6503 16.8337C21.6233 16.7464 21.5963 16.6591 21.5685 16.5723C21.7226 16.4589 22.0624 16.2064 22.0587 16.202C21.9899 16.2008 21.921 16.1996 21.8521 16.1985L21.8518 16.1985L21.8514 16.1985L21.8513 16.1985C21.7147 16.1962 21.578 16.1939 21.4422 16.191ZM30.0078 8.87553L30.0078 8.87542L30.0077 8.87531C29.9659 8.75663 29.9241 8.63803 29.8791 8.52279L29.8791 8.52295C29.813 8.71574 29.7468 8.90854 29.6777 9.09765C29.5759 9.1002 29.4744 9.10256 29.3729 9.10492C29.2689 9.10735 29.1651 9.10976 29.0612 9.11237C29.1324 9.16649 29.2469 9.25227 29.3474 9.32763L29.3476 9.32774L29.3477 9.32787C29.4563 9.40921 29.5486 9.4784 29.5529 9.4826C29.5156 9.60785 29.4776 9.73217 29.4397 9.85656L29.4396 9.85678C29.4187 9.92532 29.3978 9.99387 29.377 10.0626C29.4797 9.99422 29.5809 9.92424 29.682 9.85426L29.6822 9.85408L29.6825 9.85389C29.7499 9.80726 29.8173 9.76062 29.8852 9.71446C29.9901 9.78262 30.1603 9.89849 30.275 9.97654L30.2752 9.97664C30.3412 10.0216 30.3888 10.054 30.3948 10.0575C30.3606 9.95198 30.3277 9.84561 30.2948 9.73921L30.2947 9.73907L30.2947 9.73884L30.2946 9.73858C30.2676 9.6514 30.2406 9.5642 30.2129 9.47745C30.367 9.3641 30.7068 9.11164 30.7031 9.10722C30.6343 9.10599 30.5653 9.10484 30.4964 9.10368C30.3595 9.1014 30.2226 9.09911 30.0866 9.09618C30.0599 9.02323 30.0339 8.94953 30.0079 8.87586L30.0078 8.87553ZM31.6337 9.90952C31.6787 10.0248 31.7205 10.1434 31.7624 10.2622L31.7624 10.2623C31.7884 10.336 31.8144 10.4099 31.8412 10.4829C31.9772 10.4858 32.1141 10.4881 32.251 10.4904L32.2531 10.4904C32.3213 10.4916 32.3896 10.4927 32.4577 10.4939C32.4614 10.4984 32.1216 10.7508 31.9675 10.8642C31.9952 10.9507 32.0221 11.0378 32.049 11.1248L32.0492 11.1253L32.0493 11.1256L32.0493 11.1258C32.0822 11.2323 32.1152 11.3387 32.1494 11.4442C32.1434 11.4407 32.0962 11.4086 32.0306 11.3639L32.0302 11.3636L32.0301 11.3636L32.0297 11.3633C31.915 11.2853 31.7447 11.1694 31.6397 11.1012C31.5721 11.1472 31.505 11.1937 31.4378 11.2401L31.4368 11.2408C31.3356 11.3108 31.2344 11.3809 31.1316 11.4493C31.1524 11.3805 31.1733 11.3119 31.1943 11.2433L31.1943 11.2432L31.1946 11.2421C31.2325 11.1181 31.2703 10.9942 31.3075 10.8693C31.3032 10.8651 31.2106 10.7958 31.1019 10.7143L31.1016 10.714L31.1006 10.7133C31.0004 10.6382 30.8867 10.553 30.8158 10.4991C30.9197 10.4965 31.0235 10.4941 31.1275 10.4916L31.129 10.4916C31.23 10.4893 31.331 10.4869 31.4323 10.4844C31.4846 10.3391 31.5356 10.1922 31.5866 10.0451L31.5868 10.0445L31.587 10.044C31.5966 10.0163 31.6062 9.98862 31.6158 9.96095C31.6218 9.9438 31.6278 9.92665 31.6337 9.90952ZM33.4914 11.6975C33.4495 11.5787 33.4077 11.4601 33.3628 11.3448C33.3553 11.3663 33.3478 11.3878 33.3404 11.4092C33.3323 11.4324 33.3243 11.4556 33.3162 11.4788L33.3156 11.4804C33.2646 11.6275 33.2136 11.7744 33.1613 11.9197C33.0595 11.9222 32.958 11.9246 32.8565 11.9269L32.8547 11.927C32.7513 11.9294 32.6481 11.9318 32.5449 11.9344C32.6158 11.9884 32.7298 12.0738 32.8302 12.149L32.8306 12.1493L32.8309 12.1496C32.9397 12.2311 33.0322 12.3004 33.0365 12.3046C32.9992 12.4298 32.9613 12.5541 32.9233 12.6785L32.9233 12.6786L32.9231 12.6793L32.923 12.6796C32.9022 12.7479 32.8813 12.8162 32.8606 12.8846C32.9634 12.8162 33.0647 12.7461 33.1659 12.6761C33.2333 12.6294 33.3008 12.5827 33.3688 12.5365C33.4737 12.6046 33.6439 12.7205 33.7586 12.7985L33.7587 12.7986C33.8248 12.8436 33.8724 12.876 33.8785 12.8795C33.8442 12.7739 33.8112 12.6674 33.7783 12.5609L33.7783 12.5608L33.778 12.5601C33.7511 12.4731 33.7242 12.3861 33.6965 12.2995C33.8506 12.1861 34.1904 11.9337 34.1867 11.9292C34.1395 11.9284 34.0922 11.9276 34.0449 11.9268L33.9799 11.9257L33.9796 11.9257L33.9785 11.9257C33.8422 11.9234 33.7057 11.9211 33.5702 11.9182C33.5435 11.8452 33.5174 11.7713 33.4914 11.6976L33.4914 11.6975ZM35.2707 13.1223L35.2708 13.1224C35.2968 13.1962 35.3228 13.2701 35.3496 13.3432C35.4854 13.3461 35.6221 13.3484 35.7587 13.3507L35.7588 13.3507L35.7593 13.3507L35.7595 13.3507L35.7611 13.3507C35.8295 13.3519 35.8979 13.353 35.9661 13.3542C35.9698 13.3587 35.63 13.6111 35.4759 13.7245C35.5037 13.8113 35.5307 13.8986 35.5577 13.9859C35.5906 14.0924 35.6236 14.1989 35.6579 14.3045C35.6518 14.301 35.6042 14.2686 35.5381 14.2236C35.4234 14.1456 35.2531 14.0297 35.1482 13.9615C35.0802 14.0077 35.0127 14.0544 34.9453 14.1011C34.844 14.1711 34.7428 14.2412 34.64 14.3096C34.6608 14.2411 34.6816 14.1727 34.7025 14.1043L34.7027 14.1036L34.7027 14.1034L34.703 14.1025C34.7409 13.9785 34.7787 13.8545 34.8159 13.7296C34.8116 13.7254 34.7198 13.6566 34.6116 13.5755L34.6113 13.5753L34.6108 13.575L34.6105 13.5747L34.6104 13.5746C34.5098 13.4992 34.3954 13.4135 34.3243 13.3594C34.4281 13.3568 34.532 13.3544 34.6359 13.3519C34.7374 13.3496 34.8389 13.3472 34.9407 13.3447C34.9971 13.1888 35.0519 13.0304 35.1069 12.8715L35.107 12.8714L35.1422 12.7698C35.1871 12.885 35.2289 13.0036 35.2707 13.1222L35.2707 13.1223ZM35.2707 10.2752L35.2708 10.2753C35.2968 10.3492 35.3228 10.4231 35.3496 10.4961C35.4856 10.4991 35.6225 10.5014 35.7593 10.5037L35.761 10.5037C35.8294 10.5048 35.8978 10.506 35.9661 10.5072C35.9698 10.5116 35.63 10.7641 35.4759 10.8774C35.5037 10.9642 35.5307 11.0515 35.5577 11.1387L35.5577 11.1389L35.5578 11.1391C35.5907 11.2455 35.6236 11.3519 35.6579 11.4574C35.6518 11.4539 35.6042 11.4215 35.5381 11.3766C35.4234 11.2985 35.2531 11.1826 35.1482 11.1144C35.0803 11.1606 35.0129 11.2072 34.9455 11.2538L34.9453 11.254C34.844 11.3241 34.7428 11.3941 34.64 11.4626C34.6608 11.394 34.6816 11.3257 34.7025 11.2574L34.7027 11.2565C34.7407 11.1321 34.7786 11.0078 34.8159 10.8826C34.8116 10.8784 34.7194 10.8093 34.6109 10.728L34.6104 10.7276L34.6104 10.7276C34.5098 10.6522 34.3954 10.5665 34.3243 10.5123C34.4281 10.5097 34.532 10.5073 34.6359 10.5049C34.7374 10.5025 34.8389 10.5002 34.9407 10.4976C34.9994 10.3346 35.0565 10.1699 35.1138 10.0046L35.1138 10.0045L35.1422 9.92276C35.1871 10.038 35.2289 10.1566 35.2707 10.2752Z" fill="#003976"/>
</g>
<path fill-rule="evenodd" clip-rule="evenodd" d="M77.6795 27.268L77.6795 27.2681L77.6793 27.2685C77.2835 28.2627 76.7774 29.534 75.9967 31.4768H73.9807L84.1258 8.45776L84.1341 8.43898C84.2588 8.15654 84.3279 8 84.6461 8C84.8737 8 85.1013 8.22888 85.2639 8.58855L95.0188 31.4768H90.6941L90.1497 30.1446C88.6762 26.5387 88.3451 25.7285 87.41 23.4659H79.2158C78.5988 24.9588 78.2562 25.8194 77.6795 27.268ZM86.7596 21.831L83.8982 14.8992C83.7356 14.4741 83.5405 14.2779 83.4104 14.2779C83.2479 14.2779 83.0528 14.4414 82.9227 14.7684L79.9312 21.831H86.7596ZM51.7069 31.4768V13.9836C51.7069 12.3814 51.6744 11.4005 50.8289 10.6158C50.2751 10.1207 49.6121 10.0209 49.0672 9.93892C48.4603 9.84758 48 9.77829 48 9.20979C48 8.78472 48.2926 8.52314 48.8454 8.52314H54.7309C55.0886 8.52314 55.6414 8.71933 55.6414 9.43867V18.3324H66.697V8.52314H70.599V31.4768H66.697V20.1634H55.6414V31.4768H51.7069ZM108.383 30.0054C106.042 30.0054 104.189 28.9264 103.115 26.9973C102.238 25.4278 102.205 23.5313 102.205 21.1444V9.43873C102.205 8.71938 101.652 8.5232 101.295 8.5232H95.4416C94.8888 8.5232 94.6287 8.81747 94.6287 9.20984C94.6287 9.79638 95.1187 9.86119 95.754 9.94522C96.2875 10.0158 96.9234 10.0999 97.4576 10.5177C98.3356 11.2044 98.3356 12.1526 98.3356 13.9837V21.0136C98.3356 28.3706 100.547 32 107.115 32C113.716 32 117 28.0763 117 20.2289V8.5232H115.342V20.0654C115.342 23.564 115.082 26.0163 113.586 27.782C112.383 29.2207 110.529 30.0054 108.383 30.0054Z" fill="black"/>
<defs>
<clipPath id="clip0">
<path d="M0 0H40V40H0V0Z" fill="white"/>
</clipPath>
</defs>
</svg>
